<svg xmlns="http://www.w3.org/2000/svg" xmlns:xlink="http://www.w3.org/1999/xlink" fill="none" version="1.1" width="24" height="24" viewBox="0 0 24 24"><defs><clipPath id="master_svg0_159_01013"><rect x="0" y="0" width="24" height="24" rx="0"/></clipPath><clipPath id="master_svg1_159_00904"><rect x="2.7734375" y="1.072265625" width="18.45318603515625" height="21.856082916259766" rx="0"/></clipPath></defs><g clip-path="url(#master_svg0_159_01013)"><g clip-path="url(#master_svg1_159_00904)"><path d="M8.816365717037353,2.2875471731118777C8.862202197037353,2.286631823111877,8.906848667037353,2.2727914431118776,8.945165787037354,2.2476190931118776C9.515750107037354,1.8766749231118776,10.398030307037354,1.9900189931118775,10.556454907037354,2.1909471131118776C10.630604007037354,2.3224974231118773,10.804311707037353,2.3574545431118774,10.923575207037354,2.2648269531118776C11.042838307037353,2.1721991931118776,11.051960507037354,1.9952438131118775,10.942855107037353,1.8908430031118775C10.577062807037354,1.4117067601118773,9.366342547037354,1.3756427431118774,8.670821987037353,1.8341709631118774C8.580141524037353,1.8943175931118774,8.539431617037353,2.006670653111877,8.570535959037354,2.1109448031118774C8.601640794037353,2.2152188431118773,8.697249817037353,2.2869085631118775,8.806061957037354,2.2875471731118777L8.816365717037353,2.2875471731118777Z" fill="#262A38" fill-opacity="1" style="mix-blend-mode:passthrough"/><path d="M12.410335702037354,2.0213695731118775C12.475354822037353,2.0215327731118773,12.537822932037354,1.9960830231118774,12.584215612037353,1.9505295131118774C13.027288142037353,1.5100333731118774,13.850320432037353,1.4894253331118774,14.029352432037353,1.6658814531118775C14.128515332037354,1.7511100731118776,14.276888132037353,1.7444152831118775,14.367971432037354,1.6506025831118776C14.459054932037354,1.5567901731118774,14.461367132037353,1.4082842731118774,14.373248332037353,1.3116812731118774C13.979120532037353,0.9252810631118774,12.844392302037354,0.9974090901118774,12.236455820037353,1.5989054431118774C12.165638975637354,1.6694763931118775,12.144281702037354,1.7757453931118774,12.182333497037353,1.8681973831118774C12.220384311037353,1.9606491931118775,12.310360212037354,2.0210946831118775,12.410335702037354,2.0213695731118775Z" fill="#262A38" fill-opacity="1" style="mix-blend-mode:passthrough"/><path d="M19.300496307037353,10.414431238111877C19.29666230703735,10.413756038111877,19.29273930703735,10.413756038111877,19.288904307037356,10.414431238111877C19.442139307037355,10.201094238111878,19.504233307037353,9.935571838111876,19.461497307037355,9.676406538111877C19.420817307037353,9.425803738111878,19.28170730703735,9.201838638111877,19.07509530703735,9.054301838111877L19.064792307037354,9.047862138111878C19.217501307037352,8.834791738111878,19.279137307037352,8.569709438111877,19.236096307037354,8.311125438111876C19.195281307037355,8.060574638111877,19.056202307037353,7.836657638111878,18.849695307037354,7.689021238111877C18.66258630703735,7.557654938111877,18.430505307037354,7.507061138111878,18.205695307037352,7.5486294381118775L18.100080307037352,7.569237338111877C17.366508307037353,6.286505338111878,16.262561307037352,5.255286138111877,14.932885307037354,4.610700638111878C14.596717307037354,3.4514999981118777,13.999085307037353,2.6851396225118775,13.304853007037353,2.6851396225118775C12.789652307037354,2.6851396225118775,12.319531907037353,3.1114678981118775,11.976924407037354,3.8147163381118774C11.794028807037353,3.8018363381118774,11.608556307037354,3.7953964381118777,11.423083807037354,3.7953964381118777L11.281404007037352,3.7953964381118777C10.938795107037354,3.1011641281118774,10.477691607037354,2.6838518381118774,9.962491507037353,2.6838518381118774C9.318491007037354,2.6838518381118774,8.747906707037354,3.3484602581118774,8.402722807037353,4.386588738111877C7.175999407037354,4.886399138111877,6.103624307037354,5.702345938111877,5.2947760070373535,6.751357638111878L5.2806079070373535,6.751357638111878C5.057580507037354,6.6763266381118775,4.813507407037354,6.696355938111878,4.605695607037354,6.806741838111877C4.379811507037354,6.928562238111877,4.212972167037353,7.136763238111877,4.143303457037353,7.383765838111877C4.069412347037353,7.640977538111877,4.101895747037354,7.917086738111878,4.233463467037353,8.150126538111877L4.216719447037353,8.159142138111878C3.9911110370373537,8.280353638111878,3.8246154770373533,8.488240838111878,3.7556152370373534,8.734878638111876C3.6792163570373537,8.993871838111877,3.7112917570373534,9.272789138111879,3.8444871870373536,9.507679538111876L3.8277431770373536,9.516695638111877C3.6046174170373533,9.635019438111877,3.4381118070373535,9.837701438111878,3.3653510060373537,10.079551338111877C3.2289464250373534,10.544179538111877,3.4551757570373534,11.038369738111877,3.8960071770373537,11.238752038111878C4.060871367037354,14.060760838111877,5.992872207037354,16.443561838111876,8.664185507037352,17.430170838111877L8.671914107037352,17.310386838111878C8.686850107037355,17.07730983811188,8.880144107037353,16.89584983811188,9.113698507037354,16.895650838111877L10.570426907037353,16.895650838111877C10.758596907037354,16.89614783811188,10.925927207037354,17.015447838111875,10.987739107037353,17.193178838111876L11.245338907037354,17.917034838111878L11.426948107037353,17.917034838111878C11.618859807037353,17.917034838111878,11.813347307037354,17.917034838111878,11.997532407037353,17.89642683811188L12.237100107037353,17.193178838111876C12.297854907037353,17.01373783811188,12.466253807037354,16.893008838111875,12.655700207037354,16.893073838111878L14.107276307037354,16.893073838111878C14.329983307037354,16.893185838111876,14.517999307037353,17.05859483811188,14.546485307037354,17.279473838111876C16.743814307037354,16.339232838111876,18.37699930703735,14.435568838111877,18.830375307037354,12.149366938111877L18.97076630703735,12.121031438111878C19.334889307037354,12.031798938111878,19.613539307037353,11.738423938111877,19.683916307037354,11.370190238111878C19.754294307037352,11.001956538111877,19.603472307037354,10.626500738111877,19.297918307037353,10.409278038111879L19.300496307037353,10.414431238111877ZM17.307958307037353,8.218390138111879L17.408422307037355,8.199070138111878L18.286838307037353,8.027766338111878C18.30011830703735,8.026497938111877,18.313487307037356,8.026497938111877,18.326766307037353,8.027766338111878L18.352525307037354,8.027766338111878C18.427795307037353,8.027553238111878,18.501229307037356,8.050980238111878,18.562469307037354,8.094742438111878C18.65829430703735,8.164707338111878,18.723365307037355,8.269004438111878,18.744079307037353,8.385830038111877C18.767846307037352,8.530182438111877,18.72579530703735,8.677597638111877,18.629446307037355,8.787686438111876C18.574260307037353,8.849513138111877,18.500657307037354,8.891959338111878,18.419503307037353,8.908758238111878L17.76262330703735,9.037558238111878L17.42645530703735,9.103245838111878C17.335560307037355,9.114675138111878,17.243676307037354,9.091704438111877,17.168854307037353,9.038846138111879C17.069723307037354,8.968894638111877,17.003614307037353,8.861352038111878,16.985958307037354,8.741317838111877C16.939607307037356,8.509547838111878,17.080135307037352,8.281331638111878,17.307958307037353,8.218390138111879ZM4.617287607037353,7.512566238111877C4.649818207037353,7.396504038111877,4.727848007037354,7.298502538111878,4.833671807037353,7.240797638111878C4.878115107037353,7.2174788381118775,4.9266757070373535,7.203042138111877,4.976639907037353,7.198293338111878C4.986906507037354,7.197053038111878,4.997285207037353,7.197053038111878,5.007551907037353,7.198293338111878C5.047048907037354,7.1988817381118775,5.086192207037353,7.205840238111877,5.123471807037354,7.218901238111878L5.880816507037354,7.476501538111878L6.090760507037354,7.546054038111877C6.319167407037353,7.639741538111878,6.4378147070373535,7.892706038111878,6.363816707037353,8.128230238111877C6.332432307037354,8.245901738111877,6.253599207037354,8.345259338111877,6.146144407037354,8.402574138111877C6.058293107037354,8.451195838111877,5.954021007037353,8.460547138111878,5.858920307037353,8.428334338111878L5.400392307037354,8.275062638111876L4.8851919070373535,8.103758438111878C4.755331007037354,8.057448938111877,4.655648807037354,7.951536738111877,4.617287907037354,7.819110038111877C4.586184507037354,7.719296138111877,4.586184507037354,7.612380638111877,4.617287607037353,7.512566238111877ZM4.230887417037353,8.861102738111878C4.2639869470373535,8.745656638111878,4.341907107037354,8.648256438111877,4.4472716070373535,8.590622538111877C4.500277507037353,8.561442938111878,4.559395307037353,8.545119438111877,4.619863607037353,8.542966438111877C4.658952007037353,8.543439038111877,4.697690207037353,8.550403238111876,4.734495807037353,8.563574438111878L5.198175907037354,8.718134538111878L5.703072107037354,8.886862838111877L5.999312207037354,8.986038838111877C6.018305107037353,8.992431738111877,6.0368140070373535,9.000179438111878,6.054696307037354,9.009223138111878C6.2493899070373535,9.123962038111877,6.339534307037353,9.357591238111876,6.272368407037353,9.573367238111878C6.240152107037353,9.690617638111878,6.1615524070373535,9.789680638111879,6.054696307037354,9.847710738111878C5.975990507037354,9.890730038111878,5.883745207037354,9.901798838111876,5.797096207037354,9.878622638111878C5.7889829070373535,9.879820438111878,5.780737407037353,9.879820438111878,5.772624007037353,9.878622638111878L5.4750960070373536,9.779446738111877L4.9341357070373535,9.597838538111876L4.501367607037354,9.444566838111879C4.275187607037354,9.350022438111878,4.157630977037353,9.099309538111878,4.229599477037354,8.864966538111878L4.230887417037353,8.861102738111878ZM5.587152207037354,10.824015238111878C5.5549357070373535,10.941266638111877,5.476336207037353,11.040329538111877,5.369479907037354,11.098359738111878C5.281261107037354,11.145766838111877,5.177502607037353,11.155072838111877,5.082256007037353,11.124118438111877L4.791167707037354,11.026230438111877L4.113679347037354,10.798254638111878C4.019276557037354,10.765664738111877,3.9400338570373536,10.699705738111877,3.8908553170373534,10.612782638111877C3.8208825870373535,10.493345338111878,3.8027369670373536,10.350506938111877,3.8406232570373535,10.217367338111877C3.8584609670373533,10.153202138111878,3.889620717037354,10.093516038111877,3.9320713270373533,10.042199238111877C3.9670666470373535,9.999618138111877,4.011051777037354,9.965310238111877,4.060871367037354,9.941735338111878C4.113857627037353,9.912993038111878,4.1731836170373535,9.897940738111878,4.233463467037353,9.897943638111878C4.2723641370373535,9.898149138111878,4.311010597037353,9.904228838111877,4.348095507037353,9.915975738111879L4.842687707037354,10.080839738111877L5.319248107037353,10.240551638111878C5.545815007037353,10.336681438111878,5.661911707037353,10.589526738111879,5.587152207037354,10.824015238111878ZM11.423083807037354,16.116410838111875C8.481289907037354,16.116410838111875,6.050833007037354,14.072352838111877,5.727544507037353,11.453848438111878C5.8882644070373535,11.328716838111877,6.005444807037353,11.156100838111877,6.062424707037353,10.960544238111877C6.117589507037353,10.765784838111877,6.113103107037354,10.558960038111877,6.049544607037353,10.366776138111877C6.1320453070373535,10.351507338111878,6.211601507037353,10.323248538111876,6.285248707037354,10.283055438111877C6.511661507037354,10.163118038111877,6.678846607037354,9.955416838111876,6.747641107037353,9.708607338111879C6.8450608070373535,9.368121238111877,6.753778707037354,9.001520738111878,6.508072607037354,8.746471038111878C6.666409707037353,8.622822838111876,6.781046107037353,8.451770938111878,6.835224907037354,8.258318538111878C6.8880696070373535,8.077924838111876,6.8880696070373535,7.886159538111878,6.835224907037354,7.705765838111877C7.181941007037354,7.282494138111877,7.590032107037353,6.913476538111877,8.045945207037352,6.610965638111877C8.045945207037352,6.6830936381118775,8.045945207037352,6.757797338111877,8.045945207037352,6.832502038111877C8.035587807037354,6.975731038111878,8.148994407037353,7.097634938111877,8.292597307037354,7.097634938111877C8.436200107037354,7.097634938111877,8.549606807037353,6.975731038111878,8.539249407037353,6.832502038111877C8.539249407037353,6.652181538111877,8.539249407037353,6.474437838111877,8.554704707037352,6.304421738111877C8.573965107037353,5.947411138111877,8.619164007037353,5.5922745381118775,8.689945207037354,5.241821138111877C8.759053207037354,4.872437838111877,8.866095107037353,4.511172438111878,9.009369807037354,4.163764438111878C9.281137907037355,3.5377960181118775,9.630186107037353,3.1758679181118774,9.962490607037353,3.1758679181118774C10.227818507037354,3.1758679181118774,10.504738807037352,3.4089959881118777,10.735291007037354,3.8198682381118774C10.891652607037354,4.0977110381118775,11.013621307037354,4.393549638111877,11.098506907037354,4.700860638111878C11.185325607037353,4.996226238111877,11.250330007037354,5.2975703381118775,11.292995407037353,5.602460738111878C11.340641507037354,5.9297880381118775,11.368598507037353,6.259679438111878,11.376715207037353,6.590356938111878C11.056584407037352,6.597930038111878,10.742957607037354,6.682299738111878,10.462235407037355,6.836365338111878C10.007571207037355,7.093965138111877,9.708755007037354,7.519005438111877,9.708755007037354,8.003294138111878C9.708755007037354,8.776094038111879,10.481555507037353,9.420094638111877,11.439828407037353,9.420094638111877C11.943623107037354,9.429994238111878,12.430661707037354,9.239071538111878,12.793517607037353,8.889438238111877C12.889639407037354,8.792942138111878,12.889639407037354,8.636886738111876,12.793517607037353,8.540390638111877C12.696451707037353,8.445657338111879,12.541535807037354,8.445657338111879,12.444469007037354,8.540390638111877C12.174420807037354,8.795389338111878,11.815037207037353,8.934147438111879,11.443693607037353,8.926790838111877C10.761052607037353,8.926790838111877,10.205924507037354,8.513342538111878,10.205924507037354,8.007158438111878C10.205924507037354,7.500973838111878,10.761052607037353,7.087525938111877,11.443693607037353,7.087525938111877C11.768095507037353,7.079745938111877,12.085674807037353,7.1813713381118776,12.345293507037354,7.376038238111877C12.395433907037354,7.4140230381118775,12.457741307037354,7.432348338111877,12.520461607037353,7.427558538111877C12.588193407037354,7.420689238111877,12.649903807037354,7.3856254381118775,12.690475907037353,7.330958038111877C12.774889507037354,7.223677238111877,12.755813107037353,7.0681811381118775,12.647971607037354,6.984485738111878C12.580379007037353,6.929401038111878,12.508447207037353,6.879866738111877,12.432876107037353,6.8363658381118775C12.263278507037354,6.741183838111877,12.079907907037354,6.672963538111878,11.889339007037353,6.634149638111877C11.895399607037353,6.296194438111877,11.922500107037353,5.958944238111878,11.970483307037354,5.624357138111877C12.011745907037353,5.324091038111877,12.074154407037353,5.027112638111877,12.157242307037354,4.735636838111878C12.241635807037353,4.4344197381118775,12.358679307037354,4.143322438111877,12.506290907037354,3.8675243381118776C12.749723007037353,3.4270281181118776,13.036947707037353,3.1784439681118775,13.311291207037353,3.1784439681118775C13.671931307037353,3.1784439681118775,14.055755307037353,3.6099242581118776,14.333964307037354,4.337644538111878C14.466194307037354,4.701381838111877,14.562818307037354,5.077091838111878,14.622477307037354,5.459493038111877C14.682569307037353,5.8246244381118775,14.717854307037353,6.193407438111878,14.728092307037354,6.563309538111877C14.728092307037354,6.652181538111877,14.728092307037354,6.743630038111878,14.728092307037354,6.8363658381118775C14.728797307037354,6.972650138111877,14.839104307037353,7.082956438111878,14.975389307037354,7.083661638111877C15.081107307037353,7.084063138111877,15.175132307037353,7.016531538111877,15.208516307037353,6.916221738111878C15.733854307037353,7.3375440381118775,16.175168307037353,7.854013038111877,16.509397307037354,8.438638338111877C16.432141307037355,8.762144238111876,16.52650930703735,9.102652638111877,16.759269307037354,9.340239138111876C16.495587307037354,9.560019638111878,16.368550307037353,9.903360038111877,16.425677307037354,10.241839538111877C16.465758307037355,10.493012038111878,16.604961307037353,10.717593838111878,16.812078307037353,10.865231138111877C16.878828307037352,10.911174438111878,16.95165730703735,10.947588538111878,17.02846230703735,10.973422638111877C16.946071307037354,11.153858738111877,16.919603307037356,11.354833238111878,16.952470307037352,11.550448038111877C16.969206307037354,11.651121738111877,17.001812307037355,11.748503338111878,17.04907130703735,11.838959338111877C16.554478307037353,14.274568838111877,14.215468307037353,16.116410838111875,11.423083807037354,16.116410838111875ZM17.141807307037354,10.490423838111877C17.126334307037354,10.482172138111878,17.111289307037353,10.473145638111877,17.096727307037355,10.463375638111877C16.998041307037354,10.393007438111876,16.93206130703735,10.285672338111876,16.913831307037356,10.165847938111877C16.889440307037354,10.020846938111877,16.932065307037355,9.872603538111878,17.02975130703735,9.762704038111877C17.083333307037353,9.701116638111877,17.155794307037354,9.658997638111877,17.23583130703735,9.642920138111878L17.535936307037353,9.584960538111877L17.899152307037355,9.512832738111879L18.516104307037352,9.393048838111877C18.538387307037354,9.391110038111878,18.560798307037352,9.391110038111878,18.583080307037353,9.393048838111877C18.657665307037355,9.393392638111877,18.730404307037354,9.416291838111878,18.791736307037354,9.458737038111877L18.814920307037355,9.476769138111877C18.899883307037353,9.548177338111877,18.956153307037354,9.647906438111878,18.973345307037356,9.757553238111878C18.992717307037353,9.868779338111878,18.972191307037356,9.983273638111879,18.915384307037353,10.080841638111878C18.860658307037355,10.183215738111876,18.763584307037355,10.256256238111877,18.650057307037354,10.280481938111876L18.038257307037355,10.398977838111877L17.666024307037354,10.471105738111877L17.371072307037352,10.529065238111876C17.292479307037354,10.542348038111879,17.211703307037354,10.528733838111878,17.141807307037354,10.490423838111877ZM18.916670307037354,11.634168238111878L18.87931830703735,11.644472738111878L17.977718307037353,11.818352338111877L17.899149307037355,11.833808538111878C17.80345330703735,11.851914038111877,17.70450230703735,11.830544138111877,17.624806307037353,11.774560538111878C17.483483307037353,11.669936738111877,17.412813307037354,11.494868838111877,17.44189730703735,11.321455638111878C17.470979307037354,11.148043238111878,17.594899307037352,11.005611038111878,17.762622307037354,10.952816638111877L18.057574307037353,10.896144538111878L18.744079307037353,10.767344138111877C18.766362307037355,10.765406238111877,18.788772307037355,10.765406238111877,18.811054307037352,10.767344138111877C18.862335307037355,10.767062738111877,18.913002307037353,10.778518338111878,18.95917430703735,10.800832438111877C18.980086307037354,10.809276238111877,18.999963307037355,10.820078538111877,19.018422307037355,10.833032238111878C19.154776307037352,10.933950038111877,19.225979307037356,11.100653338111877,19.20460930703735,11.268938638111877C19.183239307037354,11.437223038111878,19.072630307037354,11.580837838111878,18.915382307037355,11.644473638111878L18.916670307037354,11.634168238111878Z" fill="#262A38" fill-opacity="1" style="mix-blend-mode:passthrough"/><path d="M13.128811869537355,10.902156475611877C13.085529369537355,10.947389605611878,13.039960869537353,10.990379275611877,12.992283869537353,11.030956505611877C12.531867469537353,11.397518625611877,11.957798469537353,11.591608025611878,11.369403369537354,11.579645025611878C10.448482769537353,11.579645025611878,9.622874379537354,11.133996965611878,9.308602389537354,10.480980695611878C9.289282199537354,10.438476425611878,9.269962489537354,10.395972175611877,9.254506619537354,10.352180625611878C9.202668999537353,10.231462990611877,9.065488249537353,10.172348722611877,8.942141979537354,10.217575948611877C8.818795718537354,10.262803174611877,8.752342402537353,10.396583395611877,8.790826572537354,10.522196675611877C9.125706549537353,11.435389625611878,10.187019369537353,12.067797425611877,11.366827969537354,12.067797425611877C12.152729269537353,12.085749725611878,12.913539869537352,11.790599025611877,13.481723769537354,11.247340725611878C13.579283669537354,11.150199175611878,13.578726769537354,10.992084205611878,13.480482569537354,10.895633515611877C13.382238369537355,10.799182835611877,13.224141169537354,10.801536325611877,13.128811869537355,10.900868175611878L13.128811869537355,10.902156475611877Z" fill="#262A38" fill-opacity="1" style="mix-blend-mode:passthrough"/><path d="M9.735928924537353,5.838423025611878C9.771176184537353,5.845101225611877,9.806959484537353,5.848549925611877,9.842833224537353,5.848727325611877C9.959983764537354,5.848667825611877,10.073429644537354,5.807663125611877,10.163545544537353,5.732807025611877C10.448511994537354,5.492490055611878,10.448511994537354,5.053491885611877,10.163545544537353,4.813174655611878C10.074442804537354,4.741569470611878,9.963582754537354,4.702495702600878,9.849273624537354,4.702406525611877C9.650480154537354,4.705638761411877,9.470532314537353,4.820785415611877,9.384305290537354,4.999934615611878C9.342734072537354,5.0858712456118775,9.321157172497353,5.180104045611877,9.321193039827353,5.275566935611877C9.313449136437354,5.536267815611877,9.484635044537354,5.768591925611878,9.735928924537353,5.838423025611878Z" fill="#262A38" fill-opacity="1" style="mix-blend-mode:passthrough"/><path d="M13.713490722037353,4.791236236611877C13.628068502037353,4.731605574611877,13.526575742037354,4.699271668791877,13.422402262037354,4.698500275611877C13.273399592037354,4.700307645011877,13.132477342037353,4.766541086611878,13.036002102037353,4.880108345611878C12.945193883037353,4.988464535611877,12.895081821887354,5.125134285611877,12.894322220687354,5.266508515611878C12.892956314237354,5.329310775611877,12.901652912637353,5.391926765611878,12.920081841037353,5.451980475611878C12.984879851037354,5.6768568156118775,13.188429382037354,5.833432875611877,13.422402262037354,5.8383806756118775C13.727343382037354,5.826508975611878,13.965222382037354,5.570198655611877,13.954346182037353,5.2652202856118775C13.954444382037353,5.227138515611878,13.950559982037353,5.1891503356118776,13.942754582037354,5.151876295611878C13.915555482037353,5.0066529556118775,13.833446802037354,4.877493235611878,13.713490722037353,4.791236236611877Z" fill="#262A38" fill-opacity="1" style="mix-blend-mode:passthrough"/><path d="M14.110125044537353,17.341078400611877L12.652108144537353,17.341078400611877L12.478228344537353,17.852414790611878L12.476940144537354,17.852414790611878L11.624284244537353,20.35242450061188L10.763899844537354,17.894919100611876L10.570699844537353,17.341078400611877L9.113970874537353,17.341078400611877L9.098515004537354,17.579359310611878L8.762346744537354,22.844704700611878L10.237107644537353,22.844704700611878L10.345299644537354,21.145833400611878L10.933915844537353,22.844704700611878L12.326244344537354,22.844704700611878L12.869780544537353,21.247584700611878L12.965092644537354,22.844704700611878L14.432125044537354,22.844704700611878L14.116565244537354,17.455710380611876L14.110125044537353,17.341078400611877Z" fill="#262A38" fill-opacity="1" style="mix-blend-mode:passthrough"/><path d="M17.569791557037355,18.751385225611877C17.923331457037353,18.749634125611877,18.263031457037354,18.888665725611876,18.513896457037355,19.137785425611877L18.605344257037352,19.230521725611876L19.669231857037353,18.167921125611876L19.576496157037354,18.07518488561188C18.466088557037352,16.96406719561188,16.665188157037353,16.96349036561188,15.554069457037354,18.07389759561188C14.442951737037353,19.18430482561188,14.442375897037353,20.985206225611876,15.552782177037354,22.096323125611878C16.086207957037352,22.629350825611876,16.810552157037353,22.927065525611876,17.564639557037353,22.92321932561188C18.319069857037352,22.930791525611877,19.044401657037355,22.63248172561188,19.575208657037354,22.096323125611878L19.666657457037353,22.003586925611877L18.615648557037353,20.93712242561188L18.522912257037355,21.029858725611877C18.001092957037354,21.550292625611878,17.156523457037352,21.550292625611878,16.634702957037355,21.029858725611877C16.114676757037355,20.506863925611878,16.114676757037355,19.662067525611878,16.634702957037355,19.139072825611876C16.883223257037354,18.891806325611878,17.219217557037354,18.752501625611878,17.569791557037355,18.751385225611877Z" fill="#262A38" fill-opacity="1" style="mix-blend-mode:passthrough"/><path d="M7.627326494537353,18.073637365611877C7.528206394537354,17.973957655611876,7.421402494537354,17.882227655611878,7.307902294537353,17.79929256561188C7.271838694537354,17.770956395611876,7.233198194537353,17.745196785611878,7.194558094537354,17.719437185611877C6.7277247945373535,17.406480505611878,6.177483794537354,17.241317845411878,5.615469694537353,17.245452906266877L5.526597694537354,17.245452906266877C5.390138894537353,17.24886570711188,5.254109894537354,17.262210318611878,5.119589594537354,17.285380612611878C5.032803094537353,17.299817949611878,4.946821494537353,17.318734280611878,4.861989294537354,17.342052951611876C4.563339094537353,17.423297855611878,4.280372094537354,17.55389815561188,4.024788994537354,17.728454145611877C3.9887247945373536,17.754213745611878,3.9513729945373535,17.77997338561188,3.9165968945373537,17.807022275611878C3.8818207945373535,17.83407109561188,3.8625007945373535,17.846949935611878,3.8367406945373537,17.86884570561188C3.8109807945373535,17.890741525611876,3.7594607445373533,17.933245775611876,3.7208207245373535,17.968022345611878C3.6821806445373535,18.002798915611876,3.6461166745373537,18.03757351561188,3.6087646445373536,18.073639335611876L3.5482286845373534,18.135462815611877L3.5173166345373534,18.16637551561188C2.4948336745373534,19.290740575611878,2.5316253345373534,21.01881467561188,3.6010367245373534,22.098641475611878C4.132303494537354,22.63126627561188,4.854169394537354,22.929841675611875,5.606454094537353,22.92811217561188L5.696614294537353,22.92811217561188C6.251695594537353,22.914535675611877,6.790004294537353,22.735100875611877,7.242214694537354,22.412911975611877C7.373896094537353,22.319010375611878,7.497540494537353,22.21432267561188,7.611870794537354,22.099928475611875L7.704606994537354,22.007192275611878C8.727702594537353,20.88360177561188,8.693765194537352,19.156176175611876,7.627326494537353,18.073637365611877ZM6.296822594537353,21.231815475611878C6.259470194537354,21.25371137561188,6.222118394537354,21.27431977561188,6.183478594537354,21.292351875611878C6.161732894537353,21.303114075611877,6.139368094537353,21.312574975611877,6.116502494537354,21.320687875611878L6.110062594537354,21.320687875611878C6.098063694537354,21.326526775611878,6.085562194537354,21.33126697561188,6.0727102945373534,21.334856175611876C6.050434594537354,21.343926075611876,6.027639594537353,21.351667475611876,6.004446294537353,21.358038975611876C5.984365194537354,21.36541087561188,5.963678594537353,21.371014275611877,5.942622194537353,21.374783675611877L5.891102294537354,21.387664475611878C5.8834328945373535,21.389012475611878,5.875587194537354,21.389012475611878,5.867918294537354,21.387664475611878L5.8460223945373535,21.387664475611878L5.820262194537353,21.387664475611878L5.775181994537354,21.387664475611878L5.735254094537353,21.387664475611878L5.681158094537354,21.387664475611878L5.612894094537353,21.387664475611878C5.580693994537354,21.387664475611878,5.548493894537353,21.387664475611878,5.517581894537353,21.387664475611878L5.460909794537354,21.387664475611878L5.451893794537353,21.387664475611878C5.434544294537353,21.38644607561188,5.417317894537353,21.383863575611876,5.400373894537354,21.379936775611878L5.391357894537354,21.379936775611878L5.339837994537353,21.370919775611878L5.329534094537354,21.370919775611878C5.318543694537354,21.369567475611877,5.307741594537354,21.36697347561188,5.297333994537354,21.36319217561188L5.235509894537353,21.346447575611876L5.173685994537354,21.327128075611878C5.153016794537354,21.320748875611876,5.132793894537354,21.313003175611875,5.113150094537353,21.30394517561188C5.094668194537354,21.297312375611877,5.076603194537354,21.289570975611877,5.059054094537354,21.280762275611877C5.017552894537353,21.262476575611878,4.9771296945373535,21.241834775611878,4.937981794537354,21.218938675611877C4.915760494537354,21.206415575611878,4.894260194537353,21.19265427561188,4.873581894537354,21.177721575611876C4.860094094537354,21.174001375611876,4.846772194537353,21.16970317561188,4.833653694537354,21.164838875611878C4.815212994537354,21.15267547561188,4.797573794537353,21.139338575611877,4.780845594537354,21.124911175611878C4.745845094537353,21.096586775611875,4.712313494537353,21.066493675611877,4.680381494537354,21.034751575611878C4.648604494537354,21.001502175611876,4.618513394537354,20.966682275611877,4.590221594537353,20.93042387561188C4.577341594537353,20.914968375611878,4.565749494537354,20.89951097561188,4.554157494537353,20.882768475611876C4.526324994537354,20.845104775611876,4.500528194537353,20.80598077561188,4.476877494537353,20.765559775611877C4.457960794537353,20.73520527561188,4.440760494537353,20.703815075611878,4.425357494537353,20.67153637561188C4.421425594537354,20.665375075611877,4.417980294537354,20.658914875611877,4.415053494537354,20.65221727561188C4.400885594537353,20.621304375611878,4.388005594537353,20.590393675611878,4.375125494537354,20.558193575611877C4.371353494537353,20.550340275611877,4.368334794537353,20.542144675611876,4.366109494537353,20.533721375611876C4.3583813945373535,20.513112875611878,4.351941494537353,20.492504475611877,4.345501494537354,20.471897975611878C4.338565994537354,20.45211687561188,4.332971794537354,20.43189347561188,4.328757394537353,20.411361575611878C4.323251294537354,20.39364017561188,4.318948194537354,20.375567075611876,4.315877294537353,20.357265875611876C4.315877294537353,20.357265875611876,4.315877294537353,20.349538175611876,4.315877294537353,20.34567437561188C4.315877294537353,20.341810575611877,4.3081494945373535,20.30574667561188,4.3055732945373535,20.28642547561188C4.304304494537353,20.274436875611876,4.304304494537353,20.26235017561188,4.3055732945373535,20.250361575611876C4.3055732945373535,20.22202547561188,4.299133394537353,20.194978575611877,4.297845394537354,20.166642275611878C4.296557394537354,20.13830627561188,4.297845394537354,20.11898697561188,4.297845394537354,20.094514775611877C4.297845394537354,20.070042275611875,4.297845394537354,20.045569975611876,4.297845394537354,20.021097575611876C4.298877194537353,19.97795667561188,4.302749594537353,19.934929475611877,4.309437394537353,19.892297575611877C4.308209694537354,19.884616975611877,4.308209694537354,19.87679307561188,4.309437394537353,19.869114475611877C4.309437394537353,19.858810275611877,4.309437394537353,19.847218675611877,4.309437394537353,19.836914375611876C4.308220594537353,19.83270677561188,4.308220594537353,19.828241475611875,4.309437394537353,19.824033575611878C4.3120637945373534,19.806180575611876,4.3159372945373535,19.78853597561188,4.321029394537353,19.771225075611877L4.332621494537354,19.72872097561188C4.3320382945373535,19.72229417561188,4.3320382945373535,19.715828275611877,4.332621494537354,19.709401775611877L4.340349394537354,19.68621857561188C4.341768894537354,19.67856177561188,4.344376494537354,19.67117397561188,4.348077694537354,19.664322975611878C4.347524194537353,19.659187475611876,4.347524194537353,19.654004975611876,4.348077694537354,19.648867475611876C4.348077694537354,19.63727607561188,4.355805494537353,19.625684375611876,4.3609575945373535,19.614091075611878L4.3712616945373535,19.588331375611876C4.378989594537353,19.567722875611878,4.388005594537353,19.54840357561188,4.397021494537354,19.52908237561188C4.415068394537354,19.48912917561188,4.435720894537353,19.450406175611878,4.4588454945373535,19.413163075611877C4.4730135945373535,19.389979975611876,4.4871816945373535,19.366794975611878,4.502637494537353,19.343612075611876C4.518093694537353,19.320428975611875,4.534837594537354,19.297243975611877,4.5515816945373535,19.275348075611877C4.586035994537354,19.230351775611876,4.623018194537353,19.187350275611877,4.662349594537353,19.14654807561188L4.710005794537354,19.101467275611878C4.7258263945373535,19.086241875611876,4.742604694537354,19.072046175611877,4.760237694537354,19.058962975611877C4.767750594537354,19.051746275611876,4.775946394537353,19.045276375611877,4.784709694537353,19.03964377561188C4.793725694537354,19.033203375611876,4.801453594537353,19.02547557561188,4.810469594537354,19.02032447561188C4.827231894537354,19.006726375611876,4.844872994537353,18.994248475611876,4.863277894537354,18.982973375611877L4.917373894537354,18.948196775611876L4.974045994537354,18.915996775611877C5.045674794537353,18.877776975611877,5.120701794537354,18.84630217561188,5.198157994537354,18.821973275611878L5.236798094537353,18.810381775611877L5.275437794537353,18.800077575611876L5.355293994537353,18.78204557561188L5.449318194537353,18.767877475611876L5.517582194537353,18.761437075611877L5.600014194537353,18.761437075611877C5.953053194537354,18.760312875611877,6.292122394537353,18.899273775611878,6.542830494537354,19.147837275611877C7.062855694537354,19.670832075611877,7.062855694537354,20.515626575611876,6.542830494537354,21.038621275611877C6.468757594537354,21.11252367561188,6.386177494537353,21.177373775611876,6.296822594537353,21.231815475611878Z" fill="#262A38" fill-opacity="1" style="mix-blend-mode:passthrough"/><path d="M20.642020049537354,17.27920575791188C20.319070639537355,17.27920477511188,20.057268619537354,17.541007755611876,20.057268619537354,17.86395716561188C20.057382608847355,17.900687275611876,20.060831768237353,17.937330905611876,20.067572860537354,17.973438025611877C20.076473854537355,18.017933185611877,20.090746100537352,18.06118422561188,20.110077116537354,18.10223811561188C20.230023349537355,18.367589475611876,20.526932119537353,18.504248975611876,20.806506629537353,18.422783875611877C21.086081119537354,18.341320875611878,21.263110519537353,18.06656140561188,21.221744219537353,17.77831190561188C21.180377819537355,17.490063385611876,20.933223429537353,17.276180127691877,20.642022009537353,17.276629206277878L20.642020049537354,17.27920575791188ZM20.567315759537355,17.710686775611876L20.419196489537352,17.710686775611876L20.419196489537352,18.097086965611876L20.322596429537352,18.097086965611876L20.322596429537352,17.710686775611876L20.161596359537352,17.710686775611876L20.161596359537352,17.629542085611877L20.569892349537355,17.629542085611877L20.567315759537355,17.710686775611876ZM21.025843679537353,18.097086965611876L21.025843679537353,17.81630176561188C21.025843679537353,17.778950635611878,21.025843679537353,17.744174065611876,21.025843679537353,17.710684805611876C21.020566759537353,17.738112985611878,21.013686119537354,17.765207055611878,21.005235199537353,17.791829465611876Q21.005235199537353,17.822742165611878,20.916362819537355,18.10094880561188L20.831354319537354,18.10094880561188C20.770818169537353,17.909036035611877,20.738618139537355,17.805997545611877,20.734754259537354,17.789252935611877C20.730890449537352,17.772508265611876,20.734754259537354,17.76864442561188,20.725737329537353,17.749325215611876C20.716720399537355,17.730005975611878,20.715433119537355,17.717125175611876,20.714145779537354,17.710684805611876C20.714145779537354,17.755765615611878,20.714145779537354,17.79440402561188,20.714145779537354,17.829180595611877L20.714145779537354,18.098372275611876L20.623986129537354,18.098372275611876L20.623986129537354,17.629540115611878L20.769530829537352,17.629540115611878C20.828779759537355,17.831757185611878,20.858403209537354,17.937372205611876,20.862267079537354,17.946389135611877C20.863627079537352,17.96353471561188,20.863627079537352,17.980762835611877,20.862267079537354,17.997908415611878C20.862746599537353,17.98353785561188,20.864908459537354,17.96927154561188,20.868707479537353,17.955404105611876C20.868707479537353,17.955404105611876,20.868707479537353,17.947676415611877,20.868707479537353,17.94638717561188L20.953715979537353,17.62953814561188L21.105699019537354,17.62953814561188L21.105699019537354,18.098370315611877L21.025843679537353,18.097086965611876Z" fill="#262A38" fill-opacity="1" style="mix-blend-mode:passthrough"/></g></g></svg>