<svg xmlns="http://www.w3.org/2000/svg" xmlns:xlink="http://www.w3.org/1999/xlink" fill="none" version="1.1" width="24" height="24" viewBox="0 0 24 24"><defs><clipPath id="master_svg0_159_9763"><rect x="0" y="0" width="24" height="24" rx="0"/></clipPath><clipPath id="master_svg1_159_9787"><rect x="1.318359375" y="8.572265625" width="21.36334800720215" height="6.855031967163086" rx="0"/></clipPath></defs><g clip-path="url(#master_svg0_159_9763)"><g clip-path="url(#master_svg1_159_9787)"><path d="M6.909327475,9.83638746C6.492702975,9.41838717,5.969572975,9.12244831,5.396685575,8.980673239C5.132586675000001,8.914738901,4.861318375,8.88187373878,4.589114875,8.882832938843L4.4866153749999995,8.882832938843C4.3681030750000005,8.8855917384,4.2498614749999994,8.895445148,4.132526674999999,8.912340334L4.017603375,8.929423541C3.916656975,8.946506746,3.815710975,8.968249045,3.717870475,8.99465041C3.619923575,9.02030863,3.523486175,9.05141748,3.429008675,9.08783166C3.274058075,9.14565694,3.1239733750000003,9.21576577,2.980185975,9.29748937C2.721706175,9.44415802,2.4844866750000003,9.62546885,2.275114715,9.83638746L2.1695094150000003,9.9419929C1.616197225,10.547388699999999,1.3121937192,11.339573099999999,1.318454237895,12.1597059C1.318454237895,12.2358038,1.318454237895,12.3150079,1.3262193399,12.3848941C1.377838202,13.1724834,1.713322345,13.9146318,2.2704557149999998,14.473706199999999C2.8824596749999998,15.086524,3.713721275,15.4297614,4.579796775,15.4272604L4.683849374999999,15.4272604C5.521772375,15.4124007,6.320589075,15.070129900000001,6.909327475,14.473706199999999L7.014933075,14.3665481C7.317955475,14.0297685,7.546563175,13.632880199999999,7.685837775,13.2017822C7.718450975,13.105495000000001,7.744852575,13.009207700000001,7.768147475,12.9113674C7.826194275,12.6624031,7.855376275,12.407581799999999,7.855116875,12.1519408C7.859714975,11.2856033,7.519424475,10.4530362,6.909327475,9.83794039L6.909327475,9.83638746ZM3.425902575,13.1536388C3.417201275,13.1445799,3.409399475,13.1346974,3.402607475,13.1241317C3.385524475,13.103942400000001,3.369994175,13.0837531,3.354463775,13.0620108L3.309426175,12.9967837C3.3005308749999998,12.9845543,3.292735075,12.971561900000001,3.286130975,12.9579582C3.280421375,12.950562,3.275232075,12.9427781,3.270600675,12.9346628C3.257508675,12.9135914,3.2455841750000003,12.8918166,3.2348812750000002,12.8694363L3.2348812750000002,12.8616712C3.2348812750000002,12.8523531,3.224010275,12.8430347,3.219351075,12.8321638L3.2053738750000003,12.8026562C3.1944825750000003,12.7821579,3.185138475,12.7608738,3.177419375,12.7389824C3.1587832750000002,12.6923919,3.141700075,12.6473541,3.127722875,12.5992107C3.127722875,12.5759153,3.113745675,12.5526202,3.107533675,12.5293245C3.106806975,12.5262613,3.106806975,12.5230703,3.107533675,12.5200067C3.107533675,12.5200067,3.107533675,12.4858401,3.096662475,12.4687567C3.0914026750000003,12.4488957,3.087767275,12.4286397,3.0857914749999997,12.4081893C3.085096375,12.4040771,3.085096375,12.3998778,3.0857914749999997,12.3957651C3.085028975,12.3854258,3.085028975,12.3750441,3.0857914749999997,12.3647044C3.085064875,12.361641200000001,3.085064875,12.3584504,3.0857914749999997,12.3553865C3.084948175,12.3455687,3.084948175,12.3356967,3.0857914749999997,12.3258791C3.0857914749999997,12.3010306,3.0857914749999997,12.2777355,3.0857914749999997,12.252887C3.0857914749999997,12.228038999999999,3.0857914749999997,12.228038999999999,3.0857914749999997,12.2156148L3.0857914749999997,12.1597059C3.0857914749999997,12.1348577,3.0857914749999997,12.1100092,3.0857914749999997,12.0836079C3.085026075,12.078459500000001,3.085026075,12.0732262,3.0857914749999997,12.068077800000001C3.0857914749999997,12.068077800000001,3.0857914749999997,12.068077800000001,3.0857914749999997,12.0587597C3.0842588749999997,12.031862499999999,3.0842588749999997,12.0048997,3.0857914749999997,11.9780025C3.085036675,11.9697368,3.085036675,11.9614198,3.0857914749999997,11.953154099999999C3.085023975,11.9474854,3.085023975,11.9417396,3.0857914749999997,11.9360707C3.087251575,11.9192388,3.0903726750000002,11.9025922,3.095109475,11.8863742C3.094230675,11.876039500000001,3.094230675,11.8656487,3.095109475,11.8553135C3.095109475,11.8553135,3.095109475,11.8553135,3.095109475,11.847549C3.095109475,11.8397839,3.095109475,11.8087232,3.107533675,11.790087C3.119957775,11.7714505,3.119957775,11.7419434,3.127723075,11.7186482C3.1270553750000003,11.7124538,3.1270553750000003,11.7062058,3.127723075,11.700011700000001C3.126336175,11.6949279,3.126336175,11.6895654,3.127723075,11.6844814C3.130921375,11.672267699999999,3.135075475,11.6603246,3.1401473749999997,11.648762L3.163442475,11.5866413C3.166635975,11.5759335,3.170794575,11.5655372,3.1758665749999997,11.555580599999999C3.180387275,11.5433998,3.185571875,11.5314753,3.1913968749999997,11.5198612C3.202267975,11.495013,3.2146920750000003,11.4686117,3.2286692749999997,11.4437633C3.2332479750000003,11.4341252,3.238435275,11.4247882,3.244199675,11.4158089C3.2436898750000003,11.4122033,3.2436898750000003,11.4085436,3.244199675,11.404938L3.2535176750000003,11.3863018L3.2752600750000003,11.3521352L3.286131275,11.3350518C3.288122075,11.3300848,3.290730975,11.3253889,3.293896175,11.3210747C3.351886275,11.2337642,3.417359575,11.1516623,3.489576775,11.0756974Q3.543932675,11.0213418,3.601394375,10.9731982L3.661962075,10.9266076C3.702340575,10.8971002,3.742719175,10.8691458,3.784651075,10.8442975C3.826582175,10.8194492,3.843665575,10.8101311,3.874726075,10.7946008L3.966354175,10.7511164L4.053323475,10.7169498L4.148057675,10.6858895L4.163587775,10.6858895C4.1952645749999995,10.6764852,4.227402975,10.6687099,4.259875275000001,10.662594200000001C4.276652374999999,10.6579915,4.293801575,10.6548734,4.311124775,10.6532761L4.362374775,10.6455109C4.396257875,10.6395888,4.430502175,10.635957,4.464874075,10.6346399C4.500593374999999,10.6346399,4.534759975,10.6346399,4.570479375,10.6346399C4.606198775,10.6346399,4.649683475,10.6346399,4.690062075,10.6346399C4.730440574999999,10.6346399,4.769266175,10.6346399,4.808091375,10.648617L4.826728075,10.648617L4.923015375,10.6688063L4.930780374999999,10.6688063L4.977370775,10.6812304L5.0239615749999995,10.695207700000001L5.0969531749999994,10.7200561C5.1844603750000005,10.7511122,5.268723275,10.7906431,5.348542675,10.8380855L5.407556975,10.875358L5.472784075,10.920395599999999L5.514715675,10.9530091L5.555094275,10.9856224L5.564412075,10.9933877L5.576836575,11.0042586L5.651381475,11.0741448C6.249175575,11.6756172,6.249175575,12.6469009,5.651381475,13.2483735C5.0522160750000005,13.8444176,4.084083575,13.8444176,3.484918375,13.2483735C3.466281875,13.229736800000001,3.449198975,13.2095475,3.432115575,13.189358200000001C3.426634775,13.1843891,3.421923875,13.1786318,3.418138275,13.1722755L3.425902575,13.1536388Z" fill="#262A38" fill-opacity="1" style="mix-blend-mode:passthrough"/><path d="M12.689271962500001,8.9970703125L11.5058700625,12.4634116125L10.2929615625,8.9970703125L8.6172524425,8.9970703125L8.2119140625,15.331840512500001L9.9093652625,15.331840512500001L10.0351602625,13.3765879125L10.7122771625,15.331840512500001L12.3134412625,15.331840512500001L12.9393081625,13.4930644125L13.049572962500001,15.331840512500001L14.7377061625,15.331840512500001L14.3680863625,8.9970703125L12.689271962500001,8.9970703125Z" fill="#262A38" fill-opacity="1" style="mix-blend-mode:passthrough"/><path d="M18.34896805,10.618741912499999C18.75699715,10.6173942125,19.14855095,10.7796090125,19.43608235,11.0691178125L19.54324105,11.1747231125L20.76546855,9.9509430125L20.65986295,9.8453376325C19.37204645,8.6274987125,17.34890195,8.6557445225,16.09558487,9.9090613725C14.84226787,11.1623785125,14.814022,13.1855216125,16.03186071,14.473338112499999C16.64593955,15.0857129125,17.47863225,15.4282904125,18.34586115,15.4253402125C19.21528435,15.4349041125,20.05140015,15.0913792125,20.66296725,14.473338112499999L20.768572849999998,14.3661804125L19.54634525,13.1330819125L19.43918655,13.2402406125C18.83841725,13.8397374125,17.86572745,13.8397374125,17.26495815,13.2402406125C16.66716505,12.6387682125,16.66716505,11.6674845125,17.26495815,11.0660119125C17.552534350000002,10.7788453125,17.94256305,10.6179166125,18.34896805,10.618741912499999Z" fill="#262A38" fill-opacity="1" style="mix-blend-mode:passthrough"/><path d="M21.9736248875,8.572265625C21.5842252375,8.572265625,21.2685546875,8.887936775,21.2685546875,9.277336835C21.2685546875,9.666736925,21.5842252375,9.982408025,21.9736248875,9.982408025C22.3630244875,9.982408025,22.6786950875,9.666736925,22.6786950875,9.277336835C22.6786950875,8.887936775,22.3630244875,8.572265625,21.9736248875,8.572265625ZM21.8835493875,9.092527445L21.6971874275,9.092527445L21.6971874275,9.558433535L21.5807109175,9.558433535L21.5807109175,9.092527445L21.3912422575,9.092527445L21.3912422575,8.994687165L21.8835493875,8.994687165L21.8835493875,9.092527445ZM22.4364242875,9.558433535L22.4364242875,9.216769095C22.4364242875,9.171731535,22.4364242875,9.128246905,22.4364242875,9.089421395Q22.4224476875,9.154648305,22.4131298875,9.187261645C22.4131298875,9.212109985,22.3711976875,9.342563685,22.3044188875,9.559986535L22.2019190175,9.559986535C22.1289269375,9.328586515,22.0901014175,9.204344925000001,22.0854425475,9.184155645C22.0807836675,9.163966415,22.0854425475,9.159307305,22.0745702375,9.134459015000001C22.0636979975,9.109610675,22.0621458275,9.095633505,22.0605936075,9.089421395C22.0605936075,9.142224075,22.0605936075,9.190367694999999,22.0605936075,9.232299265L22.0605936075,9.559986535L21.9518827175,9.559986535L21.9518827175,8.994687165L22.1273747075,8.994687165C22.1988147475,9.238511325,22.2345334875,9.364306095,22.2391923675,9.375177145C22.2433607575,9.396178965,22.2459555875,9.417462584999999,22.2469580175,9.438850935C22.2484271575,9.421103475,22.2510220975,9.403467115,22.2547235475,9.386048255C22.2552330475,9.382442415,22.2552330475,9.378782865,22.2547235475,9.375177085L22.3572234875,8.994687115L22.5404786875,8.994687115L22.5404786875,9.559986535L22.4364242875,9.558433535Z" fill="#262A38" fill-opacity="1" style="mix-blend-mode:passthrough"/></g></g></svg>