<svg xmlns="http://www.w3.org/2000/svg" xmlns:xlink="http://www.w3.org/1999/xlink" fill="none" version="1.1" width="24" height="24" viewBox="0 0 24 24"><defs><clipPath id="master_svg0_151_18321"><rect x="0" y="0" width="24" height="24" rx="0"/></clipPath><clipPath id="master_svg1_159_9806"><rect x="0.86328125" y="7.896484375" width="22.274866104125977" height="8.208409309387207" rx="0"/></clipPath></defs><g clip-path="url(#master_svg0_151_18321)"><g clip-path="url(#master_svg1_159_9806)"><path d="M6.88315295,7.974609375L5.95238305,10.351755575L5.04951385,8.046035379L4.25489975,8.046035379L3.34756635,10.353987974999999L2.41902865,7.974609375L0.86328125,7.974609375L3.01498935,13.475526774999999L3.67344785,13.475526774999999L4.64662695,10.992357475L5.61980585,13.475526774999999L6.28272865,13.475526774999999L8.43555215,7.974609375L6.88315295,7.974609375Z" fill="#000000" fill-opacity="1" style="mix-blend-mode:passthrough"/><path d="M21.5808367875,7.974609375L20.653415187500002,10.353987974999999L19.7449659875,8.046035379L18.9514677875,8.046035379L18.0485989875,10.351755575L17.1178277875,7.974609375L15.5654296875,7.974609375L17.717137587499998,13.475526774999999L18.3811757875,13.475526774999999L19.3532378875,10.992357475L20.3264174875,13.475526774999999L20.9848761875,13.475526774999999L23.1377000875,7.974609375L21.5808367875,7.974609375Z" fill="#000000" fill-opacity="1" style="mix-blend-mode:passthrough"/><path d="M7.51953125,13.4755209375L8.933542450000001,13.4755209375L8.22709548,11.6708984375L7.51953125,13.4755209375Z" fill="#000000" fill-opacity="1" style="mix-blend-mode:passthrough"/><path d="M15.068359375,13.4755209375L16.481255175,13.4755209375L15.774807275,11.6708984375L15.068359375,13.4755209375Z" fill="#000000" fill-opacity="1" style="mix-blend-mode:passthrough"/><path d="M13.375514537499999,8.240221945C12.5165660375,7.781905175,11.4856786375,7.781905175,10.6267300375,8.240221945C10.2023221275,8.471692915,9.8503889475,8.816285785,9.6100257675,9.235721875C9.3540177075,9.687895875,9.2241276959,10.200519074999999,9.23392293946,10.720043175C9.2240604293,11.239432775000001,9.3535459975,11.751978375,9.6089094575,12.204364275C9.8489645075,12.624126475,10.1999448575,12.969701775,10.6233813375,13.203212775C11.4820013375,13.667554875,12.5168945375,13.667554875,13.375514537499999,13.203212775C13.7995014375,12.970051775,14.1509285375,12.624417775000001,14.3911028375,12.204364275C14.6464662375,11.751978375,14.7759518375,11.239432775000001,14.766088937500001,10.720043175C14.776225137499999,10.200622075,14.6467218375,9.688005175,14.3911028375,9.235721875C14.1511831375,8.816328465,13.7996168375,8.471716465,13.375514537499999,8.240221945ZM13.0686059375,11.515773275C12.969871037499999,11.709693875,12.8171651375,11.870926375,12.628889537500001,11.980042475000001C12.4370110375,12.087042375,12.2202248375,12.141334975,12.0005643375,12.137402575C11.7835216375,12.139531575,11.5697949375,12.084078275,11.3811664375,11.976694575C11.190495737500001,11.867488575,11.0354670375,11.705482974999999,10.9347541375,11.510193375C10.8125817375,11.268342975,10.7527375375,10.999812375,10.7606535375,10.728971475C10.7516749375,10.453523675,10.8098971375,10.180031575000001,10.9302899375,9.932125375C11.0256708375,9.739476875,11.1764669375,9.579741675,11.363309837500001,9.473436475C11.7600929375,9.262923075,12.2354543375,9.262923075,12.6322374375,9.473436475C12.8189849375,9.582073375,12.9701852375,9.742578675,13.0674898375,9.935473475C13.1892032375,10.182198475,13.2482333375,10.455117675,13.2393584375,10.730087274999999C13.2474298375,11.001994575,13.1888055375,11.271742775,13.0686059375,11.515773275Z" fill="#000000" fill-opacity="1" style="mix-blend-mode:passthrough"/><path d="M6.742451455,16.0829796225L6.326171875,15.3017578125L6.635312555,15.3017578125L6.823921685,15.7213857725L7.010298665,15.3017578125L7.194443945,15.3017578125L7.380820975,15.7213857725L7.569430075,15.3017578125L7.878570775,15.3017578125L7.462291275,16.0829796225L7.280378465,16.0829796225L7.102929475,15.6812085525L6.924364625,16.0829796225L6.742451455,16.0829796225Z" fill="#000000" fill-opacity="1" style="mix-blend-mode:passthrough"/><path d="M8.250820485,14.9856289175C8.251436945,15.0740564575,8.180033165,15.1461269575,8.091602635,15.146333007500001C8.003173411,15.1465390575,7.93143542213,15.0748006275,7.931640625,14.9863709675C7.93184540214,14.8979413065,8.003916316,14.82653666049,8.092344285,14.8271526948211C8.179867965,14.8271522690889,8.250820485,14.8981047795,8.250820485,14.9856289175ZM7.953956224,16.0826873375L8.221803425,16.0826873375L8.221803425,15.3014654775L7.953955797,15.3014654775L7.953956224,16.0826873375Z" fill="#000000" fill-opacity="1" style="mix-blend-mode:passthrough"/><path d="M8.42578125,14.78125L8.69362891,14.78125L8.69362891,16.0825423L8.42578125,16.0825423L8.42578125,14.78125Z" fill="#000000" fill-opacity="1" style="mix-blend-mode:passthrough"/><path d="M8.8896484375,14.78125L9.1574960975,14.78125L9.1574960975,16.0825423L8.8896484375,16.0825423L8.8896484375,14.78125Z" fill="#000000" fill-opacity="1" style="mix-blend-mode:passthrough"/><path d="M10.1932024075,15.283203125C10.4510053375,15.283203125,10.6563554975,15.452839475,10.6563554975,15.695018885C10.6563554975,15.937198285000001,10.4610500975,16.104602095,10.1932024075,16.104602095C9.9253547675,16.104602095,9.7255859375,15.931616965,9.7255859375,15.695018025C9.7255859375,15.458419125,9.9320515275,15.283203125,10.1932024075,15.283203125ZM10.1932024075,15.875815395C10.2942218175,15.879131855,10.3768257475,15.796015325,10.3728834375,15.695018025C10.3730785275,15.595028045,10.2920752775,15.513867335,10.1920861275,15.513867335C10.0920969875,15.513867335,10.0110938275,15.595028875,10.0112896575,15.695018025C10.0065818775,15.796756085,10.0903489275,15.880523145,10.1920861275,15.875815395L10.1932024075,15.875815395Z" fill="#000000" fill-opacity="1" style="mix-blend-mode:passthrough"/><path d="M10.7958984375,15.305523409L11.0637460975,15.305523409L11.0637460975,15.386994055C11.1213518975,15.324046161,11.2016952075,15.2866873166,11.2869523175,15.283203125C11.4286878675,15.283203125,11.6217616175,15.354629055,11.6217616175,15.571139365L11.6217616175,16.082281825L11.3539140175,16.082281825L11.3539140175,15.643680695C11.3583407375,15.562869075,11.2953077275,15.494288755,11.2144100975,15.491900395C11.1305434375,15.494522065,11.0621717275,15.560004775,11.0559338975,15.643680695L11.0559338975,16.082280995L10.7958984375,16.082280995L10.7958984375,15.305523409Z" fill="#000000" fill-opacity="1" style="mix-blend-mode:passthrough"/><path d="M12.5227252825,16.0829796225L12.1064453125,15.3017578125L12.4155855725,15.3017578125L12.6041951225,15.7213857725L12.7905721025,15.3017578125L12.9747173825,15.3017578125L13.1610944125,15.7213857725L13.3497039125,15.3017578125L13.6588442125,15.3017578125L13.2425642125,16.0829796225L13.0606514225,16.0829796225L12.8820865725,15.6812085525L12.7046380625,16.0829796225L12.5227252825,16.0829796225Z" fill="#000000" fill-opacity="1" style="mix-blend-mode:passthrough"/><path d="M13.733677,14.78125L14.0015246525,14.78125L14.0015246525,15.38725448C14.0591313225,15.3243075,14.1394737625,15.28694779,14.2247308825,15.2834636C14.3664664625,15.2834636,14.5651206925,15.35488951,14.5651206925,15.571399809999999L14.5651206925,16.0825423L14.2972730425,16.0825423L14.2972730425,15.643942C14.3023673925,15.56289285,14.2389596725,15.49390548,14.1577691725,15.49216169C14.0741128325,15.49528491,14.0060220925,15.56049943,13.9992929725,15.643942L13.9992929725,16.0825423L13.7314453125,16.0825423L13.733677,14.78125Z" fill="#000000" fill-opacity="1" style="mix-blend-mode:passthrough"/><path d="M14.9713929325,15.7311423425C14.9699496925,15.8231557625,15.0469195225,15.8970467425,15.1387975825,15.8918510725C15.2126042225,15.8977193825,15.2842532425,15.8652666225,15.3285225625,15.8059170825L15.5215954825,15.9018957625C15.4361493625,16.0399419625,15.2805067925,16.1184104125,15.1187081625,16.1050134325C14.8918849125,16.1050134325,14.7080078125,15.9211372125,14.7080078125,15.6943139125C14.7080078125,15.4674906925,14.8918849125,15.2836144492,15.1187081625,15.2836144492C15.3545449925,15.2637736295,15.5522856725,15.459394122500001,15.5349873325,15.6954302225C15.5349873325,15.7054740825,15.5349873325,15.7222147325,15.5349873325,15.7311431425L14.9713929325,15.7311423425ZM15.2738381625,15.5827099725C15.2673277825,15.5076925725,15.201599892499999,15.4519225325,15.1265220625,15.4577141825C15.0504071125,15.4492770325,14.9827293425,15.5062689325,14.9780896925,15.5827099725L15.2738381625,15.5827099725Z" fill="#000000" fill-opacity="1" style="mix-blend-mode:passthrough"/><path d="M15.897592455,15.7311423425C15.896802275,15.8233312325,15.974064145,15.8970118125,16.066112515,15.8918510725C16.139612615,15.8977568725,16.210946615,15.8652564325,16.254722055,15.8059170825L16.448912085,15.9018957625C16.362716675,16.0414652825,16.204897825,16.1201584325,16.041559725,16.1050134325C15.814736475,16.1050134325,15.630859375,15.9211372125,15.630859375,15.6943139125C15.630859375,15.4674906925,15.814736475,15.2836144492,16.041559725,15.2836144492C16.277396555,15.2637736295,16.475137235,15.459394122500001,16.457838895,15.6954302225C16.458981515,15.7073064425,16.458981515,15.7192660825,16.457838895,15.7311431425L15.897592455,15.7311423425ZM16.200037655,15.5827099725C16.193523945,15.5081591925,16.128495905,15.4525628225,16.053837835,15.4577141825C15.977723745,15.4492770325,15.910045955,15.5062689325,15.905405495,15.5827099725L16.200037655,15.5827099725Z" fill="#000000" fill-opacity="1" style="mix-blend-mode:passthrough"/><path d="M16.599609375,14.78125L16.867457035,14.78125L16.867457035,16.0825423L16.599609375,16.0825423L16.599609375,14.78125Z" fill="#000000" fill-opacity="1" style="mix-blend-mode:passthrough"/><path d="M17.66068977,15.3441657425L17.57363945,15.5193825925C17.51982176,15.4918385925,17.46097031,15.4755117425,17.40065426,15.4713932125C17.34150475,15.4713932125,17.31806734,15.4825533625,17.31806734,15.5182663225C17.31806734,15.5539792825,17.37163636,15.5718362025,17.43859893,15.5930402025C17.54127359,15.6242889425,17.67408156,15.6812067925,17.67408156,15.8407992725C17.67408156,16.0640054925,17.4653843,16.1052989325,17.30690807,16.1052989325C17.1979598,16.1066902325,17.092024021,16.0695332325,17.0078125,16.0003917225L17.11941563,15.8173626625C17.17389913,15.8643252225,17.2403542,15.8952350625,17.31137311,15.9066455325C17.34931779,15.9066455325,17.39507547,15.9066455325,17.39507547,15.8508440225C17.39507547,15.7950424525,17.31025773,15.7905781825,17.2232074,15.7392408825C17.13211776,15.7083258925,17.069530033,15.6244336925,17.065846603,15.5283110625C17.065846603,15.3687185645,17.19977,15.2783203125,17.40065596,15.2783203125C17.49121597,15.2801841676,17.5801549,15.3027053955,17.66068977,15.3441657425Z" fill="#000000" fill-opacity="1" style="mix-blend-mode:passthrough"/></g></g></svg>