<svg xmlns="http://www.w3.org/2000/svg" xmlns:xlink="http://www.w3.org/1999/xlink" fill="none" version="1.1" width="24" height="24" viewBox="0 0 24 24"><defs><clipPath id="master_svg0_159_01022"><rect x="0" y="0" width="24" height="24" rx="0"/></clipPath><clipPath id="master_svg1_159_00919"><rect x="0.3330078125" y="9.62109375" width="23.334030151367188" height="4.757017135620117" rx="0"/></clipPath></defs><g clip-path="url(#master_svg0_159_01022)"><g clip-path="url(#master_svg1_159_00919)"><g style="opacity:0.5299999713897705;"><path d="M5.3978720125,9.686915159225464L4.6146154125,11.686947059225464L3.8547397125,9.747315530225464L3.1864385125,9.747315530225464L2.4226661125,11.688895259225465L1.6423321125,9.686915159225464L0.3330078125,9.686915159225464L2.1430707125,14.315337859225464L2.6973903125,14.315337859225464L3.5157177125,12.225679359225463L4.3340454125,14.315337859225464L4.8922620125,14.315337859225464L6.7032990125,9.686915159225464L5.3978720125,9.686915159225464Z" fill="#040000" fill-opacity="1" style="mix-blend-mode:passthrough"/><path d="M17.762141737500002,9.686915159225464L16.9818067375,11.688895259225465L16.2180345375,9.747315530225464L15.550708737499999,9.747315530225464L14.7908327375,11.686947059225464L14.0075754375,9.686915159225464L12.7021484375,9.686915159225464L14.5122115375,14.315337859225464L15.0704274375,14.315337859225464L15.8887546375,12.225679359225463L16.7070832375,14.315337859225464L17.2614030375,14.315337859225464L19.0714659375,9.686915159225464L17.762141737500002,9.686915159225464Z" fill="#040000" fill-opacity="1" style="mix-blend-mode:passthrough"/><path d="M5.9326171875,14.315067559225463L7.1221152875,14.315067559225463L6.5268791875,12.796290159225464L5.9326171875,14.315067559225463Z" fill="#040000" fill-opacity="1" style="mix-blend-mode:passthrough"/><path d="M12.2822265625,14.315067559225463L13.4717234625,14.315067559225463L12.8774625625,12.796290159225464L12.2822265625,14.315067559225463Z" fill="#040000" fill-opacity="1" style="mix-blend-mode:passthrough"/><path d="M10.8592441,9.913687679225465C10.136569699999999,9.527990989225463,9.2691684,9.527990989225463,8.5464938,9.913687679225465C8.18963981,10.107065979225464,7.89351648,10.395769479225464,7.69114661,10.747602559225463C7.4756063,11.129395359225464,7.3665937819,11.562082159225463,7.37550615688,12.000423459225464C7.3678491404,12.436150059225463,7.47682524,12.866000459225464,7.69114661,13.245450459225463C7.89280295,13.598906059225463,8.18811464,13.889836059225463,8.5445457,14.086185259225463C9.2670665,14.476611859225464,10.1376972,14.476611859225464,10.860217800000001,14.086185259225463C11.2166491,13.889836059225463,11.5119605,13.598906559225464,11.7136168,13.245450459225463C11.9284453,12.865142059225464,12.0374384,12.434214359225464,12.029257300000001,11.997500859225465C12.0380263,11.559175259225464,11.9290233,11.126525859225463,11.7136168,10.744679959225463C11.5109239,10.394181909225464,11.21523,10.106580349225464,10.8592441,9.913687679225465ZM10.6010811,12.665801959225464C10.5175474,12.828467159225465,10.3890557,12.963721059225463,10.230885,13.055481659225464C9.9042733,13.236690959225463,9.5073097,13.236690959225463,9.1806979,13.055481659225464C9.021067500000001,12.964020059225463,8.8909279,12.828809059225463,8.8056313,12.665801959225464C8.7028487,12.460479259225464,8.6526374,12.232855059225464,8.6595013,12.003346159225464C8.6523215,11.771635259225464,8.7014625,11.541641159225463,8.8027087,11.333096659225465C8.8826957,11.169854059225464,9.0095522,11.034177759225464,9.1670592,10.943416759225464C9.5019083,10.764683459225465,9.9038303,10.764683459225465,10.2386787,10.943416759225464C10.3960006,11.035018959225464,10.5232728,11.170414759225464,10.6049781,11.333096659225465C10.7071497,11.540657659225463,10.7566659,11.770174459225464,10.749159800000001,12.001397659225464C10.7551758,12.231672059225463,10.7043149,12.459876559225464,10.6010811,12.665801959225464Z" fill="#040000" fill-opacity="1" style="mix-blend-mode:passthrough"/><path d="M21.387726725,11.016228434225464L20.998046875,10.298243284225464L21.284461795,10.298243284225464L21.458842875,10.687923164225463L21.631276605,10.298243284225464L21.801761565,10.298243284225464L21.974195305,10.687923164225463L22.155396475,10.303114301525463L22.440836275,10.303114301525463L22.051156375,11.021099444225463L21.883593975,11.021099444225463L21.718954025,10.650903554225463L21.553340375,11.021099444225463L21.387726725,11.016228434225464Z" fill="#060001" fill-opacity="1" style="mix-blend-mode:passthrough"/><path d="M22.78248996,10.001988069225463C22.78248847,10.083231699225465,22.71662861,10.149092229225463,22.63538486,10.149092229225463C22.554141104,10.149092229225463,22.48828125,10.083231439225464,22.48828125,10.001988069225463C22.48828125,9.920744672225464,22.554142594,9.854883909225464,22.63538635,9.854883909225464C22.71640861,9.855415522645464,22.78195927,9.920966163225463,22.78248996,10.001988069225463ZM22.507764945,11.016130009225463L22.75618616,11.016130009225463L22.75618616,10.303015769225464L22.507764945,10.303015769225464L22.507764945,11.016130009225463Z" fill="#060001" fill-opacity="1" style="mix-blend-mode:passthrough"/><path d="M22.9443359375,9.816797971725464L23.1927571475,9.816797971725464L23.1927571475,11.017011971725463L22.9443359375,11.017011971725463L22.9443359375,9.816797971725464Z" fill="#060001" fill-opacity="1" style="mix-blend-mode:passthrough"/><path d="M23.3740234375,9.816797971725464L23.6224446475,9.816797971725464L23.6224446475,11.017011971725463L23.3740234375,11.017011971725463L23.3740234375,9.816797971725464Z" fill="#060001" fill-opacity="1" style="mix-blend-mode:passthrough"/><path d="M22.3085214225,11.804102659225464C22.5472000225,11.804102659225464,22.7371686725,11.960948869225463,22.7371686725,12.185014729225465C22.7371686725,12.409080569225464,22.5559675125,12.563978369225463,22.3085214225,12.563978369225463C22.0610753925,12.563978369225463,21.8759765625,12.406157909225463,21.8759765625,12.185014729225465C21.8759765625,11.963871539225464,22.0669203425,11.804102659225464,22.3085214225,11.804102659225464ZM22.3085214225,12.352577209225464C22.4020794625,12.355459509225463,22.4785366025,12.278554709225464,22.4751102325,12.185014899225465C22.4751087425,12.092472379225464,22.4000890225,12.017452259225465,22.3075462925,12.017452259225465C22.2150050425,12.017452259225465,22.1399838325,12.092472939225464,22.1399853225,12.185014899225465C22.1382163725,12.277673039225464,22.2149574725,12.352628829225464,22.3075477825,12.348680319225464L22.3085214225,12.352577209225464Z" fill="#060001" fill-opacity="1" style="mix-blend-mode:passthrough"/><path d="M22.8652271675,11.825534986225463L23.1126732275,11.825534986225463L23.1126732275,11.901522629225465C23.1652258375,11.842622425225464,23.2393670375,11.807484285425463,23.3182294075,11.804102659225464C23.4497469675,11.804102659225464,23.6328954675,11.869374044225465,23.6328954675,12.070059119225464L23.6328954675,12.544494269225464L23.3854494075,12.544494269225464L23.3854494075,12.138252999225465C23.3898792275,12.063572199225463,23.3316377075,12.000037789225464,23.2568543575,11.997968199225465C23.1793447175,12.000671039225464,23.1161263875,12.060958889225464,23.1097507375,12.138252999225465L23.1097507375,12.544494269225464L22.8623046875,12.544494269225464L22.8652271675,11.825534986225463Z" fill="#060001" fill-opacity="1" style="mix-blend-mode:passthrough"/><path d="M18.898480385,14.324822124225463L18.513671875,13.606837034225464L18.799111635,13.606837034225464L18.974467845,13.996516914225463L19.146901605,13.606837034225464L19.317386505,13.606837034225464L19.489820245,13.996516914225463L19.664201275,13.606837034225464L19.949641075,13.606837034225464L19.559961175,14.324822124225463L19.392398775,14.324822124225463L19.232630135,13.953652264225465L19.067990185,14.324822484225464L18.898480385,14.324822124225463Z" fill="#060001" fill-opacity="1" style="mix-blend-mode:passthrough"/><path d="M20.0195240425,13.120508909225464L20.2669701025,13.120508909225464L20.2669701025,13.681648139225464C20.3200459525,13.623455349225464,20.3938764925,13.588464739225463,20.4725262825,13.584228189225463C20.6050174825,13.584228189225463,20.7881674725,13.650473769225464,20.7881674725,13.850184619225464L20.7881674725,14.323645709225463L20.5397462825,14.323645709225463L20.5397462825,13.918378709225465C20.5441761025,13.843697909225464,20.4859345825,13.780163649225464,20.4111512325,13.778094049225464C20.3338214425,13.781224669225464,20.2708409725,13.841285649225464,20.2640476125,13.918378709225465L20.2640476125,14.324619809225464L20.0166015625,14.324619809225464L20.0195240425,13.120508909225464Z" fill="#060001" fill-opacity="1" style="mix-blend-mode:passthrough"/><path d="M21.16445273,13.999729126725464C21.16316541,14.085293826725463,21.23490441,14.153893646725464,21.32032526,14.148781536725464C21.38844165,14.154590126725465,21.4546181,14.124274196725464,21.49470633,14.068897216725464L21.67395872,14.158523436725464C21.59496552,14.285905126725464,21.45116943,14.358179626725464,21.30181375,14.345569546725464C21.09197938,14.345569546725464,20.921875,14.175465526725464,20.921875,13.965631546725463C20.921875,13.755797926725464,21.09197938,13.585693888525464,21.30181375,13.585693888525464C21.52001268,13.567080914725464,21.70301408,13.748229716725463,21.68662232,13.966605956725465C21.68662232,13.976347806725464,21.68662232,13.991934986725465,21.68662232,13.999728766725465L21.16445273,13.999729126725464ZM21.44404757,13.863341036725464C21.43885666,13.793705436725464,21.37828133,13.741409976725464,21.30863386,13.746436986725463C21.23788488,13.739096596725464,21.17533696,13.792328176725464,21.17127135,13.863341036725464L21.44404757,13.863341036725464Z" fill="#060001" fill-opacity="1" style="mix-blend-mode:passthrough"/><path d="M22.0228511675,13.999729126725464C22.0209870775,14.085139576725464,22.0924718975,14.153927866725464,22.1777485575,14.148781536725464C22.2461979075,14.154944656725464,22.3128322375,14.124589326725463,22.3531047675,14.068897216725464L22.5323571575,14.158523436725464C22.4530518075,14.285562096725464,22.3094801275,14.357723656725463,22.1602121875,14.345569546725464C21.9503778175,14.345569546725464,21.7802734375,14.175465526725464,21.7802734375,13.965631546725463C21.7802734375,13.755797926725464,21.9503778175,13.585693888525464,22.1602121875,13.585693888525464C22.3784111175,13.567079800725464,22.5614140075,13.748229356725464,22.5450222475,13.966606316725464C22.5460494175,13.977623226725465,22.5460494175,13.988711866725463,22.5450222475,13.999729126725464L22.0228511675,13.999729126725464ZM22.3024460075,13.863341036725464C22.2967452375,13.793963716725465,22.2364999075,13.741952556725463,22.1670322975,13.746436986725463C22.0960930275,13.738483416725463,22.0331601175,13.792044256725465,22.0296697875,13.863341036725464L22.3024460075,13.863341036725464Z" fill="#060001" fill-opacity="1" style="mix-blend-mode:passthrough"/><path d="M22.671875,13.120508909225464L22.92029621,13.120508909225464L22.92029621,14.324619809225464L22.671875,14.324619809225464L22.671875,13.120508909225464Z" fill="#060001" fill-opacity="1" style="mix-blend-mode:passthrough"/><path d="M23.6547833075,13.641872696725464L23.5729508975,13.803589831725464C23.5236834575,13.777842711725464,23.4696146275,13.762584061725464,23.4141558675,13.758776741725464C23.3596009275,13.758776741725464,23.3371947675,13.768518581725465,23.3371947675,13.802615791725463C23.3371947675,13.836713011725465,23.3868783975,13.851325781725464,23.4492271275,13.870809851725465C23.5466470975,13.900035771725463,23.6674483975,13.953616681725464,23.6674483975,14.100721061725464C23.6674483975,14.312122161725464,23.4726084475,14.345245001725464,23.3274521875,14.345245001725464C23.2263218775,14.346465411725465,23.1280025835,14.311967191725463,23.0498046875,14.247825021725465L23.1472246495,14.078314121725464C23.1978314175,14.121900081725464,23.2595528175,14.150568541725464,23.3255033475,14.161120951725463C23.3605746075,14.161120951725463,23.4024644775,14.161120951725463,23.4024644775,14.109488491725465C23.4024644775,14.057856021725463,23.3245282175,14.052984711725465,23.2426957975,14.012068511725463C23.1589546975,13.983005731725465,23.1014252565,13.905785591725463,23.0975395185,13.817228571725463C23.0975395185,13.670124575725463,23.2222369475,13.586343343577465,23.4112319075,13.586343343577465C23.4956211175,13.585732016015465,23.5789980275,13.604741515725465,23.6547833075,13.641872696725464Z" fill="#060001" fill-opacity="1" style="mix-blend-mode:passthrough"/></g></g></g></svg>