<svg xmlns="http://www.w3.org/2000/svg" xmlns:xlink="http://www.w3.org/1999/xlink" fill="none" version="1.1" width="24" height="24" viewBox="0 0 24 24"><defs><clipPath id="master_svg0_151_18271"><rect x="0" y="0" width="24" height="24" rx="0"/></clipPath></defs><g clip-path="url(#master_svg0_151_18271)"><path d="M0.907799925,13.278901854870224L0.615234375,10.89867197295471L1.346087875,10.89867197295471C1.360286415,11.241142984870224,1.385320905,12.014831654870225,1.396156605,12.353889154870224L1.428290305,12.353889154870224C1.474622605,11.933290954870223,1.499656915,11.389433294870225,1.5459890349999998,10.89867197295471L2.1128116749999997,10.89867197295471C2.148308175,11.304858504870223,2.169979575,11.894606674870223,2.2163117750000003,12.350096754870224L2.251808675,12.350096754870224C2.262644275,11.975767954870225,2.294778075,11.135329764870225,2.305240175,10.898671954870224L2.975563075,10.898671954870224L2.647874375,13.278901854870224L1.913284275,13.278901854870224C1.877787675,12.985734754870224,1.845653975,12.675121954870225,1.802684675,12.208632954870223L1.774287675,12.208632954870223C1.735054575,12.646677454870224,1.692085375,12.929225754870224,1.656588675,13.278901854870224L0.907799925,13.278901854870224Z" fill="#000000" fill-opacity="1" style="mix-blend-mode:passthrough"/><path d="M3.8457865712268067,10.898671973496675L3.8457865712268067,13.278901873496675L3.1395936012268066,13.278901873496675L3.1395936012268066,10.898671973496675L3.8457865712268067,10.898671973496675Z" fill="#000000" fill-opacity="1" style="mix-blend-mode:passthrough"/><path d="M4.127516984939575,10.898671973496675L4.833710074939575,10.898671973496675L4.833710074939575,12.742250573496676L5.500670084939575,12.742250573496676L5.433040384939575,13.278901873496675L4.127516984939575,13.278901873496675L4.127516984939575,10.898671973496675Z" fill="#000000" fill-opacity="1" style="mix-blend-mode:passthrough"/><path d="M5.646391868591309,10.898671973496675L6.352584658591309,10.898671973496675L6.352584658591309,12.742250573496676L7.019544968591308,12.742250573496676L6.951915268591309,13.278901873496675L5.646765880551309,13.278901873496675L5.646765880551309,10.898671973496675L5.646391868591309,10.898671973496675Z" fill="#000000" fill-opacity="1" style="mix-blend-mode:passthrough"/><path d="M9.40490744890747,12.07816819026947C9.40490744890747,12.92922579026947,9.180345548907471,13.32820639026947,8.517121968907471,13.32820639026947C7.896494148907471,13.32820639026947,7.679031848907471,12.90457379026947,7.679031848907471,12.05692969026947C7.679031848907471,11.26238155026947,7.896494758907471,10.84557569026947,8.54215681890747,10.84557569026947C9.176609048907471,10.84557569026947,9.40490744890747,11.25517571026947,9.40490744890747,12.07816819026947ZM8.43491923890747,12.06375659026947C8.43491923890747,12.741871790269471,8.449117778907471,12.81962029026947,8.541782198907471,12.81962029026947C8.63818335890747,12.81962029026947,8.648645338907471,12.73845859026947,8.648645338907471,12.06375659026947C8.648645338907471,11.41749859026947,8.637809808907472,11.35378301026947,8.541782198907471,11.35378301026947C8.459953488907471,11.35416228026947,8.43491923890747,11.41408521026947,8.43491923890747,12.06375659026947Z" fill="#000000" fill-opacity="1" style="mix-blend-mode:passthrough"/><path d="M9.636569023132324,13.278901873496675L9.636569023132324,10.898671973496675L10.385358093132325,10.898671973496675C10.577786143132323,11.802825793496675,10.642053323132323,12.095993073496675,10.659988723132324,12.184360473496675L10.681287123132325,12.184360473496675C10.652889323132325,11.845302873496676,10.631218493132325,11.371987423496675,10.631218493132325,11.036722303496676L10.631218493132325,10.898671973496675L11.251846923132325,10.898671973496675L11.251846923132325,13.278901873496675L10.488858883132323,13.278901873496675C10.282232163132324,12.209012173496676,10.250098053132325,12.007625573496675,10.232163663132324,11.922671573496675L10.207128763132324,11.922671573496675C10.228427053132325,12.198013773496676,10.257197503132325,12.823411973496675,10.257197503132325,13.144644373496675L10.257197503132325,13.278901873496675L9.636569023132324,13.278901873496675Z" fill="#000000" fill-opacity="1" style="mix-blend-mode:passthrough"/><path d="M12.228558334580079,13.278901854870224L11.935993194580078,10.898671954870224L12.666846694580078,10.898671954870224C12.681045414580078,11.241142984870224,12.706079124580079,12.014831654870225,12.716915194580078,12.353889154870224L12.749048474580079,12.353889154870224C12.795380114580079,11.933669854870224,12.820415084580079,11.389812464870223,12.866746964580079,10.898671954870224L13.433569994580079,10.898671954870224C13.469066994580079,11.304858414870225,13.490737894580079,11.894606324870225,13.537069694580078,12.350096754870224L13.572566794580078,12.350096754870224C13.583402594580079,11.975767954870225,13.615536094580078,11.135329764870225,13.625997694580079,10.898671954870224L14.296320894580077,10.898671954870224L13.968258894580078,13.278901854870224L13.233668594580077,13.278901854870224C13.198171594580078,12.985734754870224,13.166038594580078,12.675121954870225,13.123069394580078,12.208632954870223L13.095045894580078,12.208632954870223C13.055813394580078,12.646677454870224,13.012842994580078,12.929225754870224,12.977347094580079,13.278901854870224L12.228558334580079,13.278901854870224Z" fill="#000000" fill-opacity="1" style="mix-blend-mode:passthrough"/><path d="M14.460723876953125,10.898671973496675L15.166916486953125,10.898671973496675L15.166916486953125,11.749729563496675L15.366443986953126,11.749729563496675L15.366443986953126,10.898671973496675L16.079735976953124,10.898671973496675L16.079735976953124,13.278901873496675L15.366443986953126,13.278901873496675L15.366443986953126,12.318238973496676L15.166916486953125,12.318238973496676L15.166916486953125,13.278901873496675L14.460723876953125,13.278901873496675L14.460723876953125,10.898671973496675Z" fill="#000000" fill-opacity="1" style="mix-blend-mode:passthrough"/><path d="M17.716311226403807,12.325445073496676L17.05645066640381,12.325445073496676L17.05645066640381,12.756283473496676L17.81233932640381,12.756283473496676L17.73387272640381,13.278901873496675L16.36819362640381,13.278901873496675L16.36819362640381,10.898671973496675L17.74470862640381,10.898671973496675L17.74470862640381,11.424704303496675L17.05645066640381,11.424704303496675L17.05645066640381,11.799033333496675L17.716311226403807,11.799033333496675L17.716311226403807,12.325445073496676Z" fill="#000000" fill-opacity="1" style="mix-blend-mode:passthrough"/><path d="M19.3457868199707,12.325445073496676L18.685926259970703,12.325445073496676L18.685926259970703,12.756283473496676L19.441814919970703,12.756283473496676L19.363348319970704,13.278901873496675L17.997669219970703,13.278901873496675L17.997669219970703,10.898671973496675L19.374184219970704,10.898671973496675L19.374184219970704,11.424704303496675L18.685926259970703,11.424704303496675L18.685926259970703,11.799033333496675L19.3457868199707,11.799033333496675L19.3457868199707,12.325445073496676Z" fill="#000000" fill-opacity="1" style="mix-blend-mode:passthrough"/><path d="M19.627513885498047,10.898671973496675L20.333706495498046,10.898671973496675L20.333706495498046,12.742250573496676L21.000665385498046,12.742250573496676L20.933035485498046,13.278901873496675L19.62788675719805,13.278901873496675L19.62788675719805,10.898671973496675L19.627513885498047,10.898671973496675Z" fill="#000000" fill-opacity="1" style="mix-blend-mode:passthrough"/><path d="M21.117998123168945,12.56551609026947L21.809619073168946,12.56551609026947C21.809619073168946,12.77752249026947,21.838016513168945,12.84806429026947,21.920219483168946,12.84806429026947C22.002048313168945,12.84806429026947,22.023720383168946,12.78434859026947,22.023720383168946,12.68574159026947C22.023720383168946,12.55489729026947,21.963189783168946,12.48094139026947,21.709856093168945,12.33265109026947C21.296228503168944,12.08878759026947,21.143034117168945,11.89460669026947,21.143034117168945,11.55554891026947C21.143034117168945,11.12471047026947,21.385530653168946,10.84557569026947,21.920219483168946,10.84557569026947C22.483679623168946,10.84557569026947,22.690305423168944,11.14936241026947,22.690305423168944,11.60485268026947L22.023346483168947,11.60485268026947C22.023346483168947,11.39284682026947,22.002048313168945,11.325717840269471,21.923583333168946,11.325717840269471C21.863052483168946,11.325717840269471,21.838018953168945,11.36819500026947,21.838018953168945,11.45997560026947C21.838018953168945,11.555169580269471,21.859317003168947,11.618885160269471,22.091352703168944,11.753142890269471C22.558411523168946,12.02165869026947,22.722443223168945,12.20521989026947,22.722443223168945,12.59016809026947C22.722443223168945,13.021006490269471,22.501244523168946,13.32820639026947,21.930684923168947,13.32820639026947C21.317526623168945,13.32820639026947,21.125097509468944,13.05286419026947,21.117998123168945,12.56551609026947Z" fill="#000000" fill-opacity="1" style="mix-blend-mode:passthrough"/><path d="M23.032187583421813,10.965800871037542L23.032187583421813,11.078820091037542L22.991459047421813,11.078820091037542L22.991459047421813,10.822440871037543L23.112520347421814,10.822440871037543C23.17604078742181,10.822440871037543,23.210041647421814,10.850885325037543,23.210041647421814,10.891086788037542C23.210041647421814,10.924461601037542,23.186875747421812,10.944562341037543,23.157358457421815,10.951388991037543C23.182766157421813,10.957077911037542,23.204438337421813,10.972627511037542,23.204438337421813,11.017000881037543L23.204438337421813,11.027999361037542C23.204438337421813,11.045824611037542,23.203316317421812,11.068200911037543,23.208547907421814,11.078820151037544L23.16856740742181,11.078820151037544C23.162961767421812,11.067821611037543,23.163335807421813,11.047720901037543,23.163335807421813,11.023827561037542L23.163335807421813,11.018138641037543C23.163335807421813,10.981729741037542,23.151004797421812,10.965800871037542,23.095331757421814,10.965800871037542L23.032187583421813,10.965800871037542ZM23.032187583421813,10.936977161037543L23.099443597421814,10.936977161037543C23.14689749742181,10.936977161037543,23.16744762742181,10.922186070037544,23.16744762742181,10.893362337037543C23.16744762742181,10.866055676037544,23.146149487421813,10.850506040037542,23.103927197421815,10.850506040037542L23.031813571421814,10.850506040037542L23.031813571421814,10.936977161037543L23.032187583421813,10.936977161037543Z" fill="#000000" fill-opacity="1" style="mix-blend-mode:passthrough"/><path d="M23.22685621709221,11.09019784592724L23.16146798709221,11.09019784592724L23.158478197092208,11.08412970592724C23.151752797092207,11.071234835927239,23.151752797092207,11.052271965927238,23.151752797092207,11.027999385927238L23.151752797092207,11.018138615927239C23.151752797092207,10.989694175927239,23.146521177092207,10.97717864592724,23.09533174709221,10.97717864592724L23.04339424509221,10.97717864592724L23.04339424509221,11.090197875927238L22.97949978709221,11.090197875927238L22.97949978709221,10.811063095927238L23.11214402709221,10.811063095927238C23.19247907709221,10.811063095927238,23.221248317092208,10.852402351927239,23.221248317092208,10.891086764927238C23.221248317092208,10.917255645927238,23.208917317092208,10.938873435927238,23.18687343709221,10.951768235927238C23.20592979709221,10.964663055927238,23.21564501709221,10.98666006592724,23.21564501709221,11.017000805927239L23.21564501709221,11.035584495927239C23.21564501709221,11.048858615927239,23.215270947092208,11.067063045927238,23.218634847092208,11.073889685927238L23.22685621709221,11.09019784592724ZM23.17678878709221,11.06744237592724L23.193977387092207,11.06744237592724C23.19285531709221,11.057581635927239,23.19285531709221,11.046203795927239,23.19285531709221,11.035205285927239L23.19285531709221,11.017000835927238C23.19285531709221,10.976040825927239,23.17230522709221,10.966180115927239,23.15474258709221,10.962387545927239L23.15474258709221,10.940011215927239C23.16781934709221,10.936977145927239,23.19883267709221,10.926357905927238,23.19883267709221,10.890707544927238C23.19883267709221,10.855057175927238,23.16669960709221,10.833439394927238,23.112894337092207,10.833439394927238L23.003416028092207,10.833439394927238L23.003416028092207,11.067063045927238L23.02135035009221,11.067063045927238L23.02135035009221,10.954423065927239L23.096079747092208,10.954423065927239C23.15399460709221,10.954423065927239,23.175666747092208,10.971489725927238,23.175666747092208,11.018138615927239L23.175666747092208,11.027620125927239C23.17492101709221,11.043169735927238,23.17492101709221,11.057960835927238,23.17678878709221,11.06744237592724ZM23.09944358709221,10.948354915927238L23.020604618092207,10.948354915927238L23.020604618092207,10.839507540927238L23.10392716709221,10.839507540927238C23.17155718709221,10.839507540927238,23.179030597092208,10.877433456927239,23.179030597092208,10.893741599927239C23.179030597092208,10.930150495927238,23.15250080709221,10.948354915927238,23.09944358709221,10.948354915927238ZM23.043770537092207,10.925599385927239L23.09944358709221,10.925599385927239C23.156238677092208,10.925599385927239,23.156238677092208,10.90398158892724,23.156238677092208,10.893362350927239C23.156238677092208,10.872503079927238,23.13867834709221,10.86188383792724,23.104301187092208,10.86188383792724L23.043770537092207,10.86188383792724L23.043770537092207,10.925599385927239Z" fill="#000000" fill-opacity="1" style="mix-blend-mode:passthrough"/><path d="M23.10131138077216,11.219904423387979C22.95185254077216,11.219904423387979,22.83041727077216,11.099679403387977,22.83041727077216,10.951768213387979C22.83041727077216,10.803857173387978,22.95185254077216,10.683632013387978,23.10131138077216,10.683632013387978C23.25077021077216,10.683632013387978,23.37220549077216,10.803857173387978,23.37220549077216,10.951768213387979C23.37220549077216,11.099679403387977,23.25077021077216,11.219904423387979,23.10131138077216,11.219904423387979ZM23.10131138077216,10.720040910387977C22.97240267077216,10.720040910387977,22.86740796577216,10.823957933387979,22.86740796577216,10.951768243387978C22.86740796577216,11.079578573387979,22.97240267077216,11.183495573387978,23.10131138077216,11.183495573387978C23.23022007077216,11.183495573387978,23.33521479077216,11.079578573387979,23.33521479077216,10.951768213387979C23.33521479077216,10.823957903387978,23.23022007077216,10.720040910387977,23.10131138077216,10.720040910387977Z" fill="#000000" fill-opacity="1" style="mix-blend-mode:passthrough"/><path d="M23.10131138480957,11.23128223C22.94550119480957,11.23128223,22.81883430480957,11.10574755,22.81883430480957,10.95138901C22.81883430480957,10.79703054,22.94550119480957,10.671875,23.10131138480957,10.671875C23.257121594809572,10.671875,23.38378846480957,10.79740977,23.38378846480957,10.95138901C23.38378846480957,11.10574755,23.257121594809572,11.23128223,23.10131138480957,11.23128223ZM23.10131138480957,10.69463055C22.95820391480957,10.69463055,22.84200023680957,10.80992533,22.84200023680957,10.95138901C22.84200023680957,11.09323183,22.95820391480957,11.20852661,23.10131138480957,11.20852661C23.24441885480957,11.20852661,23.36062252480957,11.09323183,23.36062252480957,10.95138901C23.36062252480957,10.80992533,23.24441885480957,10.69463055,23.10131138480957,10.69463055ZM23.10131138480957,11.19449419C22.96605132480957,11.19449419,22.856199010809572,11.08564672,22.856199010809572,10.95138901C22.856199010809572,10.81713122,22.96642531480957,10.708283883,23.10131138480957,10.708283883C23.23657137480957,10.708283883,23.34642374480957,10.81713122,23.34642374480957,10.95138901C23.34642374480957,11.08564672,23.23657137480957,11.19449419,23.10131138480957,11.19449419ZM23.10131138480957,10.731418688C22.97875408480957,10.731418688,22.87899092580957,10.83002608,22.87899092580957,10.95176825C22.87899092580957,11.07351038,22.97875408480957,11.17211783,23.10131138480957,11.17211783C23.22386869480957,11.17211783,23.323631884809572,11.07351038,23.323631884809572,10.95176825C23.323631884809572,10.83002612,23.22386869480957,10.731418688,23.10131138480957,10.731418688Z" fill="#000000" fill-opacity="1" style="mix-blend-mode:passthrough"/></g></svg>