<svg xmlns="http://www.w3.org/2000/svg" xmlns:xlink="http://www.w3.org/1999/xlink" fill="none" version="1.1" width="24" height="24" viewBox="0 0 24 24"><defs><clipPath id="master_svg0_159_00135"><rect x="0" y="0" width="24" height="24" rx="0"/></clipPath></defs><g clip-path="url(#master_svg0_159_00135)"><path d="M21.9700816875,10.7528381C22.2093846875,10.0116658,21.9436226875,9.2007265,21.3120616875,8.744953200000001L13.0560556875,2.74282205C12.4263766875,2.28485751,11.5733060875,2.28485751,10.9436263875,2.74282205L2.6814715275,8.744953200000001C2.0505194275,9.2011724,1.7869551375000001,10.0130005,2.0296006795,10.7528381L3.8253200874999997,16.2875895L3.2103476875,20.3002835C3.1045581875,20.9759005,3.6273003875,21.5862545,4.311148187500001,21.5855785L7.5090055875,21.5855785C7.9793262875,21.5850485,8.4129056875,21.3312455,8.643629087499999,20.9214075L9.2094030875,19.9251515L14.7872026875,19.9251515L15.3529766875,20.9337065C15.5836996875,21.3435445,16.0172796875,21.5973475,16.4876006875,21.5978735L19.6885336875,21.5978735C20.3723816875,21.5985525,20.8951246875,20.9881995,20.7893336875,20.3125825L20.1743616875,16.2998875L21.9700816875,10.7528381Z" fill="#FF8022" fill-opacity="1" style="mix-blend-mode:passthrough"/><path d="M9.392753623568726,11.470099638739013C9.389359923568726,12.571424738739013,8.494408123568725,13.461793138739013,7.393081323568726,13.459531538739014C6.291753593568726,13.457269938739014,5.400465822868726,12.563235038739013,5.401593923568726,11.461905838739014C5.402727009368726,10.360571498739013,6.2958440135687255,9.468364238739014,7.397168423568726,9.468364238739014C8.500999023568726,9.470062108239013,9.394453323568726,10.366269768739013,9.392753623568726,11.470099638739013Z" fill="#211714" fill-opacity="1" style="mix-blend-mode:passthrough"/><path d="M18.730770796936035,11.470099638739013C18.729072596936035,12.573527538739015,17.833491096936037,13.466815938739014,16.730062696936034,13.465683938739014C15.626634116936035,13.464553338739014,14.732887426976035,12.569429438739014,14.733452796936035,11.466000838739014C14.734019339896035,10.362570818739014,15.628683266936035,9.468364238739014,16.732110696936036,9.468364238739014C17.837142696936034,9.468363065772214,18.732471896936033,10.365069148739014,18.730770796936035,11.470099638739013Z" fill="#211714" fill-opacity="1" style="mix-blend-mode:passthrough"/><path d="M11.997179305096436,17.175165520581054C10.232208405096436,17.175165520581054,9.294375245096436,16.507919850581054,9.257477239096435,16.480247260581056C9.154012183696436,16.405482350581053,9.130687740096436,16.261029120581053,9.205363493096435,16.157500720581055C9.280039255096435,16.053972327181054,9.424473675096436,16.030525892581053,9.528064785096436,16.105113681581056C9.543438915096436,16.105113681581056,10.398250805096435,16.720086040581055,11.987954805096436,16.720086040581055C13.577659105096435,16.720086040581055,14.238754305096435,16.135861843581054,14.247977705096435,16.129713140581053C14.337819605096435,16.022885186581053,14.501223105096436,16.019732253581054,14.595117605096435,16.123016670581055C14.689010605096435,16.226299930581053,14.670345805096435,16.388664330581054,14.555463805096435,16.467947480581056C14.546239405096436,16.492545810581056,13.780599105096435,17.175165520581054,11.997179305096436,17.175165520581054Z" fill="#070507" fill-opacity="1" style="mix-blend-mode:passthrough"/><path d="M8.757627780308837,10.585364040561524C8.878690260308838,10.833024920561524,8.783957840308839,11.132107850561523,8.542387130308837,11.264908950561523C8.266498890308839,11.328177450561522,7.9914387903088375,11.156264480561523,7.927414752308838,10.880551100561524C7.804654985308838,10.633017570561524,7.899770859308838,10.332723960561523,8.142655340308838,10.201006836561524C8.418542920308838,10.137738764561524,8.693603100308838,10.309651130561523,8.757627780308837,10.585364040561524Z" fill="#FFFFFF" fill-opacity="1" style="mix-blend-mode:passthrough"/><path d="M18.32888090385742,10.587368909259034C18.49042530385742,10.827801349259033,18.385361613857423,11.156020279259034,18.114226753857423,11.257951059259033C17.843092023857423,11.359881959259033,17.54782459385742,11.182163949259033,17.510967641857423,10.894855079259033C17.349425479857423,10.654422159259033,17.45449045885742,10.326203729259033,17.725626413857423,10.224273506259033C17.99676120385742,10.122342691259034,18.292026223857423,10.300061249259032,18.32888090385742,10.587368909259034Z" fill="#FFFFFF" fill-opacity="1" style="mix-blend-mode:passthrough"/><path d="M10.18678877477417,5.3115637935946465C9.89315366477417,5.324535693594647,9.61257004477417,5.189439693594647,9.43959739477417,4.951804793594647C9.36055582477417,4.846345793594646,9.21183948477417,4.823151493594646,9.10443737477417,4.899532193594647C8.98838755277417,4.981705793594646,8.96457398277417,5.144198993594646,9.05216469277417,5.256216193594646C9.335023314774169,5.622814493594646,9.77971196477417,5.827347593594647,10.24213647477417,5.803541793594647C10.62302637477417,5.824727693594646,10.99218667477417,5.667976293594647,11.24146647477417,5.3792107935946465C11.19920107477417,5.3405118935946465,11.15916367477417,5.299448093594647,11.12154717477417,5.256216193594646C11.03382757477417,5.146146193594646,11.05320667477417,4.985571993594647,11.16459537477417,4.899532193594647C11.25981377477417,4.833252093594647,11.38861057477417,4.843555793594646,11.47208117477417,4.924131293594646C11.53139517477417,4.724532693594647,11.56143207477417,4.517383493594647,11.56125257477417,4.309158693594647L11.56125257477417,2.4611664935946465C11.36190347477417,2.5102257505946466,11.17256187477417,2.5934529035946463,11.00162767477417,2.7071554635946464L11.00162767477417,4.244586593594646C10.99855227477417,5.0040777935946466,10.73103947477417,5.3115637935946465,10.18678877477417,5.3115637935946465Z" fill="#040000" fill-opacity="1" style="mix-blend-mode:passthrough"/><path d="M13.06124224354248,4.242749848318481C13.06124224354248,5.002240848318481,12.79065404354248,5.309726948318481,12.246403543542481,5.309726948318481C11.95288264354248,5.3221418483184815,11.67254951354248,5.187165948318482,11.49921319354248,4.949968148318481C11.489749103542481,4.939906848318481,11.47946393354248,4.930650248318481,11.46846442354248,4.922294148318482C11.42092467354248,5.088356048318481,11.34039935354248,5.243131448318481,11.23169994354248,5.377374148318482C11.50990766354248,5.661696948318482,11.89498156354248,5.815726248318482,12.29252694354248,5.801705148318481C13.242659043542481,5.801705148318481,13.61779284354248,5.128310448318482,13.61779284354248,4.295022648318481L13.61779284354248,3.1511737983184815L13.06124224354248,2.7452919483184814L13.06124224354248,4.242749848318481Z" fill="#040000" fill-opacity="1" style="mix-blend-mode:passthrough"/><path d="M11.165807797685547,4.899485912182251C11.051430059685547,4.982677136182251,11.027838177685547,5.143657446182251,11.113535128685546,5.256169886182251C11.151151589685547,5.299401666182251,11.191189047685548,5.340465516182251,11.233454557685548,5.379164276182251C11.343250097685546,5.245183016182251,11.424829957685548,5.090390096182251,11.473294017685546,4.924084782182251C11.389823317685547,4.843509437182251,11.261025727685547,4.833205655182251,11.165807797685547,4.899485912182251Z" fill="#040000" fill-opacity="1" style="mix-blend-mode:passthrough"/><path d="M3.8231050407766722,16.294754028320312L3.2081326497766725,20.30744882832031C3.1046708297766723,20.982403328320313,3.6260981307766724,21.591221328320312,4.308933250776672,21.59274102832031L7.509864450776672,21.59274102832031C7.980185650776672,21.59221502832031,8.413766550776671,21.33841182832031,8.644488950776672,20.928571228320312L9.210263350776671,19.92616672832031L6.310668350776672,19.92616672832031C5.534439250776672,19.927891028320314,4.844347750776672,19.432313428320313,4.597970150776672,18.69622182832031L3.8231050407766722,16.294754028320312Z" fill="#211714" fill-opacity="1" style="mix-blend-mode:passthrough"/><path d="M20.17596104691162,16.298444747924805L20.79093264691162,20.295765447924804C20.89672184691162,20.971381147924806,20.37398054691162,21.581733247924806,19.69013304691162,21.581058047924806L16.48920154691162,21.581058047924806C16.01980494691162,21.580069047924805,15.58735668691162,21.326241047924803,15.357652306911621,20.916888247924803L14.788802146911621,19.926781847924804L17.688397146911623,19.926781847924804C18.469226646911622,19.925720447924803,19.161156146911622,19.423514347924804,19.404170546911622,18.681463047924804L20.17596104691162,16.298444747924805Z" fill="#211714" fill-opacity="1" style="mix-blend-mode:passthrough"/></g></svg>