<svg xmlns="http://www.w3.org/2000/svg" xmlns:xlink="http://www.w3.org/1999/xlink" fill="none" version="1.1" width="24" height="24" viewBox="0 0 24 24"><defs><clipPath id="master_svg0_159_9796"><rect x="0" y="0" width="24" height="24" rx="0"/></clipPath><clipPath id="master_svg1_159_00111"><rect x="1.318359375" y="9.4599609375" width="21.36331558227539" height="5.080420017242432" rx="0"/></clipPath></defs><g clip-path="url(#master_svg0_159_9796)"><g clip-path="url(#master_svg1_159_00111)"><path d="M6.619313675,11.670997637500001C6.682646775,11.4748423375,6.612311875,11.2602229375,6.445165175,11.1396000375L4.260169275,9.5511041435C4.093521375,9.4299013875,3.867751575,9.4299013875,3.701103475,9.5511041435L1.514480055,11.1396000375C1.347495215,11.2603409375,1.277741514,11.4751956375,1.341958955,11.670997637500001L1.817205695,13.1357989375L1.654449965,14.1977801375C1.626452235,14.376585437500001,1.764798735,14.5381188375,1.945782725,14.5379400375L2.7921126750000003,14.5379400375C2.916585575,14.5377998375,3.0313348749999998,14.470629737500001,3.0923969749999998,14.362163537499999L3.242132075,14.0984993375L4.718326575,14.0984993375L4.868061775,14.3654184375C4.929123875,14.4738845375,5.0438730750000005,14.5410547375,5.168345974999999,14.5411944375L6.015490075,14.5411944375C6.196474075,14.541373737499999,6.334820775,14.3798408375,6.306822775,14.201035037499999L6.144067275,13.1390540375L6.619313675,11.670997637500001Z" fill="#FF8022" fill-opacity="1" style="mix-blend-mode:passthrough"/><path d="M3.2906568,11.8608246475C3.2897586,12.1522961875,3.05290484,12.3879369875,2.76143277,12.3873383875C2.46996053,12.3867398875,2.23407644214,12.1501287175,2.234375,11.8586561075C2.23467487723,11.5671820975,2.47104307,11.3310546875,2.76251447,11.3310546875C3.0546491099999997,11.33150403772,3.2911066,11.5686901775,3.2906568,11.8608246475Z" fill="#211714" fill-opacity="1" style="mix-blend-mode:passthrough"/><path d="M5.7620131625,11.8608246475C5.7615636625,12.1528527775,5.5245432825,12.3892662875,5.2325150325,12.3889666875C4.9404867725,12.3886674875,4.70395193431,12.1517680875,4.7041015625,11.8597398375C4.70425150113,11.5677112375,4.9410291025,11.3310546875,5.2330570825,11.3310546875C5.5255097125,11.33105437706809,5.7624633625,11.5683724275,5.7620131625,11.8608246475Z" fill="#211714" fill-opacity="1" style="mix-blend-mode:passthrough"/><path d="M3.9799318875000003,13.370700595C3.5128229275000002,13.370700595,3.2646203525,13.194110465,3.2548550965,13.186786755C3.2274725174,13.166999832,3.2212995784,13.128769513,3.2410629165,13.101370169C3.2608262565,13.0739708276,3.2990515975,13.0677656038,3.3264675435,13.08750566C3.3305363775,13.08750566,3.5567669275,13.250261385,3.9774906075,13.250261385C4.3982143874999995,13.250261385,4.5731765875,13.095643323,4.5756177875,13.094016038C4.5993947875,13.0657434501,4.6426404875,13.0649090097,4.6674900875,13.092243781C4.6923395875,13.119578246,4.6873995875,13.162548855,4.6569956875,13.183531565C4.6545543875,13.190041635,4.4519234875,13.370700595,3.9799318875000003,13.370700595Z" fill="#070507" fill-opacity="1" style="mix-blend-mode:passthrough"/><path d="M3.122567285,11.626674705C3.154607115,11.692219465,3.129535685,11.771373375,3.065602705,11.806519865C2.992587405,11.823264245,2.919791277,11.777766555,2.902846972,11.704797525C2.870357944,11.639286465,2.8955308683,11.559812162,2.959811546,11.5249525206C3.032826675,11.508208288,3.105622815,11.553705812,3.122567285,11.626674705Z" fill="#FFFFFF" fill-opacity="1" style="mix-blend-mode:passthrough"/><path d="M5.6556505825,11.62720527C5.6984041925,11.690837,5.6705985025,11.77770188,5.5988412325,11.80467841C5.5270839625,11.83165497,5.4489398655,11.78462094,5.4391854745,11.70858313C5.3964324795,11.64495127,5.4242384871,11.558086514,5.4959960655,11.5311101354C5.5677533425,11.504133601,5.6458968225,11.551167764,5.6556505825,11.62720527Z" fill="#FFFFFF" fill-opacity="1" style="mix-blend-mode:passthrough"/><path d="M3.5008023675,10.23093534C3.4230902475,10.23436844,3.3488322975,10.19861454,3.3030541575,10.13572323C3.2821353825,10.10781288,3.2427768075,10.10167444,3.2143522635,10.121889C3.1836390591,10.14363664,3.1773366705,10.1866414,3.2005180195,10.21628731C3.2753780635,10.31330949,3.3930672975,10.36744028,3.5154504475,10.36113995C3.6162549875,10.36674684,3.7139552275,10.32526183,3.7799285075,10.24883848C3.7687426775,10.23859662,3.7581465874999997,10.22772884,3.7481911775,10.21628731C3.7249757075,10.18715674,3.7301045075,10.14465982,3.7595840675,10.121889C3.7847841375,10.10434759,3.8188708975,10.107074560000001,3.8409618775,10.12839925C3.8566596475,10.07557446,3.8646090675,10.0207513,3.8645615575,9.9656435L3.8645615575,9.4765625C3.8118027475,9.489546294,3.7616924675,9.511572804,3.7164538475,9.541664794L3.7164538475,9.94855416C3.7156399475,10.14955753,3.6448412575,10.23093534,3.5008023675,10.23093534Z" fill="#040000" fill-opacity="1" style="mix-blend-mode:passthrough"/><path d="M4.26154193,9.9480680225C4.26154193,10.1490713925,4.18992934,10.230449202500001,4.0458905099999996,10.230449202500001C3.96820863,10.2337348425,3.89401695,10.1980127725,3.848142564,10.1352371025C3.845637843,10.1325743225,3.842915818,10.1301245725,3.840004742,10.1279130625C3.827423092,10.1718621825,3.806111632,10.2128243425,3.77734375,10.2483524125C3.850972921,10.3235999325,3.9528847799999998,10.3643646225,4.0580973,10.3606538225C4.30955487,10.3606538225,4.40883601,10.1824363425,4.40883601,9.9619023225L4.40883601,9.6591766025L4.26154193,9.5517578125L4.26154193,9.9480680225Z" fill="#040000" fill-opacity="1" style="mix-blend-mode:passthrough"/><path d="M3.759905187,10.1218766975C3.7296345069,10.1438936965,3.7233907888,10.1864980015,3.746070946,10.2162750125C3.756026343,10.2277165325,3.766622473,10.2385842925,3.777808264,10.2488261325C3.806866243,10.2133672825,3.828456789,10.1724005085,3.841283065,10.1283869205C3.819192097,10.1070622255,3.78510512,10.1043352745,3.759905187,10.1218766975Z" fill="#040000" fill-opacity="1" style="mix-blend-mode:passthrough"/><path d="M1.816619515,13.1376953125L1.6538637762,14.1996764125C1.626482051,14.3783067125,1.764480565,14.5394336125,1.945196535,14.5398358125L2.792340125,14.5398358125C2.916813125,14.5396966125,3.0315627249999997,14.4725262125,3.092624625,14.3640597125L3.242359725,14.098767992500001L2.474966405,14.098767992500001C2.269533275,14.0992243925,2.086896835,13.9680671725,2.021691705,13.7732565425L1.816619515,13.1376953125Z" fill="#211714" fill-opacity="1" style="mix-blend-mode:passthrough"/><path d="M6.1444904000000005,13.138671875L6.307246,14.196584075C6.3352436,14.375389475,6.1968973,14.536922475,6.0159135,14.536743675L5.16876981,14.536743675C5.04454148,14.536481975000001,4.93009174,14.469305075,4.86929923,14.360967475L4.71875,14.098930655L5.48614329,14.098930655C5.69279408,14.098649745,5.875917,13.965738235,5.9402319,13.769350345L6.1444904000000005,13.138671875Z" fill="#211714" fill-opacity="1" style="mix-blend-mode:passthrough"/><path d="M12.280460375,13.959197725L12.280460375,13.935598125C12.280460375,13.935598125,11.321015575,13.798069725,10.687081775,12.780846325C10.560746475,12.569084625,10.455794575,12.345278024999999,10.373777175,12.112734325C10.347736375,12.037866625,10.324136775,11.960557625,10.302165075,11.879179825C10.294841275,11.850697425,10.288330775,11.821401625,10.281006375,11.792919425000001C10.259896475,11.698780925,10.244945275,11.603366625,10.236248275,11.507282825L12.257675175,11.507282825L12.257675175,10.901831265L10.169517775,10.901831265L10.169517775,10.064453125L9.557556675,10.064453125L9.557556675,10.901831265L7.458821368,10.901831265L7.458821368,11.504841325L9.486757475000001,11.504841325C9.474240975,11.644729625,9.448630375,11.783135725,9.410262375,11.918240825C9.410262375,11.925564925,9.410262375,11.932888825,9.403751975,11.940212825L9.393986375,11.972764025L9.381779475,12.013452925C9.293934075,12.287560025,9.174021075,12.550331625,9.024531375,12.796308025C8.390598295,13.797255725,7.443359375,13.935598125,7.443359375,13.935598125L7.443359375,14.541049525C9.286568175,14.299357425,9.862723575,12.491141125,9.862723575,12.491141125C9.862723575,12.491141125,9.873302475,12.511485625,9.878185475,12.522064725C9.959563475,12.760502125,10.582918375,14.318074225,12.283715274999999,14.538608525L12.283715274999999,14.007210924999999L12.283715274999999,13.964894325L12.280460375,13.959197725Z" fill="#000000" fill-opacity="1" style="mix-blend-mode:passthrough"/><path d="M19.098598725,11.0634477125L22.679223525,11.0634477125L22.679223525,10.4881063425L19.326455725,10.4881063425L19.494908425,10.0673828125L18.887015755,10.0673828125L18.717749595,10.4881063425L17.892578125,10.4881063425L17.892578125,11.0634478925L18.489078045,11.0634478925L18.042313095,12.1726279125C17.970240742,12.3518302125,18.102245075,12.5470781125,18.295398325,12.5469661125L20.041766625,12.5469661125L20.041766625,13.0596464125L17.892578125,13.0596464125L17.892578125,13.6406844125L20.041767825,13.6406844125L20.041767825,14.5358410125L20.621992325,14.5358410125L20.621992325,13.6406844125L22.681667325,13.6406844125L22.681667325,13.0596466125L20.621992325,13.0596466125L20.621992325,12.5469663125L22.533558825,12.5469663125L22.533558825,11.9659281125L20.621992325,11.9659281125L20.621992325,11.2164382125L20.041767825,11.2164382125L20.041767825,11.9659281125L18.781224255,11.9659281125C18.759969655,11.9664239125,18.745282475,11.9448243125,18.753556135,11.9252391125L19.098598725,11.0634477125Z" fill="#000000" fill-opacity="1" style="mix-blend-mode:passthrough"/><path d="M17.1271500375,10.37905994L15.3750846375,10.37905994L15.3750846375,10.0625L14.7940466375,10.0625L14.7940466375,10.37743232L13.0436092275,10.37743232C12.8379530175,10.377879889999999,12.67134670122,10.54448617,12.6708984375,10.75014299L12.6708984375,11.4288344L13.2592600575,11.4288344L13.2592600575,11.02194512C13.2592576175,10.98271006,13.2908260275,10.95077813,13.3300584575,10.9503327L16.8415141375,10.9503327C16.8808808375,10.9507724,16.9126858375,10.98257798,16.9131269375,11.02194512L16.9131269375,11.4288344L17.5014886375,11.4288344L17.5014886375,10.75095683C17.5005908375,10.54498285,17.333125137499998,10.37860966,17.1271500375,10.37905994Z" fill="#000000" fill-opacity="1" style="mix-blend-mode:passthrough"/><path d="M15.5591614625,12.38994225C15.5591614625,12.37773545,15.5510232625,12.364715050000001,15.546140662500001,12.35169475L15.5200993625,12.28170961C15.5013825625,12.23369664,15.4810380625,12.18812501,15.4606938625,12.14499485C15.440349362500001,12.10186458,15.4191915625,12.06361693,15.3980324625,12.022928L15.3654816625,11.96759105L15.3313033625,11.91306782L15.590898962499999,11.81785572L16.6984515625,11.81785572L16.6984515625,11.29296875L13.4775156425,11.29296875L13.4775156425,11.80727684L14.3246594625,11.80727684L12.6572265625,12.53967765L12.6572265625,13.00271765L14.8031604625,12.09942341C14.8116612625,12.10951465,14.8195426625,12.12011337,14.8267595625,12.13116068C14.8342609625,12.14011884,14.8410630625,12.149640980000001,14.8471040625,12.15964288C14.8641939625,12.18405616,14.8804693625,12.208469449999999,14.8959312625,12.23532426C14.9066386625,12.25101602,14.9164197625,12.26731926,14.9252273625,12.2841509L12.6572265625,13.23138945L12.6572265625,13.69198825L15.0985624625,12.67883365C15.0985624625,12.69429555,15.1075141625,12.70975745,15.1115832625,12.72603305C15.1156523625,12.74230875,15.1197216625,12.75370145,15.1237895625,12.76834955C15.1278574625,12.78299745,15.1237895625,12.77648725,15.1237895625,12.78055645C15.1237895625,12.78462545,15.1311132625,12.80985235,15.1343691625,12.82450045C15.1376249625,12.83914865,15.1425073625,12.85786535,15.1457619625,12.87576865L12.6572265625,13.90763975L12.6572265625,14.37149355L15.1522722625,13.34124945C15.1526160625,13.343678950000001,15.1526160625,13.34614445,15.1522722625,13.34857365Q15.1449484625,13.37542815,15.1351823625,13.40228295C15.1342921625,13.40738105,15.1326467625,13.41231795,15.1302997625,13.41693095C15.1224062625,13.43811605,15.1131653625,13.45877405,15.1026317625,13.47877785C15.0953080625,13.49342585,15.0871696625,13.50726005,15.079845862500001,13.52109455L15.0546190625,13.56096985C15.0456673625,13.57317665,15.0367157625,13.58619715,15.0269508625,13.59840345L15.0041651625,13.62769965L14.9952137625,13.63746475C14.9811298625,13.654229449999999,14.9661905625,13.67025515,14.950455462499999,13.68547775C14.9341800625,13.70093945,14.9187180625,13.71558765,14.9024429625,13.72942185C14.886167562499999,13.74325635,14.8568713625,13.76685575,14.8340856625,13.78313135L14.7999071625,13.80673095C14.788514362499999,13.81405495,14.7771215625,13.82219265,14.7649152625,13.82870295L14.7323646625,13.847419949999999C14.7209718625,13.85393025,14.7095789625,13.86044045,14.6973726625,13.866136749999999C14.6572847625,13.887515050000001,14.6159837625,13.90653565,14.5736781625,13.92310115C14.5678605625,13.92589545,14.5618828625,13.92834135,14.5557747625,13.93042515C14.509388962500001,13.94832845,14.4670731625,13.962162750000001,14.4328945625,13.97192785L14.4206884625,13.97192785L14.3962749625,13.97843835L14.3791849625,13.97843835L14.342565262499999,13.98657585L14.3336136625,14.51878735C14.3531446625,14.51878735,14.9301135625,14.44391985,15.3288645625,14.057374450000001L15.3483955625,14.03784395C15.3816864625,14.00449135,15.4129383625,13.96916365,15.4419796625,13.93205265C15.4598829625,13.90926695,15.4769716625,13.88566735,15.4932479625,13.86206765L15.5257987625,13.81242705L15.5550947625,13.76034525C15.564046362500001,13.74244215,15.5738115625,13.72453925,15.582763162500001,13.70582225C15.5917148625,13.68710545,15.5998530625,13.66838865,15.6079902625,13.64885785C15.6368763625,13.57752275,15.6592123625,13.50370715,15.6747202625,13.42832375C15.6796028625,13.40553805,15.6828586625,13.38275195,15.6869265625,13.35915275C15.6997499625,13.26887855,15.7049219625,13.17768235,15.7023887625,13.08653685C15.7023887625,13.03771045,15.6975061625,12.98725595,15.6918091625,12.934360550000001L15.6918091625,12.91727125L15.6918091625,12.89936795C15.6918091625,12.879837049999999,15.6869265625,12.85949265,15.6844854625,12.84077575L15.9286188625,12.75126015C16.0791225625,13.55992745,16.7058806625,14.19602655,17.5122327625,14.35847335L17.5122327625,13.79208305C17.5122327625,13.79208305,16.6390488625,13.72942185,16.4665267625,12.56653225L17.5122327625,12.15069121L17.5122327625,11.69009265L15.590088162499999,12.42249355C15.5689265625,12.41272805,15.5640439625,12.39970765,15.5591614625,12.38994225Z" fill="#000000" fill-opacity="1" style="mix-blend-mode:passthrough"/></g></g></svg>