<svg xmlns="http://www.w3.org/2000/svg" xmlns:xlink="http://www.w3.org/1999/xlink" fill="none" version="1.1" width="24" height="24" viewBox="0 0 24 24"><defs><clipPath id="master_svg0_159_01071"><rect x="0" y="0" width="24" height="24" rx="0"/></clipPath></defs><g clip-path="url(#master_svg0_159_01071)"><rect x="1.19921875" y="6.873046875" width="21.60146141052246" height="4.810901641845703" rx="0" fill="#FF8022" fill-opacity="1" style="mix-blend-mode:passthrough"/><path d="M9.173216092700194,9.013635352641296C9.203820992700194,8.916861002641296,9.169525192700196,8.811334792641297,9.087873892700195,8.751043622641296L8.006871192700196,7.967644627641296C7.9244865927001955,7.908477362641296,7.813534492700195,7.908477362641296,7.7311497927001955,7.967644627641296L6.650146536700196,8.753231882641296C6.567918802700195,8.813105642641297,6.5334875807001955,8.919047592641297,6.564804323700195,9.015823752641296L6.800043012700195,9.740139652641297L6.719077022700195,10.265323252641297C6.705645772700195,10.353621152641296,6.774189342700195,10.433069352641297,6.863502502700196,10.432725352641295L7.281461182700196,10.432725352641295C7.345497432700196,10.434696052641296,7.405177952700195,10.400411052641296,7.435733792700195,10.344100552641297L7.5101348727001955,10.212804652641296L8.238826792700195,10.212804652641296L8.313227892700196,10.344100552641297C8.343077892700196,10.397633452641296,8.399643492700195,10.430734552641297,8.460935592700196,10.430537352641297L8.879988692700195,10.430537352641297C8.965982892700195,10.427529652641297,9.030287292700194,10.350466652641297,9.017849692700196,10.265323252641297L8.937977592700195,9.740139652641297L9.173216092700194,9.013635352641296Z" fill="#FFFFFF" fill-opacity="1" style="mix-blend-mode:passthrough"/><path d="M7.873603972623291,9.853610801218261C7.747678812623291,9.859024211218262,7.622923122623291,9.827454951218261,7.514728592623291,9.762797814218262C7.4918837971232914,9.760082766218261,7.480070316223291,9.734096367218262,7.493044526823291,9.715098552218262C7.506018737623291,9.696100528318262,7.534522350623291,9.697647749918263,7.545364171623291,9.717938395218262C7.644599672623291,9.776120536218261,7.758730982623291,9.803892481218261,7.873603972623291,9.797810025218261C7.978045432623291,9.806269871218262,8.082249822623291,9.778867930218262,8.16901988262329,9.720126711218262C8.18065101262329,9.707981415118262,8.200060312623291,9.707981415118262,8.211691442623291,9.720126711218262C8.22309500262329,9.731640095218262,8.22309500262329,9.750190481218262,8.211691442623291,9.761703659218261C8.11385452262329,9.832293001218261,7.993713022623291,9.864952651218262,7.873603972623291,9.853610801218261Z" fill="#FF8022" fill-opacity="1" style="mix-blend-mode:passthrough"/><rect x="1.19921875" y="12.313830375671387" width="21.60146141052246" height="4.810901641845703" rx="0" fill="#221815" fill-opacity="1" style="mix-blend-mode:passthrough"/><path d="M11.958316294055177,15.582256284765625L11.958316294055177,15.569126584765625C11.630342694055177,15.496627784765625,11.347093794055176,15.291421284765626,11.176011194055176,15.002365684765625C11.114122294055175,14.898339984765625,11.062806494055176,14.788378284765624,11.022832494055177,14.674125884765624C11.009702594055176,14.638019324765626,10.998761394055176,14.599724884765624,10.987820294055176,14.564712704765626C10.987820294055176,14.550489244765625,10.980161294055176,14.536265014765625,10.976879094055176,14.522041554765625C10.966840294055176,14.475829364765625,10.959533694055176,14.429065464765625,10.954996794055177,14.381992694765625L11.947375094055175,14.381992694765625L11.947375094055175,14.086577204765625L10.922172394055176,14.086577204765625L10.922172394055176,13.670806884765625L10.622380394055176,13.670806884765625L10.622380394055176,14.082200584765625L9.592801094055176,14.082200584765625L9.592801094055176,14.377616104765625L10.587368134055176,14.377616104765625C10.581203404055175,14.446085334765625,10.568750564055176,14.513842524765625,10.550167974055176,14.580030504765626L10.550167974055176,14.590971644765625C10.549673024055176,14.596431794765625,10.549673024055176,14.601924474765624,10.550167974055176,14.607383784765625L10.543603544055175,14.627078234765625C10.500685274055176,14.761580984765626,10.441918434055175,14.890499984765626,10.368542374055176,15.011119084765625C10.198046624055175,15.296203584765625,9.917307024055177,15.498146284765625,9.592801928812145,15.569126584765625L9.592801928812145,15.865636384765626C10.488896014055175,15.748564984765625,10.770088094055176,14.860128984765625,10.770088094055176,14.860128984765625C10.773075694055176,14.865004784765626,10.775638494055176,14.870130184765625,10.777746994055176,14.875446684765626C10.819323694055175,14.992518884765625,11.123493294055177,15.750752884765625,11.958316294055177,15.860166084765625L11.958316294055177,15.605233084765626L11.958316294055177,15.584444384765625L11.958316294055177,15.582256284765625Z" fill="#FFFFFF" fill-opacity="1" style="mix-blend-mode:passthrough"/><path d="M15.302365842006836,14.16082480748169L17.063920282006837,14.16082480748169L17.063920282006837,13.875256117481689L15.422721152006837,13.875256117481689L15.504781072006836,13.66846513748169L15.203894582006836,13.66846513748169L15.117458012006836,13.875256117481689L14.710440516763805,13.875256117481689L14.710440516763805,14.15754252748169L15.003668102006836,14.15754252748169L14.784841575006835,14.70460883748169C14.749103121006836,14.79239843748169,14.813693282006836,14.88842573748169,14.908478262006836,14.88842303748169L15.765183582006836,14.88842303748169L15.765183582006836,15.14007403748169L14.710439682006836,15.14007403748169L14.710439682006836,15.42564263748169L15.765183582006836,15.42564263748169L15.765183582006836,15.86329583748169L16.049658682006836,15.86329583748169L16.049658682006836,15.42564263748169L17.063920282006837,15.42564263748169L17.063920282006837,15.14007303748169L16.052940982006835,15.14007303748169L16.052940982006835,14.88842223748169L16.990611782006837,14.88842223748169L16.990611782006837,14.603947937481689L16.052939282006836,14.603947937481689L16.052939282006836,14.236320197481689L15.768464082006837,14.236320197481689L15.768464082006837,14.60394882748169L15.150278982006835,14.60394882748169C15.140219332006836,14.603650807481689,15.133175642006837,14.59389745748169,15.136055562006836,14.584254387481689L15.302365842006836,14.16082480748169Z" fill="#FFFFFF" fill-opacity="1" style="mix-blend-mode:passthrough"/><path d="M14.335940796777344,13.825002852705078L13.475952496777344,13.825002852705078L13.475952496777344,13.669635772705078L13.191478096777344,13.669635772705078L13.191478096777344,13.823908482705079L12.332584156777344,13.823908482705079C12.231670379777343,13.823908892705077,12.149863362020374,13.905715512705077,12.149864196777344,14.006628422705077L12.149864196777344,14.334868252705078L12.437620786777345,14.334868252705078L12.437620786777345,14.141207162705077C12.438191766777344,14.122111232705079,12.453537936777344,14.106765892705079,12.472633036777344,14.106194912705078L14.195891896777344,14.106194912705078C14.215228296777344,14.106194912705078,14.230904296777343,14.121870842705079,14.230904296777343,14.141207162705077L14.230904296777343,14.340339242705078L14.519755096777343,14.340339242705078L14.519755096777343,14.012099442705079C14.522225096777344,13.909050362705079,14.439017496777344,13.824356732705079,14.335940796777344,13.825002852705078Z" fill="#FFFFFF" fill-opacity="1" style="mix-blend-mode:passthrough"/><path d="M13.562870761315917,14.810132320563964L13.556306161315918,14.791532220563965L13.544270561315917,14.756520030563966C13.534423861315918,14.733543370563964,13.524576161315919,14.710566670563965,13.514729361315919,14.689777880563964C13.504882561315918,14.668989090563965,13.495034961315918,14.648201140563964,13.484093761315918,14.629600260563965L13.467681661315918,14.602246910563965L13.451269461315919,14.575987990563965L13.578189361315918,14.528940230563965L14.125255561315917,14.528940230563965L14.125255561315917,14.277289390563965L12.545326921315919,14.277289390563965L12.545326921315919,14.528940230563965L12.961097661315918,14.528940230563965L12.140498161315918,14.883438940563964L12.140498161315918,15.111018780563965L13.193054061315918,14.666801180563965L13.205089561315917,14.683213320563965L13.214936361315917,14.697436780563965C13.223834961315918,14.708865430563964,13.231880261315919,14.720933500563964,13.239007461315918,14.733543370563964L13.253230961315918,14.757614400563964L12.140498161315918,15.224808690563965L12.140498161315918,15.452388490563965L13.344044061315918,14.955652120563965L13.350608561315918,14.978628810563965C13.351236361315918,14.985544800563964,13.351236361315918,14.992502450563965,13.350608561315918,14.999417600563964L13.350608561315918,15.021299960563965C13.350608561315918,15.028958860563964,13.350608561315918,15.037712100563965,13.356079661315919,15.046465340563964L12.140498161315918,15.556330790563965L12.140498161315918,15.783910490563965L13.362644161315918,15.278421090563965C13.360384461315919,15.287736090563964,13.357458661315917,15.296877390563965,13.353891061315919,15.305774190563964C13.354364961315918,15.307936290563966,13.354364961315918,15.310175990563964,13.353891061315919,15.312338790563965C13.350650261315918,15.323001190563964,13.346247061315918,15.333274490563966,13.340761061315918,15.342974390563965C13.340761061315918,15.350633290563964,13.333102061315918,15.357197890563965,13.329819761315918,15.363763190563965L13.316689961315918,15.383457590563964C13.313325061315918,15.390313490563965,13.308893361315917,15.396590790563964,13.303560161315918,15.402057690563964L13.292618861315917,15.416281090563965L13.270736561315918,15.439257790563964C13.263242961315918,15.447113590563966,13.255198461315917,15.454426190563964,13.246665461315917,15.461139990563964L13.213841161315917,15.487398990563964L13.196334761315917,15.498340290563965L13.178828261315918,15.509281390563965L13.162416061315918,15.518034590563964L13.144909461315917,15.527881390563964C13.124120711315918,15.538822490563964,13.103332761315919,15.547575790563965,13.084731821315918,15.555234790563965L13.075978581315917,15.555234790563965L13.015800951315917,15.576023490563966L13.009236451315918,15.576023490563966L12.997200961315919,15.576023490563966L12.989542071315919,15.576023490563966L12.970941961315917,15.576023490563966L12.970941961315917,15.836426690563965C13.147386161315918,15.817058690563965,13.314709061315918,15.748005990563964,13.453457361315918,15.637296290563965L13.453457361315918,15.626355190563965Q13.476434161315918,15.601189690563965,13.499410761315918,15.573836490563965L13.524576161315919,15.539918690563965C13.529035461315917,15.531501690563966,13.534157561315919,15.523452190563965,13.539893961315919,15.515847590563965L13.554117461315919,15.490682290563965C13.554117461315919,15.481928990563965,13.563964161315917,15.473175690563965,13.568340861315917,15.463328790563965C13.572717461315918,15.453481990563965,13.575999761315918,15.445822190563964,13.580376361315919,15.435975390563964C13.593966261315918,15.400351390563966,13.604937361315917,15.363783190563964,13.613200661315918,15.326562290563965C13.613810861315917,15.315264590563965,13.613810861315917,15.303941990563965,13.613200661315918,15.292644390563964C13.619725861315917,15.248466550563965,13.622289461315917,15.203794540563965,13.620859461315918,15.159160080563964C13.620630861315918,15.134268460563964,13.618803661315917,15.109416900563964,13.615388561315918,15.084759000563965L13.615388561315918,15.068347690563964L13.615388561315918,15.039900000563964L13.734648661315918,14.995040180563965C13.807255761315918,15.392452990563966,14.115232661315918,15.705201290563965,14.511482761315918,15.783909690563965L14.511482761315918,15.499435390563965C14.511482761315918,15.499435390563965,14.082582861315919,15.468799790563965,13.998334161315919,14.898756800563964L14.511482761315918,14.694153700563964L14.511482761315918,14.468762610563966L13.568340061315919,14.829826710563966C13.566011761315918,14.823412420563965,13.564182861315917,14.816827890563966,13.562870761315917,14.810132320563964Z" fill="#FFFFFF" fill-opacity="1" style="mix-blend-mode:passthrough"/><path d="M9.173409892700196,14.45386879001465C9.204368592700195,14.357093690014649,9.170005092700196,14.251361790014649,9.088067492700196,14.191276790014648L8.007064492700195,13.405689474014649C7.925014592700196,13.34549055601465,7.813392492700196,13.34549055601465,7.7313429927001955,13.405689474014649L6.650339782700195,14.191276790014648C6.567818213700195,14.250936870014648,6.5333181247001955,14.357092920014649,6.5649975707001955,14.45386879001465L6.800236272700196,15.178184890014649L6.719270262700196,15.703368890014648C6.705839022700196,15.791667190014648,6.774382592700196,15.871115890014648,6.863695772700195,15.870771190014649L7.281654412700195,15.870771190014649C7.345219852700195,15.873171790014649,7.404783542700195,15.839799190014649,7.435927452700195,15.784333690014648L7.510328532700195,15.651943690014647L8.239020492700195,15.651943690014647L8.311233592700194,15.784333690014648C8.341082792700195,15.837867490014649,8.397648492700196,15.870969090014649,8.458941492700195,15.870770490014648L8.877994292700196,15.870770490014648C8.966865992700196,15.870444790014648,9.034690892700196,15.791229490014649,9.021325592700196,15.703368190014649L8.941453492700195,15.178183990014649L9.173409892700196,14.45386879001465Z" fill="#FFFFFF" fill-opacity="1" style="mix-blend-mode:passthrough"/><path d="M7.873114524921875,15.297354818518066C7.747122554921875,15.303422678518066,7.622180294921875,15.271806248518066,7.514239128921875,15.206541609518066C7.496959240866875,15.198103055518066,7.491635995421875,15.176016218518066,7.503174006521875,15.160631650518066C7.514712435921875,15.145247080118066,7.537406138921875,15.144173582518066,7.550345703921875,15.158399510518066C7.649817014921875,15.215901739518067,7.763850654921875,15.243270076518066,7.878585514921875,15.237177193518066C7.982817024921875,15.245013885518066,8.086706694921874,15.218080453518066,8.174001394921875,15.160588243518067C8.185632524921875,15.148442529557066,8.205041464921875,15.148442529557066,8.216672954921876,15.160588243518067C8.228207584921876,15.172473510518067,8.228207584921876,15.191374078518066,8.216672954921876,15.203259345518067C8.117542264921875,15.275641958518067,7.995292874921875,15.309124888518067,7.873114524921875,15.297354818518066Z" fill="#FF8022" fill-opacity="1" style="mix-blend-mode:passthrough"/><path d="M11.945437876086427,10.13920787203369L11.945437876086427,10.12717237203369C11.617464276086427,10.054673672033692,11.334215376086426,9.849466872033691,11.163132776086426,9.560411672033691C11.101947676086425,9.456014972033692,11.050664276086426,9.34612287203369,11.009954076086427,9.23217187203369C10.997918476086426,9.196065482033692,10.985882976086426,9.157770812033691,10.974941876086426,9.12275857203369L10.965095076086426,9.081181642033691C10.954160576086426,9.035095092033691,10.946482376086426,8.988296572033692,10.942118376086427,8.941132602033692L11.934496676086425,8.941132602033692L11.934496676086425,8.639151902033692L10.909293976086426,8.639151902033692L10.909293976086426,8.228852272033691L10.608407476086425,8.228852272033691L10.608407476086425,8.639151902033692L9.579922676086426,8.639151902033692L9.579922676086426,8.935661792033692L10.574489716086426,8.935661792033692C10.568229916086425,9.004118502033691,10.555778626086425,9.07186699203369,10.537289556086426,9.138076362033692L10.537289556086426,9.149017752033691C10.537289556086426,9.154488322033691,10.537289556086426,9.159959142033692,10.537289556086426,9.165429712033692L10.530725126086425,9.185124102033692C10.487806856086426,9.319626772033692,10.429040016086425,9.448546072033691,10.355663956086426,9.569164772033691C10.185169046086425,9.854249272033691,9.904428606086427,10.056191672033691,9.579923510843395,10.12717237203369L9.579923510843395,10.423682672033692C10.483677386086425,10.306610372033692,10.764869376086425,9.419268572033692,10.764869376086425,9.419268572033692L10.772528276086426,9.434586372033692C10.815199376086426,9.55165867203369,11.118274576086426,10.315363172033692,11.953097576086426,10.419305772033692L11.953097576086426,10.163278772033692L11.953097576086426,10.14249017203369L11.945437876086427,10.13920787203369Z" fill="#FFFFFF" fill-opacity="1" style="mix-blend-mode:passthrough"/><path d="M15.29167438036377,8.71910047646637L17.048851210363768,8.71910047646637L17.048851210363768,8.43681414646637L15.407652200363769,8.43681414646637L15.48971212036377,8.23002302646637L15.19210792036377,8.23002302646637L15.10895359036377,8.43681414646637L14.70303047266377,8.43681414646637L14.70303047266377,8.71910026646637L14.995163680363769,8.71910026646637L14.776337169363769,9.26616652646637C14.74059870836377,9.35395632646637,14.805188860363769,9.449983826466369,14.89997385036377,9.44998092646637L15.751209710363769,9.44998092646637L15.751209710363769,9.70163132646637L14.69756031036377,9.70163132646637L14.69756031036377,9.986105926466369L15.751209710363769,9.986105926466369L15.751209710363769,10.42375862646637L16.03677841036377,10.42375862646637L16.03677841036377,9.98610572646637L17.046662310363768,9.98610572646637L17.046662310363768,9.70163122646637L16.03677841036377,9.70163122646637L16.03677841036377,9.44998062646637L16.97444911036377,9.44998062646637L16.97444911036377,9.16550618646637L16.03677691036377,9.16550618646637L16.03677691036377,8.79350131646637L15.751209710363769,8.79350131646637L15.751209710363769,9.162223876466369L15.133024630363769,9.162223876466369C15.122787180363769,9.16144567646637,15.11619845036377,9.151013966466369,15.11989477036377,9.14143532646637L15.29167438036377,8.71910047646637Z" fill="#FFFFFF" fill-opacity="1" style="mix-blend-mode:passthrough"/><path d="M14.328766861315918,8.383048248391724L13.468778461315917,8.383048248391724L13.468778461315917,8.227681398391724L13.184304161315918,8.227681398391724L13.184304161315918,8.381954088391723L12.325410191315918,8.381954088391723C12.223212562315918,8.380727948391723,12.139881275885918,8.463565888391724,12.140501500343818,8.565768418391723L12.140501500343818,8.894008338391723L12.429352461315919,8.894008338391723L12.429352461315919,8.699252638391723C12.428733911315918,8.680094328391723,12.444102611315918,8.664230408391724,12.463270311315918,8.664240388391724L14.186529361315918,8.664240388391724C14.205865661315919,8.664240208391723,14.221541361315918,8.679915908391724,14.221541361315918,8.699252638391723L14.221541361315918,8.898384748391724L14.510392461315918,8.898384748391724L14.510392461315918,8.570144918391724C14.512841661315917,8.467954918391724,14.430984461315917,8.383631628391724,14.328766861315918,8.383048248391724Z" fill="#FFFFFF" fill-opacity="1" style="mix-blend-mode:passthrough"/><path d="M13.555692472180176,9.367947633743286L13.549127772180176,9.349347353743287L13.535997872180175,9.315429273743286C13.526151172180176,9.291358443743286,13.516303572180176,9.269475693743287,13.506456872180175,9.247592953743286C13.496609972180176,9.225710213743286,13.486762272180176,9.207109983743287,13.475821272180175,9.188509703743286C13.471376072180176,9.179037303743286,13.466256572180175,9.169896063743286,13.460503472180175,9.161156383743286L13.444091172180176,9.134897203743286L13.571011072180175,9.087849493743287L14.118077272180177,9.087849493743287L14.118077272180177,8.831822633743286L12.533772022180175,8.831822633743286L12.533772022180175,9.083473053743287L12.949542822180176,9.083473053743287L12.131131172180176,9.441254493743287L12.131131172180176,9.667739923743286L13.183687072180176,9.224616083743285C13.188034572180175,9.229449543743286,13.192054772180176,9.234566773743285,13.195722572180175,9.239933843743286L13.205569372180175,9.254157513743285C13.214215872180176,9.266143563743286,13.222249472180176,9.278559533743286,13.229640472180176,9.291358023743285C13.234783372180175,9.299137113743287,13.239530672180177,9.307170833743285,13.243863972180176,9.315428853743287L12.131132006937145,9.782624003743287L12.131132006937145,10.010203633743286L13.327019072180176,9.512373093743285L13.333583572180176,9.535349783743285L13.340148072180176,9.556138333743286C13.340148072180176,9.556138333743286,13.340148072180176,9.556138333743286,13.340148072180176,9.562703133743286L13.340148072180176,9.584585783743286C13.340148072180176,9.592244683743287,13.340148072180176,9.600997743743287,13.340148072180176,9.608656643743286L12.131132006937145,10.114146233743286L12.131132006937145,10.341725833743286L13.353277872180175,9.836236633743287C13.350855572180176,9.845147033743286,13.347933072180176,9.853914133743286,13.344524772180176,9.862495733743286C13.345173372180176,9.865007633743286,13.345173372180176,9.867643033743287,13.344524772180176,9.870154733743286C13.340448772180176,9.880662633743286,13.335697972180176,9.890895933743286,13.330301372180175,9.900790533743287C13.327085872180175,9.907938733743286,13.323431272180176,9.914881433743286,13.319360172180176,9.921579133743286L13.307324672180176,9.941273533743287L13.293101172180176,9.959873833743286C13.289803172180175,9.964873533743287,13.286146872180176,9.969627333743286,13.282160072180176,9.974097333743286C13.275446972180175,9.982630533743286,13.268133672180175,9.990674633743286,13.260277772180176,9.998168233743286L13.237300972180176,10.018956733743286L13.203383172180176,10.046310233743286L13.186971072180176,10.057251433743286L13.169464472180175,10.068192833743286L13.153052372180175,10.078040133743286L13.136640172180176,10.086793233743286L13.075369062180176,10.115240533743286L13.066615822180175,10.115240533743286L13.006438192180175,10.136029133743286L12.999873642180177,10.136029133743286L12.987838092180176,10.136029133743286L12.980179192180175,10.136029133743286L12.961579142180176,10.136029133743286L12.961579142180176,10.396432833743287C13.142926672180176,10.370409533743286,13.312622872180176,10.291649433743286,13.449562172180176,10.169947533743287L13.459408972180176,10.161194433743287C13.474726772180176,10.144782433743286,13.491139072180175,10.127276333743286,13.505362372180176,10.108676033743286L13.530527872180176,10.074758133743286L13.545845672180176,10.049592933743286C13.551228072180177,10.041584233743286,13.555983672180176,10.033170733743287,13.560068972180176,10.024428033743286C13.565447472180177,10.015656033743285,13.570200472180176,10.006515633743286,13.574292372180176,9.997074733743286C13.574292372180176,9.988321633743286,13.581951272180175,9.978474533743286,13.586328072180176,9.969721433743286C13.600926972180176,9.934448733743286,13.611924172180176,9.897791733743286,13.619152272180177,9.860308133743287C13.619152272180177,9.849366833743286,13.619152272180177,9.837331433743286,13.619152272180177,9.826390143743286C13.626241072180175,9.782272103743287,13.628807972180176,9.737545433743286,13.626811172180176,9.692905963743286C13.626811172180176,9.668835163743285,13.626811172180176,9.643669963743285,13.626811172180176,9.617410783743287L13.626811172180176,9.600998823743286C13.626811172180176,9.591151653743285,13.626811172180176,9.581304373743286,13.626811172180176,9.571457203743286L13.746071172180176,9.527691963743287C13.818679372180176,9.925104933743286,14.126656172180176,10.237852933743286,14.522905372180176,10.316561733743287L14.522905372180176,10.057251333743286C14.522905372180176,10.057251333743286,14.095098972180176,10.026615533743286,14.009756772180175,9.455478373743286L14.522905372180176,9.251969603743285L14.522905372180176,9.026578333743286L13.563351272180176,9.389830353743285C13.561303572180176,9.382368863743286,13.558744172180177,9.375057223743287,13.555692472180176,9.367947633743286Z" fill="#FFFFFF" fill-opacity="1" style="mix-blend-mode:passthrough"/></g></svg>