<svg xmlns="http://www.w3.org/2000/svg" xmlns:xlink="http://www.w3.org/1999/xlink" fill="none" version="1.1" width="24" height="24" viewBox="0 0 24 24"><defs><clipPath id="master_svg0_159_01046"><rect x="0" y="0" width="24" height="24" rx="0"/></clipPath><clipPath id="master_svg1_159_00944"><rect x="1.318359375" y="9.62109375" width="21.363313674926758" height="4.757863521575928" rx="0"/></clipPath></defs><g clip-path="url(#master_svg0_159_01046)"><g clip-path="url(#master_svg1_159_00944)"><rect x="1.318359375" y="9.62109375" width="21.363313674926758" height="4.757863521575928" rx="0" fill="#221815" fill-opacity="1" style="mix-blend-mode:passthrough"/><path d="M8.6439164625,13.348475950000001C8.5583989625,13.34866455,8.4794132625,13.30276205,8.4372405625,13.22836585L8.3842193625,13.13422605L7.7490446625,13.13422605L7.6971053525,13.22836585C7.6538372025,13.30378585,7.5730418525,13.34977745,7.4861015125,13.348475950000001L7.0749149025,13.348475950000001C6.9460929525,13.345707449999999,6.8482131825,13.23168235,6.8649933925,13.10392805L6.9450663625,12.60401125L6.7189136545,11.90932215C6.6786736695,11.78555025,6.7222839795,11.64992183,6.8271206825,11.57279813L7.8886318625000005,10.80236404C7.9053567625,10.790086295,7.9235275625,10.779910721,7.9427353625,10.772066098C7.9807888625,10.754777032,8.0221301625,10.74591811335,8.0639270625,10.7460964330512C8.1269581625,10.746164954049,8.1883393625,10.766246457,8.2392223625,10.803446136L9.303980062499999,11.56847C9.4091060625,11.64538544,9.4527835625,11.78122275,9.4121870625,11.90499385L9.1871161625,12.59968315L9.2628607625,13.09959985C9.2633941625,13.10318685,9.2633941625,13.106833250000001,9.2628607625,13.11042025C9.2726998625,13.16926405,9.2560689625,13.22945075,9.217414162499999,13.27489495C9.1766383625,13.32131175,9.1179678625,13.34808775,9.0561857625,13.348475950000001L8.6439164625,13.348475950000001Z" fill="#211714" fill-opacity="1" style="mix-blend-mode:passthrough"/><path d="M8.068439,10.81103994C8.1167186,10.81133972,8.1636733,10.82686499,8.202615999999999,10.85540481L9.2641268,11.62583882C9.3487072,11.68615465,9.3827686,11.79541645,9.3474457,11.89311035L9.1169651,12.60403065L9.1959565,13.12017825C9.2092505,13.20690325,9.141943,13.28500055,9.0542057,13.28465295L8.6441,13.28465295C8.5819185,13.28312115,8.5256908,13.24730205,8.4980206,13.19159485L8.4255222,13.06174635L7.7091917,13.06174635L7.63669282,13.19159485C7.6070017199999995,13.24437045,7.55116785,13.27704385,7.49061346,13.27707865L7.07942683,13.27707865C6.99176744,13.27754335,6.92470437,13.19913055,6.9387577799999995,13.11260395L7.01666698,12.59645615L6.78618547,11.89311035C6.75573573,11.79772475,6.78973205,11.69355575,6.87058683,11.63449556L7.9310156,10.86406147C7.9443599,10.85490887,7.9584806,10.8469432,7.9732163,10.8402559C8.0028278,10.82693847,8.034889,10.81993653,8.0673563,10.81969661M8.0673563,10.6811916227C8.016987199999999,10.6783140502,7.9665574,10.6856760327,7.9191133,10.702832907C7.8960947,10.712488797,7.8743013,10.724838365,7.8541892,10.739623316L6.79376034,11.51005733C6.663925027,11.6040163,6.609325767,11.77087195,6.658501549,11.92340815L6.87491561,12.60403065L6.8013348,13.08663395C6.7755841199999995,13.25702145,6.90710646,13.41054915,7.07942683,13.41125515L7.48628509,13.41125515C7.59692997,13.411217950000001,7.6990131,13.35170415,7.7535566,13.25543715L7.7860186,13.19700525L8.3389562,13.19700525L8.3725002,13.25543715C8.4259763,13.35581825,8.5303634,13.41861655,8.6441,13.41882945L9.0542047,13.41882945C9.1372242,13.419013249999999,9.2162166,13.38307185,9.2706189,13.32036115C9.3241272,13.25800995,9.3478289,13.17544795,9.3355429,13.09420845L9.2608798,12.61052285L9.4772937,11.92990075C9.5270574,11.77759895,9.4728441,11.61058772,9.3431172,11.51654989L8.2826881,10.746115781C8.2196608,10.700655095,8.1439855,10.67606059689,8.066274,10.67578125L8.0673563,10.6811916227Z" fill="#FFFFFF" fill-opacity="1" style="mix-blend-mode:passthrough"/><path d="M9.347685325,11.8938757C9.378719525000001,11.7987234,9.345109425,11.69440144,9.264366125,11.635261L8.202855025,10.864826899C8.122049825,10.805474298,8.012061225,10.805474298,7.931255625,10.864826899L6.870826751,11.635261C6.789971562,11.69432074,6.755974829,11.79848999,6.786424981,11.8938757L7.016906085,12.6047959L6.938996885,13.1209435C6.924943475,13.2074704,6.992006945,13.2858827,7.0796659250000005,13.2854183L7.486524585,13.2854183C7.550271455,13.285502900000001,7.608555135,13.2494423,7.636932315,13.1923602L7.709430815,13.0635939L8.425761725000001,13.0635939L8.498260125,13.1923602C8.527781125,13.2453029,8.583723225,13.2780392,8.644339525,13.277844L9.054444325,13.277844C9.142181625,13.2781923,9.209490025000001,13.2000945,9.196195125,13.113369200000001L9.117203725,12.5972215L9.347685325,11.8938757Z" fill="#FF8022" fill-opacity="1" style="mix-blend-mode:passthrough"/><ellipse cx="7.476177215576172" cy="11.980083495378494" rx="0.5064506530761719" ry="0.5064506828784943" fill="#211714" fill-opacity="1" style="mix-blend-mode:passthrough"/><path d="M8.9318464425,11.9800856725C8.9318456025,12.1218601725,8.8168079525,12.2367343925,8.6750338625,12.236534002500001C8.5332598025,12.2363339625,8.41854656982,12.1211355325,8.4189461380542,11.9793616525C8.41934570629,11.8375875725,8.5347045225,11.72303696873,8.6764777625,11.7236350827743C8.8176879925,11.72422968823,8.9318464425,11.8388721325,8.9318464425,11.9800856725Z" fill="#211714" fill-opacity="1" style="mix-blend-mode:passthrough"/><path d="M8.0671160475,12.7130527475C7.9431937475,12.7190836175,7.8203120775,12.6877978075,7.7143612735,12.6232409105C7.7011008093,12.6137486885,7.6981779346,12.5952385255,7.7078687027,12.5821223265C7.7177621445,12.56873018714,7.7366083075,12.5658308407,7.7500693835,12.5756299626C7.8460883475,12.6314793225,7.9561479375,12.6585244755,8.0671160475,12.6535389575C8.1695800975,12.6619829315,8.2718638175,12.6352671755,8.3571104975,12.5777939465C8.3684965975,12.5665166699,8.3868420075,12.5665166699,8.3982288875,12.5777939465C8.4101341975,12.5889149865,8.4101341975,12.6077914905,8.3982288875,12.6189125295C8.3027808075,12.6891120875,8.1852189875,12.7225365075,8.0671160475,12.7130527475Z" fill="#070507" fill-opacity="1" style="mix-blend-mode:passthrough"/><path d="M7.6510171,11.866740081C7.66691975,11.898754247,7.65444769,11.93760999,7.62288345,11.95438772C7.58636342,11.97975515,7.535950132,11.96835487,7.5138979312,11.92974184C7.491845731,11.891128808,7.5076427078,11.841915255,7.548048213,11.8233503993C7.588453718,11.804785543,7.63608406,11.8248564163,7.6510171,11.866740081Z" fill="#FFFFFF" fill-opacity="1" style="mix-blend-mode:passthrough"/><path d="M8.879443195,11.8659525025C8.894926455,11.8977324145,8.883092135,11.9360742525,8.852391429,11.9536001525C8.817309506,11.9604066325,8.783049835,11.9385187225,8.7744822344,11.9038250075C8.7585795848,11.8718108425,8.7710520569,11.8329551015,8.802616294,11.816177363C8.830750354,11.805356618,8.865376569,11.8280799965,8.879443195,11.8659525025Z" fill="#FFFFFF" fill-opacity="1" style="mix-blend-mode:passthrough"/><path d="M7.834214585,11.189087425C7.796156125,11.191635815,7.759567149,11.173958005,7.73791039,11.142558365C7.727330089,11.129531325,7.708564421,11.126716495,7.694627416,11.136065905C7.6802846524,11.146822865,7.6773778764,11.167169985,7.6881348463,11.181512865C7.724117033,11.228287635,7.780672438,11.254545505,7.839624855,11.251847385C7.888649555,11.254965215,7.936305075,11.234941895,7.968391065,11.197743865C7.962798325,11.192867215,7.957722005,11.187428265,7.953242155,11.181512865C7.941062745,11.167563055,7.944136675,11.146047355,7.959734705,11.136065905C7.971147985,11.127030525,7.987276015,11.127030525,7.998689295,11.136065905C8.006280695,11.109696235,8.009926735,11.082348105,8.009509835,11.054910615L8.009509835,10.822265625C7.984052245,10.8290049336,7.959909735,10.83997882,7.938093215,10.854727756L7.938093215,11.051664535C7.938093215,11.149050835,7.903466995,11.189087425,7.834214585,11.189087425Z" fill="#040000" fill-opacity="1" style="mix-blend-mode:passthrough"/><path d="M8.2034537325,11.05198351C8.2034537325,11.14936981,8.168827522499999,11.18940639,8.0952467025,11.18940639C8.0575630445,11.19156626,8.0214772485,11.17393345,8.0000243985,11.14287734C7.9938839285,11.16416445,7.9835863785,11.18402418,7.9697265625,11.20130911C8.0057062765,11.23746684,8.0550847355,11.25706148,8.1060672425,11.25541264C8.2272590125,11.25541264,8.2759526625,11.16884699,8.2759526625,11.06172206L8.2759526625,10.911314331L8.2045360325,10.859375L8.2034537325,11.05198351Z" fill="#040000" fill-opacity="1" style="mix-blend-mode:passthrough"/><path d="M7.9602590895,11.1361512807C7.9446610698,11.146132747,7.9415871189,11.167648442,7.9537665192,11.181598246C7.9582463885,11.187513649,7.9633227215,11.192952607,7.9689154385,11.197829261C7.9827744295,11.180544116,7.9930719775,11.160684584,7.9992132745,11.1393974628C7.9885706415,11.1293724487,7.9724145495,11.1280261762,7.9602590895,11.1361512807Z" fill="#040000" fill-opacity="1" style="mix-blend-mode:passthrough"/><path d="M7.0173844025,12.5986328125L6.9383933176,13.1147804225C6.9242623075,13.2017439025,6.9920477305,13.2803961025,7.0801446775,13.2792552125L7.4859210275,13.2792552125C7.5484811075,13.2803820925,7.6064672475,13.2465917425,7.6363287575,13.1916073525L7.7088272575,13.0617588125L7.3365952375,13.0617588125C7.2379353075,13.0602604125,7.1510622475,12.9964087625,7.1201811575,12.9026945225L7.0173844025,12.5986328125Z" fill="#211714" fill-opacity="1" style="mix-blend-mode:passthrough"/><path d="M9.11722416,12.599609375L9.19621569,13.114674925C9.20950955,13.201399805,9.14220214,13.279497205,9.0544647,13.279149655L8.64435911,13.279149655C8.583349,13.278678655,8.52740615,13.245113315,8.498279765,13.191501795L8.42578125,13.061653285L8.79801372,13.061653285C8.89707279,13.060329915,8.98420507,12.995852265,9.01442778,12.901506905L9.11722416,12.599609375Z" fill="#211714" fill-opacity="1" style="mix-blend-mode:passthrough"/><path d="M12.0949511375,12.997798775L12.0949511375,12.984813775C11.7705934375,12.913114675,11.4904680375,12.710170375,11.3212707375,12.424301375C11.2601590375,12.321372275,11.2094138375,12.212632275,11.1697806375,12.099680245C11.1567955375,12.062889815,11.1459750375,12.025017325,11.1351544375,11.986062945C11.1351544375,11.971996065,11.1286622375,11.957929075,11.1243338375,11.943862254999999C11.1144065375,11.898159145,11.1071804375,11.851910595,11.1026928375,11.805357155L12.0841305375,11.805357155L12.0841305375,11.514280375L11.0702312375,11.514280375L11.0702312375,11.107421875L10.7737434375,11.107421875L10.7737434375,11.514280375L9.7587616742,11.514280375L9.7587616742,11.806439455L10.7423632175,11.806439455C10.7362673275,11.874154505,10.7239516975,11.941164735,10.7055731975,12.006622495L10.7055731975,12.018525365C10.7055731975,12.018525365,10.7055731975,12.028263985,10.7055731975,12.033674295L10.6990810675,12.053151605C10.6534146675,12.186905075,10.5920281375,12.314762975,10.5162109175,12.434040175C10.3473751575,12.715570975,10.0697627675,12.914872675,9.7490234375,12.984814075L9.7490234375,13.279137375C10.6428137375,13.162273675,10.9209058375,12.284714775,10.9209058375,12.284714775C10.9238604375,12.289537475,10.9263949375,12.294605975,10.9284802375,12.299863675000001C10.9706809375,12.415645275,11.2704148375,13.172012575,12.0960343375,13.279137375L12.0960343375,13.020522375L12.0960343375,12.999962975L12.0949511375,12.997798775Z" fill="#FFFFFF" fill-opacity="1" style="mix-blend-mode:passthrough"/><path d="M15.4023594825,11.5929548725L17.1412472625,11.5929548725L17.1412472625,11.3137808125L15.5181418025,11.3137808125L15.5992970425,11.1103515625L15.3049738125,11.1103515625L15.2227370425,11.3137808125L14.8212890625,11.3137808125L14.8212890625,11.5929550525L15.1102016225,11.5929550525L14.8937875775,12.1339902625C14.8581748235,12.2206214625,14.9223988025,12.3155370625,15.0160612325,12.3146960625L15.8633224625,12.3146960625L15.8633224625,12.5646542625L14.8212890625,12.5646542625L14.8212890625,12.8459925625L15.8633224625,12.8459925625L15.8633224625,13.2788209625L16.1424951625,13.2788209625L16.1424951625,12.8459927625L17.1423287625,12.8459927625L17.1423287625,12.5646544625L16.1424951625,12.5646544625L16.1424951625,12.3125318625L17.0709116625,12.3125318625L17.0709116625,12.0311934925L16.1424951625,12.0311934925L16.1424951625,11.6676178025L15.8611562625,11.6676178025L15.8611562625,12.0311934925L15.2497871525,12.0311934925C15.2397484225,12.0311934925,15.2329409125,12.0209816125,15.2368028425,12.0117161825L15.4023594825,11.5929548725Z" fill="#FFFFFF" fill-opacity="1" style="mix-blend-mode:passthrough"/><path d="M14.446261425,11.261075885L13.595754125,11.261075885L13.595754125,11.107421875L13.314416025,11.107421875L13.314416025,11.259993795L12.463908675,11.259993795C12.36410743,11.259993685,12.283203125,11.340898515,12.283203125,11.440699545L12.283203125,11.765320655L12.572115685,11.765320655L12.572115685,11.568383905C12.572700205,11.549684255,12.588033195,11.534830485,12.606741905,11.534839745L14.303428125,11.534839745C14.322375525,11.534227815,14.338065125,11.549426885,14.338054425,11.568383905L14.338054425,11.765320655L14.628049325,11.765320655L14.628049325,11.440699545C14.628056725,11.340645475,14.546309425,11.259871285,14.446261425,11.261075885Z" fill="#FFFFFF" fill-opacity="1" style="mix-blend-mode:passthrough"/><path d="M13.686305687499999,12.2353980525L13.6798134875,12.2159207425L13.6679105875,12.1812945625C13.6581723875,12.1585711825,13.6484332875,12.1358476025,13.6386950875,12.1152882025C13.6289567875,12.0947288025,13.6192177875,12.0752515225,13.6083972875,12.0557744225L13.593248387500001,12.0287226425L13.5770170875,12.0016708925L13.7025376875,11.9562239325L14.2435727875,11.9562239325L14.2435727875,11.7041015625L12.6799797975,11.7041015625L12.6799797975,11.9540597525L13.0911669175,11.9540597525L12.2817778699,12.3068146725L12.2817778699,12.531885322499999L13.3227299875,12.0990572025C13.3250158875,12.1025893125,13.327181187499999,12.1061984325,13.3292220875,12.1098779425L13.3389602875,12.1239447625C13.3476169875,12.1358476025,13.3551914875,12.1477502325,13.3627658875,12.1596530725L13.376832587500001,12.1845406325L12.2763671875,12.6455026225L12.2763671875,12.8673272625L13.4590701875,12.3760671625L13.4655623875,12.3987905425C13.4660526875,12.4056350025,13.4660526875,12.4125056225,13.4655623875,12.4193499125C13.4660319875,12.4214885225,13.4660319875,12.4237034925,13.4655623875,12.4258422825C13.4655623875,12.4323346625,13.4655623875,12.4399091025,13.4655623875,12.4464016525C13.4655623875,12.4528942125,13.4655623875,12.4626326525,13.4655623875,12.4712892125L12.2774494891,12.9755341625L12.2774494891,13.1995227625L13.4861218875,12.699606362499999C13.4837261875,12.7084184625,13.4808358875,12.7170886625,13.4774651875,12.7255760625C13.4779340875,12.7277146625,13.4779340875,12.7299295625,13.4774651875,12.7320684625C13.4734347875,12.7424605625,13.4687364875,12.7525811625,13.4633985875,12.7623664625C13.4633985875,12.7699408625,13.4558240875,12.7764332625,13.4525779875,12.7829258625L13.4406751875,12.8024030625C13.4366010875,12.8089815625,13.4318896875,12.8151430625,13.4266085875,12.8207982625C13.4232658875,12.8256851625,13.419653287500001,12.8303813625,13.4157880875,12.8348650625L13.4157880875,12.8402753625C13.4082134875,12.8478498625,13.4017213875,12.8565064625,13.3941468875,12.8629987625C13.3867358875,12.8707688625,13.3787799875,12.8780009625,13.3703412875,12.8846402625L13.3378787875,12.9106099625L13.3216476875,12.9225127625L13.3043340875,12.9333335625L13.2881028875,12.9419900625L13.2707893275,12.9517286625C13.2502297175,12.9625494625,13.2296709375,12.9712060625,13.2112750975,12.9787804625L13.2026183575,12.9787804625C13.1831212675,12.9862713625,13.1632575975,12.9927719625,13.1431041375,12.9982577625L13.1366119975,12.9982577625L13.1247091275,12.9982577625L13.1171346875,12.9982577625L13.0987396875,12.9982577625L13.0987396875,13.2568727625C13.2781623875,13.2303075625,13.4461080875,13.1525337625,13.5824251875,13.0328842625L13.5921635875,13.0231455625L13.6376102875,12.9722883625L13.6624981875,12.9376621625L13.6776471875,12.9138566625C13.6776471875,12.9052001625,13.6873854875,12.8965434625,13.6917137875,12.8878869625L13.705780387499999,12.8619172625L13.7176832875,12.8337834625C13.7314287875,12.7986571625,13.7422855875,12.7624682625,13.7501456875,12.7255763625C13.7507491875,12.7144031625,13.7507491875,12.7032053425,13.7501456875,12.6920322825C13.7571563875,12.6484007225,13.7596940875,12.6041673425,13.757720087500001,12.5600197925C13.757720087500001,12.5362142925,13.757720087500001,12.5113265525,13.757720087500001,12.4864389925L13.757720087500001,12.4777824325L13.757720087500001,12.4691258625L13.757720087500001,12.4409920025L13.8756653875,12.3977092525C13.9478716875,12.7903221625,14.2523707875,13.0991097625,14.6439351875,13.1767997625L14.6439351875,12.9171023625C14.6439351875,12.9171023625,14.219763887500001,12.8868042625,14.1364439875,12.3219636125L14.6277064875,12.1196165725L14.6277064875,11.8934638625L13.6949615875,12.2505469925C13.6895516875,12.2473009225,13.6884693875,12.2408083725,13.686305687499999,12.2353980525Z" fill="#FFFFFF" fill-opacity="1" style="mix-blend-mode:passthrough"/></g></g></svg>