<svg xmlns="http://www.w3.org/2000/svg" xmlns:xlink="http://www.w3.org/1999/xlink" fill="none" version="1.1" width="24" height="24" viewBox="0 0 24 24"><defs><clipPath id="master_svg0_159_00154"><rect x="0" y="0" width="24" height="24" rx="0"/></clipPath><clipPath id="master_svg1_159_9726"><rect x="0.5546875" y="10.2109375" width="22.890647888183594" height="3.576873302459717" rx="0"/></clipPath></defs><g clip-path="url(#master_svg0_159_00154)"><g clip-path="url(#master_svg1_159_9726)"><path d="M3.165613117713165,10.635691681934867L1.8508711777131652,11.047298451934868C1.8333731147131653,11.052866841934867,1.8149319287131653,11.041935221934867,1.8114187117131653,11.023911671934867L1.7341407812831653,10.519368031934867C1.7312502686131652,10.500017828934867,1.7469506557131653,10.482934984334866,1.7664755027131653,10.484186221008867L3.1576820177131655,10.576513049934867C3.1720746177131653,10.577575390934866,3.183753517713165,10.588578691934867,3.1856707177131653,10.602882731934868C3.1875878177131654,10.617186801934867,3.1792182177131654,10.630877021934866,3.165613117713165,10.635691681934867Z" fill="#FF9650" fill-opacity="1" style="mix-blend-mode:passthrough"/><path d="M3.621454767713165,12.615414671934866L1.9988214447131654,11.285827301934868C1.9901888501131653,11.278675871934867,1.9861390291131653,11.267388781934867,1.9882559457331652,11.256380641934866C1.9903730175131653,11.245372311934867,1.9983202987131652,11.236392311934868,2.008989594713165,11.232952881934867L3.5850528677131654,10.739797609834866C3.6047878677131653,10.732819186034867,3.6255276677131656,10.747336913834866,3.6257255677131655,10.768268422934867L3.671278967713165,12.590401171934866C3.6718460677131652,12.602442671934867,3.6652682677131656,12.613689171934867,3.6544946677131653,12.619097871934867C3.6437215677131656,12.624506571934866,3.630772967713165,12.623063171934866,3.621454767713165,12.615414671934866Z" fill="#FF9650" fill-opacity="1" style="mix-blend-mode:passthrough"/><path d="M1.6084628802131653,11.479248246434867L1.3906610602131653,13.299957284434868C1.3893299102131653,13.312240084434867,1.3804827302131653,13.322390684434867,1.3684968902131653,13.325387184434867C1.3565110002131653,13.328383884434867,1.3439279802131652,13.323590584434868,1.3369731902131652,13.313379284434866L0.5601265086131653,12.206067584434868C0.5512511325131653,12.192785934434866,0.5543858426431653,12.174873314434867,0.5672442142131653,12.165394984434867L1.5616892802131652,11.451590861634866C1.5712546802131653,11.444737646334866,1.5839647802131653,11.444180024234868,1.5940935802131653,11.450169266234868C1.6042224802131653,11.456158508434866,1.6098584802131652,11.467564242434866,1.6084628802131653,11.479248246434867Z" fill="#FF9650" fill-opacity="1" style="mix-blend-mode:passthrough"/><path d="M1.5741730902131654,11.173705476934867L0.7871581912131653,11.740478196934866C0.7750403662131653,11.749315496934868,0.7582961992131653,11.748032896934866,0.7476657498131652,11.737453096934868C0.7370352802131653,11.726873196934868,0.7356726818131653,11.710135396934866,0.7444519549131653,11.697975496934866L1.4653738702131651,10.682583853934867C1.4725749502131653,10.672381568934867,1.4852672202131654,10.667598647034866,1.4974103602131654,10.670511269304868C1.5095536702131653,10.673423852534867,1.5186952902131652,10.683443638934866,1.5204851602131653,10.695802442934866L1.5865781902131653,11.144421236934868C1.5882136802131654,11.155730416934867,1.5834346402131652,11.167012416934867,1.5741730902131654,11.173705476934867Z" fill="#FF9650" fill-opacity="1" style="mix-blend-mode:passthrough"/><path d="M1.8379278902131653,11.520914682934867L1.6060941079031652,13.476859846934866C1.6034441609131653,13.498866046934866,1.6244061182131653,13.516262046934866,1.6455465032131653,13.509601346934867L3.5526849302131653,12.919848646934867C3.5634839302131653,12.916573046934866,3.571592630213165,12.907603246934867,3.5737646302131654,12.896529446934867C3.5759368302131653,12.885454946934868,3.5718179302131654,12.874086746934868,3.5630563302131653,12.866974146934867L1.8875484502131652,11.500781632534867C1.8789113502131654,11.493715702144867,1.8671052202131653,11.491930038634868,1.8567647002131653,11.496125626334868C1.8464243402131653,11.500321214134868,1.8392000802131654,11.509828175934867,1.8379278902131653,11.520914682934867Z" fill="#FF9650" fill-opacity="1" style="mix-blend-mode:passthrough"/><path d="M4.871485530213166,11.626513284434868C4.8646991090131655,11.627553784434866,4.858853229263166,11.621708284434867,4.859893689773165,11.614921484434866L4.8613173797131655,10.238967437434868C4.8603116737231655,10.232277083634868,4.865998365913165,10.226488766204866,4.872705658213166,10.227375746886867L5.354472700213165,10.227985848674868Q5.642434780213165,10.227985848674868,5.7815349702131655,10.465513844434867C5.797595860213165,10.493571364434867,5.811662730213166,10.522724264434867,5.823631350213165,10.552756564434867C5.834170580213165,10.578913324434867,5.841609840213165,10.606214334434867,5.845797840213165,10.634101794434867C5.855493660213165,10.732009194434866,5.859296740213165,10.830410914434866,5.857186020213165,10.928774674434868Q5.857186020213165,11.162438714434867,5.840510190213165,11.241953784434866C5.829976500213165,11.296935884434866,5.808315160213166,11.349184984434867,5.7768573802131655,11.395492784434866C5.732918560213165,11.463490684434866,5.673732700213165,11.520309184434867,5.603998900213165,11.561436884434867C5.5235889002131655,11.607340784434866,5.432192560213165,11.630470984434867,5.339626970213165,11.628343384434867L4.871485530213166,11.626513284434868ZM5.092337770213165,10.458802824434867L5.092337770213165,11.397729684434868C5.092337770213165,11.403345384434868,5.096890290213166,11.407897884434867,5.102505920213165,11.407897884434867L5.331289290213165,11.407897884434867Q5.496216710213165,11.407897884434867,5.577155110213165,11.292794584434867C5.597812240213165,11.260480384434867,5.611652670213165,11.224287944434867,5.617827770213165,11.186435604434866C5.621943000213165,11.155679544434866,5.624386970213165,11.124722854434866,5.6251487702131655,11.093702034434866Q5.627589110213165,11.032693164434868,5.627589110213165,10.935892364434867C5.627589110213165,10.873663204434866,5.627589110213165,10.822009044434868,5.624945280213165,10.780319714434867C5.622301400213165,10.738630254434867,5.620471240213165,10.705685454434867,5.617217360213165,10.681281884434867C5.611226860213165,10.637215274434867,5.594463050213165,10.595305704434868,5.568410340213165,10.559264084434867Q5.487065140213165,10.448837954434866,5.332305880213165,10.448634604434867L5.102505920213165,10.448634604434867C5.096890290213166,10.448634544434867,5.092337770213165,10.453187054434867,5.092337770213165,10.458802824434867Z" fill="#323232" fill-opacity="1" style="mix-blend-mode:passthrough"/><path d="M6.176836295213166,11.317056709434867C6.181734185213165,11.312922409434867,6.189189005213166,11.314295709434866,6.192292075213166,11.319903809434868C6.230534985213165,11.378067209434867,6.2964033152131655,11.412004209434867,6.365964265213165,11.409383509434868C6.4207719852131655,11.407982109434867,6.473787995213165,11.389575609434868,6.517672895213165,11.356712409434866C6.543690265213165,11.338439109434868,6.563546295213166,11.312696809434867,6.5746142852131655,11.282891709434868C6.587650295213165,11.246515909434867,6.593855205213165,11.208045089434867,6.592916845213165,11.169415259434867L6.592916845213165,10.240859795434867C6.591908935213166,10.233850503834867,6.598195795213165,10.227983233934866,6.605118755213165,10.229471408394867L6.814379515213165,10.229471408394867C6.821497265213165,10.229471408394867,6.824954095213165,10.233335304034867,6.824954095213165,10.241063100434866L6.824954095213165,11.190564949434867Q6.824954095213165,11.402875909434867,6.684430185213166,11.521843109434867C6.639172495213165,11.558976709434868,6.588399355213165,11.588823309434867,6.533941745213165,11.610306109434866C6.481985685213165,11.630053109434867,6.426832945213166,11.640049409434868,6.371251315213165,11.639793809434867C6.332614925213165,11.640010709434867,6.2940964652131655,11.635503409434866,6.256554245213165,11.626371809434866C6.221708595213165,11.617833309434866,6.188039015213166,11.605062109434867,6.156296435213165,11.588342709434867C6.1259483852131655,11.572202309434868,6.0975614642131655,11.552618109434867,6.0716973392131655,11.529977609434868C6.046345237213165,11.507876009434867,6.023806374213165,11.482741509434867,6.004587800213165,11.455139909434866C6.002694925763166,11.452648009434867,6.001955153073165,11.449466909434866,6.002554046213166,11.446395509434867C6.003285130253166,11.443408309434867,6.0050048535131655,11.440756409434867,6.007434560013166,11.438871009434866L6.176836295213166,11.317056709434867Z" fill="#323232" fill-opacity="1" style="mix-blend-mode:passthrough"/><path d="M8.061279895213165,11.221766896934867C8.065056975213166,11.221637796934868,8.068673845213166,11.223295496934867,8.071041525213165,11.226240996934866C8.073553145213165,11.228916296934866,8.074268695213165,11.232812596934867,8.072871685213165,11.236205696934867Q8.032199205213166,11.432247596934866,7.894115445213165,11.537589496934867C7.849981725213166,11.570838196934867,7.800641595213166,11.596539496934867,7.748100995213165,11.613647296934866C7.693195225213165,11.631373396934867,7.635782125213165,11.640095196934867,7.578089775213165,11.639474496934866C7.4789236452131655,11.642897696934867,7.381207885213165,11.614928196934867,7.298872155213165,11.559552596934868C7.232182155213165,11.515435996934867,7.176912075213165,11.456123996934867,7.1376054432131655,11.386490796934867C7.126245718213165,11.365286396934867,7.116326429213165,11.343341296934867,7.107914619213165,11.320804696934866C7.099494738213165,11.298233096934867,7.093098065213165,11.274958296934868,7.088798445213166,11.251254396934867C7.0804604886131655,11.203870736934867,7.076190039053166,11.096291796934867,7.076596541643165,10.928517366934868Q7.076596541643165,10.802838946934866,7.079646862613165,10.722917276934867C7.080207277513165,10.684031116934866,7.083469228313166,10.645230996934867,7.089408510213166,10.606796996934866C7.093641102213165,10.582857686934867,7.100109769213165,10.559368126934867,7.1087282452131655,10.536636756934866C7.117059994213165,10.513935616934868,7.126981139213165,10.491849826934867,7.138419073213165,10.470543796934868C7.178220335213165,10.401319346934867,7.233481735213165,10.342230086934867,7.299889345213165,10.297888604934867Q7.412145525213165,10.216543396934867,7.579309885213165,10.216543396934867Q7.779012505213165,10.216543396934867,7.909571285213166,10.339781376934868C7.994867925213165,10.417178386934866,8.052444155213164,10.520400986934867,8.073481735213166,10.633640936934867C8.074906765213166,10.637000376934868,8.074096205213165,10.640891486934867,8.071448025213165,10.643402356934867C8.068916615213165,10.645931056934867,8.065467835213166,10.647325266934867,8.061889945213165,10.647266256934866L7.842054545213165,10.647266256934866C7.8370940052131655,10.647693506934868,7.832579075213165,10.644394206934868,7.831479905213166,10.639538486934867C7.823212745213166,10.614090016934867,7.811293185213165,10.589977106934867,7.796095015213165,10.567954706934866C7.779908065213165,10.544941476934866,7.7608403552131655,10.524096596934866,7.739356515213165,10.505928956934866C7.6950508352131655,10.467407426934868,7.6377805452131655,10.447130146934867,7.579106335213165,10.449190676934867C7.536303815213166,10.447935216934868,7.493909005213165,10.457815686934866,7.456072005213166,10.477864856934866C7.425120085213165,10.494786996934867,7.397546175213165,10.517259886934866,7.374726805213165,10.544161186934867C7.361954565213165,10.560335926934867,7.351230945213166,10.578027056934866,7.342798655213166,10.596832386934867C7.334164645213165,10.616152156934866,7.3273565152131654,10.636236956934868,7.322462345213165,10.656824456934867C7.315862745213165,10.690327756934867,7.312323365213166,10.724361736934867,7.311887715213166,10.758505956934867Q7.308837365213165,10.826632576934866,7.308837365213165,10.929330846934867C7.308837365213165,10.999084376934867,7.308837365213165,11.056636116934866,7.311481195213165,11.101782696934867C7.312042235213165,11.135438466934866,7.315512095213165,11.168982706934868,7.321852895213166,11.202040636934868C7.327193915213165,11.222390596934867,7.334410425213165,11.242201596934867,7.343409325213165,11.261219296934867C7.351960155213165,11.279386496934867,7.362461565213165,11.296569996934867,7.374727395213165,11.312466796934867C7.396738145213165,11.340814696934867,7.424449205213166,11.364231096934867,7.456072595213166,11.381203496934868C7.493964885213165,11.401086496934866,7.536332995213165,11.410890896934866,7.579106985213166,11.409674296934867Q7.745254875213165,11.409674296934867,7.831887065213166,11.228477896934868C7.833356675213166,11.226958996934867,7.8349193952131655,11.225532696934867,7.836564655213166,11.224207396934867C7.838101265213165,11.222726296934868,7.840126335213165,11.221858296934867,7.842258815213166,11.221766896934867L8.061279895213165,11.221766896934867Z" fill="#323232" fill-opacity="1" style="mix-blend-mode:passthrough"/><path d="M8.151153558713165,11.628809909434867C8.147365947213165,11.629041909434868,8.143735972013165,11.627265309434867,8.141595471913165,11.624132509434867C8.139974426412165,11.621142709434867,8.139608884403165,11.617630809434868,8.140578905063165,11.614371109434867L8.645122467713165,10.236993548034867C8.645755527713165,10.232290655834866,8.649949667713166,10.228899676874867,8.654680547713165,10.229265753444867L8.826522587713166,10.229265753444867C8.828513447713165,10.229531616524866,8.830403267713166,10.230301627234867,8.832013187713166,10.231502746934867C8.834004637713166,10.232810755534867,8.835505957713165,10.234741647734866,8.836283567713165,10.236993548034867L9.337980417713165,11.614371109434867C9.339502917713165,11.617731809434867,9.339502917713165,11.621585309434867,9.337980417713165,11.624946109434866C9.336103617713166,11.627947909434868,9.332774717713166,11.629728409434867,9.329235817713165,11.629623409434867L9.108587027713165,11.629623409434867C9.103856027713165,11.629989609434867,9.099661887713165,11.626598509434867,9.099028887713166,11.621895609434867L8.997347357713165,11.325392409434867C8.995909987713166,11.321323609434867,8.992103217713165,11.318570009434866,8.987789277713166,11.318477909434867L8.495244057713165,11.318477909434867C8.490909667713165,11.318510409434866,8.487072407713166,11.321286309434868,8.485685977713166,11.325392409434867C8.468399967713165,11.374606209434868,8.451521127713166,11.423210009434866,8.434438707713165,11.470593509434867L8.380954117713165,11.621895609434867C8.380125607713165,11.624007109434867,8.378714967713165,11.625840509434866,8.376886617713165,11.627183209434866C8.375011737713166,11.628457009434866,8.372840837713165,11.629227409434867,8.370582427713165,11.629420109434866L8.151153558713165,11.628809909434867ZM8.922306357713165,11.098846039434868C8.898512657713166,11.028278969434867,8.785849927713166,10.693543539434867,8.752091647713165,10.592878869434866C8.750631987713165,10.588857459434866,8.746811387713166,10.586179749434868,8.742533567713165,10.586179749434868C8.738255617713165,10.586179749434868,8.734435137713165,10.588857459434866,8.732975487713166,10.592878869434866C8.699217077713165,10.693340199434868,8.588587607713166,11.021568079434868,8.562353547713165,11.098032559434866C8.560108807713165,11.104675489434866,8.565103527713166,11.111543139434866,8.572115207713166,11.111454449434866L8.913358327713166,11.111454449434866C8.919664387713166,11.111039839434866,8.923996267713164,11.104935429434867,8.922306357713165,11.098846039434868Z" fill="#323232" fill-opacity="1" style="mix-blend-mode:passthrough"/><path d="M9.570673560213166,11.630241934434867C9.563982713013166,11.631247334434867,9.558194860993165,11.625560634434867,9.559081719337165,11.618853534434868L9.560301847713164,10.242696004434867C9.559414989403166,10.235988814834867,9.565203462713166,10.230302146864867,9.571893687213166,10.231307676044867L10.110399190213165,10.231307676044867C10.165205660213164,10.230627218144868,10.219753380213165,10.238939845434867,10.271869420213164,10.255914602434867C10.317930220213166,10.271176664434867,10.360704300213165,10.294978318434866,10.397954170213165,10.326074769434866C10.417288120213165,10.344251994434867,10.435107830213166,10.363975814434866,10.451235120213166,10.385050044434866C10.468305770213165,10.407534114434867,10.483346400213165,10.431489474434867,10.496178210213165,10.456633844434867C10.509501580213165,10.482548764434867,10.520001170213165,10.509820424434867,10.527496340213165,10.537979054434867C10.535094500213166,10.567128504434868,10.538921770213165,10.597132104434866,10.538884580213166,10.627255404434868C10.538677930213165,10.671081504434866,10.531820650213165,10.714622394434867,10.518548250213165,10.756390954434867C10.505885300213166,10.796641194434867,10.487752140213166,10.834960604434867,10.464657190213165,10.870274264434867C10.441076870213166,10.902493084434866,10.413233100213166,10.931362944434866,10.381888270213166,10.956093394434866C10.352701430213166,10.978867314434867,10.320369840213166,10.997293554434867,10.285900890213165,11.010798054434867C10.280362550213166,11.013018034434866,10.277917330213166,11.019507364434867,10.280613240213166,11.024830124434867C10.330640380213165,11.121020814434868,10.380871120213165,11.217211564434868,10.431508900213165,11.314215734434867Q10.510210280213165,11.464500934434867,10.587691630213165,11.613362634434868C10.589716630213164,11.617105934434868,10.589716630213164,11.621618134434867,10.587691630213165,11.625361034434867C10.585842030213165,11.628868434434867,10.582087930213165,11.630945034434866,10.578133530213165,11.630648434434868L10.331047530213166,11.630648434434868C10.328906420213166,11.630596334434866,10.326867100213166,11.629722634434867,10.325353440213165,11.628208134434868L10.320472960213165,11.623937434434866L10.042475370213165,11.048420154434867C10.040764330213165,11.044928394434868,10.037211950213166,11.042718194434867,10.033323760213165,11.042726004434867L9.801287140213166,11.042726004434867C9.795671190213165,11.042726004434867,9.791118990213166,11.047278424434866,9.791118990213166,11.052894134434867L9.791118990213166,11.618853434434866C9.792005850213165,11.625560634434867,9.786217360213165,11.631247334434867,9.779527140213165,11.630241734434867L9.570673560213166,11.630241934434867ZM9.791525480213165,10.450736304434868L9.791525480213165,10.824924254434867C9.791525480213165,10.830652254434867,9.796168940213166,10.835295754434867,9.801897200213165,10.835295754434867L10.095959960213165,10.835295754434867C10.170187350213165,10.835295754434867,10.225909230213166,10.814959424434868,10.263124410213166,10.774286884434867C10.299793360213165,10.734664404434866,10.319817480213166,10.682456244434867,10.319049240213165,10.628475594434867C10.319532040213165,10.599065144434867,10.313779530213166,10.569886024434867,10.302170340213165,10.542859724434868C10.291439290213166,10.518767374434868,10.274789450213165,10.497780404434867,10.253769870213166,10.481850824434867C10.233886600213165,10.468475644434866,10.211983260213165,10.458382194434867,10.188897010213164,10.451956444434867C10.162800730213165,10.444770684434866,10.135839400213165,10.441212304434867,10.108771920213165,10.441381594434867L9.801693630213165,10.441381594434867C9.796656120213166,10.441316684434867,9.792331040213165,10.444950004434867,9.791525480213165,10.449922834434867L9.791525480213165,10.450736304434868Z" fill="#323232" fill-opacity="1" style="mix-blend-mode:passthrough"/><path d="M10.827655107713165,11.278100609434867C10.829467307713164,11.275677609434867,10.832359997713166,11.274307409434867,10.835383017713164,11.274439909434866C10.838475527713165,11.274360309434867,10.841497927713165,11.275367709434867,10.843924537713166,11.277287009434867C10.896324887713165,11.319338909434867,10.955177787713165,11.352645509434867,11.018206807713165,11.375918009434868C11.084663417713164,11.400798409434866,11.155084577713165,11.413408009434868,11.226043227713165,11.413133509434868Q11.348061027713165,11.413133509434868,11.419848737713165,11.362292709434866C11.462914527713165,11.333398409434867,11.488347227713165,11.284601309434867,11.487365427713165,11.232750509434867Q11.487365427713165,11.080838339434868,11.317557807713165,11.057858369434866L11.272004667713166,11.051960849434867L11.228688297713166,11.046266699434867L11.184558837713166,11.039962369434868L11.135141757713166,11.032641369434867C11.079513577713165,11.025626919434867,11.025274337713165,11.010198489434867,10.974282147713165,10.986884619434868C10.928999017713165,10.966305339434866,10.888590797713166,10.936363359434868,10.855721797713166,10.899031839434867C10.824550177713165,10.863078499434867,10.800220217713166,10.821724909434867,10.783934667713165,10.777013979434868C10.767533071713165,10.730874739434867,10.759409218713165,10.682201259434867,10.759937979713165,10.633236369434867Q10.759937979713165,10.450209669434868,10.881955797713164,10.336733089434867Q11.003973637713166,10.223256533034867,11.221366287713165,10.221426209434867C11.263373197713165,10.221424991236066,11.305295707713165,10.225168124334868,11.346637367713166,10.232611173434867C11.386705517713166,10.239828078434867,11.426195207713166,10.249955257434866,11.464791237713165,10.262912264434867C11.502256507713165,10.275491533434867,11.538754817713166,10.290784252434866,11.573997017713165,10.308668939434867C11.608606277713164,10.326051279434868,11.642151717713165,10.345472709434867,11.674458507713165,10.366830739434867C11.680554087713166,10.369977869434868,11.681970417713165,10.378069409434866,11.677305817713165,10.383099799434866L11.560779157713165,10.554941559434868C11.557666177713166,10.560398569434867,11.550398827713165,10.561755169434868,11.545526917713165,10.557788599434867C11.495680447713166,10.526320389434867,11.442215677713165,10.500987729434867,11.386293467713166,10.482340979434866C11.329782667713165,10.463530699434866,11.270552457713165,10.454185779434868,11.210994537713166,10.454683589434866C11.182171967713165,10.454477409434867,11.153449897713166,10.458101869434866,11.125581797713165,10.465461829434867C11.099755557713165,10.472592789434866,11.075621097713165,10.484832699434866,11.054608287713165,10.501457059434866Q10.991972177713166,10.546603639434867,10.991972177713166,10.638727089434866C10.993151337713165,10.677017469434867,11.008180137713165,10.713579849434867,11.034272047713165,10.741628789434866C11.050409257713165,10.758217589434867,11.069793517713165,10.771301829434867,11.091213407713166,10.780064429434868C11.119168397713166,10.791827159434867,11.148581807713166,10.799762149434867,11.178659287713165,10.803654509434867C11.196962477713166,10.806908329434867,11.219331917713165,10.810365459434866,11.243735727713165,10.813619279434867C11.268139537713164,10.816873089434868,11.298033297713165,10.820940339434866,11.331995787713165,10.824804269434868Q11.529054637713166,10.849207839434866,11.623821257713166,10.970208789434867C11.685591037713165,11.043824039434867,11.719434317713166,11.136856929434867,11.719402117713166,11.232953909434867Q11.719402117713166,11.426962109434868,11.583759307713166,11.536168209434868Q11.448116597713165,11.645374109434867,11.224417207713165,11.643340409434867Q10.910628197713166,11.643340409434867,10.690792812313166,11.450958909434867C10.688263807313165,11.449216909434867,10.686805362763165,11.446299609434867,10.686928865089564,11.443231109434867C10.686942518612165,11.440153309434868,10.687940467013165,11.437160409434867,10.689776245313166,11.434690009434867L10.827655107713165,11.278100609434867Z" fill="#323232" fill-opacity="1" style="mix-blend-mode:passthrough"/><path d="M12.534541368713166,11.618898184434867C12.527851142013166,11.619903984434867,12.522063289773165,11.614217384434866,12.522949527454164,11.607509884434867L12.524169656013166,10.231149053434867C12.523318172573166,10.224426032034867,12.529037757313166,10.218706154434868,12.535761496713166,10.219557361960867L13.035017427713166,10.219557361960867C13.087634387713166,10.219360810154868,13.140101137713165,10.225160168034867,13.191403627713166,10.236843217434867C13.249840677713165,10.252752339434867,13.304201607713166,10.280972736434867,13.350840807713166,10.319611974434867C13.373375357713165,10.337624524434867,13.393836977713166,10.358086514434866,13.411849677713166,10.380620884434867C13.430504087713166,10.404228694434867,13.446976427713166,10.429481604434867,13.461063147713165,10.456068564434867C13.475719627713165,10.485670434434867,13.486714417713165,10.516947674434867,13.493804337713165,10.549208784434867C13.501533507713166,10.584886304434868,13.505351487713165,10.621299764434866,13.505192697713165,10.657804654434868Q13.505192697713165,10.808903354434866,13.391512097713166,10.945766644434867Q13.277831677713165,11.082629884434867,13.061048507713165,11.081613084434867L12.764952007713166,11.081613084434867C12.759336677713165,11.081613084434867,12.754783837713166,11.086165504434867,12.754783837713166,11.091781334434867L12.754783837713166,11.597748384434867C12.754672137713165,11.609686684434866,12.744963247713166,11.619305684434867,12.733023867713165,11.619304784434867L12.534541368713166,11.618898184434867ZM12.756003977713165,10.451187824434866L12.756003977713165,10.851406234434867C12.756111967713165,10.856976534434867,12.760601487713165,10.861466254434866,12.766172127713165,10.861574374434866L13.054744247713165,10.861574374434866C13.128158037713165,10.861574374434866,13.183066247713166,10.839611194434866,13.218858417713164,10.795278034434867C13.254245877713165,10.755751274434868,13.273797687713165,10.704553534434867,13.273766637713166,10.651500394434867C13.273766637713166,10.571985504434867,13.245702507713165,10.514230394434867,13.189370457713165,10.477625034434867C13.146646137713166,10.451465524434868,13.097060327713166,10.438714924434867,13.047016377713165,10.441019674434866L12.765561457713165,10.441019674434866C12.760185707713166,10.441343134434867,12.755994047713166,10.445802244434867,12.756003977713165,10.451187824434866Z" fill="#323232" fill-opacity="1" style="mix-blend-mode:passthrough"/><path d="M13.750361681213166,11.619671146934866C13.743671454513166,11.620677346934867,13.737883602273165,11.614990546934866,13.738769839954164,11.608283046934867L13.739989968513166,10.232125622934866C13.739139726293166,10.225402385934867,13.744859311313165,10.219682698134866,13.751581809213166,10.220533930528866L14.290086690213165,10.220533930528866C14.344893160213164,10.219853476854867,14.399440170213165,10.228166102934868,14.451556920213164,10.245140857934867C14.497431520213166,10.260352825934866,14.540057840213166,10.284010698934868,14.577235160213165,10.314894360934867C14.596523820213164,10.333116636934866,14.614339170213166,10.352836626934867,14.630516170213165,10.373869636934867C14.647627710213165,10.396325536934867,14.662670190213165,10.420284616934866,14.675459740213165,10.445453406934867C14.688765760213165,10.471375666934867,14.699264050213165,10.498645476934866,14.706777270213164,10.526798596934867C14.714386050213164,10.555876636934867,14.718213980213164,10.585814496934868,14.718165580213165,10.615871566934867C14.718055130213166,10.659705386934867,14.711194810213165,10.703260706934866,14.697829250213164,10.745007116934866C14.685126480213166,10.785241566934866,14.666995820213165,10.823555606934868,14.643937590213165,10.858890376934866C14.620465930213165,10.891200326934866,14.592609050213165,10.920084196934868,14.561168670213165,10.944709676934867C14.531941410213165,10.967475496934867,14.499622290213166,10.985963786934867,14.465181890213165,10.999617716934868C14.459586440213165,11.001659536934866,14.457020820213165,11.008121926934868,14.459690690213165,11.013446406934866Q14.535138790213166,11.157427326934867,14.610789240213165,11.302831946934866Q14.689490680213165,11.453320546934867,14.766971930213165,11.601978846934866C14.768997630213166,11.605721746934867,14.768997630213166,11.610234146934866,14.766971930213165,11.613977146934866C14.765163530213165,11.617523646934867,14.761381430213165,11.619616146934867,14.757414430213165,11.619264646934866L14.510736290213165,11.619264646934866C14.508595110213165,11.619212946934868,14.506555860213165,11.618339046934867,14.505041540213165,11.616824246934867C14.503008370213164,11.615197246934867,14.501381160213166,11.613977146934866,14.500161050213165,11.612756946934867L14.222164150213166,11.038256546934868C14.220551760213166,11.034650946934867,14.216962130213165,11.032337806934867,14.213012550213165,11.032358966934867L13.980772320213166,11.032358966934867C13.975236450213165,11.032469826934866,13.970806490213166,11.036990066934868,13.970807720213164,11.042527096934867L13.970807720213164,11.608689746934868C13.971695210213165,11.615396946934867,13.965906110213165,11.621083846934868,13.959215890213166,11.620078046934868L13.750361681213166,11.619671146934866ZM13.971213620213165,10.440165896934866L13.971213620213165,10.814557156934868C13.971213620213165,10.820172866934866,13.975766450213165,10.824725346934867,13.981381770213165,10.824725346934867L14.275647460213165,10.824725346934867C14.349875450213165,10.824725346934867,14.405596730213166,10.804389016934866,14.442811190213165,10.763716476934867C14.479353070213165,10.723799666934866,14.499220130213166,10.671404356934866,14.498331430213165,10.617295076934868C14.498815480213166,10.587950186934867,14.493062440213166,10.558837106934867,14.481451990213165,10.531882576934867C14.470829490213166,10.507724636934867,14.454159860213165,10.486712476934867,14.433051470213165,10.470873706934867C14.413256290213166,10.457343626934867,14.391326310213165,10.447237976934867,14.368178610213166,10.440979326934867C14.342102830213165,10.433694566934866,14.315127250213166,10.430134326934867,14.288053510213166,10.430404446934867L13.981381770213165,10.430404446934867C13.976210800213165,10.430367196934867,13.971835480213166,10.434218026934866,13.971214850213165,10.439352416934867L13.971213620213165,10.440165896934866Z" fill="#323232" fill-opacity="1" style="mix-blend-mode:passthrough"/><path d="M14.941815401276166,10.922678251934867C14.941815401276166,10.839095971934867,14.943035529613166,10.770562731934866,14.945272224713165,10.717484911934866C14.946312374913166,10.678645931934867,14.949367039813165,10.639887141934867,14.954423808213166,10.601364691934867C14.959125584213165,10.577425351934867,14.965931242213165,10.553947531934867,14.974760107213164,10.531204421934866C14.983219083213164,10.508292071934868,14.993558526213166,10.486117771934866,15.005671680213165,10.464908081934867C15.044892040213165,10.395905291934866,15.099440340213166,10.336834421934867,15.165107560213166,10.292252843934866C15.239944990213166,10.238565001934868,15.333085600213165,10.210907633114866,15.444528100213166,10.210907633114866C15.543223200213165,10.207843384734867,15.640323340213165,10.236339477934868,15.721711930213166,10.292252843934866C15.788133860213165,10.337127671934867,15.843713640213165,10.396249831934867,15.884402330213165,10.465314761934867C15.907655540213165,10.507895251934867,15.923797730213165,10.553987431934868,15.932192150213165,10.601771371934866C15.937932910213165,10.640232461934866,15.941260580213164,10.679015001934866,15.942156730213165,10.717891651934867Q15.945613530213166,10.797406631934868,15.945409930213165,10.923288301934868Q15.945409930213165,11.170170981934866,15.931581440213165,11.246025321934868C15.927370010213165,11.270171021934868,15.921110510213165,11.293914521934866,15.912872370213165,11.316999021934867C15.904999320213165,11.339100521934867,15.895481650213165,11.360581321934866,15.884401140213166,11.381261821934867C15.843335090213165,11.450037521934867,15.787400360213166,11.508752521934866,15.720695380213165,11.553103521934867C15.638888540213165,11.608104221934866,15.541829350213165,11.635926721934867,15.443308000213165,11.632618521934868C15.332474920213166,11.632618521934868,15.239944990213166,11.605978121934868,15.164090990213165,11.552696821934866C15.097399760213165,11.508580421934866,15.042130300213165,11.449268221934867,15.002824299213165,11.379634921934867C14.991364032213164,11.358677621934866,14.981571972213166,11.336850121934868,14.973539978213164,11.314355321934867C14.965073554213165,11.291799021934867,14.958675016213165,11.268519921934868,14.954423808213166,11.244805221934866C14.949365798413165,11.206078611934867,14.946311133413165,11.167116541934867,14.945272224713165,11.128074781934867Q14.941611839693165,11.047949871934867,14.941815401276166,10.922678251934867ZM15.173039030213165,10.922678251934867Q15.173039030213165,11.027410231934867,15.175886410213165,11.095130041934867C15.176459860213166,11.128785211934867,15.179929090213164,11.162328441934868,15.186258120213166,11.195388041934867C15.191628920213166,11.215728721934866,15.198844160213165,11.235537021934867,15.207814540213166,11.254566621934867C15.216318190213165,11.272758521934866,15.226822700213166,11.289947021934868,15.239131990213165,11.305814121934867C15.261151400213166,11.334153721934866,15.288860620213166,11.357568621934867,15.320477190213165,11.374550921934867C15.358369440213165,11.394433821934866,15.400737550213165,11.404238021934868,15.443511550213165,11.403021821934868C15.523027180213166,11.405836021934867,15.598920940213166,11.369710321934868,15.646874490213165,11.306220921934866C15.673338830213165,11.274337321934867,15.691502930213165,11.236401621934867,15.699748400213165,11.195794661934867C15.710120080213166,11.155122181934868,15.715204180213165,11.064015531934867,15.715407790213165,10.923084931934866Q15.715407790213165,10.818556391934868,15.711747350213166,10.750633141934866C15.710616650213165,10.717300911934867,15.706808510213165,10.684113611934867,15.700359110213165,10.651391941934866C15.695880770213165,10.630359641934866,15.689059020213165,10.609895611934867,15.680022780213164,10.590383011934867C15.671648200213165,10.571825141934866,15.661064210213166,10.554345211934868,15.648501810213165,10.538322081934867C15.638168630213165,10.525225961934867,15.626440230213165,10.513292871934867,15.613523960213165,10.502733581934868C15.599295790213166,10.490812171934866,15.583736960213166,10.480576061934867,15.567156550213165,10.472229111934867C15.548944060213165,10.463636151934868,15.529943290213165,10.456825631934867,15.510418710213166,10.451892831934867C15.489089490213166,10.446437971934866,15.467154500213166,10.443704761934868,15.445138750213165,10.443758331934866C15.402677630213166,10.442678901934867,15.360655780213165,10.452554161934867,15.323121040213165,10.472432481934867C15.292132470213165,10.489300301934867,15.264548660213165,10.511780851934867,15.241775810213165,10.538728881934867C15.229104100213165,10.554787621934867,15.218449410213164,10.572340091934867,15.210051240213165,10.590993121934867C15.201298090213164,10.610265841934867,15.194484980213165,10.630362411934867,15.189714950213165,10.650985231934866C15.183174890213165,10.684154531934867,15.179634910213165,10.717845521934867,15.179139670213166,10.751649931934868C15.174259170213166,10.796796521934867,15.173039030213165,10.853738151934866,15.173039030213165,10.922678251934867Z" fill="#323232" fill-opacity="1" style="mix-blend-mode:passthrough"/><path d="M16.479747922713166,11.621976371934867C16.472962052713164,11.623017171934867,16.467115912713165,11.617171371934866,16.468156042713165,11.610384671934867L16.469172592713164,10.441454031934867C16.469172592713164,10.435838321934867,16.464619782713164,10.431285861934867,16.459004432713165,10.431285861934867L16.113287349713165,10.431285861934867C16.101030210013164,10.431401841934868,16.091095411003167,10.421375051934866,16.091325038433165,10.409119241934867L16.091325038433165,10.234023665934867C16.090317160183165,10.227014679434866,16.096603986313166,10.221147669734867,16.103526321713165,10.222635338794866L17.065636692713166,10.222635338794866C17.072422442713165,10.221595194654867,17.078268642713166,10.227440600234868,17.077228482713167,10.234227031934866L17.077228482713167,10.410136031934867C17.077229742713165,10.422121411934867,17.067453802713164,10.431805901934867,17.055468562713166,10.431692501934867L16.710769232713165,10.431692501934867C16.705153882713166,10.431692501934867,16.700601102713165,10.436244941934866,16.700601102713165,10.441860651934867L16.699584482713167,11.610994671934867C16.700438502713165,11.617605971934868,16.694806992713165,11.623237471934868,16.688196182713167,11.622382971934867L16.479747922713166,11.621976371934867Z" fill="#323232" fill-opacity="1" style="mix-blend-mode:passthrough"/><path d="M17.278681993713164,11.623413496934866C17.271991767013166,11.624419396934867,17.266203914773165,11.618732696934867,17.267090152454166,11.612025296934867L17.268513842513165,10.235867769934867C17.267467486173164,10.229192360334867,17.273226790113164,10.223432743514866,17.279902121713164,10.224479442884867L18.159447132713165,10.224479442884867C18.166137392713164,10.223474293244866,18.171925242713165,10.229160648334867,18.171038982713164,10.235867769934867L18.171038982713164,10.434960016934866C18.172079142713166,10.441746466934866,18.166232882713164,10.447591846934866,18.159447132713165,10.446551716934867L17.510109182713165,10.446551716934867C17.504460362713164,10.446550316934866,17.499847952713164,10.451071116934866,17.499737502713167,10.456719866934867L17.499737502713167,10.803860506934868C17.499623282713166,10.809555486934867,17.504209632713167,10.814233386934866,17.509905622713166,10.814232016934866L18.050241292713164,10.814232016934866C18.062258902713165,10.814231956934867,18.072001282713167,10.823974156934867,18.072001282713167,10.835991876934866L18.072001282713167,11.012511036934868C18.072001282713167,11.019628666934867,18.068137342713165,11.023085916934868,18.060612972713166,11.023085916934868L17.510109182713165,11.023085916934868C17.504414442713166,11.022971826934867,17.499736252713166,11.027557926934866,17.499737502713167,11.033254046934866L17.499737502713167,11.394629896934866C17.499737502713167,11.400245696934867,17.504290322713164,11.404798196934866,17.509905622713166,11.404798196934866L18.159243522713165,11.404798196934866C18.165933842713166,11.403793096934868,18.171721632713165,11.409479296934867,18.170835432713165,11.416186496934866L18.170835432713165,11.612228496934867C18.171721632713165,11.618935796934867,18.165933842713166,11.624621996934867,18.159243522713165,11.623616796934867L17.278681993713164,11.623413496934866Z" fill="#323232" fill-opacity="1" style="mix-blend-mode:passthrough"/><path d="M19.349548932713166,11.217413509434866C19.353254022713166,11.217348909434866,19.356781542713165,11.219000209434867,19.359106362713167,11.221887409434867C19.361719192713167,11.224510709434867,19.362446542713165,11.228471609434866,19.360937182713165,11.231852209434868Q19.320264632713165,11.427690909434867,19.182181532713166,11.533236309434868C19.138069512713166,11.566665809434866,19.088731882713166,11.592571309434867,19.036167082713167,11.609904009434867C18.981250102713165,11.627561009434867,18.923838312713166,11.636214209434867,18.866155862713164,11.635527909434867C18.767016412713165,11.638969509434867,18.669315512713165,11.611075209434867,18.586938862713165,11.555809709434866C18.520294782713165,11.511640009434867,18.465036492713164,11.452340109434868,18.425672143713165,11.382747609434867C18.414312414713166,11.361543209434867,18.404393747713165,11.339598409434867,18.395980696713167,11.317061309434866C18.387560196713164,11.294490209434867,18.381162902713164,11.271215009434867,18.376864524713167,11.247511209434867C18.368527186813164,11.199924249434867,18.364459678483165,11.092548629434868,18.364663240089165,10.924774069434868Q18.364663240089165,10.799095829434867,18.367714181813167,10.719174109434867C18.368264046513165,10.680287499434867,18.371525996413165,10.641486549434866,18.377475209713165,10.603053889434866C18.382107477713166,10.579097769434867,18.388914378713164,10.555613719434866,18.397811509713165,10.532893619434867C18.406142640713167,10.510192739434867,18.416063789713164,10.488106929434867,18.427502959713166,10.466800649434868C18.467351372713164,10.397554449434868,18.522599742713165,10.338408449434867,18.588973242713166,10.293942084434867Q18.700210962713165,10.213613709434867,18.867375972713166,10.213613709434867Q19.067078652713164,10.213613709434867,19.197637322713167,10.336851689434868C19.283005352713165,10.414191549434866,19.340595962713167,10.517440069434867,19.361547832713164,10.630711249434867C19.362990142713166,10.633967329434867,19.362260342713164,10.637776629434867,19.359717012713165,10.640269329434867C19.357184942713165,10.642945399434867,19.353638772713165,10.644423359434867,19.349956092713164,10.644336569434866L19.130120632713165,10.644336569434866C19.125153242713164,10.644950049434867,19.120581742713163,10.641544509434867,19.119748952713167,10.636608799434867C19.111410382713164,10.611151869434867,19.099422572713166,10.587039459434866,19.084160442713166,10.565025019434866C19.067876752713165,10.542456769434867,19.048889632713166,10.521967939434868,19.027624902713164,10.504016089434867C18.983277022713164,10.465427929434867,18.925917322713165,10.445144789434867,18.867171172713164,10.447277819434866C18.824706252713167,10.446143139434866,18.782669542713165,10.456021689434866,18.745153422713166,10.475951989434867C18.714164852713164,10.492819599434867,18.686581012713166,10.515300209434868,18.663808192713166,10.542248299434867C18.651179942713163,10.558263949434867,18.640528942713164,10.575743609434866,18.632083622713164,10.594309259434867C18.623388792713165,10.613956059434868,18.616579412713165,10.634383999434867,18.611747322713164,10.655318159434866C18.605147702713165,10.688821489434867,18.601607712713164,10.722855409434867,18.601172042713166,10.756999629434867Q18.598121092713164,10.825329679434867,18.598121092713164,10.927824519434868C18.598121092713164,10.997781359434867,18.598121092713164,11.055129849434866,18.600764932713165,11.100276309434866C18.601441382713165,11.133992509434867,18.604910612713166,11.167594629434866,18.611136612713164,11.200737619434866C18.616549642713164,11.221092709434867,18.623834402713165,11.240903309434866,18.632896632713166,11.259916309434868C18.640862822713164,11.277155009434868,18.650608952713164,11.293513109434867,18.661978602713166,11.308723509434866C18.684015422713166,11.337046309434866,18.711720882713166,11.360457709434867,18.743323832713166,11.377460309434866C18.780899582713165,11.397207809434867,18.822905212713167,11.407009209434866,18.865341662713167,11.405931109434867Q19.031692442713165,11.405931109434867,19.118121742713164,11.224531209434867L19.122798682713164,11.220260709434868C19.124335292713166,11.218779909434867,19.126361012713165,11.217912009434867,19.128493492713165,11.217820209434867L19.349548932713166,11.217413509434866Z" fill="#323232" fill-opacity="1" style="mix-blend-mode:passthrough"/><path d="M19.816274972713167,11.624556159434867C19.809489192713166,11.625596359434867,19.803642962713166,11.619750859434866,19.804683152713164,11.612964559434866L19.804683152713164,10.443830539434867C19.804683152713164,10.438327139434866,19.800222192713164,10.433865759434866,19.794718562713165,10.433865759434866L19.449001429713164,10.433865759434866C19.436983846113165,10.433865729434867,19.427241437537166,10.424123529434867,19.427241437537166,10.412105909434867L19.427241437537166,10.236807004434867C19.426386230563164,10.230195359834866,19.432017687713167,10.224563393044868,19.438629715713166,10.225418676381867L20.402570902713165,10.226028717584867C20.409356652713164,10.224987775874867,20.415202792713167,10.230833627734867,20.414162692713166,10.237620407434868L20.414162692713166,10.413529419434868C20.413612842713164,10.425245629434867,20.403716562713164,10.434325309434866,20.391995612713167,10.433865719434866L20.046278532713167,10.433865719434866C20.040663122713166,10.433865719434866,20.036110342713165,10.438418139434868,20.036110342713165,10.444033869434866L20.036517442713166,11.613371059434867C20.037371452713167,11.619982459434867,20.031739952713167,11.625613859434868,20.025129202713167,11.624759359434867L19.816274972713167,11.624556159434867Z" fill="#323232" fill-opacity="1" style="mix-blend-mode:passthrough"/><path d="M20.591979818213165,11.625570121934867C20.585273456313164,11.626456221934866,20.579586143783164,11.620668621934866,20.580591539543164,11.613978621934868L20.581811668013167,10.237820917934867C20.580765311633165,10.231145427134868,20.586524616013165,10.225385775144867,20.593199946213165,10.226432587284867L20.801647025213164,10.226432587284867C20.808432835213164,10.225391646734867,20.814279015213167,10.231237499034867,20.813238875213166,10.238024278934867L20.811815205213165,11.613571821934867C20.812861535213166,11.620247421934867,20.807102235213165,11.626007021934868,20.800426905213165,11.624960021934868L20.591979818213165,11.625570121934867Z" fill="#323232" fill-opacity="1" style="mix-blend-mode:passthrough"/><path d="M21.094147980213165,10.927758714434868C21.094147980213165,10.843973124434868,21.095571670113166,10.775439764434868,21.097808365213165,10.722158634434868C21.098752940513165,10.683382174434866,21.101807605513166,10.644685884434868,21.106959948213166,10.606241694434868C21.111662965213164,10.582302294434866,21.118467385213165,10.558824594434867,21.127296246213167,10.536081484434867C21.135771356213166,10.513274454434868,21.146038811213167,10.491174364434867,21.158004261213165,10.469988484434866L21.155156877213166,10.469988484434866C21.195009020213167,10.400747304434868,21.250257370213166,10.341602424434868,21.316627160213166,10.297129934434867Q21.429289820213164,10.215784740794867,21.596250000213164,10.215784740794867C21.695004640213167,10.212762048434866,21.792155680213167,10.241252511434867,21.873637440213166,10.297129934434867C21.940038200213166,10.342115584434866,21.995608090213164,10.401298004434867,22.036327840213165,10.470395254434868C22.059697690213167,10.512870094434867,22.075910570213164,10.558903774434867,22.084321140213167,10.606648434434867C22.089946450213166,10.645122844434868,22.093272920213167,10.683898294434867,22.094285780213166,10.722768684434866Q22.097336680213164,10.802283664434867,22.097336680213164,10.928165394434867C22.097336680213164,11.092889444434867,22.092659770213164,11.200265134434867,22.083710490213164,11.250902534434868C22.079331400213164,11.275011534434867,22.073075710213164,11.298741534434868,22.065000180213165,11.321876334434867C22.057004210213165,11.343994334434868,22.047488990213164,11.365533934434866,22.036528890213166,11.386342234434867C21.995270430213164,11.455391234434867,21.939137040213165,11.514373534434867,21.872212530213165,11.558997434434866C21.701714750213164,11.665155934434868,21.485696200213166,11.665155934434868,21.315200970213166,11.558997434434866C21.248663630213166,11.514785734434867,21.193428933213166,11.455579734434867,21.153934266213167,11.386138834434867C21.142070595213166,11.365071934434868,21.131871417213166,11.343109834434866,21.123429818213165,11.320452634434867C21.114946017213164,11.297816634434867,21.108481696213165,11.274474434434866,21.104110085413165,11.250699134434868C21.099146410313164,11.211966414434867,21.096158771513164,11.173005664434866,21.095162064513165,11.133968734434866Q21.094147980213165,11.053437014434866,21.094147980213165,10.927758714434868ZM21.325575160213166,10.927758714434868Q21.325575160213166,11.032490694434866,21.328422550213165,11.100210504434866C21.328981090213166,11.133866274434867,21.332451580213164,11.167410754434867,21.338794260213167,11.200468444434867C21.344102990213166,11.220828734434868,21.351320710213166,11.240642734434868,21.360350700213164,11.259647134434868C21.368949920213165,11.277851934434867,21.379447010213166,11.295097834434866,21.391668140213167,11.311097934434867C21.413642850213165,11.339427834434867,21.441364470213166,11.362784334434867,21.473013340213164,11.379631234434868C21.510600210213166,11.399345034434866,21.552598450213164,11.409144234434867,21.595031140213166,11.408102134434866C21.637441460213164,11.409415234434867,21.679471970213164,11.399748134434867,21.717048880213166,11.380037934434867C21.748735010213164,11.363157234434867,21.776464100213165,11.339725834434867,21.798394080213164,11.311301334434868C21.824834820213166,11.279505734434867,21.842936870213165,11.241623934434866,21.851064380213167,11.201078614434866Q21.866723780213164,11.140069624434867,21.866723780213164,10.928165394434867Q21.866723780213164,10.823636794434867,21.863062140213167,10.755916914434867C21.861912850213166,10.722518644434867,21.858104650213164,10.689265214434867,21.851672590213166,10.656472404434867C21.847080050213165,10.635799334434868,21.840260800213166,10.615684614434867,21.831336320213165,10.596480274434867C21.822938200213166,10.577826994434867,21.812283520213164,10.560274504434867,21.799610550213167,10.544216024434867C21.789221410213166,10.531167054434867,21.777499200213164,10.519239474434867,21.764632700213166,10.508627464434866C21.750358520213165,10.496724714434867,21.734726490213166,10.486553544434868,21.718061740213166,10.478326404434867C21.699969590213165,10.469612084434868,21.681023480213167,10.462796914434866,21.661526260213165,10.457990104434867C21.640226780213165,10.452366564434866,21.618279340213164,10.449563314434867,21.596247550213164,10.449652214434867C21.553787560213166,10.448572774434867,21.511764530213163,10.458448044434867,21.474229750213166,10.478326404434867C21.443290860213164,10.495267534434866,21.415720700213164,10.517737794434867,21.392884520213165,10.544622744434866C21.380320820213164,10.560718344434868,21.369739350213166,10.578265594434868,21.361363530213165,10.596887014434866C21.352642660213164,10.616172004434867,21.345830770213166,10.636265264434867,21.341027230213165,10.656879144434868C21.334335760213165,10.690372544434867,21.330727500213165,10.724408704434866,21.330248400213165,10.758560614434867C21.326591730213167,10.802690404434866,21.325575160213166,10.859428724434867,21.325575160213166,10.927962084434867L21.325575160213166,10.927758714434868Z" fill="#323232" fill-opacity="1" style="mix-blend-mode:passthrough"/><path d="M22.399773260713165,11.627311746934867C22.393083035013166,11.628316046934867,22.387296423493165,11.622629846934867,22.388182661227166,11.615923446934866L22.389404031013164,10.239766043934868C22.388517793123164,10.233059592534866,22.394304404513164,10.227373497094867,22.400994630713164,10.228377715794867L22.599069992713165,10.228377715794867C22.603103992713166,10.228413653254867,22.606815282713164,10.230579567834868,22.608831022713165,10.234071880134866L23.194110392713164,11.157543206934866C23.196642522713166,11.161231836934867,23.201254902713167,11.162880556934867,23.205551982713164,11.161633396934867C23.209849182713164,11.160385986934866,23.212860402713165,11.156523546934867,23.213024202713164,11.152052426934867L23.213024202713164,10.240376106934868C23.212172742713165,10.233653808934866,23.217892292713167,10.227934217574868,23.224614862713164,10.228784417154866L23.433876092713167,10.228784417154866C23.440663192713167,10.227745220994867,23.446506792713166,10.233590361234867,23.445466792713166,10.240376106934868L23.444245392713164,11.616330146934867C23.445131692713165,11.623036846934866,23.439344892713166,11.628722846934867,23.432654692713164,11.627718446934868L23.235798302713164,11.627718446934868C23.231816472713167,11.627694346934867,23.228157282713166,11.625515346934867,23.226240752713164,11.622024246934867L22.639742612713164,10.698756176934866C22.637210502713167,10.695067666934866,22.632598072713165,10.693418906934866,22.628300952713165,10.694666196934866C22.624003812713166,10.695913396934866,22.620992582713164,10.699775776934867,22.620828752713166,10.704246986934868L22.620828752713166,11.616126746934867C22.620828752713166,11.623651146934867,22.617370692713166,11.627514946934866,22.610253472713165,11.627514946934866L22.399773260713165,11.627311746934867Z" fill="#323232" fill-opacity="1" style="mix-blend-mode:passthrough"/><path d="M5.930783905213165,13.259310121934867Q6.085950005213165,13.442336621934867,6.371268205213165,13.590995021934868C6.377447705213165,13.594199221934867,6.379523705213165,13.602029721934867,6.375742305213166,13.607874121934866L6.271213305213165,13.766904221934867C6.267752105213165,13.772145221934867,6.260834905213166,13.773830421934868,6.255351105213165,13.770768121934868Q5.807952465213165,13.522258621934867,5.638957795213165,13.146443741934867C5.636924085213165,13.142728111934867,5.633025705213165,13.140417531934867,5.628789725213165,13.140417531934867C5.624553685213165,13.140417531934867,5.620655235213166,13.142728111934867,5.618621465213165,13.146443741934867Q5.448610065213165,13.500498721934868,4.986162445213165,13.780732921934867C4.980596165213165,13.784232121934867,4.973250565213165,13.782599921934867,4.969690095213165,13.777072621934867L4.863534576213166,13.613365421934867C4.859891257913166,13.607499521934868,4.861938355413165,13.599776921934867,4.868008587013165,13.596486021934867C5.033636365213165,13.511327021934868,5.181972265213165,13.396092521934866,5.305442635213165,13.256666521934868C5.415017125213165,13.133392831934867,5.485761585213165,12.980514601934868,5.508805635213165,12.817199011934868C5.509662985213165,12.810024821934867,5.504032195213165,12.803725741934867,5.496807275213166,12.803776941934867L4.913765266213165,12.803776941934867C4.9072184042131655,12.803665841934867,4.901969552213165,12.798326571934867,4.901970170213166,12.791778641934867L4.901970170213166,12.627868051934867C4.901970170213166,12.621353761934866,4.907250985213166,12.616073001934867,4.913765266213165,12.616073001934867L5.5059583152131655,12.616073001934867C5.512552555213166,12.616074071934866,5.5178669052131655,12.610668201934867,5.517753305213166,12.604074621934867L5.517753305213166,12.230293320934868C5.5177527652131655,12.223698824634868,5.523158255213165,12.218384811304867,5.529751715213165,12.218498228625068L5.703830425213165,12.218498228625068C5.710378165213165,12.218497142549547,5.715717915213165,12.223746145634866,5.715828715213165,12.230293320934868L5.715828715213165,12.604074471934867C5.715715165213165,12.610668051934868,5.7210294652131655,12.616073921934866,5.727623825213165,12.616072851934867L6.326528105213165,12.616072851934867C6.333122205213165,12.615959071934867,6.338527705213165,12.621273571934866,6.338526405213165,12.627867901934867L6.338526405213165,12.791778401934867C6.338525805213165,12.798405071934868,6.333154405213165,12.803776641934867,6.326528105213165,12.803776761934866L5.710541725213165,12.803776761934866L5.710541725213165,12.813945131934867C5.747109175213165,12.977938431934867,5.822655375213166,13.130705261934867,5.930783905213165,13.259310121934867Z" fill="#323232" fill-opacity="1" style="mix-blend-mode:passthrough"/><path d="M7.871625092713165,13.349594459434867C7.926641292713166,13.419469559434868,7.993306492713165,13.479323659434867,8.068683792713166,13.526520259434866C8.074311392713165,13.530009959434867,8.075964292713165,13.537447659434868,8.072344292713165,13.542992559434866L7.983271092713165,13.676398759434868C7.979495192713165,13.681968259434868,7.971878492713165,13.683344959434868,7.966392092713165,13.679449059434868C7.880375092713165,13.620187359434867,7.804782892713165,13.547069159434868,7.742692792713165,13.463070759434867C7.678292292713166,13.373008659434866,7.624326792713165,13.275924759434867,7.581832692713165,13.173685209434867C7.579146692713165,13.167725109434867,7.572183292713166,13.165012439434866,7.566173892713165,13.167584259434866L7.507808802713165,13.193004659434866C7.502523662713165,13.195164359434866,7.499654652713165,13.200903259434867,7.5010981527131655,13.206426659434866C7.521167572713165,13.293085259434868,7.530659262713165,13.381856559434867,7.529365892713165,13.470798659434866C7.531820472713165,13.530781959434867,7.522848782713165,13.590685359434866,7.502928972713165,13.647317859434867C7.486213322713166,13.689027459434866,7.453682602713165,13.722435359434867,7.412432192713165,13.740254859434867C7.355614302713166,13.762107059434866,7.294900182713166,13.772006959434867,7.234082992713165,13.769335559434866L7.057970612713166,13.769335559434866C7.0522510427131655,13.769322559434867,7.047364892713166,13.765208159434867,7.046378762713165,13.759574259434867L7.020144732713165,13.621287459434868C7.0187384527131655,13.614006159434867,7.024320902713165,13.607248859434867,7.031736582713165,13.607255259434867L7.177954672713165,13.607255259434867C7.213059782713165,13.608647659434867,7.248157382713165,13.604320759434867,7.281872812713165,13.594443359434866C7.304728802713165,13.586885859434867,7.323148012713165,13.569729259434867,7.332307162713166,13.547466559434866C7.343347252713166,13.515666059434867,7.348246932713165,13.482057859434867,7.346745732713165,13.448428959434867C7.346745732713165,13.429312659434867,7.346745732713165,13.404706059434867,7.344509002713165,13.374607959434867C7.344416502713165,13.370177659434868,7.341806172713166,13.366187559434866,7.3377840527131655,13.364327859434868C7.333761812713165,13.362468159434867,7.329031522713166,13.363064259434868,7.325596392713165,13.365863559434867C7.229627072713165,13.440764259434866,7.126416322713165,13.505892759434866,7.017501532713165,13.560278459434867C6.894942582713165,13.623482059434867,6.768305522713165,13.678444059434867,6.638433217713165,13.724798959434867C6.632709912713166,13.726841259434867,6.626371577713165,13.724200259434866,6.623791061713165,13.718698059434868L6.561155528513165,13.590579359434868C6.557968672413165,13.584006459434868,6.561461491513166,13.576146459434867,6.568476298813165,13.574107059434867C6.711930752713165,13.530829059434867,6.851793702713166,13.476434459434866,6.986794172713165,13.411416659434867C7.1021887627131655,13.356546259434866,7.211287852713165,13.289313859434866,7.312174972713166,13.210900759434868C7.316168602713165,13.207781859434867,7.317723932713165,13.202460959434866,7.316038902713165,13.197682259434867C7.308921042713165,13.175312179434867,7.302210332713165,13.157009679434866,7.295702572713165,13.140740589434866C7.293083012713165,13.133720839434867,7.2845154427131655,13.131099899434867,7.278416632713165,13.135453189434866C7.187770902713165,13.196814959434867,7.092594022713166,13.251201559434866,6.993708432713166,13.298143659434867C6.884132682713165,13.351064659434867,6.771310542713166,13.396981159434867,6.655920907713165,13.435616859434866C6.649869285713165,13.437590759434867,6.643316834713166,13.434580159434867,6.640872239713166,13.428702559434868L6.591658118713165,13.302617759434867C6.589254477713165,13.296198959434866,6.592808738713165,13.289090159434867,6.599386013713166,13.287162159434867C6.710366812713166,13.254692159434867,6.819066852713165,13.214880759434866,6.924766842713165,13.167991419434866C7.026025682713165,13.123851499434867,7.123903452713165,13.072329599434866,7.217609402713165,13.013842249434866C7.2232955127131655,13.010279199434867,7.224868122713165,13.002696649434867,7.221066892713165,12.997166359434868C7.213746132713165,12.985981309434868,7.204188052713166,12.972762839434868,7.192799152713166,12.957510609434866C7.189490022713166,12.952844879434867,7.183272062713165,12.951290449434866,7.1781569727131656,12.953850169434867C7.012504372713165,13.034113369434866,6.840310482713165,13.100106439434867,6.6634452327131655,13.151112279434868C6.6574085127131655,13.152793549434866,6.651080108713165,13.149629259434867,6.648803077713166,13.143791159434867L6.601012646713166,13.013028939434866C6.598639413713165,13.006422539434867,6.602526325713165,12.999218069434868,6.609350599713165,12.997573459434866Q6.953441112713166,12.911550959434868,7.176123202713165,12.799701289434868C7.1809434927131655,12.797118329434866,7.183407362713165,12.791602929434866,7.1821152527131655,12.786289239434867C7.180822492713165,12.780975539434866,7.176100252713165,12.777208049434867,7.170632662713166,12.777127999434867L6.859283892713165,12.777127999434867C6.852769942713166,12.777127999434867,6.847489122713165,12.771847149434867,6.847489122713165,12.765332899434867L6.847489122713165,12.649212649434867C6.847375572713165,12.642619239434866,6.852689862713166,12.637213519434868,6.859283892713165,12.637214289434867L7.784382192713165,12.637214289434867C7.790976692713166,12.637213699434866,7.796291092713165,12.642619389434866,7.796176892713166,12.649212649434867L7.796176892713166,12.765332899434867C7.796177592713166,12.771847029434866,7.790896592713166,12.777127999434867,7.784382192713165,12.777127999434867L7.473643422713165,12.777127999434867C7.471126792713165,12.777125379434867,7.468685982713165,12.777986789434866,7.466729102713165,12.779568399434867C7.424855592713166,12.811030649434867,7.381415722713165,12.840352559434868,7.336577002713165,12.867421229434868C7.3304812927131655,12.871182219434868,7.329221372713166,12.879516089434867,7.333933112713165,12.884910429434868C7.374469752713165,12.931679389434867,7.409224212713165,12.983162419434867,7.437444742713165,13.038245999434867C7.440425042713166,13.043895559434867,7.447308902713165,13.046219729434867,7.4531035427131656,13.043533349434867C7.597363492713165,12.974904619434867,7.737452492713166,12.897831999434867,7.872641492713165,12.812716389434867C7.878177492713165,12.809149109434866,7.885569492713165,12.810904699434866,7.888910392713165,12.816580139434867L7.965374992713166,12.944698889434868C7.968836292713165,12.950139839434867,7.967190892713165,12.957359449434867,7.961714592713165,12.960764429434867Q7.8659309927131655,13.020553189434867,7.735981692713166,13.086036169434866C7.7303680927131655,13.088936889434867,7.727897492713165,13.095642649434867,7.730287392713166,13.101491589434866C7.767195392713165,13.189603059434868,7.814654392713165,13.272912559434866,7.871625092713165,13.349594459434867ZM6.789123432713165,12.528007829434866L6.789123432713165,12.692121819434867C6.789123432713165,12.698669279434867,6.783874882713166,12.704008239434867,6.777328642713165,12.704120179434867L6.6268401447131655,12.704120179434867C6.620372716713165,12.703900889434866,6.615244582713165,12.698592799434866,6.615248303713165,12.692121819434867L6.615248303713165,12.369384619434866C6.6151347267131655,12.362791399434867,6.620449054713165,12.357385669434867,6.627043083713165,12.357386299434866L7.2228963927131655,12.357386299434866C7.231043222713165,12.357267759434867,7.236705782713165,12.349237479434867,7.234081152713165,12.341524009434867C7.215575042713166,12.289869779434866,7.201136412713165,12.250824129434866,7.1907647227131655,12.224793681434868C7.188066302713166,12.217588035434867,7.192877952713165,12.209769690434866,7.200526352713165,12.208931393434867L7.3851797627131655,12.186358086713867C7.390731692713166,12.185678048174866,7.395997642713166,12.188990579034867,7.397788162713165,12.194289231634867C7.403482202713166,12.211371649434867,7.415480612713165,12.244113104434867,7.434190272713165,12.292716849434868L7.456763322713165,12.350065219434867C7.458661142713165,12.354548709434868,7.463079932713165,12.357441059434867,7.467948022713165,12.357386299434866L8.018453192713165,12.357386299434866C8.025047692713166,12.357385669434867,8.030361992713166,12.362791399434867,8.030247792713165,12.369384619434866L8.030247792713165,12.694765469434866C8.030248492713165,12.701279599434868,8.024967592713166,12.706560509434867,8.018453192713165,12.706560509434867L7.868167592713165,12.706560509434867C7.861653492713165,12.706560509434867,7.856372692713165,12.701279779434866,7.856372692713165,12.694765469434866L7.856372692713165,12.529024559434866C7.856372692713165,12.522510309434868,7.851091992713165,12.517229489434866,7.844577892713165,12.517229489434866L6.800918832713165,12.517229489434866C6.794782192713165,12.517206539434866,6.789652822713165,12.521893519434867,6.789123432713165,12.528007829434866Z" fill="#323232" fill-opacity="1" style="mix-blend-mode:passthrough"/><path d="M9.780147092713165,13.327444634434867L9.780147092713165,13.486474634434867C9.780147892713165,13.492989034434867,9.774866492713166,13.498270034434867,9.768352492713165,13.498269634434866L9.186123962713165,13.498269634434866C9.179689522713165,13.498380834434867,9.174531522713165,13.503628934434866,9.174532232713165,13.510064634434867L9.174532232713165,13.773216534434868C9.174532832713165,13.779731034434867,9.169251982713165,13.785011734434867,9.162737432713165,13.785011734434867L8.994759382713166,13.785011734434867C8.988245312713165,13.785011734434867,8.982964572713165,13.779731034434867,8.982964572713165,13.773216534434868L8.982964572713165,13.510064534434868C8.982965172713165,13.503550234434867,8.977684382713166,13.498269434434867,8.971169772713166,13.498269434434867L8.290513074713166,13.498269434434867C8.283999103113166,13.498269434434867,8.278718292713165,13.492988634434866,8.278718292713165,13.486474334434867L8.278718292713165,13.327444234434868C8.278718292713165,13.320930034434866,8.283999103113166,13.315649234434867,8.290513074713166,13.315649234434867L8.971575622713166,13.315649234434867C8.978056732713165,13.315762434434866,8.983371672713165,13.310539334434868,8.983370422713165,13.304057334434868L8.983370422713165,13.114116394434866C8.983259972713165,13.107681834434867,8.978011432713165,13.102523644434868,8.971575622713166,13.102524544434868L8.456050872713165,13.102524544434868C8.449536902713165,13.102524544434868,8.444256092713164,13.097243684434867,8.444256092713164,13.090729434434866L8.444256092713164,12.930682794434867C8.444223192713165,12.928099594434867,8.445085222713166,12.925584514434867,8.446696352713165,12.923565054434867C8.518925352713165,12.825569944434866,8.582931222713166,12.721772634434867,8.638061042713165,12.613233024434868C8.642404082713165,12.605355734434866,8.636684502713166,12.595711374434867,8.627689332713166,12.595743794434867L8.336473315713166,12.595743794434867C8.329990997713166,12.595745044434867,8.324767902713166,12.590429924434867,8.324881475713166,12.583948694434866L8.324881475713166,12.430002914434867C8.324767902713166,12.423521674434866,8.329990997713166,12.418206574434867,8.336473315713166,12.418207814434867L8.726727042713165,12.418207814434867C8.731384102713164,12.418086954434868,8.735565782713165,12.415325374434866,8.737505222713166,12.411090124434867Q8.794243692713165,12.282971387434866,8.818850452713166,12.207727135134867C8.820689912713165,12.202212818634868,8.826387822713166,12.198969486464867,8.832068922713166,12.200202647744867L9.005944072713165,12.234774297434868C9.013253032713166,12.235914675434866,9.017551422713165,12.243612160434868,9.014688552713165,12.250433182434866Q8.987031462713166,12.319983294434866,8.952053012713165,12.401735314434866C8.948697862713166,12.409502464434867,8.954370322713165,12.418171514434867,8.962831202713165,12.418207654434866L9.719544792713165,12.418207654434866C9.726058792713165,12.418207814434867,9.731339492713165,12.423488624434867,9.731339492713165,12.430002754434867L9.731339492713165,12.583948544434866C9.731339492713165,12.590462824434868,9.726058792713165,12.595743794434867,9.719544792713165,12.595743644434867L8.867657422713165,12.595743644434867C8.863270342713164,12.595852724434867,8.859292802713165,12.598348374434867,8.857285742713165,12.602251254434867C8.804537832713166,12.707635964434868,8.745876102713165,12.809955314434866,8.681579802713165,12.908719324434866C8.679153172713166,12.912295894434866,8.678917322713165,12.916925984434867,8.680969092713166,12.920730674434868C8.683020862713166,12.924535054434866,8.687019492713166,12.926881934434867,8.691341432713166,12.926818574434867L8.971575622713166,12.926818574434867C8.978090222713165,12.926818574434867,8.983371022713165,12.921537774434867,8.983370422713165,12.915023584434866L8.983370422713165,12.689290604434866C8.983369172713164,12.682808744434867,8.988684122713165,12.677585504434868,8.995165232713166,12.677698934434867L9.162736172713165,12.677698934434867C9.169217172713164,12.677585024434867,9.174532232713165,12.682808454434866,9.174530922713165,12.689290604434866L9.174530922713165,12.915227674434867C9.174530272713165,12.921663484434866,9.179688212713165,12.926912034434867,9.186122712713166,12.927022774434867L9.636978792713165,12.927022774434867C9.643459892713166,12.926908634434866,9.648774892713165,12.932132264434866,9.648773692713165,12.938614624434868L9.648773692713165,13.090933584434866C9.648773692713165,13.097447954434866,9.643492892713166,13.102728684434867,9.636978792713165,13.102728684434867L9.186123962713165,13.102728684434867C9.179767672713165,13.102837284434868,9.174640772713165,13.107964234434867,9.174532232713165,13.114320594434867L9.174532232713165,13.304261534434866C9.174531522713165,13.310663534434866,9.179721772713165,13.315853434434867,9.186123962713165,13.315853434434867L9.767538692713165,13.315853434434867C9.774287992713166,13.315386634434867,9.780045492713166,13.320680234434867,9.780147092713165,13.327444634434867Z" fill="#323232" fill-opacity="1" style="mix-blend-mode:passthrough"/><path d="M10.422820345213164,13.126512191934866L10.193833386213166,13.126512191934866C10.187319415613166,13.126511891934866,10.182039225827845,13.121231071934867,10.182038605213165,13.114717081934867L10.182038605213165,12.885730159934868C10.182366910333165,12.879488328034867,10.187584417913165,12.874630777304867,10.193833386213166,12.874748694086067L10.422820345213164,12.874748694086067C10.429301425213165,12.874634500984866,10.434616355213166,12.879857904234868,10.434615105213165,12.886340534934867L10.434615105213165,13.114717081934867C10.434615105213165,13.121231381934868,10.429334295213165,13.126512191934866,10.422820345213164,13.126512191934866Z" fill="#323232" fill-opacity="1" style="mix-blend-mode:passthrough"/><path d="M11.105934585213165,13.017639601934867Q10.983916775213165,12.917788291934867,10.831190951613165,12.798820931934866C10.826045435793166,12.794878021934867,10.825046246313166,12.787521081934868,10.828954256613166,12.782348591934866L10.922297805213166,12.657890341934866C10.926178507213166,12.652678091934867,10.933544585213165,12.651586941934866,10.938770165213166,12.655449951934866Q11.074819435213165,12.758351581934868,11.217173515213165,12.869794631934868C11.222217885213166,12.873796001934867,11.223204675213164,12.881065571934867,11.219410245213165,12.886266971934868L11.122814025213165,13.016622681934868C11.118478445213166,13.021654031934867,11.110843655213165,13.022113941934867,11.105934585213165,13.017639601934867ZM10.853357443213165,13.690161021934866L11.066685665213166,13.135793471934868C11.068953375213166,13.129532061934867,11.076018485213165,13.126464391934867,11.082141455213165,13.129082461934868L11.236290935213166,13.193345211934867C11.242161955213165,13.195787121934867,11.245040385213166,13.202443821934867,11.242798715213166,13.208394221934867L11.037604895213166,13.764592221934867C11.035326015213165,13.770844521934867,11.028329205213165,13.773974621934867,11.022149115213166,13.771506621934867L10.859458707213165,13.705413521934867C10.853717401213165,13.702736821934867,10.851046275213164,13.696058321934867,10.853357443213165,13.690161021934866ZM11.156571775213166,12.579188661934866Q11.088242085213166,12.525907481934867,10.896063804213165,12.383960181934867C10.890910841213165,12.380154871934867,10.889737256213165,12.372932471934867,10.893419981213166,12.367691071934868L10.983916775213165,12.238352169934867C10.987671475213165,12.233004493934867,10.995058045213165,12.231727728934867,11.000389115213165,12.235505101934868L11.061398045213165,12.278007899934867C11.085191165213166,12.295090321934866,11.120576115213165,12.320714101934866,11.167147045213165,12.354879081934866Q11.228155945213166,12.400025711934866,11.262727915213166,12.426666221934866C11.267594755213166,12.430505031934867,11.268580285213165,12.437493611934867,11.264964615213165,12.442528501934866L11.174264285213166,12.576544871934868C11.170334515213165,12.582524771934867,11.162079095213166,12.583758701934867,11.156571775213166,12.579188661934866ZM11.193787545213166,12.722559651934867C11.189942245213166,12.718125181934866,11.189942245213166,12.711538271934867,11.193787545213166,12.707103991934867C11.256647075213165,12.632245951934866,11.312916995213165,12.552093701934867,11.361969175213165,12.467542551934867C11.411406095213165,12.383960491934866,11.451764585213166,12.295332981934866,11.482359705213165,12.203170610634867C11.484128475213165,12.197285632134866,11.490248975213165,12.193865890134868,11.496188285213165,12.195442872154867L11.656845505213166,12.234081876934868C11.663821275213165,12.235790425934868,11.667662855213166,12.243282800934868,11.664980595213166,12.249944170934867Q11.651559115213166,12.285126043934866,11.627155245213165,12.343694531934867C11.624010025213165,12.351518471934867,11.629704835213165,12.360060311934866,11.638136445213165,12.360166901934868L12.279137055213166,12.360166901934868C12.285651055213165,12.360167051934868,12.290932455213165,12.365447871934867,12.290932455213165,12.371962001934866L12.290932455213165,12.518993491934866C12.290932455213165,12.525507831934867,12.285651055213165,12.530788591934867,12.279137055213166,12.530788591934867L11.541944925213166,12.530788591934867C11.537735935213165,12.530762691934868,11.533843455213166,12.533020191934867,11.531776785213165,12.536686141934867C11.515100895213166,12.567190611934867,11.496391835213165,12.599728661934867,11.475851895213165,12.633893661934867C11.473643835213165,12.637547721934867,11.473582985213165,12.642109801934867,11.475691855213165,12.645821741934867C11.477800665213165,12.649533621934866,11.481750245213165,12.651816091934867,11.486020025213165,12.651789561934867L12.181928955213165,12.651789561934867C12.188442755213165,12.651789211934867,12.193724455213165,12.657070241934868,12.193724455213165,12.663584641934866L12.193724455213165,12.803905151934867C12.193724455213165,12.810419581934866,12.188442755213165,12.815700611934867,12.181928955213165,12.815700251934867L11.468327585213165,12.815700251934867C11.461813625213166,12.815700611934867,11.456532185213165,12.810419581934866,11.456532185213165,12.803905151934867L11.456532185213165,12.703443611934867C11.456529735213165,12.698195831934868,11.453060505213166,12.693581151934866,11.448019865213166,12.692120691934868C11.442979275213165,12.690660351934866,11.437579875213165,12.692705741934867,11.434772195213165,12.697139401934868Q11.380474685213166,12.780111631934867,11.326990065213165,12.850271901934867C11.322275875213165,12.855912701934868,11.313604685213166,12.855912701934868,11.308890465213166,12.850271901934867L11.193787545213166,12.722559651934867ZM12.359260855213165,13.391827521934866C12.364193455213165,13.394139121934867,12.366949155213165,13.399483621934866,12.365972255213165,13.404842621934867C12.357227855213166,13.452633021934867,12.346652555213165,13.498593021934866,12.334451155213165,13.542316021934866C12.324408455213165,13.580229621934867,12.311561755213166,13.617343821934867,12.296015355213164,13.653352221934867C12.283704655213166,13.690385321934867,12.262798855213166,13.723976021934867,12.235006355213166,13.751373521934866C12.210488355213165,13.772693921934867,12.178814755213166,13.783954121934867,12.146340455213165,13.782894721934866Q12.035303755213166,13.782894721934866,11.977345755213165,13.672061921934867Q11.902101255213164,13.535605121934868,11.902101255213164,13.235237921934868L11.902101255213164,13.113220171934866C11.902101255213164,13.106705801934867,11.896819755213166,13.101425071934868,11.890305855213166,13.101425071934868L11.296079755213166,13.101425071934868C11.289565775213166,13.101425071934868,11.284284355213165,13.096144281934867,11.284284355213165,13.089629971934867L11.284284355213165,12.940768141934868C11.284284355213165,12.934253771934866,11.289565775213166,12.928973341934867,11.296079755213166,12.928973041934867L12.075976455213166,12.928973041934867C12.082490355213166,12.928972741934867,12.087771855213166,12.934253471934866,12.087771855213166,12.940768141934868L12.087771855213166,13.200259121934867Q12.087771855213166,13.411960221934867,12.106684355213165,13.487001121934867C12.110035755213165,13.507813321934867,12.115416555213166,13.528247321934867,12.122749655213166,13.548010221934867C12.128037255213165,13.559398521934867,12.134950955213165,13.565092621934866,12.143086055213166,13.565092621934866C12.153587855213166,13.564251621934867,12.162939355213165,13.558119821934866,12.167895655213165,13.548823421934866C12.177756055213166,13.530438221934867,12.184621155213165,13.510598521934867,12.188231855213164,13.490051621934867Q12.188231855213164,13.486594521934867,12.214465355213164,13.341393221934867C12.215784755213166,13.333692821934868,12.223995355213166,13.329287521934868,12.231141155213166,13.332445121934867L12.359260855213165,13.391827521934866Z" fill="#323232" fill-opacity="1" style="mix-blend-mode:passthrough"/><path d="M14.045775092713166,13.327451434434867L14.045775092713166,13.486481434434866C14.045775092713166,13.492995734434867,14.040493692713165,13.498276934434866,14.033979592713166,13.498276534434867L13.451751352713165,13.498276534434867C13.445237402713165,13.498276934434866,13.439955952713165,13.503557434434867,13.439955952713165,13.510071634434867L13.439955952713165,13.773223434434867C13.439955952713165,13.779737534434867,13.434674562713166,13.785018634434866,13.428160552713166,13.785018634434866L13.260589602713166,13.785018634434866C13.254106702713166,13.785019334434867,13.248883662713165,13.779704134434867,13.248997802713165,13.773223434434867L13.248997802713165,13.510071234434868C13.248997802713165,13.503556934434867,13.243716422713165,13.498276334434866,13.237202462713165,13.498276334434866L12.555936373713164,13.498276334434866C12.549453433613165,13.498277134434867,12.544230340853165,13.492961834434867,12.544344533942265,13.486481134434866L12.544344533942265,13.327451034434867C12.544230340853165,13.320970034434866,12.549453433613165,13.315655034434867,12.555936373713164,13.315656034434866L13.237202462713165,13.315656034434866C13.243684172713165,13.315770034434866,13.248999002713166,13.310546434434867,13.248997802713165,13.304064234434867L13.248997802713165,13.114123184434867C13.248887362713166,13.107688624434868,13.243638162713165,13.102530384434868,13.237202462713165,13.102531334434866L12.721475392713165,13.102531334434866C12.714961412713166,13.102531334434866,12.709681232713166,13.097250894434866,12.709679972713165,13.090736294434867L12.709679972713165,12.930689714434866C12.709605512713166,12.928161584434868,12.710474372713165,12.925696214434867,12.712120252713165,12.923775454434868C12.784302692713165,12.825637364434867,12.848369982713166,12.721781934434867,12.903687832713166,12.613239994434867C12.907742942713165,12.605369234434868,12.902167352713166,12.595967994434867,12.893316122713165,12.595750774434867L12.602101415713165,12.595750774434867C12.595587439713166,12.595751244434867,12.590306009713165,12.590470304434866,12.590306009713165,12.583955664434868L12.590306009713165,12.430009904434867C12.590306009713165,12.423495464434867,12.595587439713166,12.418214494434867,12.602101415713165,12.418214804434866L12.992151502713165,12.418214804434866C12.996839612713165,12.418195404434867,13.001070942713165,12.415401094434866,13.002930342713166,12.411097134434867Q13.059871672713165,12.282978376434867,13.084275542713165,12.207734116834867C13.086200652713165,12.202190476434867,13.091963652713165,12.198959401454866,13.097696962713165,12.200209629664867L13.271571992713165,12.234781278434866C13.278776172713165,12.236069677434866,13.282998802713164,12.243630157434866,13.280316472713166,12.250440163434867Q13.252455832713165,12.319990264434868,13.217476782713165,12.401742304434867C13.214154002713165,12.409430624434867,13.219678762713166,12.418035764434867,13.228052082713166,12.418214644434867L13.985172092713166,12.418214644434867C13.991687392713166,12.418213884434866,13.996968792713165,12.423495144434867,13.996967592713165,12.430009744434868L13.996967592713165,12.583955514434868C13.996968792713165,12.590470154434867,13.991687392713166,12.595751394434867,13.985172092713166,12.595750624434867L13.133285462713165,12.595750624434867C13.128836872713165,12.595829894434868,13.124785482713165,12.598323544434868,13.122710172713166,12.602258224434866C13.070100662713166,12.707677564434867,13.011504742713166,12.810000554434867,12.947207842713166,12.908726114434867C12.944781212713165,12.912302754434867,12.944545392713165,12.916932544434866,12.946597162713164,12.920736924434866C12.948648872713166,12.924541254434867,12.952646912713165,12.926888124434868,12.956968842713165,12.926825424434867L13.237203602713166,12.926825424434867C13.243717612713166,12.926825424434867,13.248999002713166,12.921544634434866,13.248999002713166,12.915030324434866L13.248999002713166,12.689297424434868C13.248883662713165,12.682848324434866,13.254141452713165,12.677590004434867,13.260590912713166,12.677705724434867L13.428161742713165,12.677705724434867C13.434642192713165,12.677591884434866,13.439957142713165,12.682814794434867,13.439957142713165,12.689297424434868L13.439957142713165,12.915234524434867C13.439957142713165,12.921748774434867,13.445238652713165,12.927029634434867,13.451752542713166,12.927029634434867L13.902607992713165,12.927029634434867C13.909088592713164,12.926915364434867,13.914404592713165,12.932138824434867,13.914403292713166,12.938621424434867L13.914403292713166,13.090940494434866C13.914403292713166,13.097454744434867,13.909122092713165,13.102735604434868,13.902607992713165,13.102735604434868L13.451751352713165,13.102735604434868C13.445315602713166,13.102734884434867,13.440066392713165,13.107892894434867,13.439955952713165,13.114327334434867L13.439955952713165,13.304268334434866C13.439954702713166,13.310750634434868,13.445269642713166,13.315974034434866,13.451751352713165,13.315860234434867L14.033979592713166,13.315860234434867C14.040415492713166,13.315859234434868,14.045664692713165,13.321017234434867,14.045775092713166,13.327451434434867Z" fill="#323232" fill-opacity="1" style="mix-blend-mode:passthrough"/><path d="M15.419412117713165,13.423422321934867C15.414426017713165,13.423019221934867,15.409711917713166,13.425751521934867,15.407584417713165,13.430279021934867C15.405455817713165,13.434805721934866,15.406360417713165,13.440178321934868,15.409854617713165,13.443758721934866C15.446114617713166,13.486378021934867,15.490319817713166,13.521535021934866,15.540007417713165,13.547270421934867C15.611808717713165,13.582942921934867,15.687972017713165,13.609060021934868,15.766552817713166,13.624955021934866C15.773244317713166,13.626551821934868,15.777294617713165,13.633362221934867,15.775500817713166,13.640004221934866L15.734828317713166,13.777274221934867C15.732961517713164,13.783408221934867,15.726602617713166,13.786990621934867,15.720389217713166,13.785408621934867Q15.435680917713166,13.716875421934867,15.290479317713165,13.532425021934866C15.285840917713166,13.526279321934867,15.276611017713165,13.526279321934867,15.271973817713166,13.532425021934866Q15.146295667713165,13.695115421934867,14.822947977713165,13.786628721934868C14.816801427713166,13.788304321934866,14.810385527713166,13.785052421934868,14.808102907713165,13.779104421934868L14.775361777713165,13.687794321934867C14.773672397713165,13.683922721934866,14.770040567713165,13.681250421934866,14.765841487713166,13.680788521934867C14.761642457713165,13.680326621934867,14.757516617713165,13.682145721934868,14.755025447713166,13.685557221934866C14.745496567713165,13.701802121934866,14.731332837713165,13.714831621934866,14.714352847713165,13.722975921934866C14.679476767713165,13.737136921934868,14.641930817713165,13.743521421934867,14.604333997713166,13.741685221934867L14.489636957713165,13.741685221934867C14.483960807713165,13.741631321934866,14.479071617713165,13.737669321934867,14.477841557713166,13.732127221934867L14.450184497713165,13.595670521934867C14.448798027713165,13.588243721934866,14.454425767713165,13.581354221934866,14.461979877713166,13.581231521934868L14.546374797713165,13.581231521934868C14.580539647713165,13.581231521934868,14.602096047713164,13.577367821934867,14.611247657713164,13.569436521934866C14.620399237713166,13.561505421934868,14.624872597713166,13.542592621934867,14.624872597713166,13.513104921934866L14.624872597713166,13.264392321934867C14.624989267713165,13.257718121934866,14.619547757713166,13.252277621934867,14.612873647713165,13.252394021934867L14.477434427713165,13.252394021934867C14.471075627713166,13.252390221934867,14.465858727713165,13.257427521934867,14.465639027713165,13.263782321934867C14.460679067713166,13.359545321934867,14.448029697713165,13.454754421934867,14.427813797713165,13.548490521934866C14.410980257713165,13.622262821934868,14.385520147713166,13.693796221934868,14.351959797713166,13.761614721934867C14.348339137713165,13.768551421934866,14.339217337713166,13.770336121934868,14.333250757713165,13.765275321934867L14.222417662813164,13.670304621934868C14.218244650241166,13.666828721934866,14.216984802513165,13.660951121934866,14.219366721413165,13.656069321934867C14.244532646713166,13.604548521934866,14.264953352713166,13.550841921934866,14.280375621713166,13.495615921934867C14.296227365713165,13.429816321934867,14.305962323713166,13.362692121934867,14.309456385713165,13.295100021934868Q14.317997284713165,13.171252031934866,14.317997284713165,12.937587881934867L14.317997284713165,12.298621592934866C14.317997284713165,12.291994979934866,14.323369327713165,12.286623095934868,14.329996247713165,12.286623259934867L14.763362767713165,12.286623259934867C14.769909027713165,12.286733565934867,14.775159417713166,12.292073180934867,14.775158167713165,12.298621592934866L14.775158167713165,13.578384821934867C14.775158167713165,13.588349821934866,14.775158167713165,13.600958221934867,14.773327407713165,13.616007121934867C14.772926447713166,13.624228421934866,14.780613417713166,13.630480221934867,14.788579587713166,13.628412321934867C14.869470477713165,13.608722621934866,14.947762307713166,13.579576821934866,15.021836337713165,13.541576221934868C15.068454447713165,13.517351721934867,15.109469647713166,13.483611821934867,15.142226937713165,13.442538421934866C15.145682517713166,13.438982821934866,15.146593567713165,13.433667421934867,15.144520697713165,13.429162721934867C15.142449077713165,13.424658221934866,15.137820597713166,13.421892221934867,15.132871747713166,13.422202221934867L14.827827217713166,13.422202221934867C14.821153167713165,13.422317921934868,14.815712867713165,13.416877621934868,14.815828327713165,13.410203921934867L14.815828327713165,13.284118821934866C14.815712867713165,13.277445121934868,14.821153167713165,13.272004821934868,14.827827217713166,13.272120521934866L15.197136457713166,13.272120521934866L15.197136457713166,13.268663521934867C15.197136457713166,13.258292021934867,15.198763667713166,13.232668121934868,15.198763667713166,13.191995461934868C15.198763667713166,13.185368851934866,15.193391677713166,13.179997111934867,15.186764777713165,13.179997111934867L14.900226887713165,13.179997111934867C14.893599987713165,13.179997111934867,14.888227997713166,13.174625421934866,14.888227997713166,13.167998811934867L14.888227997713166,12.630306621934867C14.888112547713165,12.623632061934867,14.893552837713166,12.618191621934868,14.900226887713165,12.618308291934866L15.667922217713166,12.618308291934866C15.674596417713165,12.618191771934868,15.680037917713165,12.623632361934867,15.679921317713166,12.630306621934867L15.679921317713166,13.169421871934867C15.679921317713166,13.176048831934867,15.674549117713166,13.181420821934866,15.667922217713166,13.181420171934867L15.372842517713165,13.181420171934867C15.366215417713166,13.181420171934867,15.360844517713165,13.186791921934867,15.360843317713165,13.193418461934867C15.360843317713165,13.231244021934867,15.360843317713165,13.257274421934866,15.359216017713166,13.271713421934868L15.359216017713166,13.273543521934867L15.745605917713165,13.273543521934867C15.752279817713166,13.273427321934866,15.757721517713165,13.278867921934866,15.757604817713165,13.285542021934868L15.757604817713165,13.411626921934866C15.757720317713165,13.418300921934867,15.752279817713166,13.423741621934866,15.745605917713165,13.423625421934867L15.419412117713165,13.423422321934867ZM14.626296277713164,12.677893481934866L14.626296277713164,12.464159061934867C14.626295057713165,12.457532311934868,14.620924267713166,12.452160721934867,14.614297327713166,12.452160721934867L14.484755187713166,12.452160721934867C14.478128257713164,12.452160881934867,14.472756237713165,12.457532621934867,14.472756237713165,12.464159061934867L14.472756237713165,12.677486801934867C14.472755017713165,12.684081811934867,14.478161777713165,12.689396251934866,14.484755187713166,12.689281901934867L14.614297327713166,12.689281901934867C14.620572987713166,12.688957501934867,14.625492007713165,12.683770381934867,14.625483307713166,12.677486801934867L14.626296277713164,12.677893481934866ZM14.483942207713165,13.090720431934868L14.613484357713165,13.090720431934868C14.620159687713166,13.090837141934866,14.625601197713165,13.085396251934867,14.625483307713166,13.078722081934867L14.625483307713166,12.870274981934866C14.625598757713165,12.863600631934867,14.620158407713165,12.858160341934866,14.613484357713165,12.858276681934868L14.483942207713165,12.858276681934868C14.477268127713165,12.858160931934867,14.471827777713166,12.863601231934867,14.471943257713166,12.870274981934866L14.471943257713166,13.077705221934867C14.471465347713165,13.084615791934867,14.477016147713165,13.090448931934867,14.483942207713165,13.090313691934867L14.483942207713165,13.090720431934868ZM15.176800127713165,12.576822181934867L15.041970367713166,12.576822181934867C15.035422857713165,12.576711881934866,15.030173717713165,12.571372111934867,15.030174907713166,12.564823851934866L15.030174907713166,12.511949501934867C15.030174907713166,12.505323041934867,15.024802867713165,12.499951141934867,15.018175957713165,12.499951141934867L14.844097257713166,12.499951141934867C14.837078097713166,12.500547871934867,14.831056947713165,12.494997101934867,14.831082997713166,12.487952521934867L14.831082997713166,12.361867491934866C14.831082997713166,12.355241031934867,14.836455047713166,12.349869171934866,14.843082007713166,12.349869171934866L15.017160657713166,12.349869171934866C15.023741607713164,12.349760571934867,15.029050407713164,12.344451821934866,15.029159667713165,12.337870821934867L15.029159667713165,12.230494864934867C15.029045407713165,12.223901609934867,15.034360407713166,12.218495746166527,15.040955067713165,12.218496521934867L15.176800127713165,12.218496521934867C15.183427037713166,12.218496366781197,15.188797887713164,12.223868096734867,15.188799147713166,12.230494864934867L15.188799147713166,12.337870511934867C15.188799147713166,12.344496971934866,15.194171067713166,12.349868871934866,15.200798037713165,12.349868871934866L15.373045817713166,12.349868871934866C15.379626917713166,12.349760241934867,15.384935717713166,12.344451491934867,15.385045017713166,12.337870511934867L15.385045017713166,12.230494864934867C15.384932017713165,12.223901299734868,15.390245617713166,12.218495746166527,15.396840417713165,12.218496521934867L15.530042817713165,12.218496521934867C15.536637517713165,12.218495746166527,15.541952417713166,12.223901609934867,15.541838217713165,12.230494864934867L15.541838217713165,12.337870511934867C15.541947517713165,12.344451821934866,15.547256317713165,12.349760241934867,15.553837217713165,12.349868871934866L15.741540817713165,12.349868871934866C15.748167717713166,12.349868871934866,15.753538517713165,12.355240421934868,15.753539717713165,12.361867211934866L15.753539717713165,12.487952521934867C15.753538517713165,12.494579271934867,15.748167717713166,12.499950841934867,15.741540817713165,12.499950841934867L15.553837217713165,12.499950841934867C15.547210317713166,12.499950841934867,15.541838217713165,12.505322711934866,15.541838217713165,12.511949201934867L15.541838217713165,12.564823561934867C15.541839417713165,12.571371961934867,15.536589117713165,12.576711581934866,15.530042817713165,12.576821881934867L15.396840417713165,12.576821881934867C15.390292817713165,12.576710811934866,15.385043717713165,12.571371341934867,15.385045017713166,12.564823561934867L15.385045017713166,12.511949201934867C15.385045017713166,12.505322711934866,15.379672817713166,12.499950841934867,15.373045817713166,12.499950841934867L15.200798037713165,12.499950841934867C15.194123987713166,12.499834321934866,15.188682437713165,12.505274941934866,15.188799147713166,12.511949201934867L15.188799147713166,12.564823561934867C15.188689887713165,12.571404681934867,15.183381137713166,12.576713581934866,15.176800127713165,12.576822181934867ZM15.524957617713165,12.829195641934867L15.524957617713165,12.761069021934867C15.524956117713165,12.754442291934867,15.519585517713166,12.749070661934867,15.512958417713165,12.749070661934867L15.058849867713166,12.749070661934867C15.052222907713166,12.749070661934867,15.046850857713165,12.754442591934867,15.046850857713165,12.761069021934867L15.046850857713165,12.829195641934867C15.046850857713165,12.835822181934867,15.052222907713166,12.841193931934868,15.058849867713166,12.841193931934868L15.512756317713166,12.841193931934868C15.519381917713165,12.841193041934867,15.524752817713166,12.835821591934867,15.524753917713165,12.829195641934867L15.524957617713165,12.829195641934867ZM15.512958417713165,12.953857261934868L15.058849867713166,12.953857261934868C15.052222907713166,12.953857261934868,15.046850857713165,12.959229011934866,15.046850857713165,12.965855621934868L15.046850857713165,13.033982361934868C15.046960117713166,13.040563301934867,15.052268807713165,13.045872051934866,15.058849867713166,13.045980651934867L15.512756317713166,13.045980651934867C15.519337217713165,13.045872051934866,15.524645817713164,13.040563301934867,15.524755017713165,13.033982361934868L15.524755017713165,12.965855621934868C15.524755017713165,12.959229011934866,15.519383117713165,12.953857261934868,15.512756317713166,12.953857261934868L15.512958417713165,12.953857261934868Z" fill="#323232" fill-opacity="1" style="mix-blend-mode:passthrough"/></g></g></svg>