<svg xmlns="http://www.w3.org/2000/svg" xmlns:xlink="http://www.w3.org/1999/xlink" fill="none" version="1.1" width="24" height="24" viewBox="0 0 24 24"><defs><clipPath id="master_svg0_159_00770"><rect x="0" y="0" width="24" height="24" rx="0"/></clipPath><clipPath id="master_svg1_159_00613"><rect x="1.736328125" y="5.357421875" width="20.527320861816406" height="13.284180641174316" rx="0"/></clipPath></defs><g clip-path="url(#master_svg0_159_00770)"><g clip-path="url(#master_svg1_159_00613)"><path d="M1.7695980367984008,14.601341736343384C1.757059410198401,14.603307936343384,1.7462409630984008,14.592489436343383,1.7482070558084009,14.579951036343385L1.750498946798401,11.996226208343383C1.7485445146484009,11.983479105843383,1.7595247667984009,11.972498645443384,1.772271908798401,11.974452968093384L2.710037291798401,11.974452968093384C2.808867491798401,11.974084018993384,2.907417691798401,11.984977051343384,3.003781191798401,12.006921652343383C3.113427791798401,12.037202872343384,3.215380691798401,12.090458016343383,3.3028729917984005,12.163152056343383C3.3453712917984006,12.196793436343384,3.383826091798401,12.235248086343384,3.4174675917984008,12.277746586343383C3.452845591798401,12.321924926343383,3.483927091798401,12.369378266343384,3.510289091798401,12.419462056343384C3.537759291798401,12.475050386343383,3.5582857917984008,12.533807756343384,3.571406291798401,12.594409826343384C3.5862719917984007,12.661373796343383,3.593575391798401,12.729794916343383,3.5931789917984007,12.798387946343384Q3.5931789917984007,13.081436636343383,3.379651191798401,13.339274136343384Q3.1661233917984006,13.597112036343384,2.760840791798401,13.594437836343383L2.202765401798401,13.594437836343383C2.192066281798401,13.594435536343383,2.183452131798401,13.603221536343383,2.1836663517984007,13.613918636343383L2.1836663517984007,14.563907136343383C2.181856061798401,14.585425136343384,2.163618951798401,14.601822136343383,2.142030301798401,14.601341736343384L1.7695980367984008,14.601341736343384ZM2.184812281798401,12.408384266343385L2.184812281798401,13.159742436343384C2.185015381798401,13.170205236343383,2.193448541798401,13.178638736343384,2.203911331798401,13.178841636343384L2.7447976517984007,13.178841636343384C2.883074891798401,13.178841636343384,2.9858280917984006,13.137587436343384,3.0534389917984006,13.054697436343384C3.119964591798401,12.980336436343384,3.156691591798401,12.884030106343383,3.1565739917984006,12.784254196343383Q3.1565739917984006,12.560794656343385,2.998051491798401,12.457659696343384C2.917700491798401,12.408761386343384,2.824636191798401,12.384830446343384,2.730664311798401,12.388902846343385L2.203911331798401,12.388902846343385C2.1928987817984007,12.388883026343384,2.184151171798401,12.398155716343384,2.184812281798401,12.409148396343383L2.184812281798401,12.408384266343385Z" fill="#323232" fill-opacity="1" style="mix-blend-mode:passthrough"/><path d="M4.050847999798401,14.604059261343384C4.038309415798401,14.606025261343383,4.027490989398401,14.595206461343384,4.029456969248401,14.582668261343384L4.031748912298401,11.998179333343383C4.029794443978401,11.985432230843383,4.040774613798401,11.974451770443384,4.0535218607984005,11.976406093093384L5.065009491798401,11.976406093093384C5.167933491798401,11.975004319643384,5.270390491798401,11.990489107343384,5.368303191798401,12.022243790343383C5.454492891798401,12.050949543343384,5.534556291798401,12.095515441343384,5.6043678917984,12.153645621343383C5.679666391798401,12.224033281343385,5.742101991798401,12.307022361343384,5.788865091798401,12.398877861343383C5.813919291798401,12.447498711343384,5.833519491798401,12.498741271343384,5.8473082917984005,12.551670551343383C5.861729991798401,12.606402161343384,5.869047591798401,12.662761571343383,5.869081391798401,12.719360591343383C5.868872291798401,12.801695111343383,5.855988491798401,12.883506181343384,5.830883191798401,12.961919191343384C5.8071204917984005,13.037478561343384,5.772921091798401,13.109348461343384,5.7292757917984005,13.175446861343383C5.685429091798401,13.236213961343385,5.6332184917984005,13.290482061343385,5.574191191798401,13.336643361343384C5.519238191798401,13.379323561343384,5.458542591798401,13.414043261343384,5.393895791798401,13.439778061343384C5.383344891798401,13.443790061343384,5.378556391798401,13.456027761343384,5.383582491798401,13.466135161343384L5.670450791798401,14.011605061343383Q5.818277791798401,14.293507561343384,5.963812991798401,14.573500361343385C5.967615891798401,14.580531361343384,5.967615891798401,14.589006461343384,5.963812991798401,14.596037161343384C5.960337591798401,14.602624661343384,5.953286891798401,14.606524461343383,5.9458596917984,14.605968461343384L5.479459991798401,14.605968461343384C5.475438491798401,14.605870761343384,5.471608791798401,14.604229961343384,5.468764391798401,14.601384861343384L5.4595970917984005,14.593363061343384L4.937428001798401,13.512354361343384C4.9342147117984005,13.505796161343383,4.927542391798401,13.501644661343384,4.920238911798401,13.501659061343384L4.486307321798401,13.501659061343384C4.475610111798401,13.501444661343385,4.466823811798401,13.510058661343384,4.466826171798401,13.520758261343383L4.466826171798401,14.583813661343385C4.468492271798401,14.596411961343383,4.457619901798401,14.607093561343383,4.445053191798401,14.605204361343384L4.050847999798401,14.604059261343384ZM4.466062341798401,12.388564791343384L4.466062341798401,13.091410961343383C4.466062341798401,13.101958961343383,4.474613131798401,13.110510061343383,4.485161391798401,13.110510061343383L5.036743191798401,13.110510061343383C5.176548591798401,13.110510061343383,5.280829591798401,13.072311861343383,5.351113991798401,12.995915561343384C5.456471291798401,12.876866281343384,5.484920391798401,12.708246651343384,5.424454491798401,12.561220111343383C5.404147991798401,12.515950081343384,5.372747791798401,12.476535501343383,5.333160891798401,12.446625591343384C5.296318091798401,12.420655191343384,5.255390691798401,12.401030331343383,5.212072591798401,12.388564791343384C5.162962791798401,12.374881031343383,5.112168191798401,12.368194461343384,5.0611899917984005,12.368701521343384L4.485543491798401,12.368701521343384C4.475552381798401,12.368451501343383,4.467058421798401,12.375946461343384,4.466062341798401,12.385890631343385L4.466062341798401,12.388564791343384Z" fill="#323232" fill-opacity="1" style="mix-blend-mode:passthrough"/><path d="M6.288990616798401,13.292433886343384Q6.288990616798401,13.056369286343383,6.295866302198401,12.906631946343383C6.297641687098401,12.833670376343385,6.303379633798401,12.760859136343385,6.313055367798401,12.688520136343383C6.321886542798401,12.643554386343384,6.334668911798401,12.599455296343384,6.351253557798401,12.556736526343384C6.367172866798401,12.513897006343385,6.386459633798401,12.472385886343384,6.408932896798401,12.432592426343383C6.4837896367984005,12.302534636343383,6.587563756798401,12.191441356343384,6.712226566798401,12.107907916343384Q6.923844276798401,11.955115226883384,7.237451616798401,11.955115226883384C7.422834916798401,11.949359504943384,7.605221016798401,12.002884511343384,7.758093116798401,12.107907916343384C7.882863616798401,12.192346576343384,7.987254716798401,12.303522616343384,8.063678416798401,12.433356586343384C8.107260016798401,12.513242486343383,8.137576916798402,12.599677386343384,8.153444516798402,12.689284146343384C8.1642104167984,12.761528316343384,8.1704624167984,12.834373836343383,8.172161716798401,12.907396076343383Q8.178655416798401,13.057132886343384,8.1782738167984,13.293197786343384Q8.1782738167984,13.756923586343383,8.152299116798401,13.899402586343385C8.1442562167984,13.944727986343384,8.132502916798401,13.989315486343383,8.117157016798402,14.032714586343385C8.102298116798401,14.074323686343384,8.084424816798402,14.114793786343384,8.0636797167984,14.153802586343383C7.986293716798401,14.283584086343383,7.880834216798401,14.394395386343383,7.7550382167984,14.478105286343384C7.601332816798401,14.581278786343384,7.419028916798401,14.633403786343383,7.234015046798401,14.627078086343383C7.047635736798401,14.633458586343384,6.863987626798401,14.580930486343384,6.709171826798401,14.476959686343385C6.584194216798401,14.393914986343384,6.480443446798401,14.282706986343385,6.406260206798401,14.152275086343383C6.383899718798401,14.112610386343384,6.364739723798401,14.071225186343383,6.3489629217984005,14.028512986343383C6.332930538798401,13.986156986343383,6.320784646798401,13.942431086343383,6.312674762798401,13.897874986343384C6.303330090798401,13.825252786343384,6.297720373598401,13.752197886343383,6.295867467798401,13.678999786343384C6.290900351098401,13.579301786343384,6.288990616798401,13.449809986343384,6.288990616798401,13.292433886343384ZM6.723686126798401,13.292433886343384Q6.723686126798401,13.489154086343383,6.7290338567984005,13.616354086343383C6.730087096798401,13.679570286343385,6.736604596798401,13.742577186343384,6.748514716798401,13.804670886343384C6.758547486798401,13.842894686343383,6.772101846798401,13.880105886343383,6.789004746798401,13.915827486343384C6.805084586798401,13.949979586343384,6.824670906798401,13.982367286343383,6.847447876798401,14.012469086343383C6.888756156798401,14.065648286343384,6.9408211667984006,14.109513086343384,7.0002406267984005,14.141196486343384C7.144946276798401,14.211501586343385,7.313913216798401,14.211501586343385,7.458618916798401,14.141196486343384C7.586062416798401,14.069699786343383,7.677251316798401,13.947559686343384,7.709581216798401,13.805052486343383Q7.738229916798401,13.690458086343384,7.738993916798401,13.292433186343384Q7.738993916798401,13.095712786343384,7.732118616798401,12.968894486343384C7.729769016798401,12.906176686343384,7.722617416798401,12.843730986343385,7.7107277167984005,12.782105506343385C7.702092016798401,12.743277306343384,7.689284816798401,12.705496426343384,7.672529416798401,12.669420956343384C7.656899616798401,12.634308516343383,7.636876616798401,12.601321636343384,7.612940316798401,12.571251396343383C7.571746916798401,12.519247116343383,7.519573016798401,12.476985816343383,7.460147716798401,12.447489116343384C7.426139116798401,12.431183666343383,7.390558516798401,12.418385266343384,7.353956816798401,12.409290906343383C7.235286886798401,12.379182216343384,7.109747346798401,12.392739536343385,7.0002418167984,12.447489116343384C6.942128006798401,12.479310216343384,6.890340986798401,12.521516736343385,6.847449066798401,12.572014926343384C6.823935386798401,12.602305536343383,6.804063436798401,12.635255036343384,6.788241716798401,12.670184556343385C6.771739306798401,12.707021176343384,6.758943196798401,12.745408176343384,6.750043566798401,12.784779016343384C6.737474796798401,12.847690406343384,6.730697926798401,12.911621686343384,6.729798586798401,12.975769986343384Q6.723686126798401,13.099915186343384,6.723686126798401,13.292815486343384L6.723686126798401,13.292433886343384Z" fill="#323232" fill-opacity="1" style="mix-blend-mode:passthrough"/><path d="M9.179596424298401,14.608772536343384C9.1671780342984,14.610378736343383,9.1565991642984,14.599800336343383,9.1582054542984,14.587381636343384L9.160115544298401,12.390986446343383C9.160117924298401,12.380796346343384,9.151968364298401,12.372477206343383,9.141780614298401,12.372269126343383L8.4924114942984,12.372269126343383C8.4697966012984,12.373430756343383,8.4511416500284,12.354775786343383,8.4523032860584,12.332160946343384L8.4523032860584,12.004038708343383C8.4503483803984,11.991291605843383,8.461328841698402,11.980310562543384,8.474076530298401,11.982265468093384L10.281232354298401,11.982265468093384C10.293860554298401,11.980667271543384,10.304603854298401,11.991411092643384,10.303005654298401,12.004038708343383L10.303005654298401,12.333689186343383C10.301788554298401,12.355151206343384,10.284012554298402,12.371921186343384,10.2625157542984,12.371887356343384L9.613146554298401,12.371887356343384C9.6028690542984,12.371885006343383,9.594597254298401,12.380329486343383,9.5948116542984,12.390604676343385L9.5925198542984,14.586999936343384C9.5944857542984,14.599538136343384,9.5836673542984,14.610356836343383,9.5711289542984,14.608391036343384L9.179596424298401,14.608772536343384Z" fill="#323232" fill-opacity="1" style="mix-blend-mode:passthrough"/><path d="M10.680074097798402,14.609918636343384C10.6675070952984,14.611807336343384,10.6566344623984,14.601126236343383,10.658300853478401,14.588527636343384L10.660592650998401,12.004038708343383C10.658637745418401,11.991291605843383,10.6696182067984,11.980310562543384,10.682365894798401,11.982265468093384L12.334437241798401,11.982265468093384C12.347184341798402,11.980311145443384,12.3581653417984,11.991291605843383,12.356210441798401,12.004038708343383L12.356210441798401,12.375325026343384C12.3578088417984,12.387953256343383,12.347065441798401,12.398697106343384,12.334437241798401,12.397098306343384L11.114387271798401,12.397098306343384C11.103924331798401,12.397301136343383,11.0954909617984,12.405734506343384,11.095288131798402,12.416197386343384L11.095288131798402,13.070532336343383C11.095288131798402,13.081080436343385,11.1038392817984,13.089631436343383,11.114387271798401,13.089631436343383L12.1293131417984,13.089631436343383C12.151886141798402,13.089632036343383,12.1701855417984,13.107930736343384,12.1701855417984,13.130503736343384L12.1701855417984,13.461300136343384C12.1701855417984,13.474669836343384,12.1629277417984,13.481163336343384,12.148412341798402,13.481163336343384L11.114387271798401,13.481163336343384C11.1038392817984,13.481163336343384,11.095288131798402,13.489714536343383,11.095288131798402,13.500262636343384L11.0945245917984,14.181334936343383C11.0945245917984,14.191882836343384,11.1030757117984,14.200433736343385,11.113623681798401,14.200433736343385L12.333673741798401,14.200433736343385C12.3462412417984,14.198545436343384,12.357112741798401,14.209226836343383,12.355446941798402,14.221824836343384L12.355446941798402,14.590055236343384C12.357413541798401,14.602593636343384,12.3465944417984,14.613412136343385,12.334056041798402,14.611446336343384L10.680074097798402,14.609918636343384Z" fill="#323232" fill-opacity="1" style="mix-blend-mode:passthrough"/><path d="M14.5673067542984,13.848902023843383C14.574325554298401,13.848625023843384,14.5810844542984,13.851581323843384,14.5856423542984,13.856923823843385C14.590189854298401,13.862033723843384,14.591515154298401,13.869249923843384,14.589080054298401,13.875641123843383Q14.512683554298402,14.244253123843384,14.253317854298402,14.441737623843384C14.1705424542984,14.504660123843383,14.077848354298402,14.553331423843384,13.979055054298401,14.585745123843385C13.8758810542984,14.618853123843383,13.768071054298401,14.635230823843383,13.6597188742984,14.634256823843383C13.473453824298401,14.640687023843384,13.2899118642984,14.588151223843383,13.135257484298402,14.484138523843384C13.009991974298401,14.401273023843384,12.906176834298401,14.289865923843383,12.832346204298402,14.159071923843385C12.810940168298401,14.119277223843383,12.7923062072984,14.078053023843385,12.7765772042984,14.035692223843384C12.760673340298402,13.993324723843383,12.7486548072984,13.949598823843385,12.740670820298401,13.905054423843383C12.725009427398401,13.816052523843384,12.7169881362384,13.613984623843384,12.7177516800804,13.298849623843385Q12.7177516800804,13.062785023843384,12.723481173598401,12.913047733843383C12.724609586398401,12.840025543843383,12.7306071942984,12.767159523843384,12.741434365298401,12.694935793843383C12.7496456692984,12.650028943843385,12.7617877642984,12.605931643843384,12.7777230962984,12.563152253843384C12.793593153298401,12.520417033843383,12.812353022298401,12.478812093843384,12.833874474298401,12.438626373843384C12.9086341542984,12.308600663843384,13.0124329942984,12.197611703843384,13.137168114298401,12.114323643843385Q13.3480216242984,11.961530923843384,13.6620107342984,11.961530923843384Q14.0371170542984,11.961530923843384,14.282348654298401,12.193011793843384C14.442569354298401,12.338541533843383,14.550708154298402,12.532548133843385,14.5902259542984,12.745357693843383C14.592839454298401,12.751551803843384,14.5913147542984,12.758718013843383,14.586405854298402,12.763310853843384C14.5816508542984,12.768060563843385,14.575173154298401,12.770679353843384,14.5684527542984,12.770568613843384L14.155530554298402,12.770568613843384C14.1461652542984,12.771549583843385,14.137578454298401,12.765275123843384,14.135667754298401,12.756053213843384C14.1201393542984,12.708252433843384,14.097750654298402,12.662960823843385,14.0692033542984,12.621595443843384C14.0386708542984,12.579040943843383,14.0028601542984,12.540534973843384,13.9626301542984,12.507000863843384C13.8793711542984,12.434711873843384,13.771825754298401,12.396634373843384,13.6616283042984,12.400428233843384C13.581874784298401,12.398400423843384,13.5029429242984,12.416949863843383,13.4324392642984,12.454287793843385C13.374232764298402,12.485970793843384,13.322421314298401,12.528196513843383,13.2796465142984,12.578813673843383C13.2558426242984,12.608977083843383,13.2358307842984,12.641946493843383,13.220057484298401,12.676983233843384C13.2035556142984,12.713819863843383,13.1907595942984,12.752206923843383,13.181859284298401,12.791577813843384C13.1695715142984,12.853880643843384,13.1629245842984,12.917163253843384,13.161996664298401,12.980658623843384C13.1581766642984,13.066222823843384,13.155884834298401,13.171649423843384,13.155884834298401,13.301905423843383C13.155884834298401,13.432161323843383,13.157794264298401,13.541025923843383,13.161233154298401,13.625444023843384C13.1622916142984,13.688786723843384,13.168809114298401,13.751920123843384,13.180714604298402,13.814143223843384C13.1907467542984,13.852366923843384,13.2043016842984,13.889578323843384,13.221204574298401,13.925299923843383C13.237265824298401,13.959424023843384,13.2569909142984,13.991700423843383,13.2800300742984,14.021559523843383C13.3213896742984,14.074790923843384,13.373437764298401,14.118771523843384,13.432822824298402,14.150669623843385C13.5039955342984,14.188015723843383,13.583576674298401,14.206431123843384,13.663921294298401,14.204146623843384Q13.9763821542984,14.204146623843384,14.138343254298402,13.863801023843383L14.1475104542984,13.855397123843384C14.150434054298401,13.852723723843384,14.1542435542984,13.851226923843384,14.158205854298402,13.851195423843384L14.5673067542984,13.848902023843383Z" fill="#323232" fill-opacity="1" style="mix-blend-mode:passthrough"/><path d="M15.446692464298401,14.613814786343383C15.4342740742984,14.615420586343383,15.4236952042984,14.604842186343383,15.425301614298402,14.592423886343383L15.427211044298401,12.396792796343384C15.4274243742984,12.386095616343384,15.4188109042984,12.377309646343384,15.408111994298402,12.377311946343383L14.7587429132984,12.377311946343383C14.7361699902984,12.377311346343383,14.717870583098401,12.359012576343384,14.717870583098401,12.336439636343384L14.717870583098401,12.007553279343384C14.7162047750984,11.994955386943383,14.7270774077984,11.984273932643383,14.739643823298401,11.986162392353384L16.5467995542984,11.986162392353384C16.5594276542984,11.984563612943385,16.5701709542984,11.995306850443384,16.5685727542984,12.007935634343383L16.5685727542984,12.336821976343384C16.5685715542984,12.359394876343384,16.5502732542984,12.377693716343384,16.527700554298402,12.377694306343384L15.8806230542984,12.377694306343384C15.869924354298401,12.377691956343384,15.8613096542984,12.386478576343384,15.8615242542984,12.397175166343384L15.859614654298401,14.592806386343383C15.8612805542984,14.605404186343383,15.8504079542984,14.616085486343383,15.8378415542984,14.614197486343384L15.446692464298401,14.613814786343383Z" fill="#323232" fill-opacity="1" style="mix-blend-mode:passthrough"/><path d="M16.903375460298403,14.614874148843384C16.8907760921984,14.616540648843383,16.8800922219984,14.605667848843384,16.8819820686884,14.593100748843383L16.8842741343984,12.008612025843384C16.8822327269284,11.995887652943384,16.893361953298403,11.984954986043384,16.9060499222984,11.987221137823385L17.2976270642984,11.987221137823385C17.3102264442984,11.985554746943384,17.3209103042984,11.996427378643384,17.3190204542984,12.008994379843383L17.316728444298402,14.593483248843384C17.3183944242984,14.606081248843385,17.307520504298402,14.616762648843384,17.2949526342984,14.614874148843384L16.903375460298403,14.614874148843384Z" fill="#323232" fill-opacity="1" style="mix-blend-mode:passthrough"/><path d="M17.8466078042984,13.302408136343384Q17.8466078042984,13.066343536343384,17.8531020078984,12.916606186343383C17.855152501698402,12.843645866343383,17.8610172192984,12.770842256343384,17.8706728462984,12.698494376343383C17.8787535872984,12.653558376343383,17.890900351298402,12.609449446343383,17.9069615862984,12.566710766343384C17.9227966742984,12.523835776343384,17.9420857722984,12.482318166343383,17.964641204298402,12.442566726343383L17.9627317742984,12.442566726343383C18.0375882242984,12.312508376343384,18.1413625742984,12.201415076343384,18.2660254542984,12.117882206343383C18.420608704298402,12.013033632343383,18.604586664298402,11.960181818843385,18.791250404298403,11.966999508613384C18.9766529042984,11.961082918143385,19.1590886042984,12.014621917343383,19.3118918042984,12.119792236343384C19.4366549042984,12.204081626343385,19.5410505042984,12.315132406343384,19.6174773042984,12.444858546343383C19.6610588042984,12.524744446343384,19.6913755042984,12.611179356343383,19.7072433042984,12.700786176343383C19.7185622042984,12.773506466343385,19.7253222042984,12.846862616343383,19.727486004298402,12.920426246343384Q19.7339801042984,13.070544836343384,19.7335978042984,13.306609836343384Q19.7335978042984,13.769953936343384,19.7080044042984,13.912814736343384C19.6997372042984,13.958127936343384,19.6878585042984,14.002707736343384,19.672480504298402,14.046126836343383C19.657707304298402,14.087646436343384,19.639831104298402,14.127995936343384,19.6190034042984,14.166833136343383C19.5418363042984,14.296780536343384,19.4363344042984,14.407636136343385,19.3103623042984,14.491135836343384C19.156265104298402,14.594004436343383,18.973738704298402,14.645849236343384,18.788575054298402,14.639344236343383C18.5807768742984,14.639344236343383,18.4065932642984,14.589304936343384,18.2641136342984,14.489225636343384C18.1391197742984,14.406040936343384,18.0353721942984,14.294705636343384,17.9612023542984,14.164159536343384L17.963111784298402,14.164159536343384C17.9408268032984,14.124588536343383,17.9216694232984,14.083336136343384,17.9058145212984,14.040779636343384C17.8898313902984,13.998277636343383,17.8776869582984,13.954429036343384,17.8695257792984,13.909760136343383C17.860003046298402,13.837027536343385,17.8543924563984,13.763836236343383,17.852718487398402,13.690502236343384C17.8485172471984,13.589276236343384,17.8466078042984,13.460548536343383,17.8466078042984,13.302408136343384ZM18.281303314298402,13.302408136343384C18.281303314298402,13.433809836343384,18.2832127542984,13.541528436343384,18.2866515842984,13.626328336343384C18.287543384298402,13.689681636343384,18.2940632442984,13.752829536343384,18.306133004298403,13.815027636343384C18.3159973642984,13.853180836343384,18.3295581042984,13.890280936343384,18.346623064298402,13.925802036343384C18.3624709242984,13.960077036343383,18.3820724442984,13.992488636343383,18.4050661942984,14.022443336343384C18.4464584542984,14.075643036343383,18.4984994542984,14.119617436343384,18.557858944298403,14.151553436343384C18.6290316542984,14.188900036343384,18.7086128042984,14.207315936343385,18.7889574142984,14.205030636343384C18.8686492042984,14.207327836343383,18.9475857042984,14.189041136343384,19.0181465042984,14.151935336343383C19.1458169042984,14.080698536343384,19.2370914042984,13.958443236343383,19.269108904298403,13.815791036343384Q19.298139904298402,13.701196536343383,19.2985210042984,13.303553336343384Q19.2985210042984,13.106833136343385,19.291645604298402,12.979632936343384C19.2895217042984,12.917024076343385,19.2823689042984,12.854687456343385,19.2702548042984,12.793225706343383C19.2618897042984,12.753707886343383,19.249076004298402,12.715264376343384,19.232056504298402,12.678631186343384C19.2163835042984,12.643624126343385,19.196501104298402,12.610658286343384,19.172849904298403,12.580461566343384C19.1314716042984,12.528641406343384,19.079341904298403,12.486415686343383,19.0200572042984,12.456699286343383C18.985942404298402,12.440332616343383,18.9502284042984,12.427531896343384,18.9134840042984,12.418501076343384C18.8735535042984,12.408230546343384,18.8324770942984,12.403096166343383,18.7912492142984,12.403222056343385C18.7108241942984,12.400579986343384,18.631120684298402,12.419155056343383,18.5601507442984,12.457081616343384C18.501944184298402,12.488764646343384,18.4501327842984,12.530990366343383,18.4073579942984,12.581607456343384C18.383691604298402,12.611728426343383,18.3636879342984,12.644553776343384,18.3477689642984,12.679394726343384C18.3315701442984,12.716349126343383,18.3187845642984,12.754706976343384,18.3095707342984,12.793989296343383C18.2973447142984,12.856944976343383,18.2906978142984,12.920856476343383,18.2897080742984,12.984980136343385Q18.281303314298402,13.111417136343384,18.281303314298402,13.302408136343384Z" fill="#323232" fill-opacity="1" style="mix-blend-mode:passthrough"/><path d="M20.3001907002984,14.617731136343384C20.287623117698402,14.619619336343384,20.2767516498984,14.608938236343384,20.2784174580984,14.596340136343384L20.2807092556984,12.011851208343383C20.2787543500284,11.999103522843384,20.2897353942984,11.988123062543384,20.3024825002984,11.990077968093384L20.6737688792984,11.990077968093384C20.6813075792984,11.990280802653384,20.6881596192984,11.994508271143383,20.6917220692984,12.001155183343384L21.7899198292984,13.735735136343383C21.7945103292984,13.742839736343385,21.803225229298402,13.746079236343384,21.8113410292984,13.743697036343384C21.819456729298402,13.741314736343384,21.8250404292984,13.733879336343383,21.8250614292984,13.725421436343384L21.8250614292984,12.012997107343384C21.8230190292984,12.000272154343383,21.834149329298402,11.989339487043384,21.8468347292984,11.991606221643384L22.2398932292984,11.991606221643384C22.2526389292984,11.989652481773383,22.263620129298403,12.000632359343383,22.2616663292984,12.013379462343384L22.2589922292984,14.598249936343384C22.2609576292984,14.610788536343383,22.2501397292984,14.621607036343384,22.2376013292984,14.619641036343385L21.8678431292984,14.619641036343385C21.8603641292984,14.619594336343383,21.853493329298402,14.615502336343383,21.8498912292984,14.608945636343384L20.7471098892984,12.874366166343384C20.7426708292984,12.866868196343384,20.7337193192984,12.863326256343385,20.725350649298402,12.865755556343384C20.7169831392984,12.868185516343384,20.7113200992984,12.875970186343384,20.7115858792984,12.884679796343384L20.7115858792984,14.597104336343383C20.7115858792984,14.611619736343384,20.704710479298402,14.618495236343383,20.6917232292984,14.618495236343383L20.3001907002984,14.617731136343384Z" fill="#323232" fill-opacity="1" style="mix-blend-mode:passthrough"/><path d="M1.7582557687984008,10.621646361343384C1.7455085217984008,10.623600461343383,1.7345283552984008,10.612620161343383,1.736482805078401,10.599873061343384L1.738774696098401,8.015384754343383C1.735563591528401,8.002053918343384,1.7470298437984009,7.989783009943384,1.7605476587984008,7.9920838417333835L2.665844621798401,7.9920838417333835Q3.206730741798401,7.9920838417333835,3.469916141798401,8.438620631343383C3.500116241798401,8.491568651343384,3.526538741798401,8.546583411343384,3.548986541798401,8.603254731343384C3.5684291417984007,8.652503911343384,3.582391941798401,8.703743221343384,3.590622641798401,8.756047431343383C3.608846441798401,8.939947481343383,3.615862441798401,9.124786161343383,3.611631641798401,9.309539061343383Q3.611631641798401,9.748054261343384,3.580309041798401,9.897790861343385C3.560848641798401,10.001098661343384,3.520276341798401,10.099278661343384,3.4611308417984006,10.186187261343385C3.378458341798401,10.313926461343383,3.2671609417984007,10.420646661343383,3.1360641417984008,10.497884561343383C2.9850719417984006,10.584215161343383,2.813369041798401,10.627669061343383,2.639487861798401,10.623556361343384L1.7582557687984008,10.621646361343384ZM2.173088011798401,8.428306971343384L2.173088011798401,10.191916661343384C2.173088011798401,10.202465261343384,2.181638951798401,10.211015961343383,2.1921871317984007,10.211015961343383L2.620770691798401,10.211015961343383Q2.930940041798401,10.211015961343383,3.082586641798401,9.994814161343385C3.121388041798401,9.934117661343384,3.147384741798401,9.866136561343383,3.158983041798401,9.795037461343384C3.166525941798401,9.737254661343384,3.170988941798401,9.679111161343384,3.1723524417984006,9.620853861343384Q3.1777001417984008,9.506259161343383,3.177318241798401,9.324435961343383C3.177318241798401,9.207549661343384,3.175408241798401,9.110144161343383,3.1723524417984006,9.032219761343384C3.169296241798401,8.954295461343383,3.163566841798401,8.892032621343384,3.157837041798401,8.846194501343383C3.146402941798401,8.763471241343384,3.114932141798401,8.684794191343384,3.066161241798401,8.617005471343385C2.964172141798401,8.478727971343384,2.8159631417984006,8.409589351343383,2.622680361798401,8.409207281343384L2.1921871317984007,8.409207281343384C2.1816387817984007,8.409207281343384,2.173087711798401,8.417758701343384,2.173088011798401,8.428306971343384Z" fill="#323232" fill-opacity="1" style="mix-blend-mode:passthrough"/><path d="M4.210045399298401,10.039687173843383C4.219022269298401,10.031587873843383,4.233243439298401,10.034242673843384,4.238694009298401,10.045034873843385C4.310526879298401,10.154284473843383,4.434249279298401,10.218028773843384,4.564906479298401,10.213106873843383C4.6679846692984,10.210553373843384,4.767711579298401,10.175975773843383,4.850246969298401,10.114173673843384C4.898866379298401,10.079771773843383,4.935895879298401,10.031419773843384,4.956437979298401,9.975514573843384C4.980876879298401,9.907167573843385,4.992656079298401,9.834938873843384,4.991198379298401,9.762368273843384L4.991198379298401,8.018239803843384C4.989592579298401,8.005821140443384,5.000170979298401,7.995242851943384,5.012589179298401,7.996848916923383L5.406030579298401,7.996848916923383C5.419017879298401,7.996848916923383,5.425893679298401,8.004106664143384,5.425893679298401,8.018239803843384L5.425893679298401,9.802094573843384Q5.425893679298401,10.200883673843384,5.161944279298401,10.424343373843383C5.077683079298401,10.493559573843385,4.983239379298401,10.549349273843383,4.881951269298401,10.589740773843385C4.784390509298401,10.626898073843384,4.680760029298401,10.645551873843385,4.576365769298401,10.644746273843385C4.503812489298401,10.645233373843384,4.431468789298401,10.636896373843385,4.360928089298401,10.619917873843384C4.232249049298401,10.588530273843384,4.113102699298401,10.526401073843385,4.013706609298401,10.438858273843383C3.966205142298401,10.397337873843384,3.923996888298401,10.350126273843383,3.8880345541984007,10.298289073843383C3.884282405838401,10.293703273843384,3.882871306618401,10.287635073843383,3.884214794318401,10.281864173843385C3.885290312898401,10.276129473843383,3.888584626398401,10.271050973843384,3.893382422598401,10.267730973843385L4.210045399298401,10.039687173843383Z" fill="#323232" fill-opacity="1" style="mix-blend-mode:passthrough"/><path d="M7.750226816798401,9.864102598843385C7.757213516798401,9.863859298843384,7.763891816798401,9.866985598843383,7.768179816798401,9.872506298843383C7.772942516798401,9.877493898843383,7.774427216798401,9.884768498843384,7.771999916798401,9.891223298843384Q7.6956037167984,10.259071598843384,7.435855816798401,10.457320198843384C7.353088716798401,10.520255098843384,7.260392816798401,10.568926598843383,7.161593216798401,10.601327698843384C7.0585934167984,10.634621598843385,6.950878816798401,10.651004298843384,6.842638136798401,10.649839198843384C6.656259356798401,10.656219198843385,6.472610716798401,10.603691798843384,6.317795186798401,10.499720798843384C6.1926701667984005,10.416689398843385,6.088890526798401,10.305319798843383,6.014883596798401,10.174654198843385C5.993824936798401,10.134743198843385,5.9753253157984005,10.093533298843383,5.959496345798401,10.051274098843384C5.942911997798401,10.008948098843383,5.930128756798401,9.965229598843385,5.921298164798401,9.920636298843384C5.9056367706984005,9.831252798843384,5.897997250548401,9.629566198843383,5.898379313961401,9.314431098843384C5.898379313961401,9.157054498843383,5.900671111698401,9.028326898843384,5.904109099398401,8.928247508843384C5.905357290498401,8.855216558843384,5.911482835798401,8.782350598843383,5.922444356798401,8.710135938843385C5.931325070798401,8.665182108843384,5.944105978798401,8.621087488843385,5.960642534798401,8.578352388843383C5.9763117957984,8.534607408843383,5.994944601798401,8.491980968843384,6.016411276798401,8.450769988843383C6.091688526798401,8.321421588843384,6.195564326798401,8.211012858843384,6.320086686798401,8.127995518843385Q6.531704666798401,7.975202798843384,6.845311696798401,7.975202798843384Q7.220035716798401,7.975202798843384,7.465268016798401,8.206683668843384C7.625164616798401,8.352715198843384,7.732776616798401,8.547141198843384,7.7716175167984005,8.760175168843384C7.774294516798401,8.766484918843384,7.772772116798401,8.773794288843384,7.767797516798401,8.778510448843384C7.763042016798401,8.783259568843384,7.756564116798401,8.785878298843384,7.7498443167984,8.785768208843384L7.338450416798401,8.785768208843384C7.329084416798401,8.786749128843384,7.320498416798401,8.780474658843383,7.318587016798401,8.771252988843385C7.303082616798401,8.723372338843383,7.280554516798401,8.678059218843384,7.251740316798401,8.636795518843384C7.221239316798401,8.594336028843383,7.185568016798401,8.555841508843384,7.1455495167984004,8.522201058843384C7.0627497167984,8.448806378843384,6.955153716798401,8.409618468843384,6.844547626798401,8.412571818843384C6.764793336798401,8.410544368843384,6.685861586798401,8.429093538843384,6.615358416798401,8.466431408843384C6.557244896798401,8.498252808843384,6.505457996798401,8.540459338843384,6.462565716798401,8.590957518843384C6.438970446798401,8.621054288843384,6.419090986798401,8.653887208843384,6.403358456798401,8.688744778843384C6.386936966798401,8.725612878843384,6.374144136798401,8.763992008843385,6.365160256798401,8.803339298843383C6.352591216798401,8.866250688843383,6.345814616798401,8.930181738843384,6.344915296798401,8.994330198843384Q6.339185506798401,9.122294098843383,6.339185506798401,9.315194798843384Q6.339185506798401,9.508095998843384,6.344533206798401,9.639115498843385C6.343781886798401,9.701656598843384,6.348382676798401,9.764147398843384,6.358284826798401,9.825904398843385C6.368155266798401,9.864178898843385,6.381715476798401,9.901405598843384,6.398774866798401,9.937061398843383C6.414710466798401,9.971170498843383,6.434306446798401,10.003446298843384,6.457217986798401,10.033320698843383C6.498503626798401,10.086622198843383,6.5505676867984,10.130616398843383,6.610010746798401,10.162430298843384C6.680615846798401,10.199458598843384,6.759498716798401,10.217864998843384,6.839199896798401,10.215907598843383Q7.150897216798401,10.215907598843383,7.3136213167984,9.875562098843384C7.316333216798401,9.872519598843384,7.319413016798401,9.869825398843384,7.322788916798401,9.867540598843384C7.325633316798401,9.864695798843384,7.329462616798401,9.863054598843384,7.333484416798401,9.862956598843384L7.750226816798401,9.864102598843385Z" fill="#323232" fill-opacity="1" style="mix-blend-mode:passthrough"/><path d="M10.5840509827984,10.627878161343384C10.5715125416984,10.629844161343383,10.560694114198402,10.619025661343384,10.562660094258401,10.606487261343384L10.564951891998401,8.021616542343384C10.562997569038401,8.008869147843384,10.5739780307984,7.997888979043384,10.586725134798401,7.9998435930933836L11.598213416798401,7.9998435930933836C11.701033116798401,7.998565968443383,11.803364316798401,8.014180150343384,11.901124716798401,8.046063352343383C11.987409816798401,8.074634760343384,12.0676007167984,8.119069811343383,12.1375716167984,8.177083121343383C12.212566616798401,8.247742101343384,12.274960516798401,8.330675211343383,12.322068216798401,8.422315361343383C12.3469620167984,8.471007611343383,12.3665556167984,8.522232051343384,12.3805114167984,8.575108051343383C12.3947820167984,8.629860281343383,12.4019710167984,8.686216831343383,12.4019023167984,8.742798091343383C12.402226316798401,8.824998501343384,12.390120416798402,8.906775231343383,12.3659959167984,8.985356451343383C12.3421594167984,9.061006661343384,12.307966616798401,9.132993061343385,12.264388516798402,9.199266061343383C12.220339616798402,9.259863261343384,12.168154116798402,9.314104961343384,12.1093041167984,9.360462561343384C12.0542450167984,9.402883761343384,11.9935683167984,9.437464361343384,11.9290086167984,9.463215561343384C11.9184577167984,9.467227561343384,11.913669016798401,9.479465461343384,11.9186956167984,9.489572661343384C12.0126628167984,9.670250061343383,12.107394716798401,9.850927361343384,12.2025077167984,10.033132761343383Q12.350334516798402,10.315798961343383,12.495869416798401,10.595028361343385C12.499673216798401,10.602059161343384,12.499673216798401,10.610534661343383,12.495869416798401,10.617565161343384C12.492322116798402,10.624082061343383,12.485322016798401,10.627954461343384,12.477916516798402,10.627496261343383L12.011516916798401,10.627496261343383C12.0074007167984,10.627313861343383,12.0034804167984,10.625691861343384,12.000439016798401,10.622912861343384L11.991652916798401,10.614890861343383L11.469483966798402,9.533882361343384C11.4662018967984,9.527386061343384,11.459572436798402,9.523260861343385,11.452294946798402,9.523186761343384L11.0183640967984,9.523186761343384C11.0076669467984,9.522972661343385,10.998880926798401,9.531586761343384,10.998883246798401,9.542285961343383L10.998883246798401,10.605341161343384C11.000549676798402,10.617939961343383,10.989677016798401,10.628621061343384,10.9771099967984,10.626732361343384L10.5840509827984,10.627878161343384ZM10.999265046798401,8.412383731343384L10.999265046798401,9.115230361343384C10.999265046798401,9.125778561343385,11.0078161367984,9.134329361343383,11.0183640967984,9.134329361343383L11.5707095167984,9.134329361343383C11.7105149167984,9.134329361343383,11.814796416798401,9.096131161343383,11.885080916798401,9.019734861343384C11.9904383167984,8.900685851343384,12.0188876167984,8.732066211343383,11.9584219167984,8.585039731343384C11.9381163167984,8.539769651343384,11.906715516798402,8.500354771343384,11.867127816798401,8.470445151343384C11.829523016798401,8.444592771343384,11.7879884167984,8.424986601343385,11.7441295167984,8.412383731343384C11.694977116798402,8.398908641343384,11.6442114167984,8.392225591343383,11.593246316798401,8.392520841343384L11.0175994367984,8.392520841343384C11.007047946798401,8.392934981343384,10.9988342867984,8.401832881343385,10.999265046798401,8.412383731343384Z" fill="#323232" fill-opacity="1" style="mix-blend-mode:passthrough"/><path d="M12.9345852417984,9.965075373843383C12.9379063817984,9.960380273843384,12.943353771798401,9.957656873843383,12.949100761798402,9.957817573843384C12.954881551798401,9.957844573843383,12.9605025917984,9.959718373843383,12.965144511798401,9.963165273843384C13.0634749817984,10.042293773843383,13.1740443117984,10.104867673843383,13.2925031817984,10.148426573843384C13.417288421798402,10.195308473843383,13.5495890417984,10.218998473843383,13.6828885917984,10.218329173843383Q13.912077691798402,10.218329173843383,14.047299591798401,10.122833773843384C14.128153691798401,10.068570173843383,14.175805791798402,9.976864773843383,14.173735591798401,9.879511273843384Q14.173735591798401,9.594934773843384,13.854780391798402,9.551006873843384L13.8566900917984,9.551006873843384L13.7711263917984,9.540311573843384L13.690146491798401,9.529234073843384L13.6068747017984,9.517392773843383L13.514053341798402,9.504023273843384C13.4095550817984,9.490674473843384,13.3076831717984,9.461567973843383,13.211905601798401,9.417695373843383C13.126965701798401,9.378842673843383,13.0511043917984,9.322630773843384,12.989208371798401,9.252679273843384C12.930572901798401,9.185207973843383,12.884863971798401,9.107516273843384,12.854368851798402,9.023490173843383C12.8238247617984,8.937682153843383,12.8085690317984,8.847181853843384,12.809295271798401,8.756102983843384Q12.809295271798401,8.412319363843384,13.0384843317984,8.198791663843384Q13.2676734317984,7.985263996743384,13.6752485917984,7.981062173843384C13.754151191798401,7.981043813817384,13.8328976917984,7.988074829343383,13.910549391798401,8.002071289843384C13.985732291798401,8.015989061843383,14.0598799917984,8.035004805843384,14.132480691798401,8.058986492843383C14.2025018917984,8.082888623843385,14.270784891798401,8.111605743843384,14.336840191798402,8.144932103843384C14.401600191798401,8.177808793843385,14.4644708917984,8.214281443843383,14.525156891798401,8.254178913843385C14.536923691798401,8.260045083843384,14.539620091798401,8.275643523843383,14.5305052917984,8.285119353843383L14.3120115917984,8.607512053843383C14.306002391798401,8.617792843843384,14.292257391798401,8.620324793843384,14.2829805917984,8.612859723843384C14.1892650917984,8.553910673843383,14.0888608917984,8.506336923843383,13.9838894917984,8.471144553843384C13.878153091798401,8.435585883843384,13.7673214917984,8.417522813843384,13.655767081798402,8.417667063843384C13.601476191798401,8.417236353843384,13.547377701798402,8.424175233843384,13.4949530917984,8.438294143843384C13.4465268817984,8.451716513843383,13.401224911798401,8.474562463843384,13.3616418217984,8.505522963843383C13.283336041798401,8.562438193843384,13.243991971798401,8.648002323843384,13.243991971798401,8.763742743843384C13.246682341798401,8.834881723843385,13.2748845217984,8.902676343843384,13.323443651798401,8.954733673843384C13.3535296317984,8.985999373843384,13.389658631798401,9.010821473843384,13.429634511798401,9.027692273843384C13.482140781798401,9.049786673843384,13.5373909517984,9.064691273843383,13.5938862517984,9.072002373843384C13.628264431798401,9.078114273843383,13.6702826917984,9.084607873843384,13.716120791798401,9.091101373843383C13.7619591917984,9.097595073843383,13.818491691798402,9.104852773843383,13.8822831917984,9.112110573843385Q14.2516601917984,9.157184373843384,14.430427391798402,9.384845473843384C14.5462878917984,9.523730773843385,14.6094532917984,9.699027973843384,14.608811091798401,9.879893173843383Q14.608811091798401,10.244303973843383,14.3540285917984,10.449810073843384Q14.099246291798401,10.655316373843384,13.679066291798401,10.651114673843384Q13.089668631798402,10.651114673843384,12.677127556898402,10.289377673843383C12.6723807611984,10.286279473843383,12.669621511448401,10.280906673843383,12.6698698089714,10.275244673843384C12.6696296714784,10.269305973843384,12.6715262913984,10.263477773843384,12.675218113698401,10.258819573843384L12.9345852417984,9.965075373843383Z" fill="#323232" fill-opacity="1" style="mix-blend-mode:passthrough"/><path d="M7.9187638997984005,10.630775886343384C7.911522470798401,10.631383886343384,7.904563728298401,10.627829986343384,7.900810706198401,10.621608286343385C7.897550198478401,10.615388586343384,7.897550198478401,10.607964786343384,7.900810706198401,10.601745086343383L8.848125696798402,8.016492027343384C8.849308846798401,8.007604023943383,8.857125046798402,8.001118271403383,8.8660789767984,8.001594757808384L9.1888534167984,8.001594757808384C9.1931900167984,8.001813329533384,9.197340916798401,8.003420269143383,9.2006948167984,8.006178644443384C9.204328916798401,8.008683477043384,9.207229216798401,8.012111556343385,9.2090983167984,8.016110252343383L10.149919616798401,10.603273386343384C10.1524085167984,10.609830386343383,10.1517027167984,10.617173386343383,10.1480096167984,10.623136486343384C10.1447691167984,10.629112486343384,10.138372316798401,10.632683086343384,10.1315847167984,10.632304186343383L9.7167518167984,10.632304186343383C9.707925216798401,10.632802486343383,9.700160516798402,10.626523986343383,9.6987989167984,10.617788786343384L9.5131556167984,10.073464586343384C9.507945416798401,10.058038986343384,9.4935307167984,10.047611286343384,9.4772492167984,10.047489886343383L8.5795919267984,10.047489886343383C8.563270806798402,10.047391886343384,8.548690016798401,10.057675086343384,8.5433037867984,10.073082686343383C8.5123634367984,10.161320186343383,8.4821864967984,10.248029986343383,8.452010156798401,10.332829986343384C8.418778006798401,10.426415486343384,8.3851633967984,10.520765086343385,8.3515488167984,10.617024386343385C8.350065976798401,10.621141886343384,8.3472402967984,10.624640186343385,8.343526896798402,10.626955986343384C8.3401737167984,10.629713986343383,8.336022046798401,10.631320986343384,8.331685576798401,10.631539386343384L7.9187638997984005,10.630775886343384ZM9.3668570167984,9.635713086343383C9.3221654167984,9.502783386343383,9.110547016798401,8.874041376343383,9.047520316798401,8.685724316343384C9.045173616798401,8.677764536343384,9.0378659167984,8.672300276343384,9.0295671167984,8.672300276343384C9.0212688167984,8.672300276343384,9.0139611167984,8.677764536343384,9.011613916798401,8.685724316343384C8.9436211167984,8.887410756343384,8.7109944267984,9.578033886343384,8.691512946798401,9.634185286343383C8.687012676798402,9.646632586343383,8.6962305867984,9.659772486343384,8.7094661567984,9.659777986343384L9.348903816798401,9.659777986343384C9.361435316798401,9.659788486343384,9.3704375167984,9.647721786343384,9.3668570167984,9.635713086343383Z" fill="#323232" fill-opacity="1" style="mix-blend-mode:passthrough"/><path d="M20.964800441798403,5.641741726343383L18.4952870117984,6.414872836343384C18.461777341798403,6.425038936343384,18.427013371798402,6.403244036343384,18.421564821798402,6.3686530363433835L18.2760298285284,5.423248127343384C18.270321316998402,5.386969238343384,18.2997358287984,5.354761201443384,18.336382440798403,5.357165280263384L20.9499024417984,5.5298210363433835C20.9777468417984,5.530919726343384,21.0007628417984,5.551891456343384,21.0044394417984,5.5795135163433836C21.008117541798402,5.607135416343384,20.9913879417984,5.633397786343384,20.964800441798403,5.641741726343383Z" fill="#FF9650" fill-opacity="1" style="mix-blend-mode:passthrough"/><path d="M21.8204096792984,9.359349273843383L18.7721953172984,6.861952473843384C18.7557284119984,6.848649373843384,18.7479390978984,6.827350613843384,18.751937503598402,6.806562243843384C18.7559347436984,6.785773933843384,18.771069236298402,6.768883643843384,18.791294407298402,6.762637193843384L21.754327679298402,5.835949368543384C21.7913971792984,5.822840675743384,21.8303533792984,5.8501100488433835,21.8307240792984,5.889426801843384L21.9166696792984,9.313511573843384C21.9182971792984,9.336992773843384,21.905395179298402,9.359080073843383,21.884144179298403,9.369199073843383C21.8628931792984,9.379318273843383,21.8376131792984,9.375411473843384,21.8204096792984,9.359349273843383Z" fill="#FF9650" fill-opacity="1" style="mix-blend-mode:passthrough"/><path d="M18.039090291798402,7.224949531343384L17.6303691917984,10.645214061343385C17.6278674917984,10.668285361343383,17.6112503917984,10.687351661343383,17.5887368917984,10.692980261343383C17.566223391798403,10.698609161343384,17.5425871917984,10.689605761343383,17.5295253917984,10.670425161343385L16.0703544346984,8.590534461343385C16.0531811066984,8.565775961343384,16.0589525666984,8.531831261343385,16.0833416787984,8.514138061343385L17.9516149917984,7.174145886343384C17.9693418917984,7.161359003743383,17.9929314917984,7.160193725043384,18.0118321917984,7.171171126443384C18.030734191798402,7.182148527343384,18.0414112917984,7.203215487343384,18.039090291798402,7.224949531343384Z" fill="#FF9650" fill-opacity="1" style="mix-blend-mode:passthrough"/><path d="M17.9750627167984,6.652249748843384L16.496792711798403,7.716833148843383C16.4739540067984,7.732717548843384,16.4430322237984,7.730036948843384,16.4232675117984,7.710459748843384C16.4035027985984,7.690882648843384,16.4005290576984,7.659987348843384,16.416195112798402,7.636998848843383L17.770321016798402,5.729763762843384C17.7839750167984,5.7107024509433835,17.8078093167984,5.701804140843384,17.8306153167984,5.707254008143384C17.8534214167984,5.712703875243384,17.8706577167984,5.731416968843384,17.8742201167984,5.754592563843384L17.9979818167984,6.597244258843384C18.0012271167984,6.618422628843383,17.9923864167984,6.639642118843383,17.9750627167984,6.652249748843384Z" fill="#FF9650" fill-opacity="1" style="mix-blend-mode:passthrough"/><path d="M18.4705876967984,7.304639611343384L18.0355110188584,10.976631211343385C18.0305334114984,11.017965111343383,18.0699066337984,11.050640811343383,18.1096155867984,11.038130011343384L21.691842166798402,9.930382711343384C21.7120698667984,9.924136411343383,21.7272032667984,9.907246111343383,21.7312015667984,9.886457911343385C21.735199766798402,9.865669711343383,21.7274080667984,9.844370611343384,21.7109411667984,9.831067311343384L18.5637913967984,7.266441429343383C18.5475144367984,7.2531493536633835,18.5252679567984,7.249834349143383,18.505823786798402,7.257803619843384C18.486377296798402,7.265772891343384,18.4728549967984,7.283747503343384,18.4705876967984,7.304639611343384Z" fill="#FF9650" fill-opacity="1" style="mix-blend-mode:passthrough"/><path d="M3.7709923667984007,17.649911761343382Q4.0632084667984,17.993695461343385,4.5983651667984,18.272923961343384C4.6102276667984015,18.278930861343383,4.6141637667984,18.293960561343383,4.606768766798401,18.305010361343385L4.4096661667984005,18.603720461343386C4.403053666798401,18.613406461343384,4.390197166798401,18.616537361343383,4.3798714667984004,18.610978361343385Q3.539511566798401,18.143814061343384,3.222466566798401,17.437912461343384C3.218646366798401,17.430933261343384,3.211323766798401,17.426593261343385,3.203367866798401,17.426593261343385C3.195411566798401,17.426593261343385,3.188088766798401,17.430933261343384,3.184268466798401,17.437912461343384Q2.865313666798401,18.102560561343385,1.9959230167984008,18.629313661343385C1.9855155967984008,18.635426761343382,1.9721507767984008,18.632419061343384,1.965364466798401,18.622438161343382L1.7652059569984009,18.314559961343384C1.758102894498401,18.303582161343385,1.762001731728401,18.288873161343382,1.7736095577984008,18.282855961343383C2.085063066798401,18.123253061343384,2.3640799567984008,17.907060661343383,2.596398416798401,17.645328261343384C2.802350166798401,17.413869461343385,2.935250566798401,17.126670961343383,2.978380066798401,16.819866161343384C2.980222966798401,16.806399861343383,2.9698164667984006,16.794377761343384,2.9562251667984007,16.794272861343384L1.8607014197984009,16.794272861343384C1.848465569798401,16.794272861343384,1.8385464697984009,16.784353761343382,1.8385464697984009,16.772118461343382L1.8385464697984009,16.463858901343382C1.8385468347984009,16.451623501343384,1.8484658447984008,16.441704451343384,1.8607014197984009,16.441704451343384L2.973032366798401,16.441704451343384C2.985417166798401,16.441918911343382,2.995571266798401,16.431936921343382,2.995569366798401,16.419550001343385L2.995569366798401,15.717466147343384C2.9953560667984007,15.705081581343384,3.005337966798401,15.694928195627384,3.017724366798401,15.694929361343384L3.345082766798401,15.694929361343384C3.357469466798401,15.694928195627384,3.367451166798401,15.705081581343384,3.367237766798401,15.717466147343384L3.367237766798401,16.419548871343384C3.3672382667984007,16.431784211343384,3.377157166798401,16.441703261343385,3.389392866798401,16.441703261343385L4.514711066798401,16.441703261343385C4.526946666798401,16.441703261343385,4.536865866798401,16.451622431343385,4.536865866798401,16.463857771343385L4.536865866798401,16.772117261343382C4.536866266798401,16.784352661343384,4.526947166798401,16.794271661343384,4.514711066798401,16.794271661343384L3.357688066798401,16.794271661343384L3.357688066798401,16.813370861343383C3.4260899667984006,17.121428761343385,3.567877566798401,17.408410561343384,3.7709923667984007,17.649911761343382Z" fill="#323232" fill-opacity="1" style="mix-blend-mode:passthrough"/><path d="M7.416606116798401,17.818331961343382C7.519866116798401,17.949653361343383,7.645098116798401,18.062091561343383,7.786746616798401,18.150656661343383C7.797138616798401,18.157191761343384,7.800077116798401,18.171020761343385,7.793240416798401,18.181214561343385L7.6263145167984,18.431794661343382C7.6193467167984,18.442387561343384,7.605015616798401,18.445150161343385,7.594609616798401,18.437906461343385C7.4330522167984014,18.326429161343384,7.291071516798401,18.188966761343384,7.174429816798401,18.031095961343382C7.053745616798401,17.861887961343385,6.952397716798401,17.679692261343384,6.872282216798401,17.487918061343382C6.8677090167984005,17.476457861343384,6.854535816798401,17.471085061343384,6.843251816798401,17.476076461343382L6.733240816798401,17.523824561343385C6.723313616798401,17.527879861343383,6.717923316798401,17.538660561343384,6.7206353167984005,17.549035261343384C6.758287916798401,17.711814661343382,6.776115916798401,17.878551461343385,6.773730716798401,18.045611661343383C6.778377416798401,18.158281561343383,6.761524516798401,18.270806761343383,6.7240729167984,18.377171761343384C6.692742016798401,18.455519461343386,6.631810616798401,18.518371061343384,6.554472916798401,18.552118561343384C6.447716816798401,18.593013061343385,6.333680916798401,18.611478061343384,6.219474716798401,18.606360661343384L5.888678316798401,18.606360661343384C5.878016416798401,18.606257961343385,5.868833186798401,18.598817061343382,5.866523326798401,18.588407561343384L5.817629636798401,18.328278061343383C5.814987306798401,18.314601661343385,5.825472656798401,18.301908261343385,5.839402556798401,18.301921161343383L6.113665716798401,18.301921161343383C6.179729616798401,18.304531061343383,6.245779416798401,18.296403661343383,6.309240416798401,18.277856161343383C6.351975916798401,18.263694961343383,6.386422116798401,18.231618861343385,6.403589916798401,18.190000761343384C6.424669816798401,18.130346261343384,6.434008916798401,18.067177261343385,6.431092716798401,18.003975661343382C6.431092716798401,17.968069361343385,6.431092716798401,17.921849761343385,6.426890816798401,17.864933961343382C6.426541816798401,17.856608161343384,6.421550116798401,17.849182561343383,6.413972116798401,17.845715961343384C6.406394016798401,17.842248961343383,6.3975119167984005,17.843328461343383,6.390984416798401,17.848509061343385C6.210646616798401,17.989197961343383,6.016796716798401,18.111649561343384,5.812281966798401,18.214065761343385C5.582097116798401,18.332551261343383,5.344374056798401,18.435781261343383,5.100649966798401,18.523088661343383C5.089904966798401,18.526737461343384,5.078122796798401,18.521828661343385,5.073147226798401,18.511629861343383L4.955497331698401,18.268306761343382C4.949177111298401,18.256085161343385,4.955635469198401,18.241138261343384,4.968866636798401,18.237366161343385C5.238251086798401,18.155871161343384,5.500943366798401,18.053706361343384,5.754603266798401,17.931780561343384C5.971874116798401,17.828576361343384,6.177416016798401,17.702306061343386,6.367683816798401,17.555147061343384C6.374896516798401,17.549097161343383,6.377759916798401,17.539301561343382,6.3749416167984005,17.530318661343383C6.3615722167984,17.488300361343384,6.348584816798401,17.453922261343383,6.336743316798401,17.422981761343383C6.331399516798401,17.410026061343384,6.315520216798401,17.405225661343383,6.303893016798401,17.413049961343383C6.133681516798401,17.528389261343385,5.954902616798401,17.630549161343385,5.769118426798401,17.718635561343383C5.562008556798401,17.818291161343385,5.348821846798401,17.904790861343383,5.130826846798401,17.977618961343385C5.119551166798401,17.981498461343385,5.1072275067984005,17.975758361343384,5.102942046798401,17.964631761343384L5.010502513798401,17.728184961343384C5.005697436798401,17.716231561343385,5.012263912798401,17.702744261343383,5.024635947798401,17.699153861343383C5.233116986798401,17.638079661343383,5.4372932867984005,17.563173061343385,5.635806856798401,17.474930761343384C5.825914206798401,17.391981861343385,6.009748716798401,17.295341861343385,6.185860716798401,17.185770261343382C6.196344116798401,17.178941461343385,6.199259116798401,17.164880661343382,6.192354316798401,17.154447461343384C6.178221016798401,17.133438961343384,6.160649816798401,17.108227961343385,6.138876816798401,17.078051061343384C6.1324785167984,17.069558861343385,6.121015416798401,17.066692461343383,6.111374116798401,17.071175861343384C5.800428386798401,17.222100961343383,5.477104246798401,17.346063261343385,5.1449602667984005,17.441698661343384C5.133586976798401,17.445258761343382,5.121434956798401,17.439182861343383,5.117457556798401,17.427947761343383L5.027309812798401,17.182333661343385C5.0231176017984005,17.169945761343385,5.030315898798401,17.156601661343384,5.042971200798401,17.153302761343383Q5.689284386798401,16.991724161343384,6.107554516798401,16.781633961343385C6.116804616798401,16.777063261343383,6.121675816798401,16.766714061343382,6.119302616798401,16.756672461343385C6.116929616798401,16.746632361343384,6.107939816798401,16.739559861343384,6.097623116798401,16.739615761343384L5.514336646798401,16.739615761343384C5.5020374667984004,16.739616961343383,5.492008206798401,16.729758461343383,5.491799826798401,16.717461361343382L5.491799826798401,16.498967831343382C5.492008446798401,16.486670611343385,5.5020377667984,16.476811051343383,5.514336646798401,16.476813321343386L7.251589916798401,16.476813321343386C7.2638255167984,16.476813321343386,7.273744716798401,16.486732361343385,7.273744716798401,16.498967831343382L7.273744716798401,16.717461361343382C7.273744716798401,16.729696761343384,7.2638255167984,16.739615761343384,7.251589916798401,16.739615761343384L6.669067516798401,16.739615761343384C6.6642850167984005,16.739611161343383,6.6596175167984,16.741077661343382,6.655697916798401,16.743817061343385C6.577268016798401,16.803038961343383,6.495794616798401,16.858120161343383,6.411611416798401,16.908833461343384C6.4000089167984004,16.915923361343385,6.397471116798401,16.931694261343385,6.406263716798401,16.942065761343382C6.482425616798401,17.029841761343384,6.547826016798401,17.126403961343385,6.601074416798401,17.229697961343383C6.606378416798401,17.240422461343385,6.619343016798401,17.244858061343383,6.630105216798401,17.239629861343385C6.9011906167984005,17.110954661343385,7.164336316798401,16.966179761343383,7.418133816798401,16.806080361343383C7.428650216798401,16.799349461343382,7.442648316798401,16.802633261343384,7.4490744167984015,16.813337961343382L7.592699216798401,17.053986061343384C7.5989779167984,17.064244361343384,7.595926616798401,17.077638361343382,7.5858239167984,17.084162961343385Q7.405910816798401,17.198757361343382,7.159914416798401,17.322901561343382C7.149316416798401,17.328495961343386,7.144690116798401,17.341217261343385,7.149218916798401,17.352313761343385C7.219230816798401,17.517867561343383,7.309011816798401,17.674342861343384,7.416606116798401,17.818331961343382ZM5.382935076798401,16.274743441343382L5.382935076798401,16.583002981343384C5.382935076798401,16.595239521343384,5.373015726798401,16.605158691343384,5.360780086798401,16.605157491343384L5.078495536798401,16.605157491343384C5.066111246798401,16.605372071343385,5.0559572767984005,16.595389901343385,5.0559587367984005,16.583002981343384L5.0559587367984005,15.976415781343384C5.0559572767984005,15.964030091343384,5.066110946798401,15.954048041343384,5.078495536798401,15.954261391343383L6.1977020167984005,15.954261391343383C6.213070616798401,15.953870861343384,6.223545716798401,15.938546361343384,6.218329116798401,15.924084481343384C6.183568616798401,15.827060791343383,6.156829916798401,15.754102121343383,6.137348916798401,15.704827308343384C6.131937216798401,15.691397104343384,6.140899316798401,15.676523730343384,6.155302016798401,15.675032779343384L6.502141616798401,15.632633361633383C6.512604216798401,15.631198365343383,6.522588016798401,15.637479242843384,6.525824616798401,15.647531210343384C6.5365200167984,15.679617542343383,6.559438816798401,15.741498401343383,6.594581316798401,15.832410241343384L6.636981216798401,15.940129401343384C6.640373916798401,15.948571501343384,6.648510116798401,15.954147101343384,6.657607916798401,15.954262521343384L7.694688716798401,15.954262521343384C7.7069248167984,15.954262521343384,7.7168444167984,15.964181631343385,7.7168439167984015,15.976416971343383L7.7168439167984015,16.587586641343385C7.7168439167984015,16.599821981343382,7.7069248167984,16.609741091343384,7.694688716798401,16.609741091343384L7.412022516798401,16.609741091343384C7.399489716798401,16.610173581343386,7.389097116798401,16.600127461343384,7.389103316798401,16.587586641343385L7.389103316798401,16.276271701343383C7.389103316798401,16.264036361343383,7.379184316798401,16.254117251343384,7.3669485167984,16.254117251343384L5.405089826798401,16.254117251343384C5.393426806798401,16.254089351343385,5.383739436798401,16.263108491343385,5.382935076798401,16.274743441343382Z" fill="#323232" fill-opacity="1" style="mix-blend-mode:passthrough"/><path d="M11.0011456792984,17.777838248843384L11.0011456792984,18.077311948843384C11.0011456792984,18.089547348843382,10.9912265792984,18.099466348843382,10.978990479298401,18.099466348843382L9.8853771792984,18.099466348843382C9.8732036792984,18.099251948843385,9.8632197792984,18.109063648843385,9.863222079298401,18.121239648843385L9.863222079298401,18.615524048843383C9.863222079298401,18.627759648843384,9.853302979298402,18.637678348843384,9.841067079298401,18.637678348843384L9.528223879298402,18.637678348843384C9.5159878792984,18.637678348843384,9.5060687792984,18.627759648843384,9.5060687792984,18.615524048843383L9.5060687792984,18.120476048843383C9.506287379298401,18.108361948843385,9.496410379298402,18.098484948843385,9.4842955792984,18.098702948843382L8.202747192298402,18.098702948843382C8.1905118384984,18.098704148843385,8.180592762156381,18.088785148843385,8.1805921792984,18.076548348843385L8.1805921792984,17.777838248843384C8.180592762156381,17.765603048843385,8.1905112554984,17.755683948843384,8.202747192298402,17.755683948843384L9.4823860792984,17.755683948843384C9.4945615792984,17.755686248843382,9.5043726792984,17.745703248843384,9.504159479298401,17.733529548843386L9.504159479298401,17.377140948843383C9.5043726792984,17.364967448843384,9.4945615792984,17.354984448843382,9.4823860792984,17.354986648843383L8.513680339298402,17.354986648843383C8.5014444292984,17.354986648843383,8.491525949298401,17.345067548843385,8.4915253192984,17.332832048843382L8.4915253192984,17.032212648843384C8.491520669298401,17.027485848843384,8.4931386992984,17.022900848843385,8.496108949298401,17.019225448843383C8.6317434592984,16.834522348843382,8.752084969298402,16.639062168843385,8.8559356892984,16.434790308843382C8.863549529298401,16.420006688843383,8.853079139298401,16.402349648843384,8.8364548692984,16.401940408843384L8.289457229298401,16.401940408843384C8.2772824842984,16.402153788843385,8.267299287298401,16.392343108843384,8.2673022152984,16.380167188843384L8.2673022152984,16.091006698843383C8.2673022152984,16.078771348843382,8.2772212852984,16.068852248843385,8.289457229298401,16.068852248843385L9.0220979492984,16.068852248843385C9.0309038192984,16.068814958843383,9.0388516192984,16.063566918843385,9.0423430192984,16.055482688843384Q9.1496797792984,15.814834628843384,9.197045679298402,15.673500889843384C9.200514279298401,15.662966314743384,9.2114598792984,15.656829986043384,9.2222566792984,15.659367749643383L9.548851179298401,15.723922758843385C9.5622002792984,15.726598083843383,9.5700007792984,15.740566849843384,9.565276179298401,15.753334946843383Q9.513326479298401,15.884736758843383,9.4472437792984,16.037529468843385C9.441031679298401,16.052190688843385,9.451569779298401,16.068494408843385,9.467488779298401,16.068852248843385L10.8892253792984,16.068852248843385C10.9014609792984,16.068852248843385,10.9113808792984,16.078771348843382,10.911380179298401,16.091006698843383L10.911380179298401,16.380167188843384C10.911382579298401,16.392343108843384,10.901399279298401,16.402153788843385,10.8892253792984,16.401940408843384L9.287193379298401,16.401940408843384C9.2788393792984,16.402089658843384,9.2712284792984,16.406773448843385,9.267330179298401,16.414164128843385C9.168514189298401,16.612174928843384,9.0584508192984,16.804371148843384,8.937679829298402,16.989810948843385C8.9331200692984,16.996529148843383,8.932677149298401,17.005226348843383,8.9365315392984,17.012372248843384C8.940385399298401,17.019518048843384,8.947896059298401,17.023926748843383,8.9560147492984,17.023807848843383L9.4823860792984,17.023807848843383C9.494562079298401,17.023811448843382,9.504373179298401,17.013828148843384,9.504159479298401,17.001653448843385L9.504159479298401,16.579179348843383C9.504159479298401,16.566944058843383,9.514078479298401,16.557024958843385,9.526314379298402,16.557024958843385L9.8410675792984,16.557024958843385C9.853303679298401,16.557024958843385,9.863222579298402,16.566944058843383,9.863222579298402,16.579179348843383L9.863222579298402,17.002797048843384C9.863222579298402,17.015032448843385,9.8731417792984,17.024951448843385,9.8853777792984,17.024951448843385L10.7322312792984,17.024951448843385C10.744466679298402,17.024951448843385,10.754385379298402,17.034870548843383,10.754386279298402,17.047105948843384L10.754386279298402,17.332828748843383C10.754385379298402,17.345064148843385,10.744466679298402,17.354983248843382,10.7322312792984,17.354983248843382L9.8853771792984,17.354983248843382C9.873141079298401,17.354983248843382,9.863222079298401,17.364902248843382,9.863222079298401,17.377137548843383L9.863222079298401,17.733528348843382C9.863222079298401,17.745764948843384,9.873141079298401,17.755683948843384,9.8853771792984,17.755682748843384L10.979754579298401,17.755682748843384C10.9916912792984,17.756095648843385,11.0011523792984,17.765894448843383,11.0011456792984,17.777838248843384Z" fill="#323232" fill-opacity="1" style="mix-blend-mode:passthrough"/><path d="M12.2101049467984,17.400318291343385L11.7795402797984,17.400318291343385C11.767351560298401,17.400320591343384,11.7575305670284,17.390326921343384,11.757744117627901,17.378140541343384L11.757744117627901,16.947575865343385C11.7575305670284,16.935389477743385,11.767351560298401,16.925395777457183,11.7795402797984,16.925398111343384L12.2101049467984,16.925398111343384C12.2223531867984,16.925398111343384,12.2322826967984,16.935327629543384,12.2322826967984,16.947575865343385L12.2322826967984,17.378140541343384C12.2322826967984,17.390388791343383,12.2223531867984,17.400318291343385,12.2101049467984,17.400318291343385Z" fill="#323232" fill-opacity="1" style="mix-blend-mode:passthrough"/><path d="M13.4922924042984,17.196317123843382Q13.2653951042984,17.009146323843385,12.9762345961984,16.785304323843384C12.966758490018401,16.777787823843383,12.964905001698401,16.764133723843383,12.9720333548984,16.754363923843385L13.1473628542984,16.520208833843384C13.1547931442984,16.510371383843385,13.1687490942984,16.508329093843383,13.1786856542984,16.515625293843385Q13.4342316042984,16.708907923843384,13.7012364842984,16.918234323843382C13.7107102842984,16.925750923843385,13.712563754298401,16.939404923843384,13.7054377842984,16.949174923843383L13.5239963542984,17.192114723843385C13.5166768442984,17.202495423843384,13.5020622642984,17.204431623843384,13.4922924042984,17.196317123843382ZM13.017870474298402,18.459148923843383L13.4185690542984,17.417484923843382C13.423330964298401,17.406001323843384,13.4363811342984,17.400408223843385,13.4479812042984,17.404879923843385L13.7371417242984,17.525968823843385C13.7481181042984,17.530403123843385,13.7536692642984,17.542683823843383,13.749746624298401,17.553853723843385L13.3643271042984,18.598955423843385C13.3598787442984,18.610746623843383,13.346625714298401,18.616598623843384,13.3349149242984,18.611942723843384L13.0293294562984,18.487798423843383C13.0185454222984,18.482770723843384,13.013528179298401,18.470226523843383,13.017870474298402,18.459148923843383ZM13.5877878642984,16.371999803843384Q13.4590601342984,16.271920743843385,13.098469244298402,16.005679373843385C13.088791464298401,15.998398303843384,13.086448374298401,15.984845693843384,13.093120934298401,15.974738923843384L13.2634845042984,15.731799088843383C13.2706548242984,15.721942953843383,13.284362494298401,15.719573050843383,13.2944249242984,15.726450785843383L13.4090194742984,15.806667183843384Q13.476629854298402,15.854797273843383,13.6076505142984,15.951056273843383C13.6840468042984,16.007589993843382,13.7447818542984,16.052281203843386,13.787182394298402,16.085513413843383C13.796271444298402,16.092716363843383,13.798270764298401,16.105708303843382,13.7917660442984,16.115307983843383L13.6210200742984,16.367033783843382C13.6141062342984,16.378894983843384,13.598074194298402,16.381475863843384,13.5877878642984,16.372382163843383L13.5877878642984,16.371999803843384ZM13.6576900442984,16.641296443843384C13.6503518242984,16.633157433843383,13.6503518242984,16.620787973843385,13.6576900442984,16.612647893843384C13.776211794298401,16.471624133843385,13.882050754298401,16.320408703843384,13.9739708542984,16.160763863843385C14.0669962542984,16.003857373843385,14.142813254298401,15.837367473843385,14.2001045542984,15.664187562843384C14.203591354298402,15.653265969343384,14.2149500542984,15.646918646743384,14.226079254298401,15.649672067603383L14.527844554298401,15.722248375843384C14.5408796542984,15.725306048843384,14.548245654298402,15.739138424843384,14.543506054298401,15.751660553843383C14.5263162542984,15.795970573843384,14.5026335542984,15.854413743843384,14.4724580542984,15.927753593843384C14.4661571542984,15.942343683843383,14.476810554298401,15.958626423843384,14.492702954298402,15.958694013843385L15.696709254298401,15.958694013843385C15.7089444542984,15.958695203843384,15.718863354298401,15.968613083843383,15.718863354298401,15.980848463843383L15.718863354298401,16.257021663843382C15.718863354298401,16.269257013843383,15.7089444542984,16.279174983843383,15.696709254298401,16.279176113843384L14.311643854298401,16.279176113843384C14.303634254298402,16.279119013843385,14.296263454298401,16.283540543843383,14.292544754298401,16.290635163843383C14.260840754298401,16.347932393843383,14.226080454298401,16.408667323843385,14.1874997542984,16.472840013843385C14.178769854298402,16.487602653843382,14.189073554298401,16.506318213843382,14.206216454298401,16.506836953843383L15.513358254298401,16.506836953843383C15.525593654298401,16.506836953843383,15.5355128542984,16.516756113843385,15.5355128542984,16.528991343843384L15.5355128542984,16.792177423843384C15.5355128542984,16.804412723843384,15.525593654298401,16.814331723843384,15.513358254298401,16.814331723843384L14.1733654542984,16.814331723843384C14.1611300542984,16.814330723843383,14.1512122542984,16.804412723843384,14.1512110542984,16.792177423843384L14.1512110542984,16.606916013843385C14.1512063542984,16.597058713843385,14.144690054298401,16.588390413843385,14.135222054298401,16.585647583843382C14.1257541542984,16.582904573843383,14.1156135542984,16.586746753843382,14.1103386542984,16.595074653843383Q14.007967854298402,16.750922723843384,13.907888774298401,16.883089323843382C13.8988871542984,16.893704323843384,13.8825123942984,16.893704323843384,13.873510714298401,16.883089323843382L13.6576900442984,16.641296443843384ZM15.846827654298401,17.898398623843384C15.856091654298401,17.902740923843382,15.861267654298402,17.912780023843382,15.859432554298401,17.922846123843385C15.842625254298401,18.012993123843383,15.8231438542984,18.098938923843384,15.799843654298401,18.181447223843385C15.7811652542984,18.252593323843385,15.757028254298401,18.322192423843383,15.7276486542984,18.389627723843383C15.704781654298401,18.459419023843385,15.6654807542984,18.522694323843382,15.613053954298401,18.574124623843385C15.5669056542984,18.614006023843384,15.507478354298401,18.635133523843383,15.446510154298402,18.633331023843382Q15.238712154298401,18.633331023843382,15.1294659542984,18.424769623843382Q14.987750854298401,18.168459923843383,14.988132154298402,17.604654623843384L14.988132154298402,17.375465423843384C14.988133354298402,17.363230123843383,14.978214154298401,17.353311223843384,14.9659777542984,17.353311223843384L13.8494456442984,17.353311223843384C13.837210294298401,17.353312123843384,13.8272900542984,17.343391923843384,13.8272911942984,17.331156623843384L13.8272911942984,17.053456323843385C13.8272900542984,17.041221023843384,13.8372091042984,17.031302023843384,13.8494456442984,17.031302023843384L15.314727454298401,17.031302023843384C15.3269637542984,17.031302023843384,15.336882954298401,17.041221023843384,15.336881754298402,17.053456323843385L15.336881754298402,17.542392323843384Q15.336881754298402,17.939653423843385,15.372024454298401,18.080604823843384C15.378341554298402,18.119730723843382,15.3885787542984,18.158121123843383,15.402582554298402,18.195199023843383Q15.417098154298401,18.227285623843382,15.4407809542984,18.227285623843382C15.460360154298401,18.225870323843385,15.477828654298401,18.214465123843382,15.4870001542984,18.197108723843385C15.5064352542984,18.162671123843385,15.5199900542984,18.125232023843385,15.5271078542984,18.086334223843384C15.5271078542984,18.082133023843383,15.5435327542984,17.989310523843383,15.5763839542984,17.807105523843383C15.579070954298402,17.792799923843383,15.5944117542984,17.784756623843386,15.6077066542984,17.790680623843382L15.846827654298401,17.898398623843384Z" fill="#323232" fill-opacity="1" style="mix-blend-mode:passthrough"/><path d="M19.0134588917984,17.777825348843383L19.0134588917984,18.077299148843384C19.0134597917984,18.089534548843382,19.0035408917984,18.099453648843383,18.991304491798402,18.099453648843383L17.8976901917984,18.099453648843383C17.885664591798403,18.099453648843383,17.8759167917984,18.109201148843383,17.8759167917984,18.121227048843384L17.8759167917984,18.615511148843385C17.8759179917984,18.627746848843383,17.8659990917984,18.637665748843382,17.8537625917984,18.637665748843382L17.5390097917984,18.637665748843382C17.526774491798403,18.637665748843382,17.516855491798403,18.627746848843383,17.516855491798403,18.615511148843385L17.516855491798403,18.120463148843385C17.5168577917984,18.108287348843383,17.5068746917984,18.098476648843384,17.4947009917984,18.098690048843384L16.2154419237984,18.098690048843384C16.203206569898402,18.098690048843384,16.1932886575144,18.088771148843385,16.1932874917984,18.076535748843384L16.1932874917984,17.777825348843383C16.1932886575144,17.765590148843383,16.203206569898402,17.755672448843384,16.2154419237984,17.755671248843385L17.4946986917984,17.755671248843385C17.5069340917984,17.755671248843385,17.5168530917984,17.745752048843386,17.5168530917984,17.733516648843384L17.5168530917984,17.377128248843384C17.516854291798403,17.364892848843382,17.5069351917984,17.354973748843385,17.4946986917984,17.354973748843385L16.5263757117984,17.354973748843385C16.5141403117984,17.354973748843385,16.5042212617984,17.345054748843385,16.5042212617984,17.332819348843383L16.5042212617984,17.032199848843383C16.504271361798402,17.027545248843385,16.5057366517984,17.023015148843385,16.5084225217984,17.019212748843383C16.644329841798402,16.834692548843385,16.7646853317984,16.639210278843382,16.8682498917984,16.434777498843385C16.8764063717984,16.419980998843386,16.8656643017984,16.401867028843384,16.8487684117984,16.401927648843383L16.3017701917984,16.401927648843383C16.2896560727984,16.402145628843385,16.2797789577984,16.392268478843384,16.2799969387984,16.380154428843383L16.2799969387984,16.090993878843385C16.2797836217984,16.078820288843385,16.2895942777984,16.068837108843383,16.3017701917984,16.068839428843383L17.0344110117984,16.068839428843383C17.0432692717984,16.068666938843382,17.0512626217984,16.063485298843382,17.0550383917984,16.055469868843385Q17.1616116717984,15.814821798843385,17.2097405917984,15.673488065843383C17.2130475917984,15.663008280543384,17.2238701917984,15.656847471943383,17.234569091798402,15.659354926723383L17.561163091798402,15.723909936843384C17.5746957917984,15.726329967843384,17.5826261917984,15.740530721843383,17.5775880917984,15.753322124843384Q17.5256391917984,15.884723948843384,17.4595557917984,16.037899018843383C17.453252791798402,16.052487938843385,17.4639085917984,16.068772998843382,17.479800691798403,16.068839428843383L18.9015372917984,16.068839428843383C18.9137724917984,16.068839428843383,18.923691891798402,16.078758538843385,18.923691891798402,16.090993878843385L18.923691891798402,16.380154428843383C18.9236937917984,16.392330228843385,18.9137106917984,16.402140918843383,18.9015372917984,16.401927648843383L17.2995065917984,16.401927648843383C17.2912659917984,16.402132808843383,17.283794991798402,16.406820118843385,17.2800250917984,16.414151308843383C17.180947361798403,16.612099168843383,17.0707604317984,16.804287148843382,16.9499921817984,16.989798148843384C16.945433081798402,16.996516248843385,16.9449901617984,17.005213648843384,16.948843951798402,17.012359348843383C16.9526978117984,17.019505248843384,16.9602085317984,17.023913948843383,16.968327761798403,17.023795048843382L17.4946986917984,17.023795048843382C17.5069351917984,17.023795048843382,17.516854291798403,17.013875948843385,17.5168530917984,17.001640648843384L17.5168530917984,16.579166588843385C17.5168530917984,16.566931248843385,17.5267720917984,16.557012138843383,17.539007591798402,16.557012138843383L17.8537602917984,16.557012138843383C17.8659956917984,16.557012138843383,17.8759146917984,16.566931248843385,17.8759146917984,16.579166588843385L17.8759146917984,17.002784248843383C17.8759134917984,17.014872648843383,17.8856017917984,17.024731148843383,17.8976878917984,17.024938548843384L18.7445419917984,17.024938548843384C18.7567773917984,17.024939748843384,18.7666953917984,17.034857748843383,18.7666965917984,17.047093148843384L18.7666965917984,17.332815848843385C18.7666953917984,17.345051148843385,18.7567773917984,17.354969148843384,18.7445419917984,17.354970348843384L17.8976901917984,17.354970348843384C17.8856039917984,17.355178948843385,17.8759156917984,17.365036148843384,17.8759167917984,17.377124648843385L17.8759167917984,17.733515548843386C17.8759156917984,17.745604048843383,17.8856039917984,17.755462448843385,17.8976901917984,17.755669848843382L18.991304491798402,17.755669848843382C19.0035408917984,17.755671248843385,19.0134597917984,17.765590148843383,19.0134588917984,17.777825348843383Z" fill="#323232" fill-opacity="1" style="mix-blend-mode:passthrough"/><path d="M21.5942519417984,17.957406761343385C21.5850569417984,17.957051061343385,21.5765401417984,17.962230461343385,21.5726257417984,17.970559561343386C21.568711141798403,17.978888561343382,21.5701567417984,17.988751661343382,21.5763000417984,17.995604961343382C21.6444267417984,18.075637061343382,21.7274538417984,18.141670261343386,21.8207694417984,18.190033461343383C21.9551998417984,18.257958461343385,22.0980280417984,18.307794061343383,22.2455331417984,18.338242761343384C22.2582484417984,18.341041361343382,22.2659539417984,18.354000561343383,22.2623401417984,18.366508961343385L22.1859439417984,18.624346761343382C22.1824351417984,18.635893061343385,22.1705752417984,18.642740461343383,22.1588224417984,18.640007961343382Q21.6240478417984,18.510515461343385,21.3513120417984,18.164822561343385C21.3426019417984,18.153278361343382,21.3252630417984,18.153278361343382,21.3165528417984,18.164822561343385Q21.0808696417984,18.470408161343386,20.4731375417984,18.642299661343383C20.4616750417984,18.645612761343383,20.4496157417984,18.639415461343383,20.4456348417984,18.628166661343386L20.3848998417984,18.457420861343383C20.381986641798402,18.449373761343384,20.3747686417984,18.443670961343383,20.3662657417984,18.442700161343385C20.3577631417984,18.441727861343384,20.349444541798402,18.445655061343384,20.3447922417984,18.452837261343383C20.326838971798402,18.483306661343384,20.300252561798402,18.507765561343383,20.2683957817984,18.523121561343384C20.2029268717984,18.549865461343384,20.132371961798402,18.561862961343383,20.0617435017984,18.558264261343382L19.8459240217984,18.558264261343382C19.8352460517984,18.558429961343386,19.8260241117984,18.550826061343383,19.8241508017984,18.540311361343385L19.7722018317984,18.284002061343383C19.7695649817984,18.270113461343385,19.780219581798402,18.257254561343384,19.7943562517984,18.257262661343383L19.956696211798402,18.257262661343383C20.020487661798402,18.257262661343383,20.0613588717984,18.249622561343383,20.0781661317984,18.234725961343383C20.094973441798402,18.219829361343383,20.1041405817984,18.184686461343382,20.1041405817984,18.128917461343384L20.1041405817984,17.659461361343382C20.1039366117984,17.647100061343384,20.0939650517984,17.637128561343385,20.0816038217984,17.636924661343382L19.8268214417984,17.636924661343382C19.8149567817984,17.637109861343383,19.8052685217984,17.646464861343382,19.8046670217984,17.658315661343384C19.7956548617984,17.838194861343382,19.7720211417984,18.017042361343385,19.7340001417984,18.193089961343382C19.7020968217984,18.331574661343385,19.6542861417984,18.465905861343384,19.5915205217984,18.593407361343385C19.5848701017984,18.606568061343385,19.5677002517984,18.610114561343384,19.5563776617984,18.600664861343382L19.3455252898984,18.423807361343385C19.3378187417984,18.417177961343384,19.3356132071984,18.406153961343385,19.340176985098402,18.397068061343383C19.3872882317984,18.300094561343386,19.4256391227984,18.199105061343385,19.4547715217984,18.095302861343384C19.4843958717984,17.971823261343385,19.5025542417984,17.845870961343383,19.5090134617984,17.719050361343385Q19.5250572117984,17.486423761343385,19.5250572117984,17.047526961343383L19.5250572117984,15.845811471343383C19.5250572117984,15.833365131343383,19.5351476517984,15.823274671343384,19.547594011798402,15.823274671343384L20.361597141798402,15.823274671343384C20.3741332417984,15.823056701343384,20.3843531417984,15.833275361343384,20.3841339417984,15.845811471343383L20.3841339417984,18.249241561343382C20.3841339417984,18.268340361343384,20.3841339417984,18.291640761343384,20.3806963417984,18.319908161343385C20.3792786417984,18.335672361343384,20.3941274417984,18.347947361343383,20.409344941798402,18.343590961343384C20.5611316417984,18.306508261343385,20.708051341798402,18.251766461343383,20.8470957417984,18.180485261343385C20.934795941798402,18.134860261343384,21.0119594417984,18.071358961343385,21.0736106417984,17.994077961343383C21.0801701417984,17.987351661343382,21.0818685417984,17.977261061343384,21.0778725417984,17.968757361343386C21.0738763417984,17.960253461343385,21.0650239417984,17.955121961343384,21.0556573417984,17.955879661343385L20.4826847417984,17.955879661343385C20.4703853417984,17.955880861343385,20.4603555417984,17.946021361343384,20.4601479417984,17.933725161343382L20.4601479417984,17.696514861343385C20.4603519417984,17.684153561343383,20.4703235417984,17.674182161343385,20.4826847417984,17.673978061343384L21.174835641798403,17.673978061343384L21.174835641798403,17.667483761343384C21.1767450417984,17.648002461343385,21.177890941798402,17.600254761343383,21.177890941798402,17.523858161343384C21.178324441798402,17.511325861343384,21.1682772417984,17.500931061343383,21.1557364417984,17.500939261343383L20.6171419417984,17.500939261343383C20.604756241798402,17.500941661343383,20.5947741417984,17.490787061343383,20.5949875417984,17.478402361343385L20.5949875417984,16.467296661343383C20.5949863417984,16.455061201343383,20.6049053417984,16.445142151343383,20.6171419417984,16.445142151343383L22.0595058417984,16.445142151343383C22.0717409417984,16.445142151343383,22.0816611417984,16.455061201343383,22.0816611417984,16.467296661343383L22.0816611417984,17.479930661343385C22.0818733417984,17.492315261343386,22.0718928417984,17.502468561343385,22.0595058417984,17.502467361343385L21.5063966417984,17.502467361343385C21.493949041798402,17.502674961343384,21.4840265417984,17.512938061343384,21.4842411417984,17.525386661343383C21.4842411417984,17.596434761343385,21.4842411417984,17.645329461343383,21.4808024417984,17.672449861343384L21.4808024417984,17.675505261343385L22.2103887417984,17.675505261343385C22.222687141798403,17.675712561343385,22.2325469417984,17.685742361343383,22.2325445417984,17.698041961343385L22.2325445417984,17.935252461343385C22.2325445417984,17.947487561343383,22.222624441798402,17.957406761343385,22.2103887417984,17.957406761343385L21.5942519417984,17.957406761343385ZM20.1045229417984,16.557061371343384L20.1045229417984,16.156745161343384C20.1045229417984,16.144298821343384,20.0944325917984,16.134208381343385,20.0819861917984,16.134208381343385L19.838281631798402,16.134208381343385C19.825834091798402,16.134208381343385,19.8157436517984,16.144298821343384,19.8157447917984,16.156745161343384L19.8157447917984,16.557062561343383C19.8157436517984,16.569508851343382,19.825834091798402,16.579599381343385,19.838281631798402,16.579599381343385L20.0819861917984,16.579599381343385C20.093832191798402,16.578793761343384,20.1030215617984,16.568936591343384,20.1029947417984,16.557062561343383L20.1045229417984,16.557061371343384ZM19.8371356717984,17.332483961343385L20.080840291798403,17.332483961343385C20.093139771798402,17.332485061343384,20.1031684317984,17.322626561343384,20.1033770417984,17.310329461343382L20.1033770417984,16.919180561343385C20.1031730217984,16.906819261343383,20.093201521798402,16.896847861343385,20.080840291798403,16.896643761343384L19.8371356717984,16.896643761343384C19.8247744417984,16.896847861343385,19.814802911798402,16.906819261343383,19.8145989217984,16.919180561343385L19.8145989217984,17.310329461343382C19.814802911798402,17.322479861343382,19.824603141798402,17.332280061343383,19.8367533717984,17.332485061343384L19.8371356717984,17.332483961343385ZM21.1381658417984,16.367979881343384L20.884911541798402,16.367979881343384C20.8723753417984,16.368196721343384,20.8621579417984,16.357979241343383,20.8623747417984,16.345443131343384L20.8623747417984,16.246127601343385C20.8623770417984,16.233740751343383,20.852222641798402,16.223758701343385,20.8398379417984,16.223973211343385L20.5132439417984,16.223973211343385C20.5007977417984,16.223972021343386,20.4907071417984,16.213882801343384,20.4907071417984,16.201436401343383L20.4907071417984,15.964226041343384C20.4907071417984,15.951779691343384,20.5007977417984,15.941690441343384,20.5132439417984,15.941689251343384L20.8398379417984,15.941689251343384C20.8523742417984,15.941907271343384,20.8625937417984,15.931688591343384,20.8623747417984,15.919152501343383L20.8623747417984,15.717466147343384C20.8623735417984,15.705019798343384,20.8724639417984,15.694929361343384,20.884911541798402,15.694929361343384L21.137783241798402,15.694929361343384C21.1502297417984,15.694929361343384,21.1603201417984,15.705019798343384,21.1603201417984,15.717466147343384L21.1603201417984,15.919152501343383C21.1603201417984,15.931598841343384,21.1704106417984,15.941689251343384,21.1828568417984,15.941689251343384L21.5063942417984,15.941689251343384C21.5189305417984,15.941908421343383,21.529151541798402,15.931688591343384,21.5289324417984,15.919152501343383L21.5289324417984,15.717466147343384C21.5289324417984,15.705019798343384,21.5390228417984,15.694929361343384,21.5514704417984,15.694929361343384L21.8012856417984,15.694929361343384C21.8137329417984,15.694929361343384,21.8238211417984,15.705018633343384,21.8238235417984,15.717466147343384L21.8238235417984,15.919152501343383C21.8236066417984,15.931688591343384,21.8338252417984,15.941907271343384,21.8463615417984,15.941689251343384L22.1985477417984,15.941689251343384C22.2109950417984,15.941688101343384,22.2210856417984,15.951778531343384,22.2210856417984,15.964226041343384L22.2210856417984,16.201436401343383C22.2210856417984,16.213883941343383,22.2109950417984,16.223974411343384,22.1985477417984,16.223973211343385L21.8463615417984,16.223973211343385C21.8339771417984,16.223758701343385,21.8238211417984,16.233740751343383,21.8238235417984,16.246127601343385L21.8238235417984,16.345443131343384C21.8240400417984,16.357979241343383,21.8138214417984,16.368197861343383,21.8012856417984,16.367979881343384L21.5514704417984,16.367979881343384C21.538934341798402,16.368197861343383,21.5287154417984,16.357979241343383,21.5289324417984,16.345443131343384L21.5289324417984,16.246127601343385C21.5289348417984,16.233740751343383,21.518778941798402,16.223758701343385,21.5063942417984,16.223973211343385L21.182858141798402,16.223973211343385C21.1705585417984,16.223970831343383,21.1605297417984,16.233830451343383,21.1603212417984,16.246127601343385L21.1603212417984,16.345443131343384C21.1605392417984,16.357979241343383,21.1503205417984,16.368199051343385,21.137784441798402,16.367981071343383L21.1381658417984,16.367979881343384ZM21.7902089417984,16.842402961343385L21.7902089417984,16.714057661343382C21.7902113417984,16.701670761343383,21.780055641798402,16.691688661343385,21.7676709417984,16.691903231343385L20.9169991417984,16.691903231343385C20.9046144417984,16.691689851343384,20.894461141798402,16.701671961343383,20.8944622417984,16.714057661343382L20.8944622417984,16.842402961343385C20.894461141798402,16.854849361343383,20.904551641798403,16.864939761343383,20.9169991417984,16.864939761343383L21.7692002417984,16.864939761343383C21.7810462417984,16.864134361343385,21.7902368417984,16.854275861343385,21.7902089417984,16.842402961343385ZM21.7676709417984,17.076175661343385L20.9169991417984,17.076175661343385C20.904551641798403,17.076175661343385,20.894461141798402,17.086266061343384,20.8944622417984,17.098712461343382L20.8944622417984,17.226676561343385C20.8942455417984,17.239212661343384,20.9044629417984,17.249430161343383,20.9169991417984,17.249213361343383L21.7692002417984,17.249213361343383C21.781736541798402,17.249433661343385,21.7919575417984,17.239213861343384,21.7917383417984,17.226676561343385L21.7917383417984,17.098712461343382C21.7917383417984,17.086266061343384,21.7816478417984,17.076175661343385,21.7692002417984,17.076175661343385L21.7676709417984,17.076175661343385Z" fill="#323232" fill-opacity="1" style="mix-blend-mode:passthrough"/></g></g></svg>