<svg xmlns="http://www.w3.org/2000/svg" xmlns:xlink="http://www.w3.org/1999/xlink" fill="none" version="1.1" width="24" height="24" viewBox="0 0 24 24"><defs><clipPath id="master_svg0_159_01197"><rect x="0" y="0" width="24" height="24" rx="0"/></clipPath><clipPath id="master_svg1_159_01121"><rect x="1.3056640625" y="10.5849609375" width="21.388675689697266" height="2.828117847442627" rx="0"/></clipPath></defs><g clip-path="url(#master_svg0_159_01197)"><g clip-path="url(#master_svg1_159_01121)"><path d="M5.336532728521156,12.469495896203613C5.330268343421157,12.470437596203613,5.324848565561156,12.465113196203614,5.325679226364156,12.458832996203613L5.326821639221157,11.170329719203613C5.3259909783711565,11.164049718103612,5.331410756321156,11.158725129553613,5.3376751415211565,11.159666777463613L5.788946498521156,11.159666777463613Q6.058566878521156,11.159666777463613,6.189759028521157,11.382065516203614C6.204799248521156,11.408400566203614,6.217969548521157,11.435760106203613,6.2291740285211565,11.463941726203613C6.238989788521156,11.488449906203613,6.245953338521156,11.514005896203614,6.249928548521156,11.540105666203614C6.259016768521156,11.631839456203613,6.262513768521156,11.724041286203613,6.260400968521156,11.816199836203614Q6.260400968521156,12.034790336203613,6.244787168521157,12.109240646203613C6.240003718521156,12.134315076203613,6.232797698521156,12.158866166203612,6.223270728521157,12.182548396203613C6.212943208521156,12.207296696203613,6.200186628521156,12.230959996203612,6.185188728521156,12.253190496203613C6.144027428521157,12.316906296203614,6.088537288521156,12.370114196203613,6.023150098521157,12.408564896203613C5.947909248521157,12.451662296203613,5.8623008885211565,12.473327796203613,5.775617258521156,12.471209796203613L5.336532728521156,12.469495896203613ZM5.543317868521156,11.376162706203614L5.543317868521156,12.255284896203614C5.543317868521156,12.260542996203613,5.547580408521156,12.264805596203614,5.552838358521156,12.264805596203614L5.767239738521156,12.264805596203614Q5.921852548521156,12.264805596203614,5.997445178521156,12.157033446203613C6.0167154785211565,12.126741586203613,6.0296684085211565,12.092869456203614,6.0355271285211565,12.057448926203612C6.039287398521156,12.028645516203614,6.041512148521156,11.999662156203613,6.042191638521157,11.970622126203613Q6.044667078521156,11.913499176203613,6.044667078521156,11.822673796203613C6.044667078521156,11.764598786203614,6.043714958521156,11.716044246203614,6.042191638521157,11.677010176203613C6.040668328521156,11.637976076203614,6.037812308521156,11.607129816203614,6.0349559885211566,11.584471016203613C6.029256418521157,11.543235276203614,6.0135688885211565,11.504016336203613,5.989257768521156,11.470225096203613Q5.913093818521157,11.366832536203614,5.768191858521156,11.366642166203613L5.552838358521156,11.366642166203613C5.547795698521156,11.366633076203613,5.543620628521157,11.370557706203613,5.543317868521156,11.375591446203613L5.543317868521156,11.376162706203614Z" fill="#323232" fill-opacity="1" style="mix-blend-mode:passthrough"/><path d="M6.5566031735211565,12.177983196203613C6.561124593521156,12.174114596203614,6.568063333521156,12.175409696203614,6.570883933521157,12.180648896203614C6.606639253521156,12.235165396203612,6.668347553521157,12.266958796203614,6.7334940835211565,12.264429296203613C6.7848550835211565,12.263211296203613,6.834565083521157,12.246042596203614,6.875730353521156,12.215303496203614C6.8999882535211565,12.198095796203614,6.918447633521156,12.173926096203614,6.928664223521157,12.145994366203613C6.940848423521157,12.111991106203613,6.946720313521157,12.076048906203614,6.9459916535211566,12.039935946203613L6.9459916535211566,11.170524601203613C6.945017653521156,11.164170365803614,6.9504909635211565,11.158697019623613,6.956845123521156,11.159671244553614L7.1527770935211565,11.159671244553614C7.159250873521156,11.159671244553614,7.1626781335211565,11.163289042203614,7.1626781335211565,11.170524601203613L7.1626781335211565,12.059738576203614Q7.1626781335211565,12.258336196203613,7.031104813521156,12.369725796203614C6.989144103521157,12.404336296203613,6.9420588135211565,12.432215096203613,6.891534703521156,12.452363596203613C6.842942613521156,12.471050896203613,6.791265563521156,12.480417096203613,6.739206773521157,12.479973096203613C6.703032503521157,12.480153296203614,6.666970323521157,12.475933296203614,6.631815303521156,12.467405896203614C6.599210633521157,12.459343296203613,6.567693753521156,12.447388696203614,6.5379433735211565,12.431799296203613C6.509562033521156,12.416803096203614,6.483040750521156,12.398525396203613,6.458923406521157,12.377341996203613C6.4351820205211565,12.356580696203613,6.414079347521156,12.332983896203613,6.396088378221156,12.307080696203613C6.394250406771157,12.304853396203614,6.393547294141157,12.301900496203613,6.394184163091157,12.299083596203614C6.394712950331156,12.296170796203613,6.396351028221156,12.293576796203613,6.398753813921156,12.291848096203614L6.5566031735211565,12.177983196203613Z" fill="#323232" fill-opacity="1" style="mix-blend-mode:passthrough"/><path d="M8.318802606021157,12.090263063703613C8.322240306021156,12.090155663703614,8.325537936021156,12.091629023703613,8.327751886021156,12.094261703703614C8.330159386021156,12.096807713703614,8.330898956021157,12.100506063703612,8.329656016021156,12.103782233703614Q8.291574076021156,12.287146933703614,8.162095626021156,12.385969633703613C8.120792706021156,12.417269433703613,8.074598146021156,12.441524633703613,8.025381456021156,12.457754033703614C7.974016506021156,12.474256433703614,7.920338226021157,12.482420633703613,7.866389166021157,12.481935933703614C7.773505646021157,12.484935433703614,7.682015586021157,12.458766833703613,7.604766146021157,12.407104933703613C7.542404726021156,12.365623033703613,7.490678869021156,12.310049133703613,7.453771267021156,12.244875933703613C7.4429584410211564,12.225158833703613,7.433479786021156,12.204739133703614,7.425399218021156,12.183754433703614C7.417083312021156,12.162672433703612,7.410709394021156,12.140875343703613,7.406358230021156,12.118634283703614Q7.394743506711157,12.051990863703613,7.394933521445457,11.816453813703614C7.394933521445457,11.738004923703613,7.396075934221156,11.673836823703613,7.397789553321156,11.624139843703613C7.398402016821156,11.587734873703614,7.401455617521156,11.551411983703613,7.406929436021156,11.515415843703613C7.411022598021156,11.493030843703613,7.417075176021156,11.471049043703614,7.425018607021157,11.449724433703613C7.432980046021156,11.428473053703613,7.442264624021156,11.407741243703613,7.452818286021157,11.387650843703613C7.490194812021156,11.322917493703613,7.541914866021156,11.267614853703613,7.604003776021156,11.225992910703614Q7.709300416021156,11.149828965833613,7.865817356021156,11.150781000669614Q8.052609336021156,11.150781000669614,8.174852746021156,11.266169403703612C8.254809456021157,11.338591323703612,8.308791656021157,11.435250433703613,8.328513696021156,11.541311653703612C8.329816536021156,11.544398993703613,8.329056396021157,11.547971333703613,8.326609566021157,11.550260963703613C8.324239206021156,11.552628573703613,8.321010126021156,11.553933883703614,8.317660286021157,11.553878723703614L8.113540726021157,11.553878723703614C8.108811276021155,11.554354663703613,8.104506686021157,11.551126123703613,8.103639616021157,11.546452733703614C8.095849116021157,11.522551123703613,8.084623706021157,11.499909283703614,8.070317346021156,11.479237913703614C8.055120786021156,11.458066553703613,8.037338386021156,11.438876923703614,8.017383476021156,11.422114993703612C7.975929456021157,11.385996793703614,7.922285986021157,11.367003793703613,7.867340366021156,11.368990603703613C7.827570366021156,11.367840573703614,7.788189066021157,11.377095143703613,7.753094446021156,11.395838393703613C7.724096016021156,11.411575193703614,7.698270276021156,11.432558353703612,7.676930506021156,11.457721623703613C7.665126906021157,11.472764283703613,7.655215366021157,11.489198953703614,7.647417176021157,11.506656913703614C7.639172796021156,11.525011893703613,7.632793636021156,11.544149013703613,7.628376216021156,11.563779863703614C7.621425286021156,11.594187823703614,7.617218806021157,11.625158603703614,7.615809086021156,11.656319083703613Q7.612953056021157,11.720296863703613,7.612953056021157,11.816263253703614C7.612953056021157,11.881764293703613,7.613904876021157,11.935459913703614,7.615619076021156,11.977730813703614C7.616160066021156,12.009305063703613,7.619408916021157,12.040774583703612,7.625330146021156,12.071793313703614C7.630332726021156,12.090785083703613,7.637089576021157,12.109270933703613,7.6455135460211565,12.127012253703613C7.653529066021156,12.144036113703613,7.663292456021156,12.160180933703613,7.674646246021156,12.175185933703613C7.6952794060211565,12.201704833703614,7.7212201760211565,12.223625033703613,7.750810196021156,12.239544233703613C7.786321476021156,12.258073133703613,7.8259677160211565,12.267247433703613,7.8660079060211565,12.266201733703614Q8.021382526021156,12.266201733703614,8.102497296021156,12.096546713703614C8.103890136021157,12.095014453703612,8.105419476021156,12.093612313703613,8.107066946021156,12.092357573703612C8.108484756021156,12.090939463703613,8.110393596021156,12.090121153703613,8.112398346021156,12.090072693703613L8.318802606021157,12.090263063703613Z" fill="#323232" fill-opacity="1" style="mix-blend-mode:passthrough"/><path d="M8.400679912521156,12.470161596203614C8.397070213221156,12.470464696203614,8.393601137021156,12.468693296203613,8.391730625021156,12.465591696203614C8.389889748451155,12.462619096203614,8.389538192131157,12.458959096203614,8.390778808211156,12.455690496203614L8.862995043521156,11.166996544703613C8.863584863521156,11.162566027103614,8.867481033521157,11.159332980593613,8.871944353521156,11.159570571618612L9.033031003521156,11.159570571618612C9.035179273521157,11.159739994163614,9.037231043521157,11.160534264403614,9.038933653521156,11.161855505803613C9.040641443521157,11.163164072703614,9.042012763521157,11.164861384803613,9.042932103521157,11.166806166103614L9.511911603521156,12.456451996203613C9.513152103521156,12.459720596203613,9.512800603521157,12.463380796203614,9.510959803521157,12.466353396203614C9.509409603521156,12.469301896203614,9.506290203521157,12.471084396203613,9.502962403521156,12.470923096203613L9.296939273521156,12.470923096203613C9.292539313521157,12.471171496203613,9.288668763521157,12.468042096203613,9.287989993521157,12.463687696203614L9.192785103521157,12.185879596203613C9.191439343521157,12.182069996203612,9.187874923521157,12.179491796203614,9.183835823521157,12.179405696203613L8.723234283521156,12.179405696203613C8.719225983521156,12.179407496203613,8.715648223521157,12.181919596203613,8.714285033521156,12.185689196203613C8.698100013521156,12.231958996203613,8.682296263521156,12.277276396203613,8.666491913521156,12.321641896203614C8.650687593521157,12.366007596203612,8.633360803521157,12.415323496203612,8.616414023521155,12.463306896203614C8.615675483521157,12.465359196203613,8.614266933521156,12.467103496203613,8.612415613521156,12.468257696203613C8.610743803521157,12.469632596203613,8.608674573521157,12.470433696203614,8.606512933521156,12.470542596203613L8.400679912521156,12.470161596203614ZM9.122523743521157,11.973763046203613C9.100436163521156,11.907690766203613,8.994948993521156,11.594276126203614,8.963341433521157,11.500213656203613C8.961974753521156,11.496448426203614,8.958397643521156,11.493941306203613,8.954392153521157,11.493941306203613C8.950386713521157,11.493941306203613,8.946809543521157,11.496448426203614,8.945442813521156,11.500213656203613C8.913834763521157,11.594276096203613,8.810061703521157,11.901788176203613,8.785688683521157,11.973382116203613C8.783576443521156,11.979494276203614,8.788171663521156,11.985849616203613,8.794637993521157,11.985758836203614L9.113574463521156,11.985758836203614C9.119821143521156,11.985764686203613,9.124308903521156,11.979749326203613,9.122523743521157,11.973763046203613Z" fill="#323232" fill-opacity="1" style="mix-blend-mode:passthrough"/><path d="M9.727974784021157,12.472454546203613C9.721724635021156,12.473435146203613,9.716331586761155,12.468042246203613,9.717311876901157,12.461791746203613L9.718454289721157,11.174430850203613C9.717480391501157,11.168076615303614,9.722953629221156,11.162603269733614,9.729307791021157,11.163577494543613L10.233513371021157,11.163577494543613C10.284828381021157,11.162954099593613,10.335898771021157,11.170736930303613,10.384698881021157,11.186617069203614C10.427552651021156,11.200457416203614,10.467456891021156,11.222152721203614,10.502371981021156,11.250594787203614C10.520431531021156,11.267656076203613,10.537112731021157,11.286120056203613,10.552259341021156,11.305813656203613C10.568176881021156,11.326977786203614,10.582254901021157,11.349464686203614,10.594339741021157,11.373028306203613C10.606841701021157,11.397258956203613,10.616612751021156,11.422803636203612,10.623472411021156,11.449192256203613C10.630648811021157,11.476477026203613,10.634296311021156,11.504569436203614,10.634325941021157,11.532782136203613C10.634440321021156,11.573768016203614,10.628341271021156,11.614534496203614,10.616236761021156,11.653692396203613C10.604394211021157,11.691417876203614,10.587346931021155,11.727306906203614,10.565587651021156,11.760321796203613C10.543511581021157,11.790732206203613,10.517226831021157,11.817851246203613,10.487520051021157,11.840865256203614C10.460170761021157,11.862155736203613,10.429903161021157,11.879405376203612,10.397646621021156,11.892085496203613C10.392365711021156,11.894171236203613,10.389993031021156,11.900323036203613,10.392505661021156,11.905414166203613Q10.462766961021156,12.040224316203613,10.533980091021157,12.176177046203613L10.680214781021157,12.456270146203613C10.682146271021157,12.459765946203614,10.682146271021157,12.464008546203614,10.680214781021157,12.467504146203613C10.678520341021157,12.470824646203614,10.674979161021156,12.472783646203613,10.671265501021157,12.472454546203613L10.440108191021157,12.472454546203613C10.438060421021156,12.472420846203613,10.436123031021156,12.471521746203614,10.434776681021157,12.469979446203613C10.432872491021156,12.468456246203614,10.431349531021157,12.467313646203614,10.430207091021156,12.466171246203613L10.169916491021157,11.927311536203613C10.168406861021156,11.923935416203614,10.165045871021157,11.921769436203613,10.161347821021156,11.921789646203614L9.944090111021156,11.921789646203614C9.938726691021156,11.921789646203614,9.934379011021157,11.926137266203613,9.934379011021157,11.931500496203613L9.934379011021157,12.461411146203613C9.935209381021156,12.467691146203613,9.929789621021156,12.473015546203612,9.923525501021157,12.472074046203613L9.727974784021157,12.472454546203613ZM9.934950221021156,11.368077616203614L9.934950221021156,11.718622086203613C9.934950221021156,11.723880176203613,9.939212491021156,11.728142676203614,9.944470721021156,11.728142676203614L10.219803231021157,11.728142676203614C10.289493281021157,11.728142676203614,10.341475381021157,11.709101616203613,10.376510811021156,11.671019676203613C10.429029841021157,11.611676396203613,10.443211151021156,11.527622786203613,10.413069681021156,11.454333246203614C10.403048351021157,11.431705746203614,10.387377101021157,11.412034986203613,10.367561531021156,11.397210296203614C10.349032481021156,11.384652916203613,10.328581171021156,11.375198956203613,10.307011321021156,11.369220036203613C10.282530741021157,11.362398956203613,10.257210571021156,11.359065656203613,10.231799201021156,11.359318706203613L9.944851351021157,11.359318706203613C9.940135251021156,11.359258506203613,9.936086241021156,11.362660166203613,9.935331401021156,11.367316036203613L9.934950221021156,11.368077616203614Z" fill="#323232" fill-opacity="1" style="mix-blend-mode:passthrough"/><path d="M10.904203968521156,12.142853678703613C10.905747908521157,12.140488148703612,10.908426138521156,12.139112888703613,10.911249028521157,12.139235798703613C10.914189328521156,12.139248368703614,10.917052328521157,12.140180408703614,10.919436528521157,12.141901548703613C10.968384218521157,12.181341658703612,11.023437338521155,12.212534158703614,11.082427338521157,12.234250258703613C11.144634768521156,12.257603358703614,11.210579768521157,12.269411658703614,11.277025658521156,12.269095258703613Q11.391271548521157,12.269095258703613,11.458676288521156,12.221492858703613C11.499025658521155,12.194463358703613,11.522846598521156,12.148758408703614,11.521892498521156,12.100201728703613Q11.521892498521156,11.958346428703614,11.362900748521156,11.936449348703613L11.363852578521156,11.936449348703613L11.321010248521157,11.931117828703613L11.280643478521156,11.925595938703614C11.267123978521155,11.923882308703613,11.253415058521156,11.921787738703614,11.239324878521156,11.919693288703613L11.192864818521157,11.913028958703613C11.140836818521157,11.906373498703614,11.090118598521157,11.891864298703613,11.042440578521155,11.869996308703612C11.000041708521156,11.850727858703614,10.962207868521157,11.822693048703613,10.931431848521155,11.787739278703613C10.902081848521156,11.754160168703613,10.879225458521157,11.715420898703613,10.864026606521156,11.673493328703614C10.848734192521157,11.630347188703613,10.841191716521156,11.584836658703614,10.841748386521155,11.539063958703613Q10.841748386521155,11.367695088703613,10.955994338521156,11.261255998703612Q11.070240808521156,11.154816878503613,11.273407828521156,11.152722358703613C11.312734498521156,11.152808068705614,11.351979868521155,11.156312082403613,11.390699818521156,11.163194885703613C11.428206458521156,11.170083282703613,11.465175168521156,11.179627816703613,11.501327948521157,11.191756360703613C11.536453258521156,11.203501537703612,11.570687308521157,11.217755548703613,11.603768538521157,11.234408207703613C11.635550338521156,11.250811718703613,11.666382748521157,11.268992908703613,11.696119148521156,11.288865488703614C11.701833498521156,11.291900288703614,11.703149098521155,11.299511398703613,11.698785258521156,11.304288718703614L11.589679558521157,11.465565828703614C11.586764768521157,11.470675288703614,11.579960298521156,11.471945468703613,11.575398758521157,11.468231558703613C11.528616798521156,11.438844058703614,11.478504078521157,11.415129808703613,11.426116958521156,11.397589518703613C11.373390448521157,11.379943208703613,11.318156018521156,11.370941158703614,11.262554298521156,11.370932088703613C11.235553668521156,11.370703948703614,11.208647058521157,11.374163208703614,11.182581918521157,11.381214248703614C11.158375128521156,11.387881668703614,11.135725598521157,11.399270968703613,11.115938498521157,11.414726378703612C11.077856528521156,11.443097468703613,11.057482528521156,11.485749218703614,11.057482528521156,11.543443408703613C11.058509868521156,11.579218208703614,11.072519858521156,11.613397028703613,11.096897528521156,11.639600308703614C11.111895278521157,11.655185458703613,11.129904258521156,11.667558848703614,11.149832028521157,11.675968588703613C11.176013398521157,11.686958018703614,11.203550978521156,11.694386718703614,11.231708038521155,11.698056158703613C11.249034808521156,11.701102678703613,11.269789978521157,11.704339678703613,11.292830008521156,11.707576628703613C11.315869998521157,11.710813578703613,11.343669128521157,11.714431408703613,11.375468388521156,11.718049228703613Q11.559975698521157,11.740517498703614,11.648706088521156,11.854001698703613C11.706276548521156,11.923189938703613,11.737744588521156,12.010385098703614,11.737627218521157,12.100392158703613Q11.737627218521157,12.282043058703614,11.610624088521156,12.384483858703613Q11.483621078521157,12.486923958703613,11.274170178521157,12.484829558703613Q10.980367918521157,12.484829558703613,10.774534891321156,12.304511458703614C10.772340714821157,12.303076758703613,10.770988530399157,12.300658058703613,10.770917056963256,12.298037658703613C10.770797353481157,12.295077458703613,10.771742778481157,12.292172458703613,10.773583074121156,12.289850158703613L10.904203968521156,12.142853678703613Z" fill="#323232" fill-opacity="1" style="mix-blend-mode:passthrough"/><path d="M12.497505453021157,12.461659596203614C12.491255303821156,12.462639296203614,12.485862836711156,12.457246796203613,12.486842545821156,12.450996596203613L12.487984958821157,11.162683446203614C12.487043601171157,11.156419497403613,12.492368662721157,11.151000337093613,12.498647867021157,11.151830089816613L12.966294541021156,11.151830089816613C13.015558851021156,11.151645922254612,13.064683811021157,11.157075869403613,13.112719791021156,11.168014934203613C13.167091861021156,11.183246549203613,13.217637021021156,11.209784291203613,13.261048691021156,11.245892681203614C13.282232721021156,11.262662136203613,13.301401511021156,11.281831026203614,13.318171631021157,11.303015636203613C13.335806381021156,11.325037506203614,13.351299241021156,11.348692026203613,13.364441111021156,11.373657686203613C13.377893221021157,11.401212576203614,13.387933151021157,11.430306526203614,13.394335581021156,11.460294156203613C13.401746701021157,11.493674246203613,13.405386641021156,11.527780746203613,13.405189051021157,11.561973006203614Q13.405189051021157,11.703066706203613,13.298749401021157,11.831593336203614Q13.192309871021155,11.960119966203614,12.990285171021156,11.958787086203614L12.713429601021156,11.958787086203614C12.708171951021157,11.958787086203614,12.703909111021156,11.963049476203613,12.703909111021156,11.968307676203613L12.703909111021156,12.442047196203614C12.703804521021157,12.453225296203613,12.694712881021156,12.462231296203614,12.683535131021156,12.462230796203613L12.497505453021157,12.461659596203614ZM12.704480921021156,11.368326146203612L12.704480921021156,11.743052776203614C12.704480921021156,11.748310806203612,12.708743751021156,11.752573256203613,12.714001401021156,11.752573256203613L12.984002481021156,11.752573256203613C13.052930731021156,11.752573256203613,13.104151081021156,11.732008996203612,13.137854051021156,11.690690096203614C13.170937431021157,11.653575296203613,13.189233561021156,11.605599736203613,13.189264851021157,11.555879836203614Q13.189264851021157,11.444490106203613,13.110244291021157,11.393079396203614C13.070177331021156,11.368736836203613,13.023797471021156,11.356810346203613,12.976957421021156,11.358805656203613L12.714192001021157,11.358805656203613C12.708859981021156,11.358698886203614,12.704479741021157,11.362992886203614,12.704480921021156,11.368326146203612Z" fill="#323232" fill-opacity="1" style="mix-blend-mode:passthrough"/><path d="M13.633247639521157,12.462664458703614C13.626997491321156,12.463644758703612,13.621605024261155,12.458252058703613,13.622584733301156,12.452001858703614L13.623727146021157,11.163688589703613C13.622753247911156,11.157334428303614,13.628227066721156,11.151861336433614,13.634580647521156,11.152835234413613L14.138785618521156,11.152835234413613C14.190029158521156,11.152136806923613,14.241039108521157,11.159855864503614,14.289780568521156,11.175684429703614C14.332802908521156,11.189992517703613,14.372774558521156,11.212206698703612,14.407644288521157,11.241185389703613C14.445028978521156,11.276407118703613,14.476130918521156,11.317747738703613,14.499612588521156,11.363428488703613C14.512022208521156,11.387700158703613,14.521790218521156,11.413234618703614,14.528745848521156,11.439592418703613C14.535859478521157,11.466885208703614,14.539442498521156,11.494977618703613,14.539408758521157,11.523182328703614C14.539305288521156,11.564224128703612,14.532882048521156,11.605005328703614,14.520367758521157,11.644092528703613C14.508669388521156,11.681781108703614,14.491679628521156,11.717618288703614,14.469908668521157,11.750531728703614C14.447951808521156,11.780794258703613,14.421940158521156,11.807895598703613,14.392602338521156,11.831075008703614C14.365161138521156,11.852330808703613,14.334836618521157,11.869576808703613,14.302538828521156,11.882295308703613C14.297254398521156,11.884276448703613,14.294925408521156,11.890458288703613,14.297588008521156,11.895433668703614Q14.368801068521156,12.031576688703613,14.439823578521157,12.167338958703613Q14.513512148521157,12.307861358703613,14.586058278521156,12.447431758703614C14.587954838521156,12.450936158703612,14.587954838521156,12.455161058703613,14.586058278521156,12.458665858703613C14.584289388521157,12.461914158703614,14.580800608521157,12.463844558703613,14.577109528521156,12.463616658703613L14.344618628521156,12.463616658703613C14.342567398521156,12.463525458703613,14.340612668521157,12.462716658703613,14.339097158521156,12.461331458703613L14.334718178521156,12.457333058703613L14.074428158521156,11.918473248703613C14.072792988521156,11.915234628703613,14.069487768521157,11.913178088703614,14.065859478521157,11.913141788703614L13.849552958521157,11.913141788703614C13.844295318521157,11.913141788703614,13.840032468521157,11.917404178703613,13.840032468521157,11.922662258703614L13.840032468521157,12.452572958703612C13.840862258521156,12.458852758703614,13.835443078521156,12.464176858703613,13.829178978521156,12.463235858703614L13.633247639521157,12.462664458703614ZM13.840223088521157,11.358287468703613L13.840223088521157,11.709022338703614C13.840221928521157,11.714250798703613,13.844516128521157,11.718459668703613,13.849743578521156,11.718352498703613L14.125076668521157,11.718352498703613C14.194766178521157,11.718352498703613,14.246748818521157,11.699311498703613,14.281593038521157,11.661229548703613C14.334261428521156,11.601966498703613,14.348525838521157,11.517857758703613,14.318341988521157,11.444543088703613C14.308219508521157,11.421976928703613,14.292566258521155,11.402329618703613,14.272833718521156,11.387420158703613C14.254089128521157,11.374367098703614,14.233304868521156,11.364521938703612,14.211331738521157,11.358287468703613C14.186829698521157,11.351570578703614,14.161524608521157,11.348239208703614,14.136119558521155,11.348386168703612L13.849552958521157,11.348005308703613C13.844369698521156,11.348109138703613,13.840221928521157,11.352341438703613,13.840223088521157,11.357525828703613L13.840223088521157,11.358287468703613Z" fill="#323232" fill-opacity="1" style="mix-blend-mode:passthrough"/><path d="M14.747469678521156,11.808814411203613Q14.747469678521156,11.691141131203613,14.750896916521157,11.616500501203614C14.751781327621156,11.580130721203613,14.754642589521156,11.543835911203614,14.759465591521156,11.507776471203613C14.763558754521156,11.485391561203613,14.769611332521157,11.463409871203613,14.777554761521156,11.442085061203613C14.785491220521155,11.420730801203613,14.795104686521157,11.400038451203613,14.806306835521156,11.380201871203614L14.805355016521156,11.380201871203614C14.842668794521156,11.315370601203613,14.894398138521156,11.259992931203612,14.956540498521157,11.218353487203613Q15.061837718521156,11.142189543303614,15.218354028521157,11.142189543303614C15.310762778521156,11.139320473403613,15.401678158521156,11.166001487203614,15.477882758521156,11.218353487203613C15.540052968521156,11.260473271203614,15.592084538521156,11.315886021203614,15.630210648521157,11.380582691203614C15.652090798521156,11.420352131203613,15.667273418521157,11.463453771203614,15.675147128521157,11.508157341203614C15.680513988521156,11.544169451203613,15.683629768521156,11.580481291203613,15.684476928521157,11.616881311203613C15.686380638521156,11.666578291203614,15.687523078521156,11.731127261203614,15.687523078521156,11.809195401203613C15.687523078521156,11.963427301203613,15.682953368521156,12.063963711203613,15.674575398521156,12.111375931203613C15.670566928521156,12.133969311203613,15.664707258521156,12.156195071203614,15.657057958521156,12.177828871203614C15.649568868521156,12.198537571203612,15.640662088521156,12.218705371203614,15.630400018521156,12.238188771203614C15.591768398521156,12.302839171203614,15.539209258521156,12.358064771203614,15.476548568521157,12.399846771203613C15.316983888521156,12.499254671203612,15.114771018521155,12.499254671203612,14.955206308521156,12.399846771203613C14.892855928521156,12.358510971203613,14.841126598521157,12.303062671203612,14.804211448521157,12.237998271203613C14.793102268521157,12.218273271203614,14.783552713521157,12.197709771203613,14.775649966521156,12.176495871203613C14.767683291521156,12.155309071203613,14.761629552521157,12.133451701203613,14.757560797521156,12.111185251203613C14.752902821221156,12.074984431203614,14.750106641121157,12.038568201203613,14.749182716221156,12.002080321203612C14.748422657551156,11.951812331203612,14.747469678521156,11.887263361203614,14.747469678521156,11.808814411203613ZM14.964156178521156,11.808814411203613Q14.964156178521156,11.906875551203614,14.966822208521156,11.970282141203613C14.967346338521157,12.001794221203614,14.970595788521157,12.033201991203613,14.976533298521156,12.064154211203613C14.981419038521157,12.083244081203613,14.988179398521156,12.101804141203614,14.996716688521156,12.119563461203613C15.004660118521157,12.136625881203614,15.014428128521157,12.152778071203613,15.025849978521157,12.167737171203614C15.046441268521157,12.194246271203614,15.072394858521156,12.216111771203613,15.102013898521156,12.231905371203613C15.174147468521156,12.266950771203613,15.258373398521156,12.266950771203613,15.330505748521157,12.231905371203613C15.394033448521157,12.196265571203613,15.439489318521156,12.135381341203614,15.455605108521157,12.064344641203613Q15.469885898521156,12.007221641203614,15.470267068521157,11.808814581203613C15.470267068521157,11.743503991203614,15.468934078521157,11.689808431203613,15.466839808521156,11.647537351203614C15.465724128521156,11.616259781203613,15.462094738521156,11.585122581203613,15.455986338521157,11.554426971203613C15.451844348521156,11.534720931203614,15.445455928521156,11.515554751203613,15.436945398521157,11.497304021203613C15.429082108521156,11.479839121203613,15.419105958521156,11.463404651203613,15.407241418521156,11.448368701203613C15.397634998521156,11.436107961203613,15.386716378521156,11.424934361203613,15.374680948521156,11.415046991203614C15.361285818521157,11.403944701203613,15.346654068521156,11.394424741203613,15.331077468521157,11.386675881203614C15.314072678521157,11.378517281203614,15.296270628521157,11.372136471203614,15.277953578521156,11.367634891203613C15.218863058521157,11.352622421203613,15.156341868521157,11.359381391203613,15.101824478521156,11.386675881203614C15.072856228521156,11.402537971203614,15.047040958521157,11.423576951203612,15.025660528521156,11.448749481203613C15.014178318521155,11.464006181203613,15.004527638521155,11.480558271203613,14.996907298521156,11.498065561203614C14.988741888521156,11.516122251203614,14.982363928521156,11.534935711203612,14.977866318521157,11.554236471203613C14.971601058521156,11.585596441203613,14.968222598521157,11.617464721203614,14.967774038521156,11.649441421203614C14.965108008521156,11.691712321203614,14.964156178521156,11.745598371203613,14.964156178521156,11.809004901203613L14.964156178521156,11.808814411203613Z" fill="#323232" fill-opacity="1" style="mix-blend-mode:passthrough"/><path d="M16.185078786021155,12.464617683703613C16.178887916021157,12.465418583703613,16.173615116021157,12.460145383703614,16.174415876021158,12.453954983703614L16.174415876021158,11.359288553703614C16.174415876021158,11.354030533703613,16.170153006021156,11.349768053703613,16.164895366021156,11.349768053703613L15.841198590021156,11.349768053703613C15.829946466721156,11.349768053703613,15.820824596481156,11.340646413703613,15.820824596481156,11.329394203703613L15.820824596481156,11.165641715703613C15.819850698351157,11.159287553303614,15.825324517221157,11.153814461373614,15.831678098021156,11.154788359413613L16.732507186021156,11.154788359413613C16.738802686021156,11.153991401663614,16.744157926021156,11.159346933003613,16.743360596021155,11.165641715703613L16.743360596021155,11.329584583703614C16.743257296021156,11.340793703703614,16.734195786021157,11.349855143703614,16.722986596021155,11.349958433703613L16.400432306021155,11.349958433703613C16.395143286021156,11.349957123703613,16.390824686021155,11.354189973703614,16.390721216021156,11.359478923703612L16.390721216021156,12.454145283703614C16.391700876021158,12.460395783703614,16.386308446021157,12.465788383703613,16.380058306021155,12.464808183703614L16.185078786021155,12.464617683703613Z" fill="#323232" fill-opacity="1" style="mix-blend-mode:passthrough"/><path d="M16.932236143521155,12.465594446203614C16.925972049621155,12.466535546203612,16.920552852801155,12.461211546203613,16.921382641907158,12.454931646203613L16.922525054621158,11.166618423203614C16.921549994351157,11.160264152603613,16.927023813121156,11.154790479053613,16.933378556521156,11.155765067193613L17.756901223521155,11.155765067193613C17.763196723521155,11.154968109443613,17.768552023521156,11.160323641303613,17.767754803521157,11.166618423203614L17.767754803521157,11.351696816203614C17.768696143521158,11.357961056203614,17.763372133521155,11.363380626203613,17.757091893521157,11.362550186203613L17.148922693521158,11.362550186203613C17.143633633521155,11.362653476203613,17.139401033521157,11.366971146203614,17.139402183521156,11.372261066203613L17.139402183521156,11.698242726203613C17.139401033521157,11.703576086203613,17.143781233521157,11.707869946203614,17.149113253521158,11.707763196203613L17.655032413521155,11.707763196203613C17.666360033521155,11.707762536203614,17.675512273521157,11.717001016203612,17.675406473521157,11.728327516203613L17.675406473521157,11.893032016203612C17.675406473521157,11.899696466203613,17.671788643521158,11.902933296203614,17.664552943521155,11.902933296203614L17.149113253521158,11.902933296203614C17.143780063521156,11.902931986203614,17.139485853521155,11.907311856203613,17.139592783521156,11.912644266203614L17.139592783521156,12.251192946203613C17.139591623521156,12.256526346203614,17.143971833521157,12.260820246203613,17.149303883521156,12.260713446203614L17.757282453521157,12.260713446203614C17.763473283521158,12.259912646203613,17.768746033521158,12.265185946203614,17.767945363521157,12.271376346203613L17.767945363521157,12.454931546203614C17.768925023521156,12.461181846203614,17.763532593521155,12.466574546203613,17.757282453521157,12.465594246203613L16.932236143521155,12.465594446203614Z" fill="#323232" fill-opacity="1" style="mix-blend-mode:passthrough"/><path d="M18.867866706021157,12.086726013703613C18.871321876021156,12.086527463703613,18.874658416021155,12.088018353703614,18.876815456021156,12.090724643703613C18.879265386021157,12.093248363703614,18.880010266021156,12.096973303703614,18.878719106021155,12.100245003703613Q18.840637106021155,12.283609583703614,18.711349206021158,12.382242083703613C18.670045686021155,12.413650583703614,18.623769296021155,12.437914883703613,18.574444486021157,12.454026483703613C18.523078876021156,12.470528683703613,18.469400656021158,12.478692883703614,18.415452706021156,12.478208383703613C18.322547686021156,12.481388883703612,18.231002466021156,12.455204583703614,18.153829706021156,12.403377383703614C18.071460946021155,12.350388683703613,18.008725867021155,12.271868983703612,17.975225162021157,12.179836283703613C17.967208518021156,12.158745983703614,17.961215209021155,12.136941133703614,17.957326589021157,12.114716173703613Q17.945711866021156,12.048072693703613,17.945711866021156,11.812535643703614C17.945711866021156,11.734086873703614,17.946854278821156,11.669918773703614,17.948757912521156,11.620221733703612C17.949320402421158,11.583821713703614,17.952310665021155,11.547499803703614,17.957706619021156,11.511497703703613C17.962108918021155,11.489083173703614,17.968481094021158,11.467100833703613,17.976747608021157,11.445806293703614C17.984188978021155,11.424919513703614,17.992900602021155,11.404507513703614,18.002834830021158,11.384684843703614C18.040210202021157,11.319951713703613,18.091930236021156,11.264649003703614,18.154020326021158,11.223026923703614Q18.259506926021157,11.146862983703613,18.415833876021157,11.146862983703613Q18.602816596021157,11.146862983703613,18.724868786021155,11.262251373703613C18.804685366021157,11.334627153703613,18.858647246021157,11.431117053703613,18.878529626021155,11.537012723703613C18.879832466021156,11.540100483703613,18.879072326021156,11.543672413703613,18.876626026021157,11.545962003703613C18.874256386021155,11.548329563703613,18.871027846021157,11.549634933703613,18.867677406021155,11.549579773703613L18.661843136021155,11.549579773703613C18.657174726021157,11.550069183703613,18.652894336021156,11.546941463703613,18.651941436021158,11.542344183703614C18.644211846021157,11.518476243703613,18.632981856021157,11.495888623703614,18.618619696021156,11.475319893703613C18.603532446021156,11.453776033703614,18.585741956021156,11.434258283703613,18.565685166021158,11.417244913703612C18.524182986021156,11.381210323703613,18.470573266021155,11.362229333703613,18.415642126021158,11.364120543703613C18.375886636021157,11.363109903703613,18.336540236021158,11.372356193703613,18.301396176021157,11.390968323703614C18.272420986021157,11.406819703703613,18.246603386021157,11.427860233703614,18.225232256021155,11.453041913703613C18.213495476021155,11.468131063703613,18.203588026021155,11.484557453703614,18.195718926021158,11.501977233703613C18.187552396021157,11.520033863703613,18.181174396021156,11.538847443703613,18.176677986021158,11.558148143703614C18.170495226021156,11.589516963703613,18.167181876021157,11.621383423703612,18.166776296021155,11.653353093703613Q18.163539646021157,11.717330813703613,18.163730236021156,11.813487763703613Q18.163920836021155,11.909644663703613,18.166396256021155,11.974955383703612C18.166921556021155,12.006467403703613,18.170170996021156,12.037875113703613,18.176107346021155,12.068827453703614C18.181108176021155,12.087881323703613,18.187865016021156,12.106430473703613,18.196290776021158,12.124236763703614C18.204252796021155,12.141270163703613,18.214088186021158,12.157363783703612,18.225613456021158,12.172219983703613C18.246231486021156,12.198754683703614,18.272175776021157,12.220678083703614,18.301777376021157,12.236578483703614C18.337256086021156,12.255194983703614,18.376925606021157,12.264374683703613,18.416975126021157,12.263235783703614Q18.572349086021156,12.263235783703614,18.653463856021155,12.093580603703613C18.654902656021157,12.092094243703613,18.656428526021156,12.090695323703613,18.658033506021155,12.089391593703613C18.659532736021156,12.088128093703613,18.661406116021155,12.087392333703614,18.663365556021155,12.087297083703614L18.867866706021157,12.086726013703613Z" fill="#323232" fill-opacity="1" style="mix-blend-mode:passthrough"/><path d="M19.303835053521155,12.467733671203613C19.297644153521155,12.468534571203612,19.292371403521155,12.463261171203612,19.293172103521158,12.457070671203613L19.294123963521155,11.362404331203614C19.294123963521155,11.357146311203614,19.289861123521156,11.352883831203613,19.284603463521158,11.352883831203613L18.961097290521156,11.352883831203613C18.949993922421157,11.352780761203613,18.941017324981157,11.343804461203613,18.940913891900156,11.332700361203614L18.940913891900156,11.168376631203614C18.940082940681155,11.162096629803614,18.945503299121157,11.156771859333613,18.951767392521155,11.157713688793613L19.852596353521157,11.157713688793613C19.858860443521156,11.156772585583614,19.864279643521158,11.162096739303614,19.863449943521157,11.168376631203614L19.863449943521157,11.332509921203613C19.863345223521158,11.343687731203612,19.854254853521155,11.352694031203614,19.843075883521156,11.352693381203613L19.520330923521158,11.352693381203613C19.515116293521157,11.352795231203613,19.510912733521156,11.356998641203614,19.510810513521157,11.362213891203613L19.509858683521156,12.456880371203614C19.510839533521157,12.463130671203613,19.505445853521156,12.468523971203613,19.499195773521155,12.467543171203614L19.303835053521155,12.467733671203613Z" fill="#323232" fill-opacity="1" style="mix-blend-mode:passthrough"/><path d="M20.027773745521156,12.467584371203614C20.021492315021156,12.468414671203613,20.016167511351156,12.462995271203614,20.017109028661157,12.456730971203614L20.018251635521157,11.168417671203613C20.017233401931158,11.162074403403613,20.022781380021158,11.156623900523613,20.029106981521156,11.157754727913613L20.224310238521156,11.157754727913613C20.230590518521158,11.156924938723613,20.235916478521155,11.162344135803613,20.234974968521158,11.168608084203614L20.233832348521155,12.456921571203614C20.234807578521156,12.463275671203613,20.229332848521157,12.468749371203613,20.222977008521156,12.467774871203613L20.027773745521156,12.467584371203614Z" fill="#323232" fill-opacity="1" style="mix-blend-mode:passthrough"/><path d="M20.497492921915157,11.813804206203613Q20.497492921915157,11.696130986203613,20.500729564621157,11.621490296203614C20.501751111321155,11.585121246203613,20.504675130821155,11.548830236203614,20.509488837521157,11.512766336203613C20.513826053521157,11.490335826203614,20.520199391521157,11.468347576203612,20.528529824521158,11.447074886203612C20.536423280521156,11.425702746203614,20.546039074521158,11.405006976203612,20.557281903521158,11.385191676203613C20.594596847521156,11.320360716203613,20.646326188521158,11.264983106203614,20.708467378521156,11.223343313203614C20.785523848521155,11.171078509203614,20.877232988521158,11.144733030603613,20.970280958521155,11.148131396063613C21.062701298521155,11.145181809803614,21.153641118521158,11.171870053203614,21.229809718521157,11.224295348203613C21.291999828521156,11.266312196203613,21.344039398521158,11.321668516203614,21.382137608521155,11.386334166203614C21.403863148521157,11.426155716203613,21.418973698521157,11.469241646203614,21.426883478521155,11.513908776203614C21.432238708521155,11.549922166203613,21.435355738521157,11.586233376203614,21.436213328521156,11.622632856203614Q21.439451108521155,11.697463806203613,21.439260618521157,11.815137146203613Q21.439260618521157,12.046294626203613,21.426311688521157,12.117317676203614C21.422341718521157,12.139920236203613,21.416482048521157,12.162149346203613,21.408793108521156,12.183770646203612C21.401350628521158,12.204435846203614,21.392441348521157,12.224543546203613,21.382135288521155,12.243940146203613C21.343611668521156,12.308673146203613,21.291032808521155,12.363920246203612,21.228284968521155,12.405598046203613C21.151591078521157,12.457039346203613,21.060672178521155,12.483082546203613,20.968375008521157,12.480048446203613C20.864793138521158,12.480048446203613,20.777965138521157,12.455104846203614,20.706942618521158,12.405217246203613C20.644636378521156,12.363751146203613,20.592920988521158,12.308252946203613,20.555947728521158,12.243178446203613L20.556899547521155,12.243178446203613C20.545714825521156,12.223492846203612,20.536161791521156,12.202923146203613,20.528338067521155,12.181676146203614C20.519934417521156,12.160558846203614,20.513558756521157,12.138690176203614,20.509297078521158,12.116365556203613C20.504550777821155,12.080109836203613,20.501753435421158,12.043625596203613,20.500918997921158,12.007070306203612C20.498255305221157,11.956611636203613,20.497302326101156,11.892443476203614,20.497492921915157,11.813804206203613ZM20.714179438521157,11.813804206203613C20.714179438521157,11.879305306203614,20.714179438521157,11.933000866203614,20.716654848521156,11.975271706203614C20.717234788521157,12.006852626203614,20.720548138521156,12.038324356203614,20.726556558521157,12.069334266203613C20.731476028521158,12.088352386203614,20.738235188521156,12.106846036203613,20.746739958521157,12.124553086203614C20.754568318521155,12.141676606203614,20.764343338521158,12.157840946203613,20.775873228521156,12.172726846203613C20.796506388521156,12.199245546203613,20.822448328521155,12.221165846203613,20.852037178521158,12.237085246203613C20.996446058521155,12.310345546203614,21.171148018521155,12.227508146203613,21.205817948521155,12.069334266203613Q21.220289188521157,12.012211266203613,21.220479858521156,11.813994586203613Q21.220479858521156,11.715933446203614,21.217051458521155,11.652527036203614C21.215991508521157,11.621317806203614,21.212425958521155,11.590244446203613,21.206387358521155,11.559606996203613C21.202217478521156,11.539907996203613,21.195830178521156,11.520744736203614,21.187346358521157,11.502484026203613C21.179534268521156,11.485034016203613,21.169621008521155,11.468601046203613,21.157831918521158,11.453548696203613C21.137205738521157,11.427717296203614,21.111221988521155,11.406668666203613,21.081667918521156,11.391855846203613C21.064628198521156,11.383778636203614,21.046833108521156,11.377400796203613,21.028542888521155,11.372814866203614C21.008576768521156,11.367683396203613,20.988036618521157,11.365123926203614,20.967422048521158,11.365198446203614C20.927652578521155,11.364048336203613,20.888271318521156,11.373302836203614,20.853176098521157,11.392046226203613C20.824161368521157,11.407839296203614,20.798335628521155,11.428887936203614,20.777012158521156,11.454119806203613C20.765188228521158,11.469115886203614,20.755215658521156,11.485482096203613,20.747308268521156,11.502864776203614C20.739234688521158,11.521285686203614,20.732860178521157,11.540406166203613,20.728267268521158,11.559987726203612C20.722228648521156,11.591057096203613,20.718915288521156,11.622594626203613,20.718365578521155,11.654240606203613Q20.714179438521157,11.718028006203614,20.714179438521157,11.813994586203613L20.714179438521157,11.813804206203613Z" fill="#323232" fill-opacity="1" style="mix-blend-mode:passthrough"/><path d="M21.717306394521156,12.469500396203614C21.709880129421155,12.469500396203614,21.706454053521156,12.466072996203613,21.706454053521156,12.458837496203614L21.707597628421155,11.170524310203612C21.706623730291156,11.164170802103614,21.712095224721157,11.158697963923613,21.718449967521156,11.159670954013613L21.903527813521155,11.159670954013613C21.907283933521157,11.159771917473613,21.910700723521156,11.161879293803613,21.912476513521156,11.165192857803614L22.459904863521157,12.030034426203613C22.462192013521157,12.033577026203613,22.466536243521155,12.035192846203614,22.470582913521156,12.034005346203614C22.474629593521158,12.032817956203614,22.477414143521155,12.029110016203614,22.477423383521156,12.024893466203613L22.477423383521156,11.171285968203613C22.476405393521155,11.164943789603614,22.481951253521157,11.159494013707613,22.488275843521155,11.160623025103613L22.684208343521156,11.160623025103613C22.690502653521158,11.159826757353613,22.695855633521155,11.165181744403613,22.695060563521157,11.171476382203613L22.693728703521156,12.459979796203614C22.694709673521157,12.466230596203614,22.689314913521155,12.471623496203613,22.683064713521155,12.470642696203614L22.498746943521155,12.470642696203614C22.495018673521155,12.470619196203613,22.491594983521157,12.468579296203613,22.489798203521158,12.465311396203614L21.940085013521156,11.600660176203613C21.937872263521157,11.596921626203613,21.933409493521157,11.595154996203613,21.929237323521157,11.596366136203613C21.925065143521156,11.597577336203614,21.922243383521156,11.601458816203614,21.922375873521155,11.605801226203614L21.922375873521155,12.459408596203613C21.922375873521155,12.466644296203613,21.918947473521158,12.470071596203613,21.912474203521157,12.470071596203613L21.717306394521156,12.469500396203614Z" fill="#323232" fill-opacity="1" style="mix-blend-mode:passthrough"/><path d="M3.746977928521156,10.727125826203613L2.5171384485211563,11.112195846203614C2.500389456521156,11.117399036203613,2.482928708521156,11.106507356203613,2.4802337885211565,11.089175346203612L2.4079461673411564,10.618301675203613C2.4052620537211564,10.600280487203614,2.4198145245211564,10.584344615463614,2.4380026065211564,10.585388080984613L3.7395589285211566,10.671381980203613C3.753425328521156,10.671929516203614,3.7648873285211564,10.682374775203613,3.7667184285211563,10.696132196203614C3.768549328521156,10.709889636203613,3.7602181285211564,10.722969756203613,3.746977928521156,10.727125826203613Z" fill="#FF9650" fill-opacity="1" style="mix-blend-mode:passthrough"/><path d="M4.173179716021156,12.578008571203613L2.6553313730211565,11.334282041203613C2.6472562474211565,11.327592551203614,2.6434679528211564,11.317034361203614,2.6454481649011563,11.306736971203613C2.647428522121156,11.296439501203613,2.6548625901211564,11.288039411203613,2.664842896021156,11.284822161203614L4.139128616021156,10.823323181703612C4.157588816021156,10.816795440403613,4.176989216021156,10.830375619203613,4.177174616021157,10.849955432203613L4.219976416021156,12.555180871203614C4.220336616021156,12.566415071203613,4.214068916021157,12.576813971203613,4.203966916021156,12.581741771203614C4.193864716021157,12.586669571203613,4.181811016021157,12.585207971203614,4.173179716021156,12.578008571203613Z" fill="#FF9650" fill-opacity="1" style="mix-blend-mode:passthrough"/><path d="M2.291416598521156,11.515202859703614L2.0876798785211563,13.218525908703613C2.0864344985211565,13.230015908703614,2.078158628521156,13.239510808703614,2.0669469385211565,13.242313708703612C2.055735068521156,13.245116608703613,2.0439645185211566,13.240633108703614,2.0374590285211562,13.231081208703614L1.3107788954211563,12.195276618703613C1.3024767036211564,12.182852748703613,1.3054089803511564,12.166096928703613,1.3174369595211564,12.157230558703613L2.247663628521156,11.489902176003612C2.2565263685211563,11.483592244003614,2.2682571585211564,11.483037903603613,2.2776754085211564,11.488484068503613C2.287093538521156,11.493930306303612,2.2924646885211564,11.504374023703614,2.291416598521156,11.515202859703614Z" fill="#FF9650" fill-opacity="1" style="mix-blend-mode:passthrough"/><path d="M2.2592394460211564,11.230123758703613L1.5223531460211563,11.760796108703612C1.5110071560211562,11.769070608703613,1.4953293580211564,11.767869808703614,1.4853759575211563,11.757963718703614C1.4754225539211563,11.748057608703613,1.4741468185211564,11.732385698703613,1.4823670629211563,11.721000368703614L2.1573701060211565,10.770283973703613C2.1641125260211562,10.760731484303614,2.1759963160211564,10.756253227203613,2.1873661460211564,10.758980312613613C2.1987359660211565,10.761707379903614,2.2072954360211563,10.771088992703612,2.2089711560211565,10.782660607703614L2.2708543660211564,11.202704668703614C2.2723857360211563,11.213293458703614,2.2679110360211565,11.223856988703613,2.2592394460211564,11.230123758703613Z" fill="#FF9650" fill-opacity="1" style="mix-blend-mode:passthrough"/><path d="M2.5055270835211565,11.554155184203614L2.288664471791156,13.383791121203613C2.2864081417211564,13.404286721203613,2.305840605521156,13.420413721203612,2.3255691455211562,13.414418221203613L4.109549703521156,12.862750021203613C4.119651303521156,12.859686121203612,4.1272366035211565,12.851295321203613,4.129268203521156,12.840936521203613C4.1313001035211565,12.830577721203614,4.127447103521156,12.819943321203613,4.1192515035211565,12.813290121203613L2.551943253521156,11.535132143603613C2.543837233521156,11.528512713903613,2.5327579635211563,11.526861884003614,2.5230741835211563,11.530830653603614C2.5133903935211563,11.534799350903613,2.506656243521156,11.543750725203614,2.5055270835211565,11.554155184203614Z" fill="#FF9650" fill-opacity="1" style="mix-blend-mode:passthrough"/></g></g></svg>