<svg xmlns="http://www.w3.org/2000/svg" xmlns:xlink="http://www.w3.org/1999/xlink" fill="none" version="1.1" width="24" height="24" viewBox="0 0 24 24"><defs><clipPath id="master_svg0_159_00702"><rect x="0" y="0" width="24" height="24" rx="0"/></clipPath><clipPath id="master_svg1_159_00585"><rect x="1.232421875" y="7.8193359375" width="21.537128448486328" height="6.363933563232422" rx="0"/></clipPath></defs><g clip-path="url(#master_svg0_159_00702)"><g clip-path="url(#master_svg1_159_00585)"><path d="M1.246419619789093,14.164335763806152C1.238660010989093,14.165501863806153,1.231946712999093,14.158906463806153,1.2329754537890931,14.151127663806152L1.234390629189093,12.555281334806152C1.233403868919093,12.547483791606153,1.240037522289093,12.540850156506153,1.247834795789093,12.541836996090153L1.806829156789093,12.541836996090153Q2.140810426789093,12.541836996090153,2.3033197767890927,12.817324313806152C2.3219019767890927,12.849889633806152,2.338215176789093,12.883698073806153,2.352143276789093,12.918509183806153C2.364148476789093,12.948919113806152,2.372769976789093,12.980558093806152,2.377852276789093,13.012854243806153C2.389105176789093,13.126406963806152,2.393437176789093,13.240539553806153,2.390824776789093,13.354619263806152Q2.390824776789093,13.625625363806153,2.3714839767890927,13.717847463806152C2.359467476789093,13.781636763806151,2.334415376789093,13.842260163806152,2.297894876789093,13.895923363806153C2.246847376789093,13.974798563806152,2.178124306789093,14.040695863806153,2.097175836789093,14.088388063806152C2.003942666789093,14.141694663806152,1.8979212067890932,14.168526363806151,1.790554586789093,14.165987063806153L1.246419619789093,14.164335763806152ZM1.502566366789093,12.810012993806152L1.502566366789093,13.898990463806152C1.502566366789093,13.905503863806153,1.507846326789093,13.910783563806152,1.5143595067890931,13.910783563806152L1.7789973067890932,13.910783563806152Q1.9705176967890932,13.910783563806152,2.064155046789093,13.777521363806152C2.088055076789093,13.739927863806152,2.104101176789093,13.697887163806152,2.111327646789093,13.653929263806152C2.115988016789093,13.618329163806152,2.118743656789093,13.582505663806153,2.119582776789093,13.546611663806152Q2.122884806789093,13.475852963806153,2.122648956789093,13.363346393806152C2.122648956789093,13.291172503806152,2.121469676789093,13.231263163806153,2.119582776789093,13.182911693806153C2.1176958067890927,13.134560103806152,2.114157916789093,13.096350133806153,2.110619966789093,13.068282423806153C2.1035226567890932,13.017212573806152,2.084093746789093,12.968640413806153,2.054012896789093,12.926764903806152C1.991037546789093,12.841382743806152,1.899522956789093,12.798691663806153,1.780176456789093,12.798455593806151L1.5143595067890931,12.798455593806151C1.507937196789093,12.798454133806151,1.502694546789093,12.803592053806153,1.502566366789093,12.810012993806152Z" fill="#323232" fill-opacity="1" style="mix-blend-mode:passthrough"/><path d="M2.759541879289093,13.806167151306152C2.765142429289093,13.801375551306153,2.773736969289093,13.802979451306152,2.777231569289093,13.809469251306153C2.821521849289093,13.876999351306152,2.897960159289093,13.916382351306153,2.978658259289093,13.913249051306153C3.042306159289093,13.911671851306153,3.103884459289093,13.890321351306152,3.154847619289093,13.852160651306152C3.184868629289093,13.830918051306153,3.207733329289093,13.801062351306152,3.220417379289093,13.766542451306153C3.2355077292890932,13.724340051306152,3.242781039289093,13.679741251306153,3.2418809492890928,13.634931051306152L3.2418809492890928,12.558218221306152C3.240714549289093,12.550458466206152,3.247310159289093,12.543744933966153,3.255089159289093,12.544773881546153L3.498027739289093,12.544773881546153C3.5060470092890927,12.544773881546153,3.510292529289093,12.549255327806152,3.510292529289093,12.558218221306152L3.510292529289093,13.659460651306151Q3.510292529289093,13.905701251306152,3.3473115592890927,14.043680951306152C3.295298579289093,14.086503051306153,3.236981449289093,14.121031651306152,3.174424229289093,14.146045251306152C3.1141707292890928,14.168968451306153,3.050200519289093,14.180563651306151,2.985734199289093,14.180245551306152C2.940924939289093,14.180469351306153,2.896254779289093,14.175242351306153,2.852707709289093,14.164678651306152C2.812319609289093,14.154691451306153,2.773279179289093,14.139883051306153,2.736427459289093,14.120572351306151C2.701174839289093,14.101941951306152,2.668241319289093,14.079220851306152,2.638308629289093,14.052879851306152C2.608922980289093,14.027297651306153,2.582854144289093,13.998138751306152,2.560709817989093,13.966082651306152C2.558432745109093,13.963323751306152,2.557561792609093,13.959665751306153,2.558351228279093,13.956176151306153C2.558957026169093,13.952549051306152,2.560997286389093,13.949318651306152,2.5640119690890932,13.947213251306152L2.759541879289093,13.806167151306152Z" fill="#323232" fill-opacity="1" style="mix-blend-mode:passthrough"/><path d="M4.943719089289093,13.695922176306151C4.947999089289093,13.695676376306153,4.952132089289093,13.697522976306152,4.954804589289093,13.700875376306152C4.957745489289093,13.703955076306153,4.958662089289093,13.708446976306153,4.957163389289093,13.712432876306153Q4.909990989289093,13.940039976306153,4.749604289289093,14.061981276306152C4.698553559289093,14.100928776306151,4.641301389289093,14.130989576306153,4.580255149289093,14.150901276306152C4.516655799289093,14.171459476306152,4.450145299289093,14.181574576306152,4.383309779289093,14.180855376306152C4.268316689289093,14.184891376306153,4.154959349289093,14.152715776306152,4.059234469289093,14.088869176306153C3.982038019289093,14.037424776306153,3.917977679289093,13.968597976306153,3.872195445289093,13.887914676306153C3.859148610289093,13.863291876306153,3.847724199289093,13.837843176306151,3.837995443289093,13.811731076306152C3.827694449289093,13.785616976306152,3.819799555289093,13.758616376306152,3.814409187289093,13.731066276306152Q3.800021555259093,13.648514276306152,3.800257468214993,13.356752396306153C3.800257468214993,13.259577096306153,3.801672585989093,13.180091146306152,3.803795442689093,13.118531046306153C3.804543130089093,13.073435486306153,3.808325475089093,13.028441046306153,3.815116925289093,12.983853366306151C3.820569915289093,12.956088306306153,3.828462653289093,12.928858456306152,3.838703181289093,12.902480836306152C3.848420240289093,12.876097436306152,3.859925631289093,12.850407596306152,3.873139098289093,12.825589776306153C3.919437779289093,12.745403466306152,3.983503879289093,12.676899446306152,4.060414049289093,12.625342302306152Q4.191081909289093,12.530997276306152,4.384725269289093,12.530997276306152Q4.616106389289093,12.530997276306152,4.767530079289093,12.673694206306152C4.866320689289093,12.763852176306152,4.932847289289093,12.883897866306153,4.956927389289093,13.015458856306152C4.958541489289093,13.019283116306152,4.9575996892890934,13.023708436306153,4.954568589289093,13.026544426306153C4.951632189289093,13.029477206306153,4.947632589289093,13.031094256306153,4.943483089289093,13.031025886306152L4.689459319289093,13.031025886306152C4.683675769289093,13.031631586306153,4.6783740492890935,13.027757256306153,4.677194359289093,13.022062986306153C4.6676207192890935,12.992497746306153,4.653710309289093,12.964518216306152,4.635918439289093,12.939039256306152C4.617162289289093,12.912407186306153,4.595133359289093,12.888238246306152,4.570348619289093,12.867101076306152C4.518915649289093,12.822529556306153,4.452504809289093,12.799100186306152,4.384488819289093,12.801531316306152C4.335225279289093,12.800106826306152,4.286443649289093,12.811570646306153,4.242971239289093,12.834788026306152C4.207050229289093,12.854281156306152,4.175059799289093,12.880273346306153,4.148626209289093,12.911443356306153C4.134005579289093,12.930077076306151,4.121727469289093,12.950435046306152,4.112067459289093,12.972060206306152C4.101877869289093,12.994805756306153,4.093976859289093,13.018508616306152,4.088481189289093,13.042818966306152C4.080720189289093,13.081664856306153,4.076535819289093,13.121140656306153,4.075980509289093,13.160750266306152C4.073621899289093,13.213583586306152,4.072442559289093,13.278681516306152,4.072442559289093,13.358874676306153C4.072442559289093,13.439067776306153,4.072442559289093,13.506524566306153,4.075744599289093,13.558886076306152C4.076394769289093,13.597920176306152,4.080419479289093,13.636825576306153,4.087773649289093,13.675166176306153C4.093825129289093,13.698812876306153,4.102199609289093,13.721803476306153,4.112775029289093,13.743802176306152C4.122614799289093,13.764863776306152,4.134714899289093,13.784793176306152,4.148861949289093,13.803239676306152C4.174406409289093,13.836164576306153,4.206539359289093,13.863397676306153,4.243207009289093,13.883197076306152C4.286864729289093,13.905872776306152,4.3355434492890925,13.917149776306152,4.384724499289093,13.915982276306153Q4.577188489289093,13.915982276306153,4.677665769289093,13.705828676306153L4.683326599289093,13.700875376306152C4.685082559289093,13.699118776306152,4.687447489289093,13.698105576306153,4.6899307392890925,13.698045276306152L4.943719089289093,13.695922176306151Z" fill="#323232" fill-opacity="1" style="mix-blend-mode:passthrough"/><path d="M5.046822583789093,14.166916388806152C5.042390443389093,14.167397888806152,5.038076709489093,14.165286688806152,5.035737014389093,14.161491288806152C5.033456702319093,14.157809388806152,5.033020866159093,14.153275388806152,5.034557629489093,14.149226588806153L5.619496886789093,12.552672756806153C5.620337606789093,12.547278969506152,5.625132146789093,12.543402151346152,5.630582456789093,12.543709863898153L5.830122406789093,12.543709863898153C5.832717956789093,12.543893771626152,5.835191846789093,12.544883130506152,5.837198256789093,12.546540099406153C5.839544116789093,12.547971053006153,5.841364506789093,12.550122161906152,5.842387256789093,12.552672396406152L6.423316926789093,14.150169588806152C6.425215626789093,14.154037588806153,6.425215626789093,14.158566688806152,6.423316926789093,14.162434088806153C6.4213742267890925,14.166037988806153,6.417493726789093,14.168163688806153,6.413410726789093,14.167859188806153L6.157027926789093,14.167859188806153C6.151619326789093,14.168295388806152,6.146787726789093,14.164491888806152,6.145942226789093,14.159132488806152L6.028010966789093,13.815008988806152C6.026343996789093,13.810289988806153,6.021929086789093,13.807096588806152,6.016925396789093,13.806989788806153L5.445666286789093,13.806989788806153C5.440662626789093,13.807096588806152,5.436247766789093,13.810289988806153,5.434580716789093,13.815008988806152C5.414532246789093,13.872088088806152,5.394955966789093,13.928458788806152,5.375379326789093,13.983415088806153C5.355802686789093,14.038371588806152,5.334339116789093,14.099459788806152,5.313347336789093,14.158896888806153C5.312372386789093,14.161405588806153,5.310641286789093,14.163548388806152,5.308394076789093,14.165029788806152C5.306309936789093,14.166678088806153,5.303739156789093,14.167589888806152,5.301082406789093,14.167623888806153L5.046822583789093,14.166916388806152ZM5.940977696789093,13.552258488806153C5.913617486789093,13.470414098806152,5.782949806789093,13.082184548806152,5.743796526789093,12.965668348806153C5.742347596789093,12.960753228806153,5.737835226789093,12.957379218806153,5.732710956789093,12.957379218806153C5.727586746789093,12.957379218806153,5.723074376789093,12.960753228806153,5.721625386789093,12.965668348806153C5.682472166789093,13.082184548806152,5.553927126789093,13.463102398806152,5.523736746789093,13.551550988806152C5.521165996789093,13.559160988806152,5.526789756789093,13.567058088806153,5.534822346789093,13.567117888806152L5.929892126789093,13.567117888806152C5.937629876789093,13.567124688806153,5.943188486789093,13.559673788806153,5.940977696789093,13.552258488806153Z" fill="#323232" fill-opacity="1" style="mix-blend-mode:passthrough"/><path d="M6.691534861789093,14.169254976306153C6.683792742389093,14.170468476306151,6.677112681089093,14.163788876306153,6.678326616079093,14.156046776306152L6.679741733989093,12.559964765306152C6.678712786349093,12.552185575506153,6.685426318589093,12.545590089606153,6.693186073789093,12.546756518156153L7.317750456789093,12.546756518156153C7.381238516789093,12.545967622306152,7.444425046789093,12.555609282106152,7.5047892967890935,12.575296046306152C7.558067796789093,12.592938233306151,7.607583226789093,12.620375395306151,7.650788246789093,12.656196736306152C7.697095576789093,12.699826416306152,7.735621876789093,12.751035536306153,7.764709576789093,12.807620466306153C7.780080776789093,12.837686686306153,7.792179076789093,12.869316276306153,7.800796476789093,12.901965496306152C7.809608276789093,12.935773226306152,7.814047276789093,12.970571696306152,7.814004676789093,13.005509166306153C7.814222876789093,13.056266966306152,7.806747776789093,13.106764556306153,7.791833576789093,13.155282016306153C7.777164176789093,13.202012956306152,7.7560475767890935,13.246468956306153,7.729094076789093,13.287365256306153C7.701895176789093,13.324781956306152,7.669672076789093,13.358274756306152,7.633333976789093,13.386899236306153C7.599456016789093,13.413271846306152,7.561963316789093,13.434639276306152,7.522006746789093,13.450346286306152C7.515491966789093,13.452823516306152,7.512534976789093,13.460379956306152,7.515638766789093,13.466620866306153Q7.602672096789093,13.634083476306152,7.690884376789093,13.802253276306152Q7.782163176789093,13.976555676306152,7.8720267767890935,14.149207376306153C7.874418676789093,14.153537476306152,7.874418676789093,14.158792776306152,7.8720267767890935,14.163123176306152C7.869881076789093,14.167191376306153,7.865526976789093,14.169599776306152,7.860941076789093,14.169255776306152L7.572953226789093,14.169255776306152C7.570411566789093,14.169143476306152,7.567990956789093,14.168141376306153,7.5661129967890925,14.166425476306152L7.560687896789093,14.161472576306153L7.238263786789093,13.494217156306153C7.2363469567890935,13.490075766306152,7.232213136789093,13.487411796306152,7.227650046789093,13.487377286306153L6.959710506789093,13.487377286306153C6.953158196789093,13.487376216306153,6.947810466789093,13.492619516306153,6.947681636789093,13.499170426306152L6.947681636789093,14.155575976306153C6.948667766789093,14.163372776306153,6.942034486789093,14.170006476306153,6.9342372667890935,14.169020376306152L6.691534861789093,14.169254976306153ZM6.947917376789093,12.801252066306152L6.947917376789093,13.235239026306152C6.947784926789093,13.241844296306152,6.953103836789093,13.247269336306152,6.959710506789093,13.247267906306153L7.300767596789093,13.247267906306153C7.3870933667890935,13.247267906306153,7.451484086789093,13.223681626306153,7.494882766789093,13.176509146306152C7.559937836789093,13.103000046306152,7.577504456789093,12.998882356306153,7.540168706789093,12.908097446306153C7.527665076789093,12.880123286306151,7.508270206789093,12.855778036306152,7.483797196789093,12.837338656306152C7.460831346789093,12.821862696306152,7.435498176789093,12.810231896306153,7.408793036789093,12.802902576306153C7.378478166789093,12.794385586306152,7.347115216789093,12.790177296306153,7.315627036789093,12.790401876306152L6.959710506789093,12.790401876306152C6.953868266789093,12.790326656306153,6.948851646789093,12.794540686306153,6.947917376789093,12.800308406306153L6.947917376789093,12.801252066306152Z" fill="#323232" fill-opacity="1" style="mix-blend-mode:passthrough"/><path d="M8.148321744289094,13.761389626306153C8.150371714289093,13.758491026306153,8.153735324289093,13.756809226306153,8.157284634289093,13.756908226306152C8.160926784289092,13.756924026306152,8.164473234289092,13.758078526306152,8.167426544289093,13.760210226306153C8.228059234289093,13.809064626306153,8.296254094289093,13.847702826306152,8.369324834289094,13.874603426306152C8.446414234289094,13.903414626306152,8.528080044289092,13.918038026306153,8.610376414289092,13.917765826306152Q8.751893994289093,13.917765826306152,8.835389494289092,13.858800326306152C8.885370674289092,13.825318226306152,8.914878014289092,13.768703126306152,8.913696054289094,13.708555926306152Q8.913696054289094,13.532602306306153,8.716750684289092,13.505713936306153L8.717929724289093,13.505713936306153C8.699296354289093,13.503591236306152,8.681606714289092,13.501232506306152,8.664860604289093,13.498874126306152L8.614857914289093,13.492269996306153L8.563439964289094,13.484958236306152L8.506125574289094,13.476702986306153C8.441631194289092,13.468316676306152,8.378749164289093,13.450350526306153,8.319558204289093,13.423398136306153C8.267144854289093,13.399464966306152,8.220368954289093,13.364744956306152,8.182285994289092,13.321505366306152C8.145970894289093,13.279882136306153,8.117662774289093,13.231903436306153,8.098790464289094,13.179987786306153C8.079848319289093,13.126460256306153,8.070506088289093,13.070008816306153,8.071194216289094,13.013232796306152Q8.071194216289094,12.800956486306152,8.212711754289092,12.669345126306153Q8.354229334289093,12.537733762106152,8.605894984289094,12.534903526306152C8.654615764289094,12.534892369477152,8.703239444289093,12.539233815906153,8.751186434289092,12.547876039306152C8.842971084289093,12.564340282306153,8.931876664289092,12.594055235306152,9.015116664289092,12.636088766306152C9.055131464289094,12.656339496306153,9.093955064289093,12.678861896306152,9.131396864289092,12.703545476306152C9.138547264289093,12.707101266306152,9.140311464289093,12.716509716306152,9.134934464289094,12.722414556306152L8.999784964289093,12.921718356306153C8.996174564289094,12.928047536306153,8.987745864289092,12.929620976306152,8.982095364289092,12.925020426306153C8.924146774289094,12.888618196306153,8.862071574289093,12.859243006306153,8.797179224289094,12.837515236306153C8.731922504289093,12.815430496306153,8.663466394289093,12.804273666306152,8.594573314289093,12.804494646306152C8.561127304289093,12.804211766306153,8.527798654289093,12.808497046306153,8.495510754289093,12.817231056306152C8.465526224289093,12.825490326306152,8.437470794289093,12.839597966306153,8.412958834289093,12.858742746306152C8.365786344289093,12.893650326306153,8.340548874289093,12.946719376306152,8.340548874289093,13.018185706306152C8.342102914289093,13.062090336306152,8.359437734289093,13.103961946306152,8.389372584289093,13.136116986306153C8.407949804289093,13.155422266306152,8.430258424289093,13.170749246306153,8.454942374289093,13.181166826306152C8.487363394289092,13.194809076306152,8.521478834289093,13.204012456306153,8.556362984289093,13.208526966306152C8.577826564289094,13.212300896306152,8.603535474289092,13.216310496306152,8.631839274289092,13.220320106306152C8.660143074289094,13.224329706306152,8.695050294289093,13.228811206306153,8.734439674289092,13.233292636306153Q8.962990584289093,13.261360346306152,9.072902664289092,13.401698466306152C9.144253764289093,13.487364236306153,9.183165864289093,13.595416626306152,9.182814664289094,13.706904626306152Q9.182814664289094,13.931917826306153,9.025494064289093,14.058576026306152Q8.868173364289094,14.185233926306152,8.609197374289092,14.184998526306153Q8.245261644289092,14.184998526306153,7.990294246889093,13.961636826306153C7.987399229989093,13.959692626306152,7.985706990883093,13.956395826306153,7.985812800812093,13.952909926306152C7.985664522949093,13.949243326306153,7.986835630189093,13.945644226306152,7.989115222389093,13.942768026306153L8.148321744289094,13.761389626306153Z" fill="#323232" fill-opacity="1" style="mix-blend-mode:passthrough"/><path d="M10.126302399289093,14.155592201306153C10.118542284189093,14.156758101306153,10.111829471949093,14.150162701306153,10.112858059639093,14.142383901306152L10.114509270389092,12.546301886306152C10.113294975479093,12.538559766906152,10.119975396889092,12.531879345606152,10.127717517289094,12.533093640596153L10.706995909289093,12.533093640596153C10.768020929289094,12.532865825342153,10.828872439289093,12.539591954106152,10.888374329289093,12.553142102306152C10.956019939289092,12.571746297306152,11.018960299289093,12.604462437306152,11.073054429289092,12.649138351306153C11.098934649289093,12.669923511306152,11.122287689289093,12.693671731306152,11.142634189289094,12.719897101306152C11.164531089289094,12.747138131306153,11.183725789289094,12.776444241306152,11.199948489289094,12.807402281306153C11.216910589289093,12.841726451306153,11.229585389289094,12.878007381306153,11.237686689289093,12.915427391306153C11.246848289289094,12.956699011306153,11.251357689289094,12.998866801306152,11.251131089289093,13.041142161306153Q11.251131089289093,13.216387931306151,11.119283989289093,13.375123681306153Q10.987436889289093,13.533859501306152,10.737186309289093,13.532915831306152L10.393770459289094,13.532915831306152C10.387257039289093,13.532915831306152,10.381977349289093,13.538195801306152,10.381977349289093,13.544709001306153L10.381977349289093,14.131535201306152C10.381977349289093,14.145342801306153,10.370783809289094,14.156536501306153,10.356975959289093,14.156536501306153L10.126302399289093,14.155592201306153ZM10.382448819289094,12.801269261306153L10.382448819289094,13.265447021306151C10.382448819289094,13.271960081306153,10.387728509289094,13.277240161306153,10.394241929289093,13.277240161306153L10.729638519289093,13.277240161306153C10.815020679289093,13.277240161306153,10.878467799289092,13.251766921306153,10.920215189289094,13.200584771306152C10.961120489289094,13.154564321306152,10.983772459289092,13.095166381306152,10.983898339289093,13.033594011306153Q10.983898339289093,12.895614291306153,10.886015539289094,12.831931471306152C10.836384889289093,12.801777811306152,10.778932989289093,12.787004381306152,10.720911739289093,12.789476151306152L10.395421679289093,12.789476151306152C10.388453339289093,12.788775411306153,10.382413539289093,12.794266011306153,10.382448819289094,12.801269261306153Z" fill="#323232" fill-opacity="1" style="mix-blend-mode:passthrough"/><path d="M11.534308298289092,14.156568763806153C11.526566179489093,14.157782863806153,11.519885758789092,14.151102563806152,11.521100053579094,14.143360463806152L11.522515171289093,12.547278448806152C11.521301596279093,12.539536329406152,11.527981297589093,12.532856627906153,11.535723417289093,12.534070203096153L12.160523114289093,12.534070203096153C12.224011184289093,12.533281307316152,12.287198424289093,12.542922607606153,12.347561954289093,12.562609731806152C12.400854114289093,12.580333254806153,12.450368884289093,12.607850312806152,12.493560914289093,12.643746513806152C12.516030014289093,12.664713073806153,12.536627714289093,12.687599683806152,12.555120614289093,12.712146523806153C12.575044614289093,12.738100183806152,12.592570214289093,12.765810143806153,12.607482214289092,12.794934153806153C12.622800214289093,12.825023413806152,12.634896314289094,12.856647253806152,12.643569214289093,12.889279183806153C12.652410314289092,12.923081483806152,12.656849414289093,12.957883593806152,12.656777414289094,12.992822823806152C12.657029314289094,13.043600793806153,12.649472214289093,13.094115313806153,12.634370114289093,13.142595703806153C12.619780614289093,13.189242063806152,12.598743114289093,13.233620643806152,12.571866714289094,13.274442793806152C12.544725314289092,13.311908903806152,12.512495874289094,13.345409213806152,12.476106584289093,13.373976883806153C12.442123654289093,13.400381803806152,12.404560384289093,13.421823743806153,12.364543374289093,13.437659683806153C12.358146544289093,13.440128203806152,12.355292554289093,13.447591363806152,12.358410654289093,13.453698153806153Q12.445444044289093,13.621160763806152,12.533656314289093,13.789330463806152Q12.624935114289093,13.963633163806152,12.714798614289093,14.136520163806152C12.717147314289093,14.140861963806152,12.717147314289093,14.146095063806152,12.714798614289093,14.150435963806153C12.712543514289093,14.154368963806153,12.708234114289093,14.156660763806153,12.703713114289092,14.156332563806153L12.416198014289092,14.156332563806153C12.413782414289093,14.156166163806152,12.411476854289093,14.155260963806153,12.409593884289093,14.153738463806153L12.404168784289093,14.148785563806152L12.081744374289093,13.481294393806152C12.079718114289093,13.477283003806152,12.075623984289093,13.474735913806152,12.071130214289093,13.474690253806152L11.801776354289093,13.474690253806152C11.795354334289094,13.474689123806153,11.790111334289094,13.479826743806152,11.789983214289093,13.486247653806153L11.789983214289093,14.142889063806152C11.791197504289093,14.150631063806152,11.784517084289092,14.157311563806152,11.776774974289093,14.156097163806152L11.534308298289092,14.156568763806153ZM11.790454684289093,12.788565753806152L11.790454684289093,13.222788813806153C11.790454684289093,13.229301933806152,11.795734374289093,13.234581943806152,11.802247824289093,13.234581943806152L12.143777074289092,13.234581943806152C12.230102834289093,13.234581943806152,12.294493554289094,13.210995733806152,12.337656084289094,13.163823183806151C12.402897654289093,13.090413453806152,12.420567154289094,12.986226973806152,12.383177404289093,12.895411463806152C12.370709774289093,12.867415393806152,12.351307754289094,12.843061833806152,12.326805894289093,12.824652703806152C12.303904894289094,12.809007583806153,12.278555874289093,12.797289673806151,12.251801784289093,12.789980853806153C12.221474644289094,12.781547043806153,12.190112474289093,12.777418283806153,12.158635794289093,12.777715933806153L11.802955354289093,12.777715933806153C11.796709714289094,12.777130733806151,11.791062924289093,12.781443033806152,11.789983214289093,12.787622123806152L11.790454684289093,12.788565753806152Z" fill="#323232" fill-opacity="1" style="mix-blend-mode:passthrough"/><path d="M12.915488064289093,13.347239431306152Q12.915488064289093,13.201476511306153,12.919733417689093,13.109018031306153C12.920830385789094,13.063966751306152,12.924373218789093,13.019007981306153,12.930347522289093,12.974340381306153C12.935306193289094,12.946586521306152,12.942807181289092,12.919347611306153,12.952754754289092,12.892967851306153C12.962529577289093,12.866417501306152,12.974440030289093,12.840702771306152,12.988370232289093,12.816076781306153C13.034668904289093,12.735890851306152,13.098735024289093,12.667386841306152,13.175645174289093,12.615829333306152Q13.306077864289094,12.521484299506152,13.499956194289092,12.521484299506152C13.614418094289093,12.517979975306153,13.727021454289092,12.551025783306152,13.821437004289093,12.615829333306152C13.898437854289092,12.667918051306152,13.962891264289093,12.736479651306153,14.010126964289093,12.816548231306152C14.037231664289093,12.865894551306152,14.056036964289094,12.919362751306153,14.065790264289094,12.974812181306152C14.072448464289092,13.019420061306153,14.076307964289093,13.064400431306153,14.077347364289093,13.109489861306152Q14.080885864289094,13.201947991306152,14.080885864289094,13.347711201306153Q14.080885864289094,13.633812651306153,14.065083464289092,13.722025051306153C14.060118264289093,13.750011351306153,14.052859864289093,13.777542851306153,14.043384464289094,13.804341151306152C14.034153864289094,13.829934951306152,14.023119364289093,13.854842051306152,14.010363164289092,13.878873851306153C13.962573064289092,13.959005151306153,13.897456054289092,14.027426551306153,13.819785774289093,14.079120951306152C13.724946974289093,14.142999251306152,13.612347964289093,14.175276851306153,13.498068924289093,14.171343251306153C13.369523494289092,14.171343251306153,13.262206314289093,14.140445351306152,13.173993944289093,14.078649451306152C13.096733274289093,14.027379851306153,13.032652054289093,13.958611951306153,12.986955113289094,13.877930151306153L12.988134138289093,13.877930151306153C12.974285274289093,13.853542051306153,12.962452560289092,13.828062751306152,12.952754754289092,13.801746651306152C12.942854687289094,13.775593651306153,12.935354419289093,13.748594051306153,12.930347522289093,13.721081751306151C12.924589157989093,13.676159251306153,12.921125501889094,13.630971951306153,12.919969510789093,13.585696451306152Q12.915488064289093,13.493238031306152,12.915488064289093,13.347239431306152ZM13.183899794289093,13.347239431306152Q13.183899794289093,13.468472721306153,13.187202214289092,13.547250751306152C13.187852174289093,13.586284851306152,13.191876564289092,13.625189851306152,13.199231444289094,13.663530851306152C13.205325934289093,13.687163851306153,13.213699314289093,13.710150551306153,13.224232794289094,13.732166851306152C13.234019134289094,13.753257251306152,13.246122504289094,13.773192751306151,13.260319744289093,13.791604351306152C13.285812734289093,13.824517351306152,13.317960234289092,13.851682551306153,13.354664054289094,13.871326051306152C13.398260654289093,13.894189751306152,13.446969214289092,13.905554451306152,13.496181604289093,13.904346751306152C13.545402644289092,13.905916551306152,13.594181714289093,13.894615751306151,13.637699184289094,13.871561451306153C13.674545464289093,13.852229451306153,13.706739004289092,13.825106251306153,13.732044224289092,13.792075851306151C13.762991074289094,13.755169551306153,13.784304204289093,13.711165951306153,13.794076144289093,13.664002651306152Q13.811765854289092,13.593243951306153,13.812238034289093,13.347710851306152C13.812238034289093,13.266810181306152,13.810586754289092,13.200296761306152,13.807992694289092,13.147935211306152C13.806610644289092,13.109191541306153,13.802114844289093,13.070621311306152,13.794548334289093,13.032598431306152C13.789305334289093,13.008218611306152,13.781394784289093,12.984489471306153,13.770962114289093,12.961839671306151C13.761221824289093,12.940205481306153,13.748864294289094,12.919847901306152,13.734167574289094,12.901222821306153C13.722267924289094,12.886034791306152,13.708742974289093,12.872193841306153,13.693834604289092,12.859946881306152C13.677300874289093,12.846114931306152,13.659166274289094,12.834316401306152,13.639822544289093,12.824803231306152C13.618758444289092,12.814697291306153,13.596706804289093,12.806793211306152,13.574017404289092,12.801216961306153C13.500819984289093,12.782620701306152,13.423375724289093,12.790993361306151,13.355844524289093,12.824803231306152C13.319961284289093,12.844451841306153,13.287984344289093,12.870513111306153,13.261499494289094,12.901694301306152C13.246884764289092,12.920376241306153,13.234533784289093,12.940723751306152,13.224704984289094,12.962311151306153C13.214758874289092,12.984744671306153,13.206864144289092,13.008032921306153,13.201118734289093,13.031890511306152C13.193586794289093,13.070766331306153,13.189483224289093,13.110228001306153,13.188854124289094,13.149821821306153Q13.183899794289093,13.228128731306152,13.183899794289093,13.347475111306153L13.183899794289093,13.347239431306152Z" fill="#323232" fill-opacity="1" style="mix-blend-mode:passthrough"/><path d="M14.698829654289092,14.159495251306152C14.691162344289094,14.160486351306153,14.684630934289093,14.153954851306153,14.685621384289092,14.146286951306152L14.685621384289092,12.790312831306153C14.685621384289092,12.783799751306152,14.680340944289092,12.778519701306152,14.673828244289092,12.778519701306152L14.272861872289093,12.778519701306152C14.258923754289093,12.778519351306151,14.247624404419094,12.767220351306152,14.247624404419094,12.753282221306153L14.247624404419094,12.550204538306152C14.246595096949093,12.542425348906152,14.253309349089093,12.535829503206152,14.261068743289092,12.536996291626153L15.376934614289093,12.536996291626153C15.384804714289093,12.535789914506152,15.391585214289092,12.542569668006152,15.390378814289093,12.550440630306152L15.390378814289093,12.753518331306152C15.390250714289094,12.767403181306152,15.379026214289093,12.778628021306153,15.365141314289094,12.778755781306153L14.965590124289093,12.778755781306153C14.958985264289094,12.778623361306153,14.953559454289094,12.783942271306152,14.953560884289093,12.790548921306153L14.953560884289093,14.146522951306153C14.954774494289094,14.154265051306153,14.948094784289093,14.160944851306152,14.940352674289093,14.159731251306152L14.698829654289092,14.159495251306152Z" fill="#323232" fill-opacity="1" style="mix-blend-mode:passthrough"/><path d="M15.624349993289092,14.159495551306152C15.616590599089093,14.160661551306152,15.609877786479093,14.154066051306152,15.610905654419094,14.146287351306153L15.612320772389094,12.550440991306152C15.611112955519094,12.542569668006152,15.617893428989094,12.535789194606153,15.625765112289093,12.536996651526152L16.645870764289093,12.536996651526152C16.653539464289093,12.536004413446152,16.660070864289093,12.542536557206152,16.659078864289093,12.550204897306152L16.659078864289093,12.779699071306153C16.660246564289093,12.787459191306151,16.653650364289092,12.794173091306153,16.645870764289093,12.793143421306151L15.892525614289093,12.793143421306151C15.885974054289093,12.793271181306153,15.880731044289092,12.798619631306153,15.880732474289093,12.805172291306153L15.880732474289093,13.208968881306152C15.880860624289094,13.215520441306152,15.886210144289093,13.220763441306152,15.892761704289093,13.220762011306153L16.519448754289094,13.220762011306153C16.533386884289094,13.220762011306153,16.544686194289092,13.232061381306153,16.544686194289092,13.245999451306153L16.544686194289092,13.451907751306152C16.544686194289092,13.460163121306152,16.540204764289093,13.464172721306152,16.531241894289092,13.464172721306152L15.892761704289093,13.464172721306152C15.886249004289093,13.464172721306152,15.880968604289093,13.469452741306153,15.880968604289093,13.475965861306152L15.880968604289093,13.895565251306152C15.880967144289093,13.902171451306153,15.886392954289093,13.907490751306153,15.892997804289093,13.907358451306152L16.646106764289094,13.907358451306152C16.653848964289093,13.906144751306153,16.660528764289094,13.912824551306151,16.659315064289093,13.920566551306152L16.659315064289093,14.147938451306153C16.660528764289094,14.155680651306152,16.653848964289093,14.162360151306153,16.646106764289094,14.161146751306152L15.624349993289092,14.159495551306152Z" fill="#323232" fill-opacity="1" style="mix-blend-mode:passthrough"/><path d="M18.023599276789092,13.690567863806152C18.02791377678909,13.690417363806151,18.032036676789094,13.692347663806153,18.034684076789095,13.695756763806152C18.037678576789094,13.698808763806152,18.038601176789093,13.703333863806153,18.037042176789093,13.707314263806152Q17.989869676789095,13.934921463806152,17.829719546789093,14.056862663806152C17.778442676789094,14.095590563806152,17.721151296789092,14.125631363806152,17.660134256789092,14.145782563806153C17.596507246789095,14.166223563806152,17.530015406789094,14.176336663806152,17.463189606789093,14.175737063806153C17.348265616789092,14.179576363806152,17.235048946789092,14.147146663806152,17.139586806789094,14.083043263806152C17.062326866789093,14.031773463806152,16.99824634678909,13.963005763806152,16.952547967789094,13.882323863806153C16.939374275789092,13.857614763806152,16.927794202789094,13.832090063806152,16.91787542378909,13.805904663806153C16.908007027789093,13.779759563806152,16.900585937789092,13.752755763806153,16.895704284789094,13.725239663806152C16.885798460789093,13.670047963806152,16.881080921429092,13.545512563806152,16.881317014334893,13.350925863806152C16.881317014334893,13.253750683806153,16.882732132089092,13.174264733806153,16.885090182089094,13.112468833806153C16.885809977489092,13.067381203806152,16.889512605989093,13.022390393806152,16.896175032789092,12.977791163806152C16.90168866478909,12.950040873806152,16.909580502789094,12.922816393806153,16.919761288789093,12.896418633806153C16.929626803789095,12.870171273806152,16.941127698789092,12.844569233806153,16.954197741789095,12.819763303806152C17.000486346789092,12.739506813806152,17.064551026789093,12.670923993806152,17.14147266678909,12.619280107806153Q17.272140056789095,12.526350196796152,17.465783716789094,12.526114463806152Q17.697637016789095,12.526114463806152,17.848588166789092,12.669047133806153C17.947575976789093,12.758800583806153,18.01443327678909,12.878512973806153,18.038929476789093,13.009868473806153C18.040513076789093,13.013771203806153,18.039581576789093,13.018244353806152,18.036571476789092,13.021189753806153C18.03363467678909,13.024122203806153,18.029635476789093,13.025739253806153,18.025486576789092,13.025671213806152L17.76934015678909,13.025671213806152C17.763482446789094,13.026261093806152,17.75815027678909,13.022261913806153,17.757074836789094,13.016472573806153C17.747451186789093,12.987002013806153,17.733543336789094,12.959107423806152,17.715798916789094,12.933684943806153C17.697110116789094,12.906998903806151,17.675072906789094,12.882822033806152,17.650228436789092,12.861746813806153C17.598879636789093,12.817006823806153,17.532431066789094,12.793479983806153,17.46436857678909,12.795941323806153C17.415123046789095,12.794689593806153,17.366384296789093,12.806142953806152,17.32285106678909,12.829198003806152C17.286959196789095,12.848833323806153,17.254978656789092,12.874896373806152,17.22850602678909,12.906089063806153C17.213969026789094,12.924780363806152,17.201697946789093,12.945127933806152,17.19194763678909,12.966705913806152C17.18172076678909,12.989437073806153,17.173818856789094,13.013143893806152,17.168361366789092,13.037464673806152C17.160655226789093,13.075921233806152,17.156470356789093,13.115000303806152,17.155859946789093,13.154216643806151Q17.152321456789092,13.233466443806153,17.152321456789092,13.352341053806152C17.152321456789092,13.433477823806152,17.153500466789094,13.499990823806153,17.15562385678909,13.552352463806152C17.156294706789094,13.591463563806153,17.160318376789093,13.630445263806152,17.167653086789095,13.668868563806152C17.173847646789092,13.692471063806153,17.182217416789094,13.715448063806152,17.192654456789093,13.737504563806151C17.20257180678909,13.758575163806153,17.214750736789092,13.778504863806152,17.228976786789094,13.796942163806152C17.25451513678909,13.829810863806152,17.28665253678909,13.856966963806153,17.323321786789094,13.876663463806153C17.367269606789094,13.899724263806153,17.416408596789093,13.911094763806153,17.466018376789094,13.909683963806152Q17.658481536789093,13.909683963806152,17.758959296789094,13.699294663806153L17.764619766789092,13.694341263806152C17.766376076789093,13.692584763806153,17.768741306789092,13.691571563806152,17.771224556789093,13.691511163806153L18.023599276789092,13.690567863806152Z" fill="#323232" fill-opacity="1" style="mix-blend-mode:passthrough"/><path d="M18.564904836789093,14.162660938806152C18.557236166789092,14.163652738806153,18.55070471678909,14.157120538806153,18.551696596789093,14.149452638806153L18.55358388678909,12.793478968806152C18.55358388678909,12.786965888806153,18.548303456789093,12.781685828806152,18.541790756789094,12.781685828806152L18.140824394789092,12.781685828806152C18.126978406789092,12.781556638806153,18.115821577519093,12.770295078806152,18.115823017109093,12.756448368806153L18.115823017109093,12.553370678806152C18.114615200289094,12.545499355506152,18.121395673089093,12.538718882106153,18.129267355789093,12.539926339026152L19.24513307678909,12.539926339026152C19.253003376789092,12.538719961906152,19.259783876789093,12.545499715006152,19.258577476789092,12.553370678806152L19.258577476789092,12.756448368806153C19.258575976789093,12.770386848806153,19.24727817678909,12.781685468806153,19.233339976789093,12.781685828806152L18.833552716789093,12.781685828806152C18.827039956789093,12.781685828806152,18.821759526789094,12.786965888806153,18.821759526789094,12.793478968806152L18.820580486789094,14.149452638806153C18.821794036789093,14.157194738806153,18.815114376789094,14.163874538806152,18.807372276789092,14.162660938806152L18.564904836789093,14.162660938806152Z" fill="#323232" fill-opacity="1" style="mix-blend-mode:passthrough"/><path d="M19.463011318789093,14.163637501306152C19.455231770389094,14.164666801306153,19.448635565189093,14.157953101306152,19.449803073319092,14.150193201306152L19.451218190989092,12.554346880306152C19.450052122529094,12.546587126306152,19.456646887589095,12.539873594006153,19.464426436789093,12.540902541626153L19.706185551789094,12.540902541626153C19.714055801789094,12.539696164506152,19.720836281789094,12.546475918006152,19.71962991178909,12.554346880306152L19.718214781789094,14.150193201306152C19.719244061789095,14.157972601306152,19.71252984178909,14.164568201306153,19.70477041178909,14.163401501306152L19.463011318789093,14.163637501306152Z" fill="#323232" fill-opacity="1" style="mix-blend-mode:passthrough"/><path d="M20.045488923239095,13.353900551306152Q20.045488923239095,13.208137691306153,20.049498183689092,13.115679261306152C20.051129240089093,13.070449051306152,20.055144259689094,13.025337011306153,20.061527406789093,12.980530081306153C20.066486796789093,12.952776551306153,20.073987066789094,12.925537701306153,20.08393463478909,12.899157551306152C20.093712340789093,12.872683851306153,20.105623513789094,12.847047981306153,20.119550116789092,12.822502221306152C20.165703396789095,12.742144641306153,20.229793976789093,12.673533721306152,20.306825036789093,12.622019052306152C20.401344266789092,12.558165274306152,20.513587746789092,12.525730573106152,20.627597566789092,12.529324871516152C20.74215733678909,12.525620084206153,20.85489743678909,12.558681369306152,20.949314476789095,12.623669907306152C21.026362836789094,12.675802171306152,21.090821876789093,12.744451581306153,21.138004476789092,12.824624921306153C21.164913376789094,12.873952511306152,21.183632276789094,12.927323161306152,21.193431676789093,12.982652751306153C21.200078276789093,13.027261731306153,21.203937876789094,13.072241361306153,21.204988776789094,13.117330431306153C21.207582776789092,13.178890581306153,21.208761876789094,13.258848011306153,21.208761876789094,13.355551781306152C21.208761876789094,13.546600551306152,21.203101376789093,13.671136051306153,21.192723476789094,13.729865551306153C21.187866276789094,13.757876051306152,21.180606376789093,13.785416451306153,21.171024476789093,13.812181751306152C21.16184987678909,13.837874051306152,21.15081397678909,13.862863351306153,21.138003076789094,13.886950451306152C21.090283576789094,13.967135751306152,21.025153576789094,14.035570851306153,20.947425666789094,14.087197551306152C20.74972384678909,14.210167451306152,20.499335796789094,14.210167451306152,20.30163389678909,14.087197551306152C20.224504936789092,14.035773151306152,20.160457536789092,13.967039951306152,20.11459504778909,13.886478351306152C20.100756253789093,13.862049151306152,20.088849398789094,13.836577451306152,20.078979566789094,13.810294851306152C20.069187467789092,13.784044151306151,20.061766378789095,13.756969251306153,20.056808426789093,13.729394151306153C20.050927697689094,13.684484051306152,20.047462602389093,13.639290451306152,20.046430415689095,13.594008951306153Q20.045016737419093,13.499427791306152,20.045488923239095,13.353900551306152ZM20.313900646789094,13.353900551306152C20.313900646789094,13.434801341306152,20.313900646789094,13.501550431306152,20.316966976789093,13.553911951306151C20.31773859678909,13.592938851306153,20.321762266789094,13.631833751306152,20.328996206789093,13.670192051306152C20.335235386789094,13.693812151306153,20.343685776789094,13.716792251306153,20.35423365678909,13.738828151306151C20.363984016789093,13.760010551306152,20.376089546789093,13.780027751306152,20.390321346789094,13.798501251306153C20.415879846789093,13.831350651306153,20.448014376789093,13.858503451306152,20.484666346789094,13.878222951306153C20.663568616789092,13.969583651306152,20.88053220678909,13.867106451306153,20.923606276789094,13.670899951306152Q20.941768166789092,13.600141151306152,20.941768166789092,13.354372441306152C20.941768166789092,13.273707451306151,20.940353036789094,13.206958291306153,20.937522826789092,13.154596741306152C20.93609040678909,13.115947011306153,20.931675136789092,13.077465651306152,20.924314556789092,13.039495761306153C20.91919684678909,13.015081701306153,20.911281946789092,12.991338911306153,20.900728286789093,12.968736981306153C20.890623806789094,12.947708491306152,20.878118096789095,12.927921681306152,20.863460186789094,12.909771321306152C20.837910296789094,12.877773161306152,20.805721046789092,12.851700391306153,20.769115146789094,12.833351701306153C20.748051046789094,12.823245431306152,20.725999416789094,12.815341351306152,20.703310016789093,12.809765461306153C20.678577776789094,12.803408951306153,20.653134466789094,12.800238251306153,20.627597566789092,12.800331081306153C20.578334746789093,12.798906981306152,20.529554246789093,12.810370801306153,20.486080046789095,12.833587821306152C20.450096006789092,12.853086351306152,20.418092486789092,12.879168841306152,20.39173501678909,12.910478891306152C20.377038236789094,12.929019721306153,20.364680766789093,12.949299241306152,20.35494050678909,12.970859651306153C20.345030366789093,12.993307171306153,20.337137076789094,13.016591851306153,20.331354256789094,13.040439011306152C20.323699946789095,13.079296471306153,20.319594236789094,13.118769291306153,20.319088936789093,13.158370311306152Q20.313900646789094,13.235261741306152,20.313900646789094,13.354136351306153L20.313900646789094,13.353900551306152Z" fill="#323232" fill-opacity="1" style="mix-blend-mode:passthrough"/><path d="M21.557943743289094,14.166056626306153C21.550184349089093,14.167223426306153,21.543471536479093,14.160627926306152,21.544499404419092,14.152848326306152L21.545678429289094,12.556058515306152C21.544650561469094,12.548279685006152,21.551363374089092,12.541684559406152,21.559122768289093,12.542850268156153L21.788380504289094,12.542850268156153C21.792998704289094,12.542879779766153,21.797239724289092,12.545406621606153,21.799465354289094,12.549454391506153L22.478513184289092,13.620506426306152C22.481347744289092,13.624893226306153,22.486728904289095,13.626893526306151,22.491740164289094,13.625422626306152C22.49675130428909,13.623951826306152,22.50019919428909,13.619360526306153,22.500212134289093,13.614138026306152L22.500212134289093,12.556766074306152C22.498951014289094,12.548908786806152,22.505822184289094,12.542157824966152,22.513656494289094,12.543557827066152L22.756358514289094,12.543557827066152C22.764228714289093,12.542351449926151,22.771009314289092,12.549131203006151,22.769802914289095,12.557002166306152L22.768151714289093,14.152848326306152C22.769319114289093,14.160608526306152,22.762722914289093,14.167322026306152,22.754943414289095,14.166292826306153L22.526628614289095,14.166292826306153C22.52200895428909,14.166264726306153,22.517767964289092,14.163737426306152,22.515543754289094,14.159688726306152L21.835789114289092,13.089343786306152C21.833068284289094,13.084757266306152,21.827607904289092,13.082567636306152,21.822471444289093,13.084003266306151C21.817334984289094,13.085438906306152,21.813800784289093,13.090143506306152,21.813854064289092,13.095476086306153L21.813854064289092,14.153083726306152C21.813854064289092,14.162046626306152,21.809608694289093,14.166291926306153,21.80158874428909,14.166291926306153L21.557943743289094,14.166056626306153Z" fill="#323232" fill-opacity="1" style="mix-blend-mode:passthrough"/><path d="M13.222844439289092,7.994875863806152L11.697992909289093,8.472261723806152C11.677278629289093,8.478720183806152,11.655684046289092,8.465181703806152,11.652471602289094,8.443722243806153L11.562371925769092,7.859962496806152C11.559019118589093,7.8375198018061525,11.577229223289093,7.817706810506152,11.599873990289092,7.819158274971152L13.214588939289094,7.9257681438061525C13.231635139289093,7.9268335238061525,13.245486239289093,7.9399238238061525,13.247512239289094,7.9568822338061524C13.249538639289092,7.973840503806152,13.239159739289093,7.989825353806152,13.222844439289092,7.994875863806152Z" fill="#FF9650" fill-opacity="1" style="mix-blend-mode:passthrough"/><path d="M13.750492289289094,10.289700463806152L11.867837044289093,8.747631073806152C11.857824689689092,8.739336963806153,11.853128024489093,8.726246063806153,11.855583246799092,8.713478623806152C11.858038469189093,8.700711013806153,11.867255449289093,8.690295933806153,11.879630172289094,8.686306833806153L13.709216289289094,8.114104258106153C13.732105889289093,8.106011508006153,13.756158489289094,8.122848917806152,13.756388889289093,8.147125009806153L13.809457789289093,10.261397163806151C13.810261189289093,10.275700563806152,13.802359289289093,10.289076363806153,13.789444789289092,10.295275463806153C13.776530089289093,10.301474763806151,13.761150989289092,10.299273763806152,13.750492289289094,10.289700463806152Z" fill="#FF9650" fill-opacity="1" style="mix-blend-mode:passthrough"/><path d="M11.417479701789093,8.971094750306152L11.164871091789093,11.083007826306153C11.163326441789094,11.097253826306153,11.153065021789093,11.109025926306153,11.139164331789093,11.112501626306152C11.125262851789094,11.115976826306152,11.110669021789093,11.110417826306152,11.102602961789094,11.098574926306153L10.201607680389094,9.814303456306153C10.191314605489094,9.798899056306153,10.194950292299094,9.778123976306153,10.209863015789093,9.767130916306153L11.363230901789093,8.939724982206153C11.374220001789093,8.931901075506152,11.388764901789093,8.931213670906152,11.400442801789094,8.937966342106153C11.412120801789094,8.944718923306151,11.418780301789093,8.957668312306152,11.417479701789093,8.971094750306152Z" fill="#FF9650" fill-opacity="1" style="mix-blend-mode:passthrough"/><path d="M11.377668146789093,8.618513583806152L10.464879668789093,9.275862663806151C10.450825661789093,9.286113863806152,10.431404139789093,9.284626863806153,10.419074044789093,9.272355663806152C10.406744668889093,9.260084463806152,10.405164717889093,9.240670663806153,10.415348384089093,9.226567363806152L11.251481476789094,8.048905479806152C11.259833936789093,8.037073279506153,11.274554546789092,8.031526536006153,11.288637336789092,8.034904603496152C11.302721556789093,8.038282648706153,11.313324156789093,8.049903317806152,11.315400066789094,8.064236538806153L11.392055336789094,8.584549303806153C11.393952726789093,8.597665843806153,11.388409556789092,8.610751093806153,11.377668146789093,8.618513583806152Z" fill="#FF9650" fill-opacity="1" style="mix-blend-mode:passthrough"/><path d="M11.682607616789094,9.020568210806152L11.412780793569093,11.287915188806153C11.409982948589093,11.313326788806153,11.434076660789094,11.333322088806153,11.458538189789094,11.325888888806151L13.670456476789093,10.641887688806152C13.682981076789094,10.638088788806153,13.692385976789094,10.627685188806153,13.694905076789093,10.614841688806152C13.697424476789093,10.601997988806152,13.692647976789093,10.588812388806152,13.682485876789093,10.580563588806152L11.740158166789094,8.996981952306152C11.730108376789094,8.988774484346152,11.716371086789094,8.986727386006152,11.704364176789094,8.991648087706153C11.692356556789093,8.996568699406152,11.684006926789094,9.007667764806152,11.682607616789094,9.020568210806152Z" fill="#FF9650" fill-opacity="1" style="mix-blend-mode:passthrough"/></g></g></svg>