<svg xmlns="http://www.w3.org/2000/svg" xmlns:xlink="http://www.w3.org/1999/xlink" fill="none" version="1.1" width="24" height="24" viewBox="0 0 24 24"><defs><clipPath id="master_svg0_159_00845"><rect x="0" y="0" width="24" height="24" rx="0"/></clipPath><clipPath id="master_svg1_159_00648"><rect x="0.77734375" y="6.9248046875" width="22.445289611816406" height="10.148181915283203" rx="0"/></clipPath></defs><g clip-path="url(#master_svg0_159_00845)"><g clip-path="url(#master_svg1_159_00648)"><path d="M0.8017854872076722,12.682018313626099C0.7880446582076721,12.684083913626099,0.7761564593076721,12.672404513626098,0.7779781682176721,12.658628513626098L0.7804842018076721,9.8326581386261C0.7769730679576721,9.818081738626098,0.7895106682076721,9.804664297226099,0.8042915222076721,9.807180107246099L1.794174690207672,9.807180107246099Q2.385598590207672,9.807180107246099,2.673374990207672,10.295021293626098C2.706400790207672,10.353058573626098,2.735291790207672,10.4133529636261,2.7598328902076723,10.475455703626098C2.781170190207672,10.529280003626099,2.7964401902076723,10.585315823626098,2.805359390207672,10.642524603626098C2.825293590207672,10.843746613626099,2.832965190207672,11.045995113626098,2.828331290207672,11.248149313626099Q2.828331290207672,11.7276369136261,2.7940821902076722,11.890946913626099C2.783703890207672,11.945976513626098,2.767894490207672,11.999841213626098,2.7468850902076722,12.051750613626098C2.724306990207672,12.106073613626098,2.696321390207672,12.157986913626099,2.6633508902076724,12.2067067136261C2.573061490207672,12.3464706136261,2.451341490207672,12.463184313626098,2.307911590207672,12.547527813626099C2.142867590207672,12.642064113626098,1.955082190207672,12.689588313626098,1.764937640207672,12.684941513626098L0.8017854872076722,12.682018313626099ZM1.2553775902076723,10.283744303626099L1.2553775902076723,12.212137013626098C1.2553775902076723,12.223670713626099,1.2647275302076721,12.233020513626098,1.276261240207672,12.233020513626098L1.7448893802076721,12.233020513626098Q2.084039290207672,12.233020513626098,2.249855090207672,11.9966180136261C2.2922189902076724,11.930218713626099,2.320639590207672,11.855898813626098,2.333389490207672,11.778175013626099C2.341637390207672,11.714993513626098,2.3465171902076722,11.651417113626099,2.3480079902076723,11.587716713626099Q2.353855390207672,11.4624150136261,2.353437690207672,11.2631856136261C2.353437690207672,11.135795513626098,2.351349490207672,11.029289113626099,2.3480079902076723,10.944083913626098C2.344666590207672,10.8588787136261,2.3384015902076722,10.790798363626099,2.332136490207672,10.740677533626098C2.319633990207672,10.6502249836261,2.2852226902076724,10.564196643626099,2.231894990207672,10.490074153626098C2.120376490207672,10.338876723626099,1.958319690207672,10.262860353626099,1.7469775102076721,10.262860353626099L1.276261240207672,10.262860353626099C1.264727410207672,10.262860683626098,1.2553775902076723,10.272210453626098,1.2553775902076723,10.283744303626099Z" fill="#323232" fill-opacity="1" style="mix-blend-mode:passthrough"/><path d="M3.4822333202076723,12.045653826126099C3.492150600207672,12.0371678261261,3.5073703802076723,12.040009026126098,3.513558720207672,12.0515012261261C3.591989220207672,12.171085626126098,3.727348740207672,12.2408259261261,3.870250940207672,12.235277126126098C3.9829142102076722,12.232606126126099,4.091954830207672,12.194945526126098,4.182252140207672,12.127517726126099C4.235426140207672,12.089733126126099,4.2759078402076725,12.036728426126098,4.298364940207672,11.975484826126099C4.325091940207672,11.900897726126098,4.337972240207672,11.822056526126099,4.3363732402076725,11.742841326126099L4.3363732402076725,9.835749773126098C4.334308040207672,9.822008893126098,4.345987540207672,9.810120695226098,4.359762840207672,9.811942466796099L4.789965440207672,9.811942466796099C4.804166040207672,9.811942466796099,4.811684340207672,9.819878341626099,4.811684340207672,9.835749773126098L4.811684340207672,11.786279226126098Q4.811684340207672,12.222329126126098,4.523072940207673,12.4662494261261C4.430966840207672,12.542080626126099,4.327697240207672,12.603225726126098,4.216918640207672,12.647519826126098C4.110330640207672,12.6885106261261,3.996975060207672,12.709056626126099,3.882780850207672,12.708082226126098C3.803431030207672,12.708477926126099,3.7243278002076723,12.699220926126099,3.647213760207672,12.680515526126099C3.5756331702076722,12.6630239261261,3.5064759302076722,12.636791726126098,3.441301320207672,12.602411026126099C3.378976790207672,12.569417026126098,3.320673060207672,12.5293331261261,3.267549650207672,12.482956926126098C3.2156098862076723,12.437556726126099,3.169457916207672,12.385934126126099,3.130135434207672,12.329253626126098C3.126090062777672,12.324211326126099,3.1245536500976723,12.317604326126098,3.125958775347672,12.311294126126098C3.127117577607672,12.304904926126099,3.130711410207672,12.299214326126098,3.135982980207672,12.295422326126099L3.4822333202076723,12.045653826126099Z" fill="#323232" fill-opacity="1" style="mix-blend-mode:passthrough"/><path d="M7.353455640207672,11.853709026126099C7.360996740207672,11.853473426126099,7.368230640207672,11.856705626126098,7.3730860402076726,11.862479926126099C7.378367240207672,11.868065126126098,7.379989640207672,11.8761775261261,7.377263340207672,11.883363726126099Q7.293728740207672,12.285582026126098,7.009711540207672,12.502353926126098C6.919211240207672,12.571168626126099,6.817854140207672,12.624388026126098,6.709822940207673,12.659816526126098C6.597150540207672,12.696015126126099,6.479405440207672,12.7139234261261,6.361066540207672,12.712861326126099C6.157322590207672,12.719440426126098,5.956634520207672,12.662038826126098,5.787184920207672,12.5487163261261C5.650511560207672,12.457758626126099,5.537070690207672,12.336020926126098,5.455970790207672,12.193277126126098C5.432864530207672,12.149532126126099,5.412634156207672,12.104327926126098,5.395408429207672,12.057951226126098C5.377166815207672,12.011707526126099,5.363186307207672,11.963894326126098,5.353641204207672,11.915107226126098Q5.328163170547672,11.769340026126098,5.328580932039572,11.252261426126099C5.328580932039572,11.080180426126098,5.3310868638076725,10.939425026126099,5.334846079807672,10.830412526126098C5.336190181807672,10.750557066126099,5.342888067207672,10.670881216126098,5.354894489207672,10.591921746126099C5.364551119207672,10.542754356126098,5.378527488207672,10.494534906126098,5.3966617142076725,10.447824956126098C5.413710587207672,10.399958906126098,5.434086900207672,10.353343966126099,5.457641200207672,10.308321596126099C5.539735630207672,10.166726616126098,5.653359440207672,10.045956616126098,5.789690520207672,9.955388726126099Q6.021080970207672,9.788319826126099,6.363989840207672,9.788319826126099Q6.773726240207672,9.788319826126099,7.041871840207672,10.041429106126099C7.216708340207672,10.201105146126098,7.334374940207672,10.4136973061261,7.3768451402076725,10.6466360661261C7.379703540207672,10.653408166126098,7.378035640207672,10.6612443361261,7.372668040207673,10.6662666761261C7.367585440207672,10.671634556126099,7.360422240207672,10.674530446126099,7.353037640207672,10.674202616126099L6.903204940207672,10.674202616126099C6.892963740207672,10.675275266126098,6.883575540207672,10.668414476126099,6.881485740207673,10.6583311561261C6.864451540207672,10.605879366126098,6.839826240207672,10.556206166126099,6.808393140207672,10.510892926126099C6.7749491402076725,10.464542086126098,6.735954940207672,10.422461626126099,6.692280240207673,10.385591266126099C6.601727040207672,10.3054581861261,6.484016440207672,10.262885066126099,6.363154340207672,10.266554416126098C6.275929150207672,10.264147286126098,6.189574660207672,10.284440726126098,6.112551030207672,10.325446366126098C6.048941310207672,10.359965686126099,5.992292110207672,10.405993346126099,5.945482080207672,10.461189806126098C5.919771130207672,10.494310256126099,5.898042440207672,10.530338166126098,5.880742790207672,10.5685316361261C5.862716560207672,10.608817036126098,5.848725910207672,10.650789496126098,5.838975550207672,10.693833236126098C5.825201810207672,10.762618246126099,5.817791730207672,10.832525626126099,5.816839010207672,10.902669326126098Q5.810573820207672,11.043007226126099,5.810573820207672,11.253514026126098C5.810573820207672,11.397193526126099,5.810573820207672,11.514977026126099,5.816421180207672,11.607700026126098C5.815658990207672,11.676083426126098,5.820689320207672,11.744408126126098,5.831457790207672,11.811941826126098C5.842243020207672,11.853659426126098,5.857070860207672,11.894226826126099,5.875730870207672,11.933066626126099C5.893154860207672,11.970494026126099,5.914581120207672,12.005924426126098,5.939634680207672,12.038737726126099C5.984894450207672,12.096907826126099,6.041797340207673,12.144990926126098,6.106703580207672,12.179910926126098C6.183975760207672,12.220209826126098,6.270179990207672,12.2403240261261,6.357307040207672,12.238384926126098Q6.698127640207672,12.238384926126098,6.876055940207673,11.866239326126099C6.879111840207672,11.862878126126098,6.882466640207673,11.8598022261261,6.886080240207672,11.857050426126099C6.889190340207672,11.853940026126098,6.893378040207672,11.852145426126098,6.897775040207672,11.852038126126098L7.353455640207672,11.853709026126099Z" fill="#323232" fill-opacity="1" style="mix-blend-mode:passthrough"/><path d="M7.537443742207672,12.686208226126098C7.529526348207672,12.686873426126098,7.521916780107672,12.6829879261261,7.517813094207672,12.676183926126098C7.513775689267672,12.6696634261261,7.513003898107672,12.661635126126098,7.515724605407672,12.654464726126099L8.551551915207671,9.8276590291261C8.553040515207671,9.8181075551261,8.561531015207672,9.811242692406099,8.571182715207673,9.811787598695098L8.924533515207672,9.811787598695098C8.929129915207673,9.8121132678061,8.933510815207672,9.8138655715261,8.937063915207672,9.816799780326098C8.941037515207672,9.819538651526099,8.944208815207672,9.823287032126098,8.946252715207672,9.827659346126099L9.974979715207672,12.656970726126099C9.978333015207673,12.663674626126099,9.978333015207673,12.671567226126099,9.974979715207672,12.678271726126098C9.971578215207671,12.684739126126098,9.964736515207672,12.688649226126099,9.957437315207672,12.6882961261261L9.503427315207672,12.6882961261261C9.493775815207671,12.688840826126098,9.485285415207672,12.681975826126099,9.483796515207672,12.672424326126098L9.281225215207673,12.077241426126099C9.275253015207673,12.059474926126098,9.258176115207672,12.0478625261261,9.239458115207672,12.048839826126098L8.257928375207673,12.048839826126098C8.240081485207671,12.048732526126098,8.224138435207673,12.0599766261261,8.218249555207672,12.076823726126099Q8.168129085207672,12.221756026126098,8.118425965207672,12.360840526126099C8.082088705207672,12.463170026126098,8.045750795207672,12.5663349261261,8.008578005207672,12.671588926126098C8.006956635207672,12.676090726126098,8.003866915207672,12.6799159261261,7.999806585207672,12.682448126126099C7.996139405207672,12.685463426126098,7.991600485207672,12.687220326126099,7.986858875207672,12.687459926126099L7.537443742207672,12.686208226126098ZM9.120839315207672,11.597336726126098C9.071971815207672,11.451986626126098,8.840581015207672,10.764498116126099,8.771665315207672,10.558585706126099C8.768667415207672,10.550326466126098,8.760820815207673,10.544827046126098,8.752034615207672,10.544827046126098C8.743247915207672,10.544827046126098,8.735401215207672,10.550326766126098,8.732404015207672,10.558585706126099C8.658475815207673,10.779116626126099,8.403696235207672,11.534268126126099,8.382394435207672,11.595666026126098C8.377473775207672,11.6092761261261,8.387552915207673,11.6236440261261,8.402025165207672,11.623650026126098L9.101208615207671,11.623650026126098C9.114910515207672,11.6236618261261,9.124753915207672,11.6104680261261,9.120839315207672,11.597336726126098Z" fill="#323232" fill-opacity="1" style="mix-blend-mode:passthrough"/><path d="M10.451826812207672,12.689079076126099C10.438116842907672,12.691228376126098,10.426287596107672,12.679399276126098,10.428437267487672,12.665689476126099L10.430943199207672,9.839718796126098C10.428806274257672,9.825780350126099,10.440812695207672,9.813774249026098,10.454750823207672,9.815911492536099L11.560747415207672,9.815911492536099C11.673173915207672,9.814514493126099,11.785066515207673,9.8315875851261,11.891961315207672,9.8664497961261C11.986331315207671,9.897835441126098,12.074013415207672,9.9465631261261,12.150500615207672,10.010129156126098C12.190185015207671,10.047210816126098,12.226652215207672,10.087591226126099,12.259512215207671,10.1308363961261C12.294708915207671,10.177151856126098,12.325737315207672,10.2264903761261,12.352235615207672,10.2782745961261C12.379524415207673,10.331486166126098,12.400951015207673,10.387504456126099,12.416139415207672,10.4453435561261C12.431767715207672,10.505064606126098,12.439628415207672,10.566551686126099,12.439529215207672,10.6282838561261C12.439915215207673,10.718166586126099,12.426678215207673,10.807589236126098,12.400267615207673,10.893505576126099C12.374370915207672,10.976289776126098,12.336971815207672,11.055024776126098,12.289166615207673,11.127402176126099C12.241223915207673,11.1938467761261,12.184135615207673,11.253185876126098,12.119591915207671,11.303659776126098C12.059413715207672,11.3504185761261,11.992895915207672,11.388388676126098,11.922032415207672,11.416431276126099C11.910703515207672,11.420802476126099,11.905650815207672,11.434018876126098,11.911172415207671,11.4448328761261Q12.065293615207672,11.740962376126099,12.221502715207672,12.039180276126098L12.542274515207673,12.653993876126098C12.546433715207673,12.661681676126099,12.546433715207673,12.6709487761261,12.542274515207673,12.678636576126099C12.538281215207672,12.685600476126098,12.530649915207672,12.689659876126099,12.522644115207672,12.689078376126098L12.012667815207672,12.689078376126098C12.008075415207673,12.688924576126098,12.003725115207672,12.686974976126098,12.000555115207671,12.683648076126099L11.990948115207672,12.675294876126099L11.419990245207671,11.493282276126099C11.416401445207672,11.486178876126099,11.409152565207672,11.481668576126099,11.401195045207672,11.481587676126098L10.926719995207673,11.481587676126098C10.915253995207673,11.481353076126098,10.905833815207671,11.490585176126098,10.905836345207673,11.502053476126099L10.905836345207673,12.664853076126098C10.907658425207671,12.678628876126098,10.895769955207673,12.6903080761261,10.882028755207672,12.688242876126099L10.451826812207672,12.689079076126099ZM10.905836345207673,10.266579866126099L10.905836345207673,11.035514576126099C10.905836345207673,11.047048476126099,10.915186435207673,11.056398176126098,10.926719995207673,11.056398176126098L11.530673715207673,11.056398176126098C11.683541915207671,11.056398176126098,11.797566915207671,11.014631076126099,11.874418415207671,10.931096576126098C11.989620015207672,10.800924536126098,12.020727415207672,10.616549556126099,11.954611915207671,10.4557856961261C11.932532815207672,10.406209406126099,11.898176415207672,10.363083066126098,11.854787815207672,10.330484036126098C11.813799315207673,10.3018929961261,11.768352315207672,10.280298736126099,11.720297315207672,10.266579866126099C11.666593115207672,10.251644666126099,11.611056015207673,10.244333356126099,11.555316315207673,10.244861066126099L10.925466415207673,10.244861066126099C10.913987665207673,10.2453081261261,10.905124455207671,10.2551138961261,10.905836345207673,10.266579866126099Z" fill="#323232" fill-opacity="1" style="mix-blend-mode:passthrough"/><path d="M13.035307822707672,11.966074501126098C13.039033562707672,11.961052901126099,13.044927502707672,11.958105601126098,13.051179592707673,11.958138501126099C13.057629252707672,11.9581659011261,13.063909352707672,11.960210601126098,13.069139182707673,11.9639859011261C13.176508042707672,12.0504997011261,13.297269462707671,12.118921301126099,13.426666562707672,12.166557101126099C13.563121322707673,12.217783701126098,13.707775772707672,12.243685701126099,13.853527652707673,12.242991201126099C14.020596552707673,12.242991201126099,14.154668952707672,12.208324201126098,14.251987352707673,12.1389906011261C14.340443152707673,12.079459901126098,14.392658552707672,11.9791195011261,14.390654852707673,11.872515901126098Q14.390654852707673,11.5613503011261,14.041898352707673,11.513735701126098L14.043986152707673,11.513735701126098L13.950009852707673,11.5016232011261L13.861463452707673,11.489510701126099C13.831809152707672,11.485751701126098,13.801736752707672,11.481574901126098,13.770411152707672,11.476562901126098L13.668917182707672,11.461944501126098C13.554688272707672,11.447424201126099,13.443306862707672,11.415741701126098,13.338538292707671,11.367968201126098C13.245786932707672,11.325292201126098,13.162986692707673,11.263689401126099,13.095452722707671,11.187116101126099C13.031073482707672,11.113459101126098,12.980937022707671,11.028482901126099,12.947596402707672,10.936512701126098C12.914051832707672,10.841869601126099,12.897508352707671,10.742040161126098,12.898729442707673,10.641635831126099Q12.898729442707673,10.265730861126098,13.149332792707671,10.0322522511261Q13.399936202707671,9.798773621226099,13.845593052707672,9.794179201126099C13.931858952707673,9.794367209716098,14.017944052707673,9.802053255926099,14.102879252707671,9.8171513021261C14.264711952707673,9.8469707371261,14.421503452707672,9.899562801126098,14.568583752707672,9.973360311126099C14.639441952707672,10.0092205411261,14.708191952707672,10.049103561126099,14.774495852707672,10.092814591126098C14.787172152707672,10.099309501126099,14.790270652707672,10.1160429111261,14.780760552707672,10.126645951126099L14.541434152707673,10.479161381126099C14.535245752707672,10.490653511126098,14.520026552707673,10.493494391126099,14.510108452707673,10.4850087811261C14.407569352707672,10.420514881126099,14.297623052707673,10.3686273111261,14.182653652707671,10.330470201126099C14.067067252707671,10.291425581126099,13.945877452707672,10.271533041126098,13.823873352707672,10.271578281126098C13.764646152707673,10.271077931126099,13.705626782707672,10.2786661711261,13.648450432707673,10.294132591126099C13.595352952707673,10.3087580211261,13.545671522707671,10.333740591126098,13.502265152707672,10.3676430011261C13.418730672707673,10.429876091126099,13.374039412707672,10.523852351126099,13.374039412707672,10.649989481126099C13.376717452707672,10.727753161126099,13.407424632707672,10.801925301126099,13.460497912707671,10.858825701126099C13.493394912707672,10.893012601126099,13.532899732707673,10.920154001126098,13.576610742707672,10.938601301126099C13.634073852707672,10.962700001126098,13.694458362707673,10.979130401126099,13.756209352707671,10.987468801126099C13.794217652707673,10.993733901126099,13.839743752707673,11.000834201126098,13.889864952707672,11.007934701126098C13.939986152707672,11.015034901126098,14.001800752707672,11.0229708011261,14.071552552707672,11.030906801126099Q14.476277052707673,11.080192101126098,14.670912552707673,11.329124701126098C14.797263252707673,11.4808247011261,14.866169952707672,11.6721668011261,14.865547952707672,11.869592701126098Q14.865547952707672,12.2684696011261,14.586960052707672,12.492759501126098Q14.308372052707671,12.717049101126099,13.851439752707671,12.7162139011261Q13.206971792707671,12.7162139011261,12.755468174807673,12.321095701126099C12.750335220707672,12.3174655011261,12.747356399487671,12.311508901126098,12.747532299053672,12.305223901126098C12.747341103847672,12.298740401126098,12.749408561407671,12.2923920011261,12.753380322407672,12.287264301126099L13.035307822707672,11.966074501126098Z" fill="#323232" fill-opacity="1" style="mix-blend-mode:passthrough"/><path d="M0.8141316937076721,17.0322702136261C0.8004215220076721,17.034419813626098,0.7885922552076721,17.022590413626098,0.7907420495776721,17.0088804136261L0.7932480830076721,14.1824925526261C0.7911110388776721,14.168554425626098,0.8031172297076721,14.1565480052261,0.8170554007076721,14.158684930036099L1.8424408027076722,14.158684930036099C1.950505002707672,14.158281508206098,2.058263102707672,14.170192967626098,2.1636305027076723,14.194187324626098C2.283698302707672,14.227490976626099,2.395221302707672,14.286171953626098,2.490668002707672,14.366268083626098C2.5371544027076722,14.403033013626098,2.579204602707672,14.445083173626099,2.615969502707672,14.491569753626099C2.654560102707672,14.539943423626099,2.6885398027076723,14.5918216436261,2.717464002707672,14.646526453626098C2.747419802707672,14.707343043626098,2.769860402707672,14.7715802236261,2.784291602707672,14.8378204136261C2.8005152027076723,14.911046203626098,2.8085008027076723,14.985856413626099,2.808098802707672,15.060857173626099Q2.808098802707672,15.370769813626099,2.574620102707672,15.652281313626098Q2.3411412027076723,15.933792613626098,1.8979911027076721,15.931704113626099L1.287772032707672,15.931704113626099C1.2762383527076722,15.931704113626099,1.266888412707672,15.941054113626098,1.266888412707672,15.952587713626098L1.266888412707672,16.991756213626097C1.2647015427076722,17.0151186136261,1.2448199127076722,17.032811213626097,1.2213621427076722,17.0322702136261L0.8141316937076721,17.0322702136261ZM1.2681413927076721,14.634831693626099L1.2681413927076721,15.456810213626099C1.2681413927076721,15.468343813626099,1.277491332707672,15.477693913626098,1.2890250127076721,15.477693913626098L1.8804490027076721,15.477693913626098C2.031646302707672,15.477693913626098,2.144000102707672,15.432585213626098,2.217928002707672,15.341533113626099C2.290607402707672,15.260352113626098,2.330764402707672,15.155200543626098,2.330699502707672,15.046238363626099C2.330699502707672,14.882928493626098,2.273060702707672,14.764309703626099,2.157365602707672,14.689128573626098C2.069586702707672,14.635472833626098,1.9677685027076721,14.609291163626098,1.864995102707672,14.613947423626099L1.2890250127076721,14.613947423626099C1.277491212707672,14.613948073626098,1.2681413927076721,14.623298103626098,1.2681413927076721,14.634831693626099Z" fill="#323232" fill-opacity="1" style="mix-blend-mode:passthrough"/><path d="M3.308272283707672,17.0361764636261C3.294562155407672,17.038326063626098,3.282732908607672,17.026496663626098,3.284882579987672,17.0127866636261L3.287388670707672,14.1863988026261C3.285251586757672,14.172460675626098,3.2972576877076722,14.1604542552261,3.311195976707672,14.162591180036099L4.417191927707672,14.162591180036099C4.529755527707672,14.161194180626099,4.641786127707672,14.1782672726261,4.748823827707672,14.213129799626099C4.843043527707672,14.244373008626098,4.930588927707673,14.292962073626098,5.0069453277076725,14.3563910736261C5.046560227707673,14.393816243626098,5.083151627707672,14.4343171436261,5.116375627707672,14.4775157836261C5.151379927707672,14.523732063626099,5.182266527707672,14.572927233626098,5.208681127707672,14.6245366036261C5.236051627707672,14.677711133626099,5.257482027707672,14.733738363626099,5.272584927707673,14.791605473626099C5.288355127707672,14.8513081036261,5.2963565277076725,14.912795783626098,5.296392227707672,14.9745460736261C5.2961636277076725,15.064573523626098,5.282076027707673,15.154028593626098,5.254625027707672,15.239768263626098C5.228561427707672,15.3224869636261,5.191173027707672,15.401199363626098,5.143524027707672,15.473664863626098C5.095581227707672,15.540110263626099,5.038492127707672,15.599449063626098,4.973949127707672,15.6499227636261C4.913956427707673,15.696624063626098,4.847564027707672,15.734462163626098,4.776807827707672,15.762276563626099C4.765224827707672,15.766851863626098,4.760020227707672,15.780345163626098,4.7655309277076725,15.7915134636261Q4.9196519277076725,16.0872255636261,5.075861227707672,16.3854434636261Q5.237500327707672,16.694103263626097,5.3966334277076715,16.9998400636261C5.400792227707672,17.0075278636261,5.400792227707672,17.016794963626097,5.3966334277076715,17.024482263626098C5.392917427707673,17.031766663626097,5.385148827707672,17.036064163626097,5.377003027707672,17.0353414636261L4.870366627707672,17.0353414636261C4.865969527707672,17.0352341636261,4.861782027707672,17.0334400636261,4.858671827707672,17.030329663626098L4.848647727707672,17.021976263626097L4.277689937707672,15.839963663626099C4.274074077707672,15.8328262636261,4.266888377707672,15.8281955636261,4.258894797707672,15.827851463626098L3.784418697707672,15.827851463626098C3.772654207707672,15.827851463626098,3.7631173477076723,15.8373882636261,3.7631173477076723,15.849152563626099L3.7631173477076723,17.0115342636261C3.764939127707672,17.0253102636261,3.753050927707672,17.0369894636261,3.739310057707672,17.0349240636261L3.308272283707672,17.0361764636261ZM3.762282167707672,14.613677293626099L3.762282167707672,15.382612063626098C3.762503947707672,15.394052663626098,3.771725267707672,15.403273963626098,3.7831657277076722,15.4034956636261L4.386284627707672,15.4034956636261C4.539152827707672,15.4034956636261,4.653177127707672,15.361728463626099,4.730028527707672,15.278194063626099C4.845230527707672,15.148021933626099,4.876337627707672,14.9636467136261,4.810221627707672,14.802882793626098C4.788239727707672,14.7532485136261,4.753864327707673,14.710099573626099,4.710398027707672,14.677581133626099C4.670141827707672,14.649036343626099,4.625388427707672,14.6274363436261,4.577995927707672,14.613677293626099C4.524297527707672,14.598715033626098,4.468757127707672,14.591403753626098,4.413015627707672,14.591958193626098L3.7835835477076722,14.591958193626098C3.772658977707672,14.591684783626098,3.7633713477076722,14.599880043626099,3.762282167707672,14.6107533236261L3.762282167707672,14.613677293626099Z" fill="#323232" fill-opacity="1" style="mix-blend-mode:passthrough"/><path d="M5.756308615207672,15.6021946261261C5.756308615207672,15.4305312261261,5.758814546707672,15.2897761261261,5.763826728807672,15.1807636261261C5.765748878007672,15.100983436126098,5.772022947207672,15.0213686261261,5.782621853207672,14.942272426126099C5.792278167207672,14.8931052661261,5.8062548522076725,14.844885826126099,5.824389078207672,14.798175636126098C5.841874838207672,14.751232686126098,5.8629604752076725,14.7057104661261,5.887457685207672,14.6620146661261C5.969444725207672,14.520019116126099,6.082894865207672,14.398710246126099,6.219089565207672,14.307410716126098C6.373210725207672,14.197145279126099,6.564504745207672,14.140341831866099,6.793388915207672,14.140341831866099C6.996093415207672,14.134048324126098,7.195520815207672,14.192574441126098,7.362676415207672,14.307410716126098C7.498985815207672,14.399703826126098,7.613109615207672,14.5211032061261,7.696814515207672,14.662849546126099C7.744571615207672,14.750302196126098,7.777725515207672,14.844967486126098,7.794967515207672,14.943107906126098C7.806757315207673,15.0221002061261,7.813592515207672,15.101752696126098,7.815433515207673,15.181599026126099Q7.822533915207672,15.345326426126098,7.822116415207672,15.6034482261261Q7.822116415207672,16.110502226126098,7.793715315207672,16.266293726126097C7.784866615207672,16.3158421261261,7.772015915207672,16.3645911261261,7.755289415207672,16.412061726126097C7.7391201152076725,16.457454726126098,7.719574015207672,16.501573126126097,7.696815515207672,16.544046426126098C7.612313115207672,16.6860406261261,7.496977615207673,16.8072283261261,7.359336315207672,16.8986504261261C7.191319015207672,17.011612226126097,6.991977615207672,17.0687546261261,6.789631315207672,17.0619602261261C6.562000035207673,17.0619602261261,6.371959035207672,17.0072453261261,6.215749385207672,16.897815426126098C6.078933925207672,16.807025626126098,5.9654579952076725,16.6852503261261,5.884535255207672,16.542376526126098C5.860088725207672,16.499149326126098,5.839138195207672,16.454036026126097,5.821884423207672,16.4074688261261C5.8043537362076725,16.361155526126097,5.791072681207672,16.3133437261261,5.782205684207672,16.2646248261261C5.772007651207672,16.185074826126097,5.765873792607672,16.105055826126097,5.7638280033076725,16.024880626126098Q5.756308615207672,15.861151226126099,5.756308615207672,15.6021946261261ZM6.231619865207672,15.6021946261261Q6.231619865207672,15.817295626126098,6.237467285207672,15.956380626126098C6.238643705207672,16.0255021261261,6.245770185207672,16.094394126126097,6.258768265207673,16.162292726126097C6.2697970852076725,16.2040696261261,6.284616585207672,16.244752426126098,6.303041455207672,16.2838354261261C6.320526245207672,16.3210993261261,6.341949645207672,16.356385026126098,6.366945265207672,16.3890888261261C6.412205575207672,16.447258726126098,6.469108525207672,16.4953420261261,6.534014165207672,16.530262226126098C6.611837625207672,16.5710978261261,6.698854985207672,16.591233926126097,6.786706015207672,16.5887363261261C6.8738687152076725,16.5915158261261,6.9602480152076724,16.5715043261261,7.037309515207673,16.530679926126098C7.102557215207672,16.496446326126097,7.159567915207672,16.4484157261261,7.204378315207672,16.389924526126098C7.258730515207672,16.3244414261261,7.296037815207672,16.2465274261261,7.312973415207672,16.163128826126098C7.333856915207672,16.079594526126098,7.344716215207672,15.892477226126099,7.345134215207672,15.603030226126098Q7.345134215207672,15.387929326126098,7.337616515207673,15.2488442261261C7.335080715207672,15.180402126126099,7.327260715207672,15.112258256126099,7.314227015207672,15.045020106126099C7.304834915207672,15.001876826126098,7.290832215207672,14.9598680761261,7.272459815207672,14.9197183861261C7.255272015207672,14.881505486126098,7.233383915207672,14.845586896126099,7.207303015207672,14.812794326126099C7.186230615207672,14.785899576126099,7.162281015207672,14.761389676126099,7.135880815207672,14.739701746126098C7.106580715207672,14.7151191261261,7.074475115207672,14.694089596126098,7.040234015207672,14.677050946126098C7.002973815207672,14.659401056126098,6.964086715207673,14.645413216126098,6.924121215207672,14.635283676126098C6.880314515207672,14.624080266126098,6.835265115207672,14.618466796126098,6.790048215207673,14.618577066126099C6.702842055207672,14.616360486126098,6.616535305207672,14.636642456126099,6.539444745207672,14.677469016126098C6.475799085207672,14.712112246126098,6.419147315207672,14.758283376126098,6.372375845207672,14.813629926126099C6.346485435207672,14.846626996126098,6.324742735207672,14.882677436126098,6.307636555207672,14.9209720461261C6.289527175207672,14.961224916126099,6.275533555207672,15.003205656126099,6.265869255207672,15.0462736461261C6.252247895207672,15.114377376126098,6.244839075207672,15.183577226126099,6.243732665207672,15.253021226126098Q6.231619865207672,15.3921056261261,6.231619865207672,15.603029526126099L6.231619865207672,15.6021946261261Z" fill="#323232" fill-opacity="1" style="mix-blend-mode:passthrough"/><path d="M8.915717482707672,17.040641776126098C8.901941952707672,17.042463776126098,8.890262422707671,17.0305752761261,8.892328022707671,17.016833976126097L8.894416452707672,14.616054176126099C8.894416452707672,14.604520676126098,8.885066392707673,14.595170586126098,8.873532832707673,14.595170586126098L8.163489997707671,14.595170586126098C8.138807337707672,14.595170586126098,8.118798124737673,14.575161396126099,8.118798762017672,14.5504793861261L8.118798762017672,14.190863537126098C8.116976671807672,14.177087923526098,8.128865188707673,14.165408447226099,8.142606386707673,14.167473992536099L10.118613802707673,14.167473992536099C10.132552002707673,14.165336430426098,10.144558702707672,14.177342850126099,10.142421302707671,14.1912816151261L10.142421302707671,14.550897416126098C10.142422002707672,14.575512526126099,10.122344602707672,14.595402566126099,10.097730202707671,14.595170586126098L9.390610602707673,14.595170586126098C9.379007802707672,14.5951686461261,9.369537202707672,14.604453776126098,9.369309602707672,14.616054176126099L9.367221202707672,17.0172521761261C9.369371502707672,17.0309619761261,9.357541602707672,17.0427918761261,9.343831602707672,17.040641776126098L8.915717482707672,17.040641776126098Z" fill="#323232" fill-opacity="1" style="mix-blend-mode:passthrough"/><path d="M10.557645449207673,17.041607638626097C10.543904251207673,17.0436730386261,10.532015734307672,17.031993638626098,10.533837824517672,17.0182180386261L10.536343756107673,14.191829904626099C10.534521666007672,14.178054289926099,10.546410182207673,14.166374812726099,10.560151383207673,14.168440357976099L12.366583865207673,14.168440357976099C12.380325765207672,14.166375449926099,12.392213165207671,14.178054926926098,12.390391365207671,14.191829904626099L12.390391365207671,14.5982248486261C12.392139065207672,14.612032978626099,12.380392165207672,14.623780608626099,12.366583865207673,14.622032458626098L11.032538625207673,14.622032458626098C11.021005095207672,14.622032458626098,11.011655005207672,14.6313825886261,11.011655005207672,14.642916048626098L11.011655005207672,15.3583889386261C11.011421115207671,15.369854838626098,11.020653305207672,15.379275038626098,11.032121215207672,15.3792724386261L12.142294065207672,15.3792724386261C12.166976165207672,15.3792730386261,12.186985265207673,15.399281638626098,12.186985265207673,15.4239637386261L12.186985265207673,15.785668138626098C12.186985265207673,15.8002869386261,12.179049665207671,15.8073871386261,12.163177765207672,15.8073871386261L11.032538625207673,15.8073871386261C11.021005095207672,15.8073871386261,11.011655005207672,15.816737138626099,11.011655005207672,15.8282709386261L11.010820095207672,16.5729794386261C11.010820095207672,16.5845127386261,11.020170245207671,16.593863038626097,11.031703715207673,16.593863038626097L12.365748965207672,16.593863038626097C12.379491065207672,16.5917980386261,12.391378265207672,16.6034774386261,12.389556665207673,16.6172523386261L12.389556665207673,17.019888438626097C12.391311865207673,17.0334670386261,12.379745765207673,17.0450337386261,12.366167265207672,17.043277938626098L10.557645449207673,17.041607638626097Z" fill="#323232" fill-opacity="1" style="mix-blend-mode:passthrough"/><path d="M14.808028790207672,16.2093239261261C14.815759490207672,16.2091853261261,14.823135890207672,16.2125659261261,14.828077590207672,16.2185127261261C14.833050090207673,16.2240998261261,14.834499190207673,16.231990526126097,14.831836490207673,16.2389788261261Q14.748301890207673,16.641197426126098,14.464702190207673,16.8579693261261C14.373974890207672,16.9264276261261,14.272679790207672,16.979614726126098,14.164813790207672,17.015431926126098C14.052023990207672,17.051696526126097,13.934108690207673,17.069468226126098,13.815640290207671,17.068058226126098Q13.473984660207671,17.068058226126098,13.242175820207672,16.9043309261261C13.105299140207672,16.8136139261261,12.991808240207671,16.691822026126097,12.910961990207673,16.548892026126097C12.887632350207673,16.5053422261261,12.867259860207673,16.4602711261261,12.849982187207672,16.413984326126098C12.832690492207671,16.3676262261261,12.819551561207673,16.3198237261261,12.810720891207673,16.271140326126098C12.793596174607671,16.1734051261261,12.784825413717671,15.952874326126098,12.785660299497673,15.6082946261261Q12.785660299497673,15.350173626126098,12.791925129007673,15.186028026126099C12.793181919007672,15.106183646126098,12.799739914207672,15.026511316126099,12.811555778207673,14.947536946126098C12.820587836207672,14.898446326126098,12.833864435207673,14.850233196126098,12.851235151207671,14.8034400961261C12.868669607207671,14.756881536126098,12.889181030207672,14.711533246126098,12.912633030207672,14.667696596126099C12.994351130207672,14.525388156126098,13.107847150207672,14.403886796126098,13.244264930207672,14.312675236126099Q13.474819600207672,14.1481122689161,13.818146290207672,14.147694826126099Q14.228300790207673,14.147694826126099,14.496445690207672,14.400804106126099C14.671630290207672,14.559763786126098,14.789881790207673,14.7717648161261,14.833089390207672,15.0043403461261C14.835947090207672,15.011113106126098,14.834280090207672,15.018948976126099,14.828912590207672,15.023971026126098C14.823872590207673,15.029446836126098,14.816720590207673,15.0324893561261,14.809281690207673,15.032324316126099L14.357777990207673,15.032324316126099C14.347481690207673,15.0336039661261,14.337966590207673,15.026650906126099,14.336059590207672,15.016452546126098C14.319080290207673,14.964185536126099,14.294599590207673,14.9146621861261,14.263384990207673,14.8694317361261C14.229906690207672,14.822977666126098,14.190761490207672,14.780885456126098,14.146854090207672,14.7441300761261C14.055923090207672,14.664903936126098,13.938253790207671,14.623241816126098,13.817728090207671,14.627599836126098C13.730522810207672,14.625382606126099,13.644216000207672,14.645665226126098,13.567124780207672,14.686491786126098C13.503479780207671,14.721135016126098,13.446827290207672,14.767306086126098,13.400055890207671,14.822652636126099C13.374119580207672,14.855546476126099,13.352241750207671,14.891446586126099,13.334899130207672,14.929576696126098C13.316984060207671,14.969184636126098,13.302994970207672,15.010452866126098,13.293131890207672,15.052789866126098C13.279577430207672,15.121599736126099,13.272308170207673,15.191499426126098,13.271413390207671,15.261626026126098C13.267236410207673,15.355184826126099,13.264730450207672,15.4704621261261,13.264730450207672,15.6124702261261C13.264730450207672,15.754478526126098,13.266818340207672,15.873932826126099,13.270578530207672,15.966656226126098C13.271766450207672,16.0359155261261,13.278892930207672,16.104945226126098,13.291880190207673,16.1729865261261C13.302849650207673,16.2147817261261,13.317671180207672,16.255470026126098,13.336153330207672,16.294529226126098C13.353823600207672,16.3317842261261,13.375384090207673,16.3670647261261,13.400475260207672,16.399782626126097C13.445699270207673,16.457986326126097,13.502610500207672,16.506076526126098,13.567544100207671,16.5409562261261C13.645366970207672,16.5817923261261,13.732383790207672,16.6019282261261,13.820235390207673,16.599430126126098Q14.161890890207673,16.599430126126098,14.338984890207673,16.226866726126097L14.349008590207672,16.2180950261261C14.352163390207672,16.2150526261261,14.356323790207671,16.2132699261261,14.360703390207672,16.2130832261261L14.808028790207672,16.2093239261261Z" fill="#323232" fill-opacity="1" style="mix-blend-mode:passthrough"/><path d="M15.769295637707671,17.0467774886261C15.755520697707672,17.0485994886261,15.743839917707673,17.036710988626098,15.745906057707671,17.022969988626098L15.747994007707671,14.600470838626098L14.996183832707672,14.600470838626098C14.982245703707672,14.602607788626099,14.970238644507672,14.590601358626099,14.972376206827672,14.576663198626099L14.972376206827672,14.195746349626098C14.970554753907672,14.181971373026098,14.982443270707671,14.170291897226098,14.996183832707672,14.172356805036099L16.972191627707673,14.172356805036099C16.986129627707673,14.1702198802261,16.998136627707673,14.182226300626098,16.995999127707673,14.1961644276261L16.995999127707673,14.576663848626099C16.998136627707673,14.5906026086261,16.986129627707673,14.602609068626098,16.972191627707673,14.6004714986261L16.222887227707673,14.6004714986261L16.22079942770767,17.0229703886261C16.222620627707673,17.036745588626097,16.21073232770767,17.0484249886261,16.196991727707672,17.046359988626097L15.769295637707671,17.0467774886261Z" fill="#323232" fill-opacity="1" style="mix-blend-mode:passthrough"/><path d="M17.361904213207673,17.0478849136261C17.34825471690767,17.0493345136261,17.336814895807674,17.0376942136261,17.338506897807672,17.0240772136261L17.341013661807672,14.197689277626099C17.339191603997673,14.183914301026098,17.351084070207673,14.172234825126099,17.364829195207673,14.174299732956099L17.79308551520767,14.174299732956099C17.806865095207673,14.172477642926099,17.818549665207673,14.184366159626098,17.816482845207673,14.198107356626098L17.81397604520767,17.024077913626098C17.815798075207674,17.0378528136261,17.803905635207673,17.049532213626097,17.790160505207673,17.0474675136261L17.361904213207673,17.0478849136261Z" fill="#323232" fill-opacity="1" style="mix-blend-mode:passthrough"/><path d="M18.394003927707672,15.6123776511261Q18.394003927707672,15.354256651126098,18.40110491680767,15.190111051126099C18.403343175507672,15.110472561126098,18.409755861707673,15.031005441126098,18.420317483707674,14.952038051126099C18.429099719707672,14.902891281126099,18.442382681707674,14.854655981126099,18.459996863707673,14.807941261126098C18.47722609370767,14.761026381126099,18.498322577707672,14.7156226611261,18.52306577770767,14.672197761126098L18.520977927707673,14.672197761126098C18.602828587707673,14.529987421126098,18.71629911770767,14.408514111126099,18.852609817707673,14.317176341126098Q19.08358245770767,14.150107456866099,19.426909127707674,14.150107456866099C19.62961432770767,14.143813949126098,19.82904102770767,14.202340066126098,19.996196727707673,14.317176341126098C20.132634827707673,14.409494311126098,20.246782227707673,14.531060661126098,20.330334527707674,14.673033301126098C20.37798792770767,14.760383961126099,20.411137427707672,14.854894341126098,20.42848762770767,14.952873531126098C20.44095882770767,15.032937111126099,20.44835172770767,15.113709511126098,20.450621627707672,15.194705351126098Q20.457722727707672,15.358432851126098,20.457304727707672,15.616554751126099C20.457304727707672,15.954869551126098,20.447280927707673,16.1754002511261,20.429319927707674,16.2794003511261C20.42038992770767,16.3289721511261,20.407398727707672,16.3777256511261,20.390476927707674,16.4251682511261C20.37440632770767,16.4707353511261,20.354857227707672,16.5149993511261,20.332003127707672,16.557570251126098C20.247511327707674,16.699573251126097,20.132174827707672,16.820763151126098,19.994524327707673,16.9121742511261C19.644512227707672,17.1302301511261,19.20094960770767,17.1302301511261,18.85093748770767,16.9121742511261C18.71428265770767,16.8213698511261,18.600837617707672,16.6997716511261,18.51972368770767,16.557152751126097L18.52181154770767,16.557152751126097C18.49744434770767,16.5138857511261,18.47649700170767,16.4687790511261,18.45916070070767,16.422244751126097C18.44173771870767,16.3757538511261,18.42845984970767,16.3278133511261,18.41948132370767,16.278983351126097C18.40906883470767,16.1994545511261,18.402934017607674,16.1194249511261,18.40110364230767,16.039239551126098Q18.394003927707672,15.871334351126098,18.394003927707672,15.6123776511261ZM18.869315177707673,15.6123776511261C18.869315177707673,15.755638951126098,18.871403037707672,15.8738404511261,18.87516319770767,15.966563451126099C18.876101287707673,16.0356991511261,18.883230387707673,16.1046122511261,18.896464887707673,16.172475851126098C18.907180787707674,16.2143497511261,18.922011077707673,16.255062551126098,18.94073807770767,16.294018551126097C18.958250227707673,16.331398951126097,18.979670527707672,16.366820351126098,19.004641827707673,16.3996894511261C19.04980855770767,16.4578382511261,19.106738867707673,16.5058016511261,19.171710727707673,16.540444851126097C19.24953359770767,16.5812809511261,19.33655029770767,16.6014168511261,19.42440192770767,16.598918651126098C19.51150292770767,16.601557751126098,19.597812127707673,16.5817065511261,19.675005227707672,16.541279751126098C19.74018262770767,16.5067608511261,19.797163627707672,16.458611251126097,19.842074227707673,16.4001061511261C19.896664327707672,16.3349342511261,19.934005927707673,16.2570922511261,19.95066922770767,16.1737279511261Q19.982412827707673,16.0484265511261,19.982829527707672,15.613212151126099Q19.982829527707672,15.398528451126099,19.97531182770767,15.259443651126098C19.972953727707672,15.190849751126098,19.965132527707674,15.122552871126098,19.95192232770767,15.0552018911261C19.942822527707673,15.011978981126099,19.928809327707672,14.9699389911261,19.91015512770767,14.929900171126098C19.863369527707672,14.824434991126099,19.78123602770767,14.738608781126098,19.677929327707673,14.687232731126098C19.64062842770767,14.6693367911261,19.60157742770767,14.6553406711261,19.56139832770767,14.645465461126099C19.431779527707672,14.612534671126099,19.294637797707672,14.627360551126099,19.175051567707673,14.687232731126098C19.11150848770767,14.722027061126099,19.054882827707672,14.768177091126098,19.007982667707672,14.8233936411261C18.982186617707672,14.856534061126098,18.960321487707674,14.892555951126099,18.942825917707673,14.930735771126098C18.92527550770767,14.970486461126098,18.911297857707673,15.011719581126098,18.901058677707674,15.053948881126098C18.887719597707672,15.122791291126099,18.880451647707673,15.192671751126099,18.879340197707673,15.262785051126098C18.871403037707672,15.355926951126099,18.869315177707673,15.472457251126098,18.869315177707673,15.6123776511261Z" fill="#323232" fill-opacity="1" style="mix-blend-mode:passthrough"/><path d="M21.076199499707673,17.051373263626097C21.062457664707672,17.0534379636261,21.050570421807674,17.041758563626097,21.052391874737673,17.0279834636261L21.054897806407673,14.201595527626099C21.053076353507674,14.187820551026098,21.064964869707673,14.176141075126099,21.07870542970767,14.178205982956099L21.48468294270767,14.178205982956099C21.492863532707673,14.178255693696098,21.500374942707673,14.182730935526099,21.50431359270767,14.189900753626098L22.70512135270767,16.086967963626098C22.710140752707673,16.0947362636261,22.71966985270767,16.0982783636261,22.72854395270767,16.0956737636261C22.737417952707673,16.093069163626097,22.74352355270767,16.0849387636261,22.743546452707673,16.075690663626098L22.743546452707673,14.2032659366261C22.74140755270767,14.189327169626099,22.753414652707672,14.177320111946099,22.76735415270767,14.1794583114261L23.197138152707673,14.1794583114261C23.211074652707673,14.177322023956098,23.223081852707672,14.189327806626098,23.22094545270767,14.2032659366261L23.21802145270767,17.029236363626097C23.22017055270767,17.0429463636261,23.208341852707672,17.054775763626097,23.194632152707673,17.052626163626098L22.79032555270767,17.052626163626098C22.782147552707674,17.0525748636261,22.774634752707673,17.048100263626097,22.770696252707673,17.0409312636261L21.564876552707673,15.1438640936261C21.559673492707674,15.136291323626098,21.550201712707672,15.1329079236261,21.541378642707674,15.135469253626098C21.53255564270767,15.138030643626099,21.52636981270767,15.1459608036261,21.526033372707673,15.1551413536261L21.526033372707673,17.0279834636261C21.526033372707673,17.0434372636261,21.51851558270767,17.051373263626097,21.50431487270767,17.051373263626097L21.076199499707673,17.051373263626097Z" fill="#323232" fill-opacity="1" style="mix-blend-mode:passthrough"/><path d="M21.80471882770767,7.2363985461260985L19.10488478770767,8.0817671761261C19.068109017707673,8.093190476126098,19.02977183770767,8.069278876126099,19.02385626770767,8.031228676126098L18.863470272337672,6.997490041126099C18.857441250707673,6.957386710126099,18.89028220970767,6.922097855526099,18.930714897707674,6.925232748766098L21.790098727707672,7.114020586126099C21.82028462770767,7.115907206126098,21.84481412770767,7.139087856126099,21.848401827707672,7.169118316126099C21.851988627707673,7.199148776126099,21.833610827707673,7.227454866126099,21.80471882770767,7.2363985461260985Z" fill="#FF9650" fill-opacity="1" style="mix-blend-mode:passthrough"/><path d="M22.740820240207672,11.301087188626099L19.406541666207673,8.570345888626099C19.388536178007673,8.5557998886261,19.38001906990767,8.532511088626098,19.384391066407673,8.509780388626098C19.388761788107672,8.487049588626098,19.405310370207673,8.4685812886261,19.42742528020767,8.461751088626098L22.667309340207673,7.448478326926098C22.70716484020767,7.435933852526099,22.74789964020767,7.465178347626098,22.748756240207673,7.506952423626099L22.842732240207674,11.250966588626099C22.843241940207673,11.275313188626098,22.829598240207673,11.297749288626099,22.80774604020767,11.308495988626099C22.785893740207673,11.319243188626098,22.759791640207673,11.316353088626098,22.740820240207672,11.301087188626099Z" fill="#FF9650" fill-opacity="1" style="mix-blend-mode:passthrough"/><path d="M18.60657885270767,8.966504767126098L18.15925235270767,12.706341951126099C18.156518152707672,12.731569551126098,18.13834695270767,12.752417851126099,18.113730052707673,12.758572351126098C18.089111752707673,12.764725951126099,18.06326845270767,12.7548811511261,18.04898625270767,12.733908451126098L16.453477798707674,10.459683151126098C16.43493314270767,10.432559851126099,16.441213266807672,10.395620351126098,16.46767850370767,10.376148551126098L18.510513652707672,8.910954279126098C18.529973552707673,8.897098363126098,18.55573135270767,8.8958802905261,18.57641085270767,8.907838275626098C18.597090552707673,8.9197961001261,18.608882252707673,8.942728054126098,18.60657885270767,8.966504767126098Z" fill="#FF9650" fill-opacity="1" style="mix-blend-mode:passthrough"/><path d="M18.535039115207674,8.340290288626099L16.91839118320767,9.504527088626098C16.893500000207673,9.522679588626099,16.859104916207674,9.5200445886261,16.837269520207673,9.498312488626098C16.81543284860767,9.476579888626098,16.81263330810767,9.442198288626098,16.83066586820767,9.417219888626098L18.311548915207673,7.331452283626098C18.326342015207672,7.310494893226099,18.35241371520767,7.300669929526099,18.377358415207674,7.306652735826098C18.402303115207673,7.312635382126099,18.42108151520767,7.333218449626099,18.424755715207674,7.358605261626098L18.56052051520767,8.280135868626099C18.563689815207674,8.303341568626099,18.553913215207672,8.326421888626099,18.535039115207674,8.340290288626099Z" fill="#FF9650" fill-opacity="1" style="mix-blend-mode:passthrough"/><path d="M19.07723110770767,9.055072136126098L18.601501694037673,13.072243926126099C18.59606027790767,13.117440026126099,18.639112341707673,13.153169426126098,18.682530224707673,13.139488926126099L22.59945997770767,11.928239626126098C22.621577277707672,11.921408626126098,22.638124977707673,11.902939826126099,22.642496677707673,11.880209226126098C22.646868777707674,11.857479326126098,22.63834957770767,11.834190326126098,22.62034377770767,11.819644426126098L19.179561317707673,9.013304914126099C19.161683257707672,8.998833350806098,19.13734417770767,8.995242545826098,19.11604881770767,9.003934756826098C19.09475224770767,9.0126269681261,19.079877227707673,9.032223359126098,19.07723110770767,9.055072136126098Z" fill="#FF9650" fill-opacity="1" style="mix-blend-mode:passthrough"/></g></g></svg>