<svg xmlns="http://www.w3.org/2000/svg" xmlns:xlink="http://www.w3.org/1999/xlink" fill="none" version="1.1" width="24" height="24" viewBox="0 0 24 24"><defs><clipPath id="master_svg0_159_00517"><rect x="0" y="0" width="24" height="24" rx="0"/></clipPath><clipPath id="master_svg1_159_9761"><rect x="1.220703125" y="7.3740234375" width="21.55856704711914" height="9.25158405303955" rx="0"/></clipPath></defs><g clip-path="url(#master_svg0_159_00517)"><g clip-path="url(#master_svg1_159_9761)"><path d="M1.2342300437984008,13.740594151306151C1.2263504522984008,13.741801651306153,1.219563164998401,13.735014551306152,1.2207712897784009,13.727135151306152L1.222188000898401,12.129557113306152C1.2202032685484008,12.121316960506153,1.227290956798401,12.113732171606152,1.235646754798401,12.115154229396152L1.795247551798401,12.115154229396152Q2.1295913417984007,12.115154229396152,2.292276841798401,12.390940521306153C2.310954841798401,12.423746171306153,2.327287841798401,12.457832311306152,2.341153641798401,12.492943881306152C2.3531719417984007,12.523386421306153,2.3618028417984007,12.555059701306153,2.366890441798401,12.587391291306153C2.378155441798401,12.701067271306153,2.3824924417984006,12.815323651306151,2.379876941798401,12.929527161306153Q2.379876941798401,13.200591051306152,2.3605152417984008,13.293149451306153C2.348485841798401,13.357008451306152,2.323406441798401,13.417697151306152,2.2868462417984006,13.471419051306153C2.235743241798401,13.550379851306152,2.166945751798401,13.616347951306153,2.0859094817984007,13.664091851306152C1.992574991798401,13.717456251306153,1.8864386117984009,13.744317251306153,1.7789554017984008,13.741775151306152L1.2342300437984008,13.740594151306151ZM1.4906547117984008,12.384801541306153L1.4906547117984008,13.474960651306152C1.4906547117984008,13.481481151306152,1.495940421798401,13.486766551306152,1.5024606317984008,13.486766551306152L1.7673856017984009,13.486766551306152Q1.959113831798401,13.486766551306152,2.052852931798401,13.353123451306152C2.0768376017984007,13.315604551306151,2.092907191798401,13.273582351306153,2.1000764917984007,13.229633551306152C2.1047498617984006,13.193916751306153,2.1075086017984006,13.157975051306153,2.108340681798401,13.121963651306153Q2.111646231798401,13.051128091306152,2.111410261798401,12.938735781306152C2.111410261798401,12.866483511306152,2.110229671798401,12.806273221306153,2.108340681798401,12.758105221306153C2.1064516917984006,12.709937151306152,2.1029099817984007,12.671449721306152,2.0993681517984006,12.643115581306152C2.092300291798401,12.591980631306152,2.072846711798401,12.543347121306152,2.042699631798401,12.501444491306152C1.979655981798401,12.415969701306153,1.8880420317984008,12.373232331306152,1.7685660717984009,12.372995971306153L1.5024606617984009,12.372995971306153C1.495940561798401,12.372995971306153,1.4906549417984007,12.378281381306152,1.4906547117984008,12.384801541306153Z" fill="#323232" fill-opacity="1" style="mix-blend-mode:passthrough"/><path d="M2.7485198367984007,13.380773138806152C2.754068996798401,13.375766838806152,2.7628595067984008,13.377407838806153,2.766228716798401,13.384078738806153C2.8106317567984007,13.451610238806152,2.887109396798401,13.491013438806153,2.967873956798401,13.487971038806153C3.031590966798401,13.486392238806152,3.093236086798401,13.465018538806152,3.1442545067984007,13.426816538806152C3.174308116798401,13.405550938806153,3.197197616798401,13.375662838806152,3.209895436798401,13.341105338806152C3.2250021067984007,13.298857238806152,3.232283416798401,13.254210038806152,3.231382306798401,13.209351138806152L3.231382306798401,12.131234076806152C3.230389476798401,12.123557775706152,3.236928406798401,12.117018904826152,3.2446048867984008,12.118011498936152L3.487806976798401,12.118011498936152C3.495834946798401,12.118011498936152,3.5000851167984006,12.122497808206152,3.5000851167984006,12.131234076806152L3.5000851167984006,13.233907338806151Q3.5000851167984006,13.480415238806152,3.3369272967984007,13.618544538806152C3.284842196798401,13.661330238806153,3.2264627267984007,13.695815538806153,3.163852216798401,13.720783738806153C3.103533266798401,13.743731838806152,3.0394936767984007,13.755339538806153,2.974957436798401,13.755021138806152C2.9300993667984008,13.755244338806152,2.885380746798401,13.750011638806152,2.841786596798401,13.739437238806152C2.762244846798401,13.720035838806153,2.688595626798401,13.681631038806152,2.627154871798401,13.627517338806152C2.597792282798401,13.601851738806152,2.571701645798401,13.572668538806152,2.5494718618984007,13.540625838806152C2.547152506308401,13.537791038806152,2.546280248498401,13.534040538806153,2.5471107128584007,13.530473038806152C2.5477756248484007,13.526928438806152,2.549811973898401,13.523788838806151,2.5527775967984008,13.521736638806152L2.7485198367984007,13.380773138806152Z" fill="#323232" fill-opacity="1" style="mix-blend-mode:passthrough"/><path d="M4.935654441798401,13.271641926306152C4.939972741798401,13.271492126306152,4.9441008417984005,13.273424226306153,4.946751941798401,13.276836626306153C4.949695841798401,13.279919626306153,4.9506135417984005,13.284416426306151,4.9491132417984005,13.288406626306152Q4.9018895417984005,13.516024826306152,4.741328891798401,13.638334026306152C4.690166951798401,13.677236326306152,4.632868111798401,13.707322026306151,4.5717960017984005,13.727350426306153C4.508127751798401,13.747930726306151,4.4415449517984005,13.758057026306153,4.374636951798401,13.757337226306152C4.259428621798401,13.761281626306152,4.145907971798401,13.728811726306152,4.050210181798401,13.664542826306153C3.972865331798401,13.613216926306153,3.908714931798401,13.544375226306153,3.8629682357984008,13.463605726306152C3.849951382798401,13.438935426306152,3.838515832798401,13.413461426306153,3.828731126798401,13.387339626306153C3.818479668798401,13.361176026306152,3.810577828798401,13.334152026306153,3.805119281798401,13.306587026306152C3.795438337098401,13.251335526306152,3.7907160396384008,13.126664926306152,3.7909522085711007,12.931867126306152C3.7909522085711007,12.834586446306153,3.792368861798401,12.755014236306152,3.7944940218984007,12.693151356306153C3.795265579098401,12.648007576306153,3.799052027998401,12.602966096306153,3.805827787798401,12.558327496306152C3.811348303798401,12.530547086306152,3.819247984798401,12.503293126306152,3.829439636798401,12.476866696306152C3.839213896798401,12.450549806306153,3.850730511798401,12.424913826306152,3.863912909798401,12.400128156306153C3.910261831798401,12.319855226306153,3.974397451798401,12.251276896306152,4.051391061798401,12.199663423306152Q4.182200701798401,12.105216026306152,4.376053931798401,12.105216026306152Q4.607686101798401,12.105216026306152,4.759274121798401,12.248303786306153C4.857976241798401,12.338229926306152,4.9245615417984006,12.457967756306152,4.948876841798401,12.589259656306153C4.950531741798401,12.593160156306153,4.949590341798401,12.597678186306153,4.946515441798401,12.600593266306152C4.943575941798401,12.603528856306152,4.939571841798401,12.605147656306153,4.935418041798401,12.605079566306152L4.681118611798401,12.605079566306152C4.6753287917984006,12.605685946306153,4.6700213517984,12.601807446306152,4.668840411798401,12.596106946306152C4.659256281798401,12.566509606306152,4.645330781798401,12.538499776306152,4.627519671798401,12.512993156306152C4.608743251798401,12.486332146306152,4.586690361798401,12.462137366306152,4.561878741798401,12.440976916306152C4.5104129917984,12.396292176306153,4.4439343817984005,12.372754906306152,4.375817241798401,12.375100016306153C4.326517941798401,12.373846916306153,4.277726981798401,12.385312736306153,4.234146121798401,12.408392816306153C4.198223771798401,12.428063096306152,4.166212201798401,12.454152676306153,4.139698771798401,12.485367326306152C4.125062231798401,12.504021226306152,4.112770821798401,12.524401336306152,4.103100331798401,12.546049956306152C4.092899651798401,12.568820146306152,4.084990081798401,12.592548726306152,4.079488481798401,12.616885486306153C4.071719051798401,12.655773576306153,4.067530151798401,12.695292176306152,4.066974251798401,12.734944756306152Q4.063432421798401,12.814044596306152,4.063432421798401,12.933284106306152Q4.063432421798401,13.052523676306151,4.066738071798401,13.133512626306153C4.0663274817984005,13.171856526306152,4.069171101798401,13.210166426306152,4.075238521798401,13.248030226306152C4.081339801798401,13.271688926306153,4.089721921798401,13.294700426306152,4.100267021798401,13.316740626306153C4.110117491798401,13.337824726306152,4.122230561798401,13.357776026306151,4.136393131798401,13.376242626306151C4.161913601798401,13.409190326306152,4.194096531798401,13.436384426306152,4.230840501798401,13.456050526306152C4.274484391798401,13.478938826306152,4.323245051798401,13.490316826306152,4.372511561798401,13.489106926306153Q4.565184411798401,13.489106926306153,4.665770711798401,13.278725226306152C4.667508781798401,13.276907226306152,4.669405281798401,13.275247826306153,4.671437681798401,13.273766626306152C4.6731958417984005,13.272008026306153,4.675563331798401,13.270993826306153,4.678048911798401,13.270933226306152L4.935654441798401,13.271641926306152Z" fill="#323232" fill-opacity="1" style="mix-blend-mode:passthrough"/><path d="M5.0385034907984005,13.741919776306153C5.034086356898401,13.742289376306152,5.029823786098401,13.740203276306152,5.027405891598401,13.736488976306152C5.025123105278401,13.732802276306153,5.0246867961784005,13.728264176306153,5.026225226988401,13.724210776306153L5.611799241798401,12.125924688806153C5.612640501798401,12.120525048306153,5.617440581798401,12.116644023716152,5.6228967317984,12.116952070140153L5.822653111798401,12.116952070140153C5.825231431798401,12.117036737876152,5.8277145017984004,12.117947186206152,5.829736831798401,12.119549388106153C5.832050921798401,12.121124567906152,5.833855981798401,12.123339980406152,5.834931491798401,12.125924688806153L6.416491341798401,13.725155476306153C6.418392441798401,13.729027276306152,6.418392441798401,13.733561176306152,6.416491341798401,13.737433576306152C6.414462941798401,13.740956976306153,6.410636041798401,13.743053176306152,6.406574441798401,13.742864376306152L6.1499135417984006,13.742864376306152C6.144420141798401,13.743289576306152,6.139550541798401,13.739352176306152,6.138815841798401,13.733891976306152L6.020756601798401,13.389631076306152C6.019208851798401,13.384817476306152,6.014714891798401,13.381566376306152,6.009658931798401,13.381603076306153L5.437779931798401,13.381603076306153C5.432770881798401,13.381709676306151,5.4283511917984,13.384906876306152,5.426682351798401,13.389631076306152C5.406612161798401,13.446771576306153,5.387014631798401,13.502967976306152,5.367416741798401,13.558219676306152C5.347818881798401,13.613471276306152,5.326332001798401,13.674390176306153,5.305317491798401,13.733891976306152C5.304387571798401,13.736368576306152,5.302637631798401,13.738451676306152,5.300358801798401,13.739794876306153C5.2982857217984005,13.741499676306152,5.2957197417984005,13.742492776306152,5.293039231798401,13.742627976306153L5.0385034907984005,13.741919776306153ZM5.933628861798401,13.126594976306151C5.906238971798401,13.044425846306153,5.775429491798401,12.656010986306152,5.736233711798401,12.539132086306152C5.7345392717984005,12.534462716306152,5.730103371798401,12.531353826306152,5.725136161798401,12.531353826306152C5.720168831798401,12.531353826306152,5.715732991798401,12.534462716306152,5.714038551798401,12.539132086306152C5.674842771798401,12.655774656306152,5.546158251798401,13.036869946306153,5.5159351217984005,13.125650276306153C5.513361571798401,13.133268576306152,5.518991441798401,13.141174476306153,5.527032671798401,13.141234176306153L5.9225311917984005,13.141234176306153C5.9302517817984,13.141409976306152,5.9358835217984005,13.133981276306152,5.933628861798401,13.126594976306151Z" fill="#323232" fill-opacity="1" style="mix-blend-mode:passthrough"/><path d="M6.684192528298401,13.744500063806152C6.676442006598401,13.745715063806152,6.6697546967984005,13.739028063806153,6.670969949018401,13.731277463806153L6.672386602298401,12.133463543806153C6.671178195628401,12.125584039806153,6.677965665698401,12.118796209006153,6.685845529298401,12.120004615936152L7.311087604298401,12.120004615936152C7.374644574298401,12.119214864036152,7.437899644298401,12.128866625906152,7.498329404298401,12.148575115806151C7.551665724298401,12.166236445806152,7.601234854298401,12.193703382806152,7.644486784298401,12.229563583806152C7.690844454298401,12.273240623806153,7.729412454298401,12.324505303806152,7.758531654298401,12.381151643806152C7.773919654298401,12.411250473806152,7.786031054298401,12.442914423806153,7.794657754298401,12.475599053806153C7.803479054298401,12.509443463806152,7.8079228542984005,12.544279723806152,7.807880554298401,12.579255043806153C7.8080986542984006,12.630068003806151,7.800615554298401,12.680620373806152,7.785685154298401,12.729190523806153C7.770950754298401,12.775952993806152,7.749814954298401,12.820450783806152,7.722877654298401,12.861416993806152C7.695649154298401,12.898874703806152,7.663391114298401,12.932403863806153,7.627013564298401,12.961059033806153C7.593098874298401,12.987460253806152,7.555565474298401,13.008850933806153,7.515565634298401,13.024574993806151C7.509043634298401,13.027054783806152,7.506083484298401,13.034619513806152,7.509190614298401,13.040867213806152C7.567275524298401,13.152551163806152,7.625833274298401,13.264235663806152,7.684626454298401,13.376863863806152Q7.776004154298401,13.551355363806152,7.865965354298401,13.724194163806153C7.8683166542984,13.728540763806151,7.8683166542984,13.733779263806152,7.865965354298401,13.738125063806152C7.863772554298401,13.742153763806153,7.859445654298401,13.744547563806153,7.854867854298401,13.744264563806151L7.566567304298401,13.744264563806151C7.564022834298401,13.744152063806153,7.561599554298401,13.743149163806152,7.559719624298401,13.741431263806152L7.554288624298401,13.736472863806153L7.231514694298401,13.068257453806153C7.229485924298401,13.064242003806152,7.2253879942984005,13.061692233806152,7.220889394298401,13.061646103806153L6.9526591342984005,13.061646103806153C6.946046804298401,13.061513543806152,6.940615774298401,13.066838263806153,6.940617234298401,13.073452053806152L6.940617234298401,13.730569963806152C6.9416472942984,13.738357163806153,6.934926484298401,13.744960463806152,6.927158294298401,13.743792563806153L6.684192528298401,13.744500063806152ZM6.940853234298401,12.375012693806152L6.940853234298401,12.809470653806152C6.940853234298401,12.815990743806152,6.946139004298401,12.821276543806153,6.9526591342984005,12.821276543806153L7.294086274298401,12.821276543806153C7.380505744298401,12.821276543806153,7.444966374298401,12.797664703806152,7.4884120842984006,12.750440953806152C7.553537724298401,12.676851753806153,7.571123424298401,12.572621103806153,7.533747134298401,12.481738003806152C7.5211954142984006,12.453754783806152,7.501785274298401,12.429390993806152,7.477314534298401,12.410902473806152C7.454069374298401,12.394921873806153,7.428395274298401,12.382802483806152,7.401284334298401,12.375012693806152C7.370901224298401,12.366683183806153,7.3395208142984005,12.362552103806152,7.308017194298401,12.362734433806152L6.9526591342984005,12.362734433806152C6.945888964298401,12.362583473806152,6.9404370742984005,12.368253323806153,6.940853234298401,12.375012693806152Z" fill="#323232" fill-opacity="1" style="mix-blend-mode:passthrough"/><path d="M8.143087176798401,13.336701776306153C8.145217206798401,13.333921476306152,8.1485585267984,13.332338976306152,8.1520598067984,13.332451776306153C8.155724656798402,13.332343676306152,8.159313826798401,13.333512176306153,8.1622127167984,13.335757476306153C8.222967396798401,13.384581476306153,8.291221856798401,13.423253576306152,8.364330116798401,13.450275076306152C8.4415160967984,13.479041976306153,8.523271266798401,13.493601176306152,8.6056432167984,13.493248776306153C8.700090646798401,13.493248776306153,8.7758845067984,13.473651276306153,8.8309004867984,13.434455476306152C8.880902766798402,13.400907676306153,8.910432036798401,13.344250876306152,8.9092920467984,13.284048176306152Q8.9092920467984,13.107667626306153,8.7121328667984,13.080986026306153L8.713313226798402,13.080986026306153L8.660186526798402,13.074138816306153L8.6101295367984,13.067527476306152L8.5586559167984,13.060207966306152L8.501279296798401,13.051707686306152C8.436703326798401,13.043498816306153,8.373737216798402,13.025588216306152,8.3145094467984,12.998580936306153C8.2620853467984,12.974542496306153,8.215274546798401,12.939796386306153,8.1770883167984,12.896577596306152C8.1407330667984,12.854909236306153,8.112394946798402,12.806878446306152,8.093502166798402,12.754906536306152C8.074518568798402,12.701408086306152,8.065165489798401,12.644969226306152,8.065875969798402,12.588206916306152Q8.065875969798402,12.375700266306152,8.207547086798401,12.243946086306153Q8.349218186798401,12.112191932006152,8.601156946798401,12.109122276306152C8.649932026798401,12.109306023306152,8.6985976667984,12.113730363106152,8.7466060567984,12.122344854306153C8.8381423367984,12.138765711306153,8.926819326798402,12.168350782306153,9.009878766798401,12.210180246306152C9.049984466798401,12.230364306306152,9.0888552667984,12.252914026306152,9.126284966798401,12.277710136306153C9.133443266798402,12.281269806306153,9.1352091667984,12.290688456306153,9.129826566798402,12.296599696306153L8.994530466798402,12.496119766306153C8.9909159667984,12.502455826306152,8.9824780667984,12.504030976306153,8.9768214867984,12.499425406306152C8.9188612067984,12.462889676306153,8.856707276798401,12.433477166306153,8.791704716798401,12.411825266306153C8.726361396798401,12.389752596306153,8.6578504467984,12.378506566306152,8.5888790467984,12.378532496306152C8.5553967367984,12.378249316306153,8.5220318467984,12.382539246306152,8.4897089567984,12.391282736306152C8.4596299867984,12.399509196306152,8.4315209667984,12.413723976306152,8.407067476798401,12.433075816306152C8.359843816798401,12.468021246306153,8.3345789267984,12.521147906306153,8.3345789267984,12.592455806306152C8.335859416798401,12.636886896306152,8.353227466798401,12.679342206306153,8.3834556367984,12.711931706306153C8.4020530267984,12.731258276306152,8.4243858167984,12.746601876306153,8.4490965567984,12.757030426306152C8.4815527767984,12.770687516306152,8.515705226798401,12.779900786306152,8.5506271767984,12.784420316306152C8.5721141067984,12.788198236306153,8.5978509167984,12.791976276306153,8.626185476798401,12.795990226306152C8.654519976798401,12.800004186306152,8.6894649867984,12.804490446306152,8.7288971567984,12.808976766306152Q8.957696016798401,12.837310906306152,9.0677271667984,12.977801386306153C9.139227966798401,13.063518946306152,9.1781923667984,13.171715776306153,9.1777586667984,13.283338776306152Q9.1777586667984,13.508595576306153,9.0202672667984,13.635391076306153Q8.862775976798401,13.762186676306152,8.6044629167984,13.760770876306152Q8.2401322767984,13.760770876306152,7.984888219698401,13.537402876306153C7.981986458398401,13.535351376306153,7.9803031918494005,13.531983376306153,7.9804019108337005,13.528430176306152C7.980308956466401,13.524838876306152,7.981479172698401,13.521329776306153,7.9837079154984005,13.518512976306152L8.143087176798401,13.336701776306153Z" fill="#323232" fill-opacity="1" style="mix-blend-mode:passthrough"/><path d="M10.1229018367984,13.731769751306153C10.1150223323984,13.732977351306152,10.1082352223984,13.726190451306152,10.109442908638401,13.718310751306152L10.1110959109984,12.120732923306152C10.1099278566584,12.112964747906153,10.1165312192984,12.106243931106153,10.124318489798402,12.107273995186153L10.7042254767984,12.107273995186153C10.765316666798402,12.107045572436153,10.826234216798401,12.113778999506152,10.8858006567984,12.127344211306152C10.9535565367984,12.145874194306153,11.016583856798402,12.178635560306152,11.0706811567984,12.223444621306152C11.096479956798401,12.243930231306152,11.119850416798402,12.267300351306153,11.140336416798402,12.293099491306153C11.162152616798402,12.320446101306151,11.181361716798401,12.349773931306153,11.197712916798402,12.380699631306152C11.2146473167984,12.415080491306153,11.2273336167984,12.451395001306153,11.235492116798401,12.488841951306153C11.244664216798402,12.530237581306153,11.2491788167984,12.572529701306152,11.2489511167984,12.614929141306153Q11.2489511167984,12.790129061306152,11.116960916798401,12.949272991306152Q10.9849706267984,13.108417051306152,10.7344486067984,13.107000351306151L10.390660106798402,13.107000351306151C10.384139626798401,13.107000351306151,10.3788542167984,13.112286251306152,10.3788542167984,13.118806251306152L10.3788542167984,13.706269151306152C10.3788542167984,13.720092051306153,10.3676485167984,13.731297751306153,10.353825706798402,13.731297751306153L10.1229018367984,13.731769751306153ZM10.3793261967984,12.375033021306152L10.3793261967984,12.839713991306152C10.3793261967984,12.846234201306153,10.384611606798401,12.851519941306153,10.3911320867984,12.851519941306153L10.726892646798401,12.851519941306153C10.8123674367984,12.851519941306153,10.8758833967984,12.826019111306152,10.917676086798402,12.774545431306151C10.958667516798402,12.728593941306153,10.9813548967984,12.669187481306153,10.9814283867984,12.607609511306153Q10.9814283867984,12.469244061306153,10.8834393667984,12.405728131306152C10.8337987667984,12.375435801306152,10.7762521467984,12.360638051306152,10.718156336798401,12.363226711306153L10.3923131267984,12.363226711306153C10.3853372667984,12.362525221306152,10.3792901667984,12.368022141306152,10.3793261967984,12.375033021306152Z" fill="#323232" fill-opacity="1" style="mix-blend-mode:passthrough"/><path d="M11.5318487782984,13.732746013806153C11.524098256598402,13.733961713806153,11.5174105864984,13.727273813806152,11.518626199018401,13.719523413806153L11.5200428522984,12.121709485806152C11.5188747978784,12.113941310906153,11.5254781608984,12.107220493486153,11.533265430298401,12.108250557696152L12.1587430842984,12.108250557696152C12.2223001742984,12.107460805796153,12.285555894298401,12.117112568606153,12.3459848742984,12.136821057806152C12.399361614298401,12.154389075806153,12.4489473742984,12.181865371806152,12.4921423242984,12.217809523806153C12.514523444298401,12.238909453806153,12.535134804298401,12.261811183806152,12.553768904298401,12.286283763806152C12.573717404298401,12.312347743806152,12.5912619042984,12.340165953806153,12.6061872042984,12.369397583806153C12.621537004298402,12.399513723806152,12.633647004298401,12.431173323806153,12.6423134042984,12.463844983806153C12.6511347042984,12.497689393806152,12.6555785042984,12.532525653806152,12.6555359042984,12.567501003806152C12.655788804298401,12.618333693806152,12.648222704298401,12.668903113806152,12.633104304298401,12.717436373806152C12.618497604298401,12.764133393806151,12.597437304298401,12.808559773806152,12.570533004298401,12.849426563806153C12.5434329042984,12.887060163806153,12.511160494298402,12.920684043806153,12.474669034298401,12.949304643806153C12.4406491542984,12.975738283806152,12.403045234298402,12.997203413806153,12.3629848342984,13.013056573806152C12.3565802542984,13.015527363806152,12.3537232242984,13.022999043806152,12.3568453742984,13.029112393806152Q12.443973244298402,13.196284413806152,12.532281304298401,13.365109013806153Q12.623659004298402,13.539600613806153,12.713620204298401,13.712439413806152C12.715971504298402,13.716786013806152,12.715971504298402,13.722024513806153,12.713620204298401,13.726370213806153C12.711472104298402,13.730442513806153,12.7071140042984,13.732853413806152,12.7025225042984,13.732509713806152L12.4146955042984,13.732509713806152C12.4122295942984,13.732362713806152,12.4098920842984,13.731361013806152,12.408084214298402,13.729676413806153C12.4061731742984,13.728138113806153,12.4043595742984,13.726482013806152,12.4026532142984,13.724718113806151L12.0798788642984,13.056738613806152C12.077960014298402,13.052592753806152,12.073821724298401,13.049925923806152,12.069253264298402,13.049891293806152L11.799607064298401,13.049891293806152C11.793139194298401,13.050017473806152,11.7879265242984,13.055230023806152,11.7878011442984,13.061697183806153L11.7878011442984,13.720703713806152C11.788793384298401,13.728380113806152,11.7822548742984,13.734918513806152,11.7745785742984,13.733926413806152L11.5318487782984,13.732746013806153ZM11.788273124298401,12.363258633806153L11.788273124298401,12.797952893806153C11.788273124298401,12.804473043806153,11.7935585642984,12.809758843806152,11.800079044298402,12.809758843806152L12.141978924298401,12.809758843806152C12.228398384298401,12.809758843806152,12.292858954298401,12.786146993806152,12.336068334298401,12.738923313806152C12.4015168542984,12.665091933806153,12.418948234298401,12.560321543806152,12.3809306642984,12.469275593806152C12.3685029142984,12.441215993806152,12.349070434298401,12.416823413806153,12.3244980542984,12.398440063806152C12.3015722042984,12.382777993806153,12.276195584298401,12.371047343806152,12.2494125342984,12.363730613806153C12.219052434298401,12.355287613806153,12.1876562842984,12.351154383806152,12.1561454542984,12.351452353806152L11.800079044298402,12.351452353806152C11.7937732942984,12.351298513806153,11.788417224298401,12.356036643806153,11.7878011442984,12.362313953806153L11.788273124298401,12.363258633806153Z" fill="#323232" fill-opacity="1" style="mix-blend-mode:passthrough"/><path d="M12.9149671792984,12.922133981306152Q12.9149671792984,12.776212871306152,12.9192171398984,12.683890461306152C12.920303769398402,12.638789531306152,12.9238504478984,12.593781231306153,12.929842760298401,12.549066601306153C12.9348075332984,12.521283001306152,12.942316662298401,12.494014561306152,12.952274307298401,12.467605831306152C12.962014343298401,12.441007521306153,12.973939880298401,12.415261681306152,12.9879284352984,12.390631321306152C13.0342161092984,12.310312971306152,13.0983632792984,12.241722021306153,13.1754066092984,12.190166570306152C13.262534379298401,12.127831306306152,13.3706770492984,12.095719176346153,13.500069559298401,12.095719176346153C13.6146700992984,12.092095037206152,13.7274302292984,12.125186789306152,13.821899239298402,12.190166570306152C13.8989835992984,12.242311821306153,13.963506979298401,12.310947801306153,14.010794079298401,12.391103301306153C14.037965579298401,12.440486911306152,14.056792879298401,12.494019271306152,14.0665176792984,12.549538971306152C14.0731743792984,12.594116721306152,14.0770380792984,12.639066641306153,14.0780871792984,12.684126501306153Q14.081629479298401,12.776920791306152,14.081629479298401,12.922842201306153Q14.081629479298401,13.209490201306153,14.065810079298402,13.297562201306153C14.0608077792984,13.325572801306151,14.0535429792984,13.353131701306152,14.044087479298401,13.379967701306153C14.034803579298401,13.405571601306152,14.0237570792984,13.430502101306152,14.011030279298401,13.454580801306152C13.963188379298401,13.534799801306152,13.8980007192984,13.603294801306152,13.8202462192984,13.655045301306153C13.725262699298401,13.718904101306153,13.6125702892984,13.751208401306153,13.4981802092984,13.747367601306152C13.3694953292984,13.747367601306152,13.2620616892984,13.716436301306153,13.1737536192984,13.654573301306153C13.0964090792984,13.603247301306153,13.032258299298402,13.534405601306153,12.9865117822984,13.453636201306152L12.9876920882984,13.453636201306152C12.973872147298401,13.429199301306152,12.9620280302984,13.403695801306153,12.952274307298401,13.377370001306153C12.9423634982984,13.351188201306153,12.9348550902984,13.324159401306153,12.929842760298401,13.296617501306152C12.924078148798401,13.251646001306153,12.920610735198402,13.206409601306152,12.919453488698402,13.161085201306152Q12.9149671792984,13.068527701306152,12.9149671792984,12.922133981306152ZM13.183670159298401,12.922133981306152C13.183670159298401,13.003358721306153,13.184850459298401,13.069943961306151,13.186976199298401,13.122362301306152C13.1876304792984,13.161517401306153,13.1916592092984,13.200542701306151,13.199018449298402,13.239004801306152C13.2051541792984,13.262653201306152,13.213535189298401,13.285661201306151,13.224046949298401,13.307715401306153C13.233895809298401,13.328800301306153,13.2460094092984,13.348751501306152,13.260173049298402,13.367217401306153C13.285759299298402,13.400101701306152,13.3179279892984,13.427284001306152,13.354619739298402,13.447025701306153C13.3982636592984,13.469914101306152,13.4470250592984,13.481291201306153,13.496290859298401,13.480082001306153C13.5886125592984,13.483350601306153,13.6767318292984,13.441405801306152,13.732409419298401,13.367689801306152C13.7631361492984,13.330670801306152,13.784226059298401,13.286624501306152,13.7937996392984,13.239477601306152C13.805605469298401,13.192253901306152,13.811508539298401,13.086472871306153,13.811981199298401,12.922842621306152C13.811981199298401,12.841854151306153,13.810328129298401,12.775032581306153,13.807731269298401,12.722614231306153C13.806367929298402,12.683904831306153,13.801865759298401,12.645369891306153,13.7942722992984,12.607388321306152C13.7890063492984,12.582986681306153,13.7810886492984,12.559233961306152,13.770660459298401,12.536552731306152C13.760856269298401,12.514997061306152,13.748488369298402,12.494702011306153,13.733826099298401,12.476106461306152C13.721975449298402,12.460847561306153,13.7084299892984,12.446985061306153,13.6934492592984,12.434785721306152C13.676845729298401,12.420942361306153,13.658703029298401,12.409058241306152,13.6393786092984,12.399367931306152C13.618248459298401,12.389351901306153,13.596182939298401,12.381442871306152,13.5735020592984,12.375756111306153C13.5488194192984,12.369407471306152,13.5234292192984,12.366233681306152,13.4979438792984,12.366311491306153C13.4482471392984,12.364853771306151,13.3990245792984,12.376325701306152,13.355092439298401,12.399604291306153C13.3191126292984,12.419188861306152,13.2870866092984,12.445290271306153,13.2606450292984,12.476578771306153C13.2460144792984,12.495281371306152,13.233650059298402,12.515650601306152,13.2238106092984,12.537261401306152C13.213784489298401,12.560099361306152,13.205880489298401,12.583811401306152,13.2001987392984,12.608096961306153C13.192710519298402,12.646624741306152,13.1886025092984,12.685733021306152,13.187920839298402,12.724975581306152Q13.183670159298401,12.803366361306152,13.183670159298401,12.922370251306152L13.183670159298401,12.922133981306152Z" fill="#323232" fill-opacity="1" style="mix-blend-mode:passthrough"/><path d="M14.699767861798401,13.735669101306152C14.691979821798402,13.736698901306152,14.685377891798401,13.729978001306153,14.686545251798401,13.722210201306153L14.686545251798401,12.365001171306153C14.686545251798401,12.358481001306153,14.6812590917984,12.353195221306152,14.674739331798401,12.353195221306152L14.273337842798401,12.353195221306152C14.2593846017984,12.353194861306152,14.2480729902014,12.341883611306152,14.2480729902014,12.327930371306152L14.2480729902014,12.124632326306152C14.2470843592284,12.116826321906153,14.2537251924984,12.110185129046153,14.2615319187984,12.111173399702153L15.3786085917984,12.112354064206153C15.3864873917984,12.111146378091153,15.393275091798401,12.117933488006152,15.3920673917984,12.125812991306152L15.3920673917984,12.327694371306153C15.3919376917984,12.341555401306152,15.380665191798402,12.352723601306153,15.366802691798402,12.352722871306153L14.9682359117984,12.352722871306153C14.961623911798402,12.352590311306152,14.9561921917984,12.357915001306152,14.9561936217984,12.364528801306152L14.9561936217984,13.721738101306153C14.9573609217984,13.729506701306152,14.950759051798402,13.736226801306152,14.9429710517984,13.735197101306152L14.699767861798401,13.735669101306152Z" fill="#323232" fill-opacity="1" style="mix-blend-mode:passthrough"/><path d="M15.625796935298402,13.736445663806153C15.6180291217984,13.737612963806152,15.6113090252584,13.731010363806153,15.6123380084684,13.723223063806152L15.613754661798401,12.125409289806152C15.6127242374884,12.117621659806153,15.6194457751984,12.111018657106152,15.627213589298401,12.112186711606153L16.6484261042984,12.112186711606153C16.6562141042984,12.111155926946152,16.662817504298403,12.117877464706153,16.6616487042984,12.125645638806152L16.6616487042984,12.355388853806152C16.662817504298403,12.363157363806152,16.6562141042984,12.369878533806153,16.6484261042984,12.368847783806153L15.8942635642984,12.368847783806153C15.8877437742984,12.368847783806153,15.882457644298402,12.374133553806152,15.882457644298402,12.380653713806153L15.882457644298402,12.784888443806153C15.882457644298402,12.791538953806153,15.8878489742984,12.796930373806152,15.8944998942984,12.796930373806152L16.5218669142984,12.796930373806152C16.5361112942984,12.797307903806152,16.5472254142984,12.809384043806153,16.5464227842984,12.823611553806153L16.5464227842984,13.028090293806152C16.5464227842984,13.036354423806152,16.5419363942984,13.040368493806152,16.5329638142984,13.040368493806152L15.8937908742984,13.040368493806152C15.887271104298401,13.040368493806152,15.8819849242984,13.045654293806152,15.8819849242984,13.052174333806152L15.8819849242984,13.472228963806153C15.8821131542984,13.478787763806153,15.887467054298401,13.484036463806152,15.894027204298402,13.484035063806152L16.647953404298402,13.484035063806152C16.655703904298402,13.482820163806153,16.6623909042984,13.489506963806152,16.6611760042984,13.497257463806152L16.6611760042984,13.724876063806153C16.6621689042984,13.732552363806153,16.6556305042984,13.739091563806152,16.647953404298402,13.738098663806152L15.625796935298402,13.736445663806153Z" fill="#303030" fill-opacity="1" style="mix-blend-mode:passthrough"/><path d="M18.0277571417984,13.265814313806153C18.0320763417984,13.265663613806153,18.036203741798403,13.267595813806153,18.038854041798402,13.271008813806151C18.041851641798402,13.274063813806153,18.042775541798402,13.278593613806152,18.041214741798402,13.282578813806152Q17.993991041798402,13.509961013806151,17.8336671017984,13.632506613806152C17.7823345617984,13.671276613806153,17.7249809517984,13.701349713806152,17.6638977517984,13.721523013806152C17.6002160917984,13.742023613806152,17.5336333517984,13.752070413806152,17.466739351798402,13.751274113806152C17.3517310617984,13.755075213806153,17.238426181798403,13.722702713806152,17.1427854917984,13.658715413806153C17.0655209717984,13.607295013806151,17.0013911017984,13.538474213806152,16.9555437047984,13.457778313806152C16.9425272087984,13.433107813806153,16.9310916627984,13.407634113806152,16.9213062337984,13.381512213806152C16.9113911017984,13.355269213806153,16.9039605167984,13.328154313806152,16.899111035798402,13.300523713806152Q16.8842354551284,13.218118213806152,16.8847081533284,12.926039693806153C16.8847081533284,12.828759013806152,16.8861248067984,12.748950783806153,16.8884854150984,12.687323863806153C16.8891959036984,12.642186223806153,16.8929025493984,12.597145883806153,16.8995822937984,12.552500043806152C16.9050716437984,12.524712473806153,16.9129720437984,12.497455923806152,16.9231941397984,12.471039203806152C16.9330674857984,12.444763393806152,16.9445822947984,12.419133573806153,16.9576679617984,12.394300703806152C17.0039390717984,12.313906683806152,17.0680862217984,12.245235743806152,17.145146131798402,12.193599953806153Q17.2759552617984,12.100569202626152,17.4698090517984,12.100333213806152Q17.7019139517984,12.100333213806152,17.853028891798402,12.243420973806153C17.9521241417984,12.333271833806153,18.0190540417984,12.453114153806153,18.0435767417984,12.584612163806153C18.0451922417984,12.588440593806153,18.0442497417984,12.592870323806153,18.0412161417984,12.595709803806152C18.0383683417984,12.598804983806152,18.0343245417984,12.600525383806152,18.0301191417984,12.600432033806152L17.7748752217984,12.600432033806152C17.769086121798402,12.601039533806153,17.763778331798402,12.597160663806152,17.7625965517984,12.591459453806152C17.753012891798402,12.561862113806152,17.739087041798403,12.533851863806152,17.721275801798402,12.508345603806152C17.702437101798402,12.482087463806153,17.680384571798403,12.458290783806152,17.6556341617984,12.437510073806152C17.604229691798402,12.392721203806152,17.5377089417984,12.369168783806153,17.4695727217984,12.371633173806153C17.420273721798402,12.370379713806152,17.3714820717984,12.381845893806153,17.3279016317984,12.404925943806152C17.291921761798402,12.424510123806153,17.2598950217984,12.450611563806152,17.233454201798402,12.481900483806152C17.2189518817984,12.500561983806152,17.2066703417984,12.520846903806152,17.1968561117984,12.542346743806153C17.1867291317984,12.564737943806152,17.178820071798402,12.588067713806153,17.1732442717984,12.612001653806152C17.1654750117984,12.650889693806153,17.1612855817984,12.690407993806152,17.1607292917984,12.730060933806152C17.1583686817984,12.782951533806152,17.1571869517984,12.848120213806153,17.1571869517984,12.928400333806152C17.1571869517984,13.008680523806152,17.1583672117984,13.076210383806153,17.1604929317984,13.128628713806153C17.1611428817984,13.167705213806153,17.1651724017984,13.206652713806152,17.1725352117984,13.245034913806153C17.1787365117984,13.268739113806152,17.187115371798402,13.291819613806153,17.197563711798402,13.313981513806151C17.2075538017984,13.335042513806153,17.2197416417984,13.354987513806153,17.2339254617984,13.373483413806152C17.2594915017984,13.406387613806153,17.2916638217984,13.433573413806153,17.328372891798402,13.453291313806153C17.3723900017984,13.476295813806152,17.4215822817984,13.487597213806152,17.4712242517984,13.486112213806152Q17.6638963217984,13.486112213806152,17.764483031798402,13.275730413806151L17.7701497117984,13.270771813806153C17.7719078617984,13.269013613806152,17.774275661798402,13.267999013806152,17.7767615917984,13.267938513806152L18.0277571417984,13.265814313806153Z" fill="#323232" fill-opacity="1" style="mix-blend-mode:passthrough"/><path d="M18.5693829317984,13.738971951306151C18.5615949317984,13.740002551306151,18.5549915717984,13.733281651306152,18.5561603617984,13.725513251306152L18.5573406217984,12.368067921306153C18.5573420817984,12.361584871306153,18.5520170317984,12.356365741306153,18.5455347317984,12.356497991306153L18.1441332757984,12.356497991306153C18.1302722647984,12.356368611306152,18.1191033294674,12.345094861306153,18.1191047706234,12.331233111306153L18.1191047706234,12.127699105306153C18.1185081332784,12.119963356306153,18.125408373298402,12.113764958106152,18.1330363967984,12.115185574436152L19.2501130417984,12.115185574436152C19.2579916417984,12.113977888406152,19.2647795417984,12.120764997806152,19.263571841798402,12.128644500306152L19.263571841798402,12.331942531306153C19.2635734417984,12.345858291306152,19.252222741798402,12.357102881306153,19.2383070417984,12.356971021306153L18.8376146517984,12.356971021306153C18.831185641798402,12.356969581306153,18.825936971798402,12.362112701306152,18.8258087017984,12.368540971306153L18.8246284117984,13.725985851306152C18.8257957717984,13.733754351306153,18.819193841798402,13.740474451306152,18.8114058417984,13.739444851306153L18.5693829317984,13.738971951306151Z" fill="#323232" fill-opacity="1" style="mix-blend-mode:passthrough"/><path d="M19.4693048222984,13.739375251306152C19.461627800498402,13.740368151306152,19.4550892895184,13.733828751306152,19.4560822438584,13.726152651306153L19.4574988972984,12.128338619306152C19.4565073839584,12.120662316206152,19.4630458950984,12.114123804846152,19.4707214752984,12.115116038826152L19.7127429242984,12.115116038826152C19.7205107242984,12.113949065106153,19.7272308442984,12.120551347706153,19.726201894298402,12.128338619306152L19.7247852042984,13.726152651306153C19.7258156542984,13.733940651306153,19.719094094298402,13.740543151306152,19.7113263042984,13.739375251306152L19.4693048222984,13.739375251306152Z" fill="#323232" fill-opacity="1" style="mix-blend-mode:passthrough"/><path d="M20.0517421342664,12.929201838806152Q20.0517421342664,12.783280848806152,20.0557557451984,12.690486068806152C20.0570340482984,12.645386638806153,20.060659988798403,12.600384468806153,20.066617714298403,12.555662248806152C20.0716127532984,12.527962208806152,20.079121155298402,12.500774888806152,20.089049261298403,12.474437418806152C20.0987900122984,12.447915878806153,20.110715557298402,12.422248218806152,20.1247033852984,12.397698908806152C20.1709067492984,12.317254128806152,20.235066889298402,12.248568398806153,20.3121815292984,12.196998186806152Q20.4429906892984,12.102550790386152,20.6366081192984,12.102550790386152C20.751279239298402,12.098958716706152,20.8641056392984,12.132045425806153,20.9586741292984,12.196998186806152C21.035856429298402,12.249126138806153,21.100398529298403,12.317863018806152,21.1475688292984,12.398171248806152C21.1745083292984,12.447552348806152,21.1932491292984,12.500981328806152,21.2030561292984,12.556370588806152C21.2097100292984,12.601027938806153,21.2135737292984,12.646056408806153,21.2146257292984,12.691194358806152Q21.2184030292984,12.783752798806152,21.2184030292984,12.929674268806153Q21.2184030292984,13.216086138806153,21.202347129298403,13.304394138806153C21.197484729298402,13.332435838806152,21.1902169292984,13.360006238806152,21.1806247292984,13.386799738806152C21.1714401292984,13.412519938806152,21.1603921292984,13.437536638806153,21.1475674292984,13.461649138806152C21.0997313292984,13.541873238806152,21.0345420792984,13.610369638806151,20.9567833492984,13.662113438806152C20.7589158392984,13.785385338806153,20.5081596092984,13.785385338806153,20.3102907492984,13.662113438806152C20.2330362992984,13.610780338806153,20.1689049892984,13.542038238806153,20.1230489392984,13.461412938806152C20.1091519032984,13.436898738806152,20.0972292462984,13.411317238806152,20.0873948152984,13.384910338806153C20.0775920952984,13.358711938806152,20.070164393298402,13.331685638806153,20.0651996212984,13.304157838806152C20.0593125107984,13.259198538806153,20.0558436554984,13.213956038806153,20.0548103488984,13.168625738806153Q20.0512694360784,13.075359228806152,20.0517421342664,12.929201838806152ZM20.3204451192984,12.929201838806152C20.3204451192984,13.010190368806152,20.3204451192984,13.077011938806152,20.3235147592984,13.129430338806152C20.3242872392984,13.168499938806152,20.3283152292984,13.207437038806152,20.3355570392984,13.245836538806152C20.341841909298402,13.269470338806153,20.3503000092984,13.292471838806152,20.3608218992984,13.314547038806152C20.3706375992984,13.335724438806153,20.3827519092984,13.355757638806152,20.396948699298402,13.374284938806152C20.4224830892984,13.407157338806153,20.4546668792984,13.434272338806153,20.491396099298402,13.453856838806152C20.5350241092984,13.476784838806152,20.5837956692984,13.488165038806152,20.6330672492984,13.486913238806153C20.7253470992984,13.489979338806153,20.8133770792984,13.448077038806153,20.8691856892984,13.374520938806153C20.9000047492984,13.337561438806151,20.921106099298402,13.293490838806152,20.9305759092984,13.246308838806153Q20.9487575292984,13.175473338806153,20.9487575292984,12.929673848806152Q20.9487575292984,12.808308958806153,20.9445075992984,12.729681488806152C20.9430533692984,12.690913378806153,20.938633379298402,12.652313168806153,20.9312850192984,12.614219548806153C20.926140069298402,12.589784768806153,20.918218079298402,12.566018728806153,20.9076730592984,12.543383988806152C20.8977537192984,12.522204788806153,20.8853049892984,12.502304998806153,20.8706008792984,12.484118728806152C20.858601929298402,12.468913498806153,20.8449844692984,12.455058248806152,20.8299892592984,12.442797988806152C20.8134376392984,12.428951028806152,20.7952833792984,12.417139738806153,20.7759185992984,12.407616198806153C20.7548316692984,12.397499288806152,20.7327560192984,12.389587018806152,20.710042059298402,12.384004358806152C20.6853162692984,12.377445278806153,20.6598293792984,12.374190088806152,20.634247479298402,12.374323428806152C20.5849441892984,12.373027118806153,20.5361424692984,12.384495798806153,20.4925763892984,12.407616198806153C20.4566542192984,12.427286148806152,20.4246419092984,12.453375698806152,20.398129019298402,12.484590678806152C20.3834652892984,12.503270208806152,20.371098759298402,12.523643758806152,20.3612945692984,12.545273328806152C20.3513736992984,12.567745238806152,20.3434718592984,12.591055128806152,20.337682749298402,12.614928248806152C20.3300186992984,12.653827788806153,20.3259099692984,12.693343518806152,20.3254041092984,12.732987458806152Q20.3204451192984,12.809962038806152,20.3204451192984,12.929438228806152L20.3204451192984,12.929201838806152Z" fill="#323232" fill-opacity="1" style="mix-blend-mode:passthrough"/><path d="M21.5662266227984,13.740551613806153C21.5584588092984,13.741719713806152,21.5517387127584,13.735116913806152,21.552767695968402,13.727329013806152L21.5541843492984,12.129515138806152C21.5531957183884,12.121709134406153,21.5598365514984,12.115067941546153,21.5676432767984,12.116056212202153L21.7971497617984,12.116056212202153C21.8017744417984,12.116085755846152,21.806020051798402,12.118615339506153,21.8082466417984,12.122667501206152L22.488031271798402,13.194645613806152C22.490844491798402,13.199003313806152,22.496171001798402,13.201015213806151,22.5011616317984,13.199604713806153C22.506152391798402,13.198194113806153,22.509638491798402,13.193692013806153,22.5097538217984,13.188506713806152L22.5097538217984,12.129987477806152C22.5085446217984,12.122107612906152,22.5153324617984,12.115319783096153,22.5232126717984,12.116528550106151L22.7661782917984,12.116528550106151C22.774056891798402,12.115320863896152,22.7808447917984,12.122107973806152,22.7796370917984,12.129987477806152L22.7779839917984,13.727565413806152C22.779198991798403,13.735315813806153,22.7725119917984,13.742002813806153,22.7647615917984,13.740788013806153L22.5361989117984,13.740788013806153C22.531575741798402,13.740759013806152,22.5273286717984,13.738230013806152,22.5251021417984,13.734176613806152L21.844373431798402,12.662434453806153C21.8414320617984,12.658154193806153,21.8360781917984,12.656241773806153,21.831090361798402,12.657689753806153C21.8261039817984,12.659137723806152,21.822607721798402,12.663619753806152,21.8224146117984,12.668809713806152L21.8224146117984,13.727565413806152C21.8224146117984,13.736301513806152,21.8181646417984,13.740788013806153,21.8101359917984,13.740788013806153L21.5662266227984,13.740551613806153Z" fill="#323232" fill-opacity="1" style="mix-blend-mode:passthrough"/><path d="M13.223149091798401,7.549754123806152L11.696643041798401,8.027658043806152C11.6759063017984,8.034123423806152,11.654288284798401,8.020570333806152,11.6510723457984,7.999087633806153L11.560874911748401,7.414694353806152C11.5575184665984,7.392227308806152,11.575748329798401,7.372392816906152,11.598417669798401,7.373845856426152L13.2148847917984,7.480571423806152C13.231949491798401,7.481637953806152,13.245815491798401,7.494742453806152,13.2478438917984,7.511719273806152C13.2498722917984,7.528695943806152,13.2394823917984,7.544698133806152,13.223149091798401,7.549754123806152Z" fill="#FF9650" fill-opacity="1" style="mix-blend-mode:passthrough"/><path d="M13.7510515417984,9.846751163806152L11.8663535897984,8.303008253806153C11.856330371198402,8.294705213806152,11.8516286096984,8.281599993806152,11.8540864959984,8.268818673806152C11.8565443821984,8.256037293806152,11.865771363798402,8.245610953806153,11.878159515798401,8.241617503806152L13.709730941798401,7.668793985106152C13.7326451417984,7.660692452906153,13.7567241417984,7.677548134806153,13.7569545417984,7.7018505668061525L13.8100811417984,9.818416863806153C13.810885441798401,9.832735763806152,13.8029749417984,9.846126563806152,13.790046341798401,9.852332363806152C13.777117741798401,9.858538163806152,13.7617219417984,9.856334663806152,13.7510515417984,9.846751163806152Z" fill="#FF9650" fill-opacity="1" style="mix-blend-mode:passthrough"/><path d="M11.4163312917984,8.526799775806152L11.163448571798401,10.641004588806153C11.1619023117984,10.655265788806153,11.1516297417984,10.667050788806153,11.1377139117984,10.670530288806152C11.123797411798401,10.674009088806152,11.109187721798401,10.668444188806152,11.101112961798401,10.656588588806152L10.1991400136984,9.370923398806152C10.1888357703984,9.355502428806153,10.192475402088402,9.334704638806151,10.2074043047984,9.323699768806152L11.362023591798401,8.495395971906152C11.3730246917984,8.487563575606153,11.387585391798401,8.486875425106152,11.399275991798401,8.493635423506152C11.4109665917984,8.500395331806152,11.4176333917984,8.513358773806152,11.4163312917984,8.526799775806152Z" fill="#FF9650" fill-opacity="1" style="mix-blend-mode:passthrough"/><path d="M11.3752689342984,8.173835393806153L10.4614901062984,8.831897763806152C10.447420850298402,8.842160063806153,10.4279782562984,8.840671463806153,10.415634781298401,8.828387063806153C10.4032920265984,8.816102463806152,10.4017103614984,8.796667563806153,10.411905077798401,8.782549063806153L11.248945414298401,7.603609231806153C11.257306994298402,7.591764193706152,11.2720435242984,7.586211431306152,11.286141574298401,7.5895931642761525C11.300241114298402,7.592974874706153,11.310855274298401,7.6046081538061525,11.3129333242984,7.6189569258061525L11.389671924298401,8.139834283806152C11.3915712842984,8.152965013806153,11.3860221542984,8.166064443806153,11.3752689342984,8.173835393806153Z" fill="#FF9650" fill-opacity="1" style="mix-blend-mode:passthrough"/><path d="M11.6804266267984,8.576266519306152L11.4103070249284,10.846073651306153C11.4075061440984,10.871512851306152,11.4316259997984,10.891529751306152,11.456114072798401,10.884088751306152L13.670432666798401,10.199345151306153C13.6829706667984,10.195542351306152,13.6923857667984,10.185127351306152,13.694907766798401,10.172269851306153C13.6974297667984,10.159412151306153,13.692648066798402,10.146212351306152,13.6824747667984,10.137954451306152L11.738039616798401,8.552654669606152C11.727978946798402,8.544438296626153,11.714226726798401,8.542388977006153,11.702206786798401,8.547315018006152C11.690186116798401,8.552240968706153,11.6818274567984,8.563352078306153,11.6804266267984,8.576266519306152Z" fill="#FF9650" fill-opacity="1" style="mix-blend-mode:passthrough"/><path d="M6.912552216798401,16.01460590130615Q7.093182816798401,16.227112501306152,7.423985016798401,16.399951301306153C7.431159716798401,16.403671701306152,7.433570116798401,16.412763201306152,7.429179816798401,16.41954900130615L7.3080509167984005,16.604193801306153C7.3039636167984,16.610181101306154,7.296016416798401,16.612116601306152,7.289633616798401,16.608680201306154Q6.770172816798401,16.31990690130615,6.5741944267984005,15.883796001306152C6.571833076798401,15.879481201306152,6.567306336798401,15.876798501306153,6.562388066798401,15.876798501306153C6.557470146798401,15.876798501306153,6.552943826798401,15.879481201306152,6.550582466798401,15.883796001306152Q6.3534234167984005,16.295114801306152,5.816253836798401,16.620249701306154C5.809748826798401,16.624054901306152,5.801409956798401,16.622201701306153,5.797128306798401,16.61599970130615L5.674110402598401,16.42592470130615C5.669548072598401,16.419167001306153,5.671994790128401,16.409938001306152,5.679305038398401,16.406327101306154C5.871797676798401,16.307624001306152,6.044261516798401,16.17399240130615,6.187904476798401,16.01224530130615C6.314991886798401,15.869119301306153,6.397114516798401,15.691735091306152,6.424022916798401,15.502229151306153C6.425175546798401,15.493810651306152,6.418588396798401,15.486330391306153,6.410092116798401,15.486408951306153L5.7319597227984005,15.486408951306153C5.724302876798401,15.486410381306152,5.718132581798401,15.480133411306152,5.718264806798401,15.472477971306152L5.718264806798401,15.282166511306153C5.718264806798401,15.274602621306153,5.724396194798401,15.268471271306153,5.7319597227984005,15.268471981306153L6.419536706798401,15.268471981306153C6.427100176798401,15.268472731306153,6.433231946798401,15.262341321306153,6.433231596798401,15.254777431306152L6.433231596798401,14.820318806306153C6.433100106798401,14.812663401906152,6.4392700167984005,14.806386460153252,6.446926536798401,14.806387901306152L6.649280246798401,14.806387901306152C6.656937006798401,14.806386460153252,6.663107036798401,14.812663401906152,6.662975136798401,14.820318806306153L6.662975136798401,15.254304741306152C6.662974476798401,15.261961581306153,6.669251026798401,15.268131881306152,6.676906016798401,15.267999291306152L7.372274916798401,15.267999291306152C7.379838816798401,15.267999291306152,7.385970216798401,15.274130671306152,7.385969516798401,15.281693841306152L7.385969516798401,15.472005311306152C7.386101516798401,15.479660691306153,7.379931116798401,15.485936941306152,7.372274916798401,15.485936221306153L6.657071826798401,15.485936221306153L6.657071826798401,15.497742121306153C6.699398516798401,15.688078821306153,6.787040016798401,15.865387401306153,6.912552216798401,16.01460590130615Z" fill="#323232" fill-opacity="1" style="mix-blend-mode:passthrough"/><path d="M9.163889479298401,16.11898156380615C9.2278039792984,16.20016456380615,9.3052932792984,16.269666363806152,9.392924679298401,16.32440486380615C9.3993766792984,16.328535363806154,9.4011853792984,16.33715476380615,9.3969390792984,16.34353026380615L9.293755379298402,16.49842406380615C9.2893706792984,16.50489066380615,9.280527679298402,16.506488963806152,9.2741578792984,16.50196576380615C9.1743002792984,16.43314136380615,9.086534879298402,16.34824786380615,9.0144273792984,16.250735263806153C8.939821279298402,16.14597656380615,8.877174279298401,16.03319696380615,8.827656179298401,15.914502863806153C8.824629779298402,15.907619863806152,8.816687579298401,15.904380763806152,8.809710979298401,15.907183163806152L8.7417094792984,15.938114663806152C8.735645779298402,15.940700063806153,8.732347679298401,15.947296263806152,8.733917879298401,15.953698663806152C8.757217679298401,16.053918463806152,8.768317479298402,16.156588463806152,8.7669743792984,16.259472263806153C8.7697059792984,16.329188063806154,8.759292979298401,16.398794863806152,8.736279279298401,16.464659363806152C8.7168055792984,16.513044763806153,8.679056779298401,16.551811663806152,8.631206099298401,16.572565663806152C8.565215709298402,16.597844863806152,8.4947261192984,16.609258063806152,8.424130499298402,16.60609476380615L8.2196517592984,16.60609476380615C8.213085179298401,16.606101263806153,8.207438049298402,16.60144486380615,8.206192909298402,16.594997263806153L8.1757333892984,16.43396346380615C8.1742849992984,16.425557963806153,8.180664239298402,16.41783626380615,8.189192299298401,16.417671363806154L8.3587251892984,16.417671363806154C8.3995616992984,16.419284663806152,8.440390289298401,16.41426076380615,8.479617829298402,16.402795663806153C8.506207049298402,16.394242363806153,8.527646359298402,16.37435886380615,8.538175399298401,16.348488763806152C8.550994399298402,16.311565663806153,8.556683419298402,16.272544263806154,8.5549396892984,16.23349916380615C8.5549396892984,16.211303963806152,8.5549396892984,16.18273376380615,8.5523427092984,16.147787963806152C8.5521271792984,16.142641663806153,8.5490416892984,16.138052263806152,8.544357299298401,16.135909363806153C8.5396727892984,16.13376626380615,8.5341827292984,16.134432863806154,8.5301474292984,16.13763506380615C8.4187751392984,16.224492663806153,8.299021839298401,16.300030563806153,8.172663689298401,16.363127863806152C8.030316739298401,16.436413363806153,7.883288849298401,16.500225563806154,7.732538484298401,16.554147763806153C7.725893326298401,16.556518363806152,7.718534082298401,16.55345236380615,7.715537928298401,16.54706446380615L7.642813746498401,16.398309963806152C7.639296612698401,16.39067636380615,7.643290768298401,16.381690063806154,7.6513136662984005,16.37918446380615C7.817838159298401,16.32883276380615,7.980220799298401,16.265679263806152,8.1370095592984,16.190289763806152C8.2709611692984,16.12652586380615,8.3976262792984,16.048467963806154,8.514799239298402,15.957477163806152C8.519374849298401,15.953815363806152,8.5211676992984,15.947680263806152,8.519285499298402,15.942129563806152C8.511021199298401,15.916156563806153,8.5029932292984,15.894906063806152,8.4956736592984,15.876016763806152C8.492511809298401,15.867853363806152,8.482521709298402,15.864832763806152,8.475367789298401,15.869877563806153C8.3701608192984,15.941185163806152,8.2596487992984,16.004334163806153,8.1448019192984,16.058772363806153C8.0167835692984,16.12045076380615,7.885003839298401,16.17399886380615,7.750248099298401,16.219097063806153C7.743156899298401,16.221359563806153,7.7355245502984005,16.217749463806154,7.732775561298401,16.210832563806154L7.675870914298401,16.064675163806154C7.672726316298401,16.05728136380615,7.676848013298401,16.048815363806153,7.684607181298401,16.04673006380615C7.813501749298401,16.009053263806152,7.939716489298401,15.962747563806152,8.062396799298401,15.908128663806153C8.1800028092984,15.857048963806152,8.293652179298402,15.797303963806153,8.402407229298401,15.729386683806153C8.409009219298401,15.725249823806152,8.410834369298401,15.716445863806152,8.406421599298401,15.710024833806152C8.397685349298401,15.697038533806152,8.3868241292984,15.681690213806153,8.373365159298402,15.663981433806152C8.369585749298402,15.658474023806152,8.362291399298401,15.656650963806152,8.356364609298401,15.659731443806152C8.164129909298401,15.752962533806151,7.964275869298401,15.829587263806152,7.758985089298401,15.888766663806152C7.751976759298401,15.890719363806152,7.744628329298401,15.887045163806153,7.741984529298401,15.880266763806151L7.686496537298401,15.728442723806152C7.683740329298401,15.720772203806153,7.688253302298401,15.712406393806152,7.696177475298401,15.710497493806152Q8.0956902792984,15.610619123806153,8.3542396392984,15.480753893806153C8.359837059298401,15.477755603806152,8.362697719298401,15.471351863806152,8.361197529298401,15.465182243806153C8.3596965692984,15.459012743806152,8.3542137192984,15.454638063806152,8.347864689298401,15.454545143806152L7.988255229298401,15.454545143806152C7.980692059298401,15.454545853806152,7.974560679298401,15.448414443806152,7.974560679298401,15.440850553806152L7.974560679298401,15.306027113806152C7.974560679298401,15.298463223806152,7.980692059298401,15.292331873806152,7.988255229298401,15.292332533806153L9.0621224792984,15.292332533806153C9.069685579298401,15.292331873806152,9.075817679298401,15.298463943806153,9.0758169792984,15.306027113806152L9.0758169792984,15.440850553806152C9.075817679298401,15.448413793806152,9.069685579298401,15.454545853806152,9.0621224792984,15.454545143806152L8.702040879298401,15.454545143806152C8.6991190792984,15.454541503806153,8.696284979298401,15.455541673806152,8.694012979298401,15.457378443806153Q8.6205806092984,15.512393713806153,8.5428973992984,15.559381783806153C8.535821259298402,15.563748483806153,8.534358499298401,15.573423623806152,8.5398276492984,15.579687593806153C8.5868366992984,15.633947793806152,8.627184629298402,15.693637433806153,8.6600118792984,15.757484793806153C8.663203379298402,15.764203433806152,8.671240679298402,15.767059083806153,8.677957179298401,15.763859753806152C8.8454781792984,15.684227403806153,9.0081346792984,15.594739083806152,9.165069679298401,15.495865163806153C9.171469879298401,15.491568383806152,9.180174479298401,15.493635713806153,9.183958879298402,15.500351483806153L9.2729752792984,15.649105843806153C9.276726579298401,15.655467033806152,9.2748624792984,15.663650693806153,9.268725279298401,15.667759413806152Q9.157513879298401,15.737178263806152,9.006398079298402,15.813208463806152C8.999968379298402,15.816652863806151,8.997128579298401,15.824360763806153,8.9997867792984,15.831153663806152C9.0428015792984,15.933304063806153,9.0978946792984,16.02993486380615,9.163889479298401,16.11898156380615ZM7.907266769298401,15.165062903806152L7.907266769298401,15.355374333806152C7.907399329298401,15.363029773806153,7.901229049298401,15.369306623806152,7.893572179298401,15.369305193806152L7.718844652298401,15.369305193806152C7.7111878092984005,15.369306623806152,7.705017507298401,15.363029773806153,7.705150097298401,15.355374333806152L7.705150097298401,14.980890053806153C7.7051508202984005,14.973326873806153,7.7112814782984005,14.967196213806153,7.718844652298401,14.967195493806152L8.410671589298401,14.967195493806152C8.4201716192984,14.966953363806152,8.426646049298402,14.957480673806153,8.4234221592984,14.948541913806153Q8.3915460092984,14.858580827806152,8.373365159298402,14.813010129806152C8.370242949298401,14.804727106806153,8.3756810992984,14.795702604806152,8.3844627692984,14.794592916806153L8.599094329298401,14.768384109520152C8.6055190592984,14.767686591546152,8.6115805492984,14.771499161606153,8.6137335892984,14.777593077206152C8.6201085492984,14.797426944806153,8.634275849298401,14.835678025806152,8.6559990792984,14.891874343806153L8.682207779298402,14.958459923806153C8.684304679298402,14.963679073806153,8.6893342792984,14.967124883806152,8.694958479298402,14.967196213806153L9.335547879298401,14.967196213806153C9.343111279298402,14.967196213806153,9.349242579298402,14.973327593806152,9.349242579298402,14.980890753806152L9.349242579298402,15.358680363806153C9.3492418792984,15.366243543806153,9.343111279298402,15.372374893806152,9.335547879298401,15.372374893806152L9.160820479298401,15.372374893806152C9.1532573792984,15.372374893806152,9.1471267792984,15.366243543806153,9.147125979298401,15.358680363806153L9.147125979298401,15.166243943806153C9.147125079298402,15.158680733806152,9.140994679298402,15.152550073806152,9.133431479298402,15.152549353806153L7.920253009298401,15.152549353806153C7.913401749298401,15.152880103806153,7.907851159298401,15.158228243806152,7.907266769298401,15.165062903806152Z" fill="#323232" fill-opacity="1" style="mix-blend-mode:passthrough"/><path d="M11.3767435792984,16.092950501306152L11.3767435792984,16.27759540130615C11.3768754792984,16.285120401306152,11.3708110792984,16.291291401306154,11.363284579298401,16.29129000130615L10.687277179298402,16.29129000130615C10.679714079298401,16.29129000130615,10.673583379298401,16.29742130130615,10.673582579298401,16.304984401306154L10.673582579298401,16.610521901306154C10.673581979298401,16.617955301306154,10.667556479298401,16.62398090130615,10.660123679298401,16.62398090130615L10.465562229298401,16.62398090130615C10.458089889298401,16.623982201306152,10.4519959092984,16.617992601306153,10.451867639298401,16.610521901306154L10.451867639298401,16.304984401306154C10.451867639298401,16.297420601306154,10.4457363492984,16.291289201306153,10.438173119298401,16.29129000130615L9.647411735298402,16.29129000130615C9.6398485651984,16.29129000130615,9.6337171792984,16.285158501306153,9.6337171792984,16.27759540130615L9.6337171792984,16.092950501306152C9.633717899874911,16.08538750130615,9.6398485651984,16.079256101306154,9.647411735298402,16.079256101306154L10.4381723992984,16.079256101306154C10.445644799298401,16.07925740130615,10.451738719298401,16.073267901306153,10.4518669892984,16.06579700130615L10.4518669892984,15.845262401306153C10.451868479298401,15.837736101306152,10.4456974292984,15.831671601306152,10.4381723992984,15.831803401306152L9.839611839298401,15.831803401306152C9.8320486692984,15.831804301306152,9.8259165592984,15.825672101306152,9.825917269298401,15.818109001306151L9.825917269298401,15.632283811306152C9.8258740492984,15.629355431306152,9.8268792492984,15.626508291306152,9.8287505992984,15.624255891306152C9.912553639298402,15.510353681306153,9.9868652492984,15.389764431306153,10.050938189298401,15.263703171306153C10.0559808292984,15.254556921306152,10.0493399792984,15.243359831306153,10.038895939298401,15.243397291306152L9.700774036298402,15.243397291306152C9.6933910062984,15.242649381306153,9.6879463302984,15.236156971306153,9.6884961272984,15.228756661306152L9.6884961272984,15.050014761306151C9.688622232298401,15.042634631306152,9.694574915298402,15.036682661306152,9.7019550572984,15.036555861306152L10.1536498692984,15.036555861306152C10.1591255692984,15.036449191306152,10.1640672092984,15.033246251306153,10.166400549298402,15.028291571306152Q10.2322778092984,14.879537195306153,10.2620282192984,14.792173059706153C10.264159679298402,14.785748399606153,10.270731329298401,14.781906286006153,10.2773758192984,14.783200441366152L10.4792568092984,14.823340878306153C10.487621959298401,14.824836794306153,10.492524089298401,14.833614852306152,10.489409809298401,14.841521740306153C10.467922929298402,14.895593081306153,10.4436027392984,14.953914371306153,10.4164492492984,15.017193941306152C10.4126099992984,15.026256631306152,10.4191239492984,15.036335381306152,10.428963479298401,15.036555861306152L11.3077966792984,15.036555861306152C11.3152688792984,15.036555141306152,11.321362879298402,15.042543861306152,11.321491279298401,15.050014761306151L11.321491279298401,15.228756661306152C11.321491879298401,15.236319811306153,11.315360579298401,15.242451221306153,11.3077966792984,15.242451221306153L10.3175162092984,15.242451221306153C10.3123907992984,15.242471371306152,10.307722149298401,15.245401231306152,10.3054739192984,15.250007181306152C10.244253039298401,15.372607471306152,10.176142039298401,15.491644561306153,10.1014671892984,15.606546221306152C10.098648999298401,15.610699711306152,10.0983751692984,15.616075871306153,10.100758139298401,15.620492991306152C10.1031403792984,15.624910111306152,10.1077830192984,15.627634701306153,10.1128011692984,15.627561151306152L10.4381723992984,15.627561151306152C10.445735569298401,15.627561151306152,10.451866269298401,15.621429801306153,10.4518669892984,15.613866571306152L10.4518669892984,15.352246881306153C10.451867639298401,15.344683711306152,10.4579983992984,15.338553131306153,10.465561569298401,15.338552291306152L10.6601229792984,15.338552291306152C10.6676486792984,15.338550211306153,10.673713679298402,15.344721141306152,10.673581979298401,15.352246881306153L10.673581979298401,15.614102241306153C10.6735812792984,15.621665421306153,10.679712579298402,15.627796831306153,10.687276379298401,15.627796831306153L11.210751579298401,15.627796831306153C11.218239879298402,15.627661291306152,11.224346079298401,15.633767481306153,11.224210379298402,15.641255681306152L11.224210379298402,15.819052901306152C11.2243421792984,15.826578601306153,11.218277979298401,15.832749601306153,11.210751579298401,15.832747501306152L10.687277179298402,15.832747501306152C10.679752279298402,15.832614901306153,10.673580479298401,15.838679901306152,10.673582579298401,15.846206301306152L10.673582579298401,16.066741001306152C10.6737115792984,16.07421200130615,10.679805479298402,16.080200701306154,10.687277179298402,16.080200001306153L11.363284579298401,16.080200001306153C11.3704491792984,16.08018980130615,11.376366779298401,16.085795001306153,11.3767435792984,16.092950501306152Z" fill="#323232" fill-opacity="1" style="mix-blend-mode:passthrough"/><path d="M12.1330072617984,15.859175946306152L11.867138296798402,15.859175946306152C11.8595751276984,15.859176696306152,11.8534437417984,15.853045316306153,11.8534437417984,15.845481396306152L11.8534437417984,15.579848081306153C11.8534437417984,15.572284912206152,11.8595751276984,15.566153526306152,11.867138296798402,15.566153526306152L12.133007971798401,15.566153526306152C12.140571861798401,15.566153526306152,12.1467032417984,15.572284912206152,12.1467025317984,15.579848081306153L12.1467025317984,15.845481396306152C12.1467032417984,15.853045316306153,12.140571151798401,15.859176696306152,12.1330072617984,15.859175946306152Z" fill="#323232" fill-opacity="1" style="mix-blend-mode:passthrough"/><path d="M12.9141941367984,15.734084488806152Q12.772523026798401,15.618386628806153,12.595197807498401,15.480020758806152C12.589263139818401,15.475445808806153,12.588011498398401,15.466995658806152,12.592364500998402,15.460895178806153L12.7009791567984,15.316390808806153C12.705485646798401,15.310339448806152,12.714037436798401,15.309072668806152,12.720104696798401,15.313557508806152Q12.8780680267984,15.433033408806152,13.043114636798402,15.562426628806152C13.049089636798401,15.567004378806152,13.050249036798402,15.575546858806153,13.0457115767984,15.581552148806152L12.9335553367984,15.731723188806152C12.9289652067984,15.737902818806152,12.9201360367984,15.738979338806152,12.9141941367984,15.734084488806152ZM12.6209346367984,16.514928588806153L12.868387106798401,15.871033688806152C12.8712225567984,15.863828688806151,12.879461616798402,15.860404388806153,12.886567946798401,15.863477688806153L13.0653097967984,15.938091188806153C13.0721279367984,15.940928788806152,13.075546326798401,15.948595088806153,13.0731014267984,15.955563788806153L12.8348579367984,16.60134808880615C12.8322119867984,16.608607188806154,12.824088216798401,16.612241788806152,12.816912706798401,16.60937578880615L12.628017905798401,16.532637488806152C12.621258895798402,16.52961888880615,12.618121506798401,16.521775588806154,12.6209346367984,16.514928588806153ZM12.9729874167984,15.225013108806152Q12.8934155967984,15.163150158806152,12.6705196727984,14.998575538806152C12.6645381597984,14.994074788806152,12.6630905197984,14.985697368806152,12.667213663798401,14.979449968806152L12.772522316798401,14.829278960806151C12.776954576798401,14.823186486806152,12.785427106798402,14.821722272806152,12.7916478367984,14.825972951806152L12.862483416798401,14.875557981806152C12.890345216798401,14.895391848806153,12.9311939467984,14.925143018806152,12.985500926798402,14.964574398806151C13.0327246167984,14.999520198806152,13.0702674067984,15.027381988806152,13.096240576798401,15.047924218806152C13.1018596267984,15.052375908806152,13.1030954167984,15.060407488806153,13.0990738867984,15.066341398806152L12.993528906798401,15.221943438806152C12.989169356798401,15.229196728806153,12.9792766267984,15.230675338806153,12.9729874167984,15.225013108806152ZM13.016196786798401,15.391476328806153C13.0115483667984,15.386488438806152,13.0115483667984,15.378755268806152,13.016196786798401,15.373767438806153C13.0893064767984,15.286529418806152,13.154645446798401,15.193063438806153,13.211466546798402,15.094439568806152C13.2689700167984,14.997449268806152,13.315835536798401,14.894535078806152,13.3512489767984,14.787485524106152C13.353304086798401,14.780653017106152,13.3604089567984,14.776682640806152,13.3673048567984,14.778512905056152L13.553839026798402,14.823375276806152C13.561896566798401,14.825265347806152,13.566449166798401,14.833815708806153,13.563519356798402,14.841556138806153C13.552893636798402,14.868945978806153,13.538254496798402,14.905072078806151,13.519601586798402,14.950406418806152C13.5157047467984,14.959425148806153,13.522292256798401,14.969492348806153,13.532116596798401,14.969531968806152L14.2763625667984,14.969531968806152C14.2839257667984,14.969531968806152,14.290057866798401,14.975663338806152,14.290057866798401,14.983226538806152L14.290057866798401,15.153940438806153C14.290057866798401,15.161503638806153,14.2839257667984,15.167635018806152,14.2763625667984,15.167635018806152L13.4204314967984,15.167635018806152C13.4154250067984,15.167616988806152,13.4108075467984,15.170333538806153,13.4083892067984,15.174718288806153C13.389027356798401,15.210136058806153,13.3673048567984,15.247678818806152,13.343693016798401,15.287346538806153C13.3382973067984,15.296471178806152,13.344665766798402,15.308040078806153,13.3552626367984,15.308361408806153L14.1632609667984,15.308361408806153C14.170824066798401,15.308361408806153,14.1769562667984,15.314492818806153,14.1769562667984,15.322055998806153L14.1769562667984,15.484741928806152C14.1769562667984,15.492305158806152,14.170824066798401,15.498436568806152,14.1632609667984,15.498436568806152L13.3349567667984,15.498436568806152C13.3273935867984,15.498436568806152,13.3212614667984,15.492305158806152,13.3212614667984,15.484741928806152L13.3212614667984,15.370224358806153C13.3212586067984,15.364131208806153,13.3172305867984,15.358772988806152,13.3113780567984,15.357077478806152C13.305525476798401,15.355381908806152,13.299256566798402,15.357756968806152,13.2959966067984,15.362904788806151Q13.232717036798402,15.459240848806152,13.170854086798402,15.540701988806152C13.1653741567984,15.547442198806152,13.155084316798401,15.547442198806152,13.1496036067984,15.540701988806152L13.016196786798401,15.391476328806153ZM14.369155566798401,16.168542388806152C14.374944566798401,16.171162388806152,14.3781697667984,16.17741918880615,14.3769477667984,16.183654288806153Q14.361835866798401,16.266767888806154,14.3403497667984,16.343270588806153C14.3285913667984,16.387183388806154,14.313676866798401,16.430190288806152,14.295722866798402,16.47195568880615C14.2813677667984,16.514992688806153,14.257104366798401,16.554056688806153,14.224887466798402,16.58600028880615C14.196361266798402,16.610652788806153,14.1596276667984,16.62371268880615,14.121940166798401,16.622598688806153Q13.993018866798401,16.622598688806153,13.925725666798401,16.493913488806154Q13.8385978667984,16.335241888806152,13.8385978667984,15.986730888806152L13.8385978667984,15.845059788806152C13.8385978667984,15.837496488806153,13.8324657667984,15.831365188806153,13.8249025667984,15.831365188806153L13.1347287267984,15.831365188806153C13.1271656167984,15.831365988806152,13.1210341467984,15.825234488806153,13.1210341467984,15.817670688806153L13.1210341467984,15.644831718806152C13.1210341467984,15.637268538806152,13.1271656167984,15.631137128806152,13.1347287267984,15.631137128806152L14.040242566798401,15.631137128806152C14.047898066798401,15.631003918806153,14.054175566798401,15.637174908806152,14.0541741667984,15.644831718806152L14.0541741667984,15.947063088806152Q14.0541741667984,16.192862488806153,14.075896766798401,16.27999038880615C14.079725866798402,16.304192388806154,14.086056866798401,16.327931788806154,14.0947860667984,16.35082578880615C14.100688966798401,16.364048588806153,14.108952366798402,16.37042358880615,14.118397666798401,16.37042358880615C14.1305726667984,16.36958238880615,14.1414576667984,16.362534688806154,14.147203566798401,16.351769888806153C14.1586420667984,16.330335588806154,14.1666099667984,16.307224488806153,14.170815466798402,16.28329558880615C14.170815466798402,16.28093428880615,14.1809682667984,16.22332128880615,14.2012742667984,16.110929388806152C14.2028045667984,16.101987788806152,14.212339366798401,16.096872488806152,14.220635866798402,16.100540188806153L14.369155566798401,16.168542388806152Z" fill="#323232" fill-opacity="1" style="mix-blend-mode:passthrough"/><path d="M16.3237820042984,16.093453563806154L16.3237820042984,16.27809836380615C16.3237820042984,16.28566156380615,16.3176501042984,16.29179286380615,16.3100867042984,16.29179286380615L15.633608104298402,16.29179286380615C15.6260810042984,16.291791563806154,15.620016604298401,16.297962563806152,15.620149304298401,16.30548736380615L15.620149304298401,16.611024763806153C15.620021004298401,16.61849566380615,15.613926304298401,16.624485263806154,15.606453904298402,16.624483963806153L15.411892534298401,16.624483963806153C15.404420134298402,16.624485263806154,15.398326994298401,16.618496463806153,15.3981972942984,16.611024763806153L15.3981972942984,16.30548736380615C15.3981972942984,16.297923663806152,15.392065164298401,16.291792163806154,15.3845019342984,16.29179286380615L14.5946867282984,16.29179286380615C14.587123556998401,16.29179286380615,14.580991451215601,16.28566156380615,14.580991451215601,16.27809836380615L14.580991451215601,16.093453563806154C14.5807233967684,16.08570586380615,14.5869347657984,16.079281363806153,14.5946867282984,16.07928636380615L15.3854473242984,16.07928636380615C15.3929196642984,16.07928696380615,15.399014414298401,16.07329826380615,15.3991426842984,16.065827263806153L15.3991426842984,15.845292763806153C15.399144114298402,15.837766363806152,15.3929730642984,15.831701963806152,15.3854473242984,15.831833863806153L14.786414834298402,15.831833863806153C14.778851654298402,15.831833863806153,14.7727195642984,15.825702563806152,14.7727195642984,15.818139363806152L14.7727195642984,15.632314143806152C14.772676314298401,15.629385713806153,14.773680804298401,15.626538753806152,14.7755528542984,15.624286293806152C14.8593559242984,15.510383963806152,14.933667514298401,15.389794823806152,14.997739764298402,15.263733563806152C15.002780884298401,15.254587293806152,14.996141494298401,15.243390263806152,14.985697474298401,15.243427723806152L14.6478133872984,15.243427723806152C14.640250217298401,15.243427723806152,14.634119555298401,15.237296373806153,14.634118117298401,15.229733173806153L14.634118117298401,15.050991293806153C14.634246379298402,15.043519673806152,14.640341010298402,15.037530953806153,14.6478133872984,15.037532393806153L15.100688514298401,15.037532393806153C15.106095734298401,15.037393333806152,15.110952374298401,15.034186033806153,15.113203404298401,15.029268113806152Q15.179080014298401,14.880513742806153,15.207650844298401,14.793149621206153C15.209782364298402,14.786724241406151,15.2163554442984,14.782882128006152,15.222999154298401,14.784177003836152L15.4248802042984,14.824317432806152C15.433244644298401,14.825814071806152,15.4381459342984,14.834592129806152,15.4350330842984,14.842498298806152Q15.402921314298402,14.923723103806152,15.362071874298401,15.018170503806152C15.358232614298402,15.027233183806151,15.3647466942984,15.037311913806152,15.3745868842984,15.037532393806153L16.254599604298402,15.037532393806153C16.2620733042984,15.037529523806151,16.2681681042984,15.043519673806152,16.268294704298402,15.050991293806153L16.268294704298402,15.229259733806153C16.2682962042984,15.236823673806152,16.2621642042984,15.242955773806152,16.254599604298402,15.242954343806153L15.2643184042984,15.242954343806153C15.2592239942984,15.243081123806153,15.2546050542984,15.245979283806152,15.2522761842984,15.250510243806152C15.191057444298401,15.373110593806153,15.1229456642984,15.492146913806152,15.0482708842984,15.607049343806153C15.045603304298401,15.611267563806152,15.045441924298402,15.616603433806151,15.0478486142984,15.620975193806153C15.050255324298401,15.625346903806152,15.054851204298402,15.628063563806153,15.059840474298401,15.628064213806152L15.3849760342984,15.628064213806152C15.392539264298401,15.628064213806152,15.398671384298401,15.621932803806152,15.398671384298401,15.614369633806152L15.398671384298401,15.352750003806152C15.398671384298401,15.345186833806153,15.404803454298401,15.339056133806153,15.4123666242984,15.339055473806152L15.606928104298401,15.339055473806152C15.614491204298401,15.339056133806153,15.620623304298402,15.345186833806153,15.620623304298402,15.352750003806152L15.620623304298402,15.614605243806153C15.620492204298401,15.622130213806152,15.6265566042984,15.628300603806153,15.634082204298402,15.628299833806153L16.1575565042984,15.628299833806153C16.1650822042984,15.628166553806153,16.171253204298402,15.634231623806153,16.1712519042984,15.641758803806152L16.1712519042984,15.819555963806152C16.1712519042984,15.827119063806153,16.1651199042984,15.833250563806152,16.1575565042984,15.833250563806152L15.633608104298402,15.833250563806152C15.6261200042984,15.833116363806152,15.6200153042984,15.839221163806153,15.620149304298401,15.846709463806153L15.620149304298401,16.067244063806154C15.620149304298401,16.074676763806153,15.626174704298402,16.08070216380615,15.633608104298402,16.080702863806152L16.3096155042984,16.080702863806152C16.3170056042984,16.080431363806152,16.3232763042984,16.08607556380615,16.3237820042984,16.093453563806154Z" fill="#323232" fill-opacity="1" style="mix-blend-mode:passthrough"/><path d="M17.9179322417984,16.204917301306153C17.9125682417984,16.20479190130615,17.9076250417984,16.207811101306152,17.9052875417984,16.212640401306153C17.9029486417984,16.21746980130615,17.9036446417984,16.223219301306152,17.9070701417984,16.22734890130615C17.9490827417984,16.276826501306154,18.0003302417984,16.317647901306152,18.0579502417984,16.347533001306154C18.1411610417984,16.389502301306152,18.2295138417984,16.42038200130615,18.3207502417984,16.439383401306152C18.328489341798402,16.441124301306154,18.3332148417984,16.448965101306154,18.3311396417984,16.456620301306152L18.2839160417984,16.616000401306152C18.281653241798402,16.623062001306153,18.2743984417984,16.627250701306153,18.2671510417984,16.625681401306153Q17.936585041798402,16.546109701306154,17.7679960417984,16.331949901306153C17.7626119417984,16.324813201306153,17.751894141798402,16.324813201306153,17.7465099417984,16.331949901306153Q17.6010615417984,16.520844601306152,17.2251598817984,16.627098101306153C17.218073781798402,16.629143701306152,17.210620161798403,16.62531400130615,17.208160101798402,16.618361701306153L17.1706165717984,16.51281680130615C17.1662830717984,16.503337501306152,17.1534582417984,16.501798401306154,17.1470047217984,16.50998340130615C17.1359064017984,16.528817101306153,17.1194714917984,16.54393640130615,17.0997810317984,16.55342920130615C17.0593206917984,16.569990301306152,17.0157012917984,16.577408601306153,16.9720415817984,16.57515230130615L16.836981031798402,16.57515230130615C16.8303805617984,16.575254001306153,16.8246808017984,16.570553701306153,16.823522091798402,16.564054801306153L16.7914103317984,16.40561940130615C16.7897803817984,16.397033101306153,16.7963664817984,16.389084301306152,16.8051055917984,16.38909090130615L16.9049833117984,16.38909090130615C16.944651011798403,16.38909090130615,16.9696795017984,16.384368301306154,16.9803051317984,16.37515990130615C16.990930761798403,16.365951801306153,16.9961247117984,16.34422850130615,16.9961247117984,16.309755401306152L16.9961247117984,16.020745201306152C16.9961247117984,16.01305150130615,16.9898873817984,16.006814201306153,16.9821930517984,16.006814201306153L16.8251751317984,16.006814201306153C16.8177964117984,16.006920901306152,16.811734941798402,16.01267390130615,16.811243471798402,16.02003680130615C16.805638851798403,16.13122460130615,16.7910313317984,16.24177550130615,16.7675621317984,16.35060270130615C16.7479408417984,16.436538001306154,16.7183842317984,16.51989720130615,16.6794904017984,16.598999101306152C16.675287991798402,16.607053001306152,16.664696961798402,16.60912540130615,16.6577678917984,16.603249001306153L16.5300269885984,16.492982001306153C16.5253374767854,16.488840201306154,16.523985675298402,16.48208060130615,16.5267209836984,16.476453501306153C16.555838038798402,16.416590201306153,16.5795450027984,16.354243001306152,16.5975565317984,16.290155801306152C16.6159485207984,16.213755201306153,16.6272514917984,16.13582040130615,16.6313213017984,16.057343401306152Q16.6412378817984,15.913547201306152,16.6412378817984,15.642247261306153L16.6412378817984,14.898945957306152C16.641103851798402,14.891196146306152,16.647420431798402,14.884879574306153,16.6551695017984,14.885015048306153L17.1581016217984,14.885015048306153C17.1658507017984,14.884881019306153,17.1721673017984,14.891196869306153,17.1720332517984,14.898945957306152L17.1720332517984,16.38436750130615Q17.1720332517984,16.402076401306154,17.1699075717984,16.428285201306153C17.169440631798402,16.43783070130615,17.1783657117984,16.44508990130615,17.187616411798402,16.442688101306153C17.2814426417984,16.419765901306153,17.3722598517984,16.38592740130615,17.4582087417984,16.341865801306152C17.5124191617984,16.313662301306152,17.5601170417984,16.27440970130615,17.5982267417984,16.22663970130615C17.601472341798402,16.22242520130615,17.6020343417984,16.216730501306152,17.5996766417984,16.21196230130615C17.597317441798403,16.207194401306154,17.5924491417984,16.204185201306153,17.587129941798402,16.204208301306153L17.2329522417984,16.204208301306153C17.2253112817984,16.204082101306152,17.219147441798402,16.197918301306153,17.2190206017984,16.190277301306153L17.2190206017984,16.043648001306153C17.2191503017984,16.036046601306154,17.2253501417984,16.029952601306153,17.2329522417984,16.02995340130615L17.6607989417984,16.02995340130615L17.6607989417984,16.025939101306154C17.6607989417984,16.013896801306153,17.6626881417984,15.984146401306152,17.6626881417984,15.936922701306152C17.6626881417984,15.929229001306153,17.656450741798402,15.922991801306152,17.6487566417984,15.922991801306152L17.315120991798402,15.922991801306152C17.3075189017984,15.922862801306152,17.3014243217984,15.916662901306152,17.3014257517984,15.909060801306152L17.3014257517984,15.283818811306153C17.3014243217984,15.276216001306153,17.3075189017984,15.270016191306153,17.315120991798402,15.269887921306152L18.206468341798402,15.269887921306152C18.2141627417984,15.269886461306152,18.2203999417984,15.276124511306152,18.2203999417984,15.283818811306153L18.2203999417984,15.909769201306153C18.2203999417984,15.917463501306152,18.2141627417984,15.923700801306152,18.206468341798402,15.923700101306153L17.8638601417984,15.923700101306153C17.856220741798403,15.923826201306152,17.8500567417984,15.929989301306152,17.849928541798402,15.937631001306153C17.849928541798402,15.981548701306153,17.849928541798402,16.011772601306152,17.848039141798402,16.02853670130615L17.848039141798402,16.03066170130615L18.2966643417984,16.03066170130615C18.304319741798402,16.03052910130615,18.310597341798402,16.036699501306153,18.3105959417984,16.04435620130615L18.3105959417984,16.190985701306154C18.3105946417984,16.19868000130615,18.3043587417984,16.204916601306152,18.2966643417984,16.204916601306152L17.9179322417984,16.204917301306153ZM16.9970701017984,15.339306831306152L16.9970701017984,15.091618721306153C16.996940371798402,15.084017361306152,16.990740541798402,15.077922731306153,16.983138441798403,15.077924161306152L16.8327310717984,15.077924161306152C16.8250756517984,15.077791571306152,16.818798001798402,15.083961901306152,16.818799461798402,15.091618721306153L16.818799461798402,15.339306831306152C16.818798001798402,15.347001131306152,16.8250367617984,15.353238401306152,16.8327310717984,15.353237691306152L16.983138441798403,15.353237691306152C16.9905013117984,15.352745531306152,16.9962529817984,15.346684751306153,16.996361051798402,15.339306831306152L16.9970701017984,15.339306831306152ZM16.8317871417984,15.818627001306153L16.9821945117984,15.818627001306153C16.989888821798402,15.818627801306153,16.9961261117984,15.812390401306152,16.9961261117984,15.804696141306152L16.9961261117984,15.563147421306152C16.9961261117984,15.555453061306153,16.989888821798402,15.549215081306153,16.9821945117984,15.549216511306152L16.8317871417984,15.549216511306152C16.824038031798402,15.549081741306152,16.8177200217984,15.555398281306152,16.8178554817984,15.563147421306152L16.8178554817984,15.804696861306152C16.8169850717984,15.812998701306153,16.8236806417984,15.820141101306152,16.8320220417984,15.819808101306153L16.8317871417984,15.818627001306153ZM17.635770341798402,15.222427871306152L17.4794600017984,15.222427871306152C17.4717108617984,15.222563331306151,17.465392891798402,15.216246071306152,17.4655283717984,15.208496931306152L17.4655283717984,15.147106021306152C17.4655283717984,15.139411691306153,17.4592910417984,15.133174391306152,17.4515966817984,15.133175101306152L17.2497157417984,15.133175101306152C17.2420603017984,15.133306951306153,17.2357826217984,15.127136681306153,17.2357840517984,15.119480551306152L17.2357840517984,14.972851141306153C17.2356486917984,14.965101351306153,17.2419666617984,14.958784061306153,17.2497157417984,14.958920251306152L17.4508891117984,14.958920251306152C17.4586382517984,14.959055721306152,17.464956221798403,14.952738431306152,17.464820741798402,14.944989351306152L17.464820741798402,14.820318806306153C17.464820741798402,14.812625211206152,17.4710580117984,14.806387901306152,17.4787523717984,14.806387901306152L17.6350627417984,14.806387901306152C17.6427570417984,14.806387901306152,17.6489929417984,14.812624490306153,17.6489943417984,14.820318806306153L17.6489943417984,14.946169661306152C17.648860241798403,14.953919451306152,17.6551768417984,14.960236011306153,17.662925941798402,14.960100561306152L17.8629176417984,14.960100561306152C17.870612041798402,14.960101291306152,17.8768493417984,14.953863961306153,17.8768493417984,14.946169661306152L17.8768493417984,14.821499110306153C17.8768493417984,14.813805515406152,17.883086541798402,14.807568205606152,17.8907809417984,14.807568205606152L18.0452019417984,14.807568205606152C18.0528428417984,14.807694306506152,18.0590066417984,14.813858117006152,18.059133541798403,14.821499110306153L18.059133541798403,14.946169661306152C18.059002441798402,14.953825071306152,18.0651719417984,14.960101291306152,18.0728287417984,14.960100561306152L18.290765741798403,14.960100561306152C18.2984600417984,14.960100561306152,18.3046972417984,14.966337861306153,18.3046972417984,14.974031451306152L18.3046972417984,15.120660841306153C18.3045677417984,15.128262191306153,18.2983677417984,15.134356111306152,18.290765741798403,15.134355391306153L18.0728287417984,15.134355391306153C18.0652266417984,15.134483631306152,18.0591321417984,15.140683501306153,18.059133541798403,15.148286311306153L18.059133541798403,15.209677281306153C18.059133541798403,15.217370841306153,18.0528961417984,15.223608161306153,18.0452019417984,15.223608161306153L17.8907809417984,15.223608161306153C17.8830317417984,15.223743621306152,17.8767137417984,15.217426361306153,17.8768493417984,15.209677281306153L17.8768493417984,15.148286311306153C17.8767224417984,15.140644611306152,17.8705586417984,15.134480771306153,17.8629176417984,15.134355391306153L17.6633958417984,15.134355391306153C17.6557015417984,15.134355391306153,17.649464241798402,15.140592691306152,17.649464241798402,15.148286311306153L17.649464241798402,15.209677281306153C17.6489743417984,15.216779261306153,17.6431244417984,15.222321241306153,17.6360067417984,15.222428591306151L17.635770341798402,15.222427871306152ZM18.0411853417984,15.515451011306153L18.0411853417984,15.436351181306152C18.0410586417984,15.428710161306153,18.0348947417984,15.422547041306153,18.0272536417984,15.422420261306153L17.4995294817984,15.422420261306153C17.4918352317984,15.422420261306153,17.4855978517984,15.428657591306152,17.4855978517984,15.436351181306152L17.4855978517984,15.515451011306153C17.4854638617984,15.523200811306152,17.4917803417984,15.529518071306152,17.4995294817984,15.529381931306153L18.0263098417984,15.529381931306153C18.0343687417984,15.529929521306153,18.0412026417984,15.523529411306152,18.0411853417984,15.515451011306153ZM18.0272536417984,15.660191831306152L17.4995294817984,15.660191831306152C17.4917803417984,15.660056291306152,17.485462371798402,15.666373611306152,17.4855978517984,15.674122691306152L17.4855978517984,15.753222521306153C17.4855978517984,15.760916111306152,17.4918352317984,15.767153381306152,17.4995294817984,15.767153381306152L18.0263098417984,15.767153381306152C18.033950941798402,15.767027381306152,18.0401146417984,15.760863481306153,18.0402414417984,15.753222521306153L18.0402414417984,15.674122691306152C18.0402414417984,15.666429101306152,18.034004141798402,15.660191831306152,18.0263098417984,15.660191831306152L18.0272536417984,15.660191831306152Z" fill="#323232" fill-opacity="1" style="mix-blend-mode:passthrough"/></g></g></svg>