<svg xmlns="http://www.w3.org/2000/svg" xmlns:xlink="http://www.w3.org/1999/xlink" fill="none" version="1.1" width="32" height="32" viewBox="0 0 32 32"><defs><clipPath id="master_svg0_1210_12226"><rect x="0" y="0" width="32" height="32" rx="0"/></clipPath></defs><g clip-path="url(#master_svg0_1210_12226)"><path d="M17.790401,2.6689734C17.495466999999998,3.5032001,17.333334,4.4004269,17.333334,5.33564C17.333334,9.7539339,20.915068,13.335654,25.333334,13.335654C26.268536,13.335654,27.165733,13.17356,28,12.878627L28,28.002361C28,28.73876,27.403067,29.335693,26.666668,29.335693L8.666667,29.335693C6.0893333,29.335693,4,27.246361,4,24.669027L4,6.6689868C4.000040054321,4.459867,5.7908802,2.6689734,8,2.6689734L17.790401,2.6689734ZM8.666667,22.669027C7.56212,22.669027,6.6667068,23.564495,6.6666667,24.669027C6.6666667,25.77356,7.5620933,26.669027,8.666667,26.669027L25.333334,26.669027L25.333334,22.669027L8.666667,22.669027ZM24.705734,0.44141608C24.9412,-0.12629753,25.725601,-0.12631327,25.960934,0.44141608L26.298134,1.2565215C26.874134,2.6469202,27.948799,3.7572,29.299467,4.3580933L30.256535,4.7838669C30.803467,5.0276403,30.803467,5.8238935,30.256535,6.0677333L29.243467,6.5182533C27.926535,7.10396,26.871201,8.1749201,26.2852,9.5195599L25.955734,10.273467C25.7152,10.825641,24.951599,10.825641,24.710934,10.273467L24.382801,9.5195599C23.796803,8.1747074,22.740269,7.1040268,21.423201,6.5182533L20.410133,6.0677333C19.8632,5.8239202,19.8632,5.0276136,20.410133,4.7838669L21.367201,4.3580933C22.718,3.7572134,23.792667,2.6469336,24.368534,1.2565215L24.705734,0.44141608Z" fill="#F5B32C" fill-opacity="1" style="mix-blend-mode:passthrough"/><path d="M20.41019949,4.7838669C19.86326599,5.0276136,19.86326599,5.8239202,20.41019949,6.0677333L21.4232662,6.5182533C22.7403336,7.1040268,23.7968674,8.1747074,24.3828659,9.5195599L24.7109985,10.273467C24.9516654,10.825641,25.715266200000002,10.825641,25.9558005,10.273467L26.2852659,9.5195599C26.8712668,8.1749201,27.9266005,7.10396,29.2435331,6.5182533L30.256599,6.0677333C30.803534,5.8238935,30.803534,5.0276403,30.256599,4.7838669L29.299532900000003,4.3580933C27.9488654,3.7572,26.8741989,2.6469202,26.2982001,1.2565215L25.9609985,0.44141608C25.7256675,-0.12631327,24.9412665,-0.12629753,24.7058005,0.44141608L24.368598900000002,1.2565215C23.7927322,2.6469336,22.718066,3.7572134,21.3672664,4.3580933L20.41019949,4.7838669Z" fill="#F5802C" fill-opacity="1" style="mix-blend-mode:passthrough"/></g></svg>