<?xml version="1.0" standalone="no"?><!DOCTYPE svg PUBLIC "-//W3C//DTD SVG 1.1//EN" "http://www.w3.org/Graphics/SVG/1.1/DTD/svg11.dtd"><svg t="1768035089722" class="icon" viewBox="0 0 1024 1024" version="1.1" xmlns="http://www.w3.org/2000/svg" p-id="1638" xmlns:xlink="http://www.w3.org/1999/xlink" width="200" height="200"><path d="M769.8 881.2H256.2c-7.1 0-12.9-5.8-12.9-12.9V379.4c0-7.1 5.8-12.9 12.9-12.9 7.1 0 12.9 5.8 12.9 12.9v476H757V378.6c0-7.1 5.8-12.9 12.9-12.9s12.9 5.8 12.9 12.9v489.8c-0.1 7.1-5.8 12.8-13 12.8z" fill="#231815" p-id="1639"></path><path d="M769.9 501.8c-4.7 0-9.3-2.6-11.6-7.2-3.2-6.4-0.5-14.1 5.8-17.3L943 388.9l-179.3-222H262.3l-179.4 222 178.9 88.4c6.4 3.2 9 10.9 5.8 17.3s-10.9 9-17.3 5.8L57.1 404.9c-3.5-1.7-6-5-6.9-8.8-0.8-3.8 0.1-7.8 2.6-10.9l193.4-239.4c2.4-3 6.1-4.8 10-4.8h513.7c3.9 0 7.6 1.8 10 4.8l193.4 239.4c2.5 3 3.4 7 2.6 10.9s-3.4 7.1-6.9 8.8l-193.4 95.5c-1.9 0.9-3.8 1.4-5.7 1.4z" fill="#231815" p-id="1640"></path><path d="M398.6 323.9c-5.5 0-10.6-3.6-12.3-9l-49.5-157c-1.2-3.9-0.5-8.2 1.9-11.5 2.4-3.3 6.3-5.3 10.4-5.3h49.5c3.7 0 7.3 1.6 9.7 4.4l114.4 132.1c3 3.4 3.9 8.2 2.5 12.5s-5 7.5-9.5 8.5l-114.4 25c-0.8 0.2-1.7 0.3-2.7 0.3z m-31.9-157l40.7 129 81.7-17.8-96.3-111.2h-26.1z" fill="#231815" p-id="1641"></path><path d="M627.4 323.9c-0.9 0-1.8-0.1-2.8-0.3l-114.4-25c-4.4-1-8-4.2-9.5-8.5s-0.5-9.1 2.5-12.5l114.4-132.1c2.4-2.8 6-4.4 9.7-4.4h49.5c4.1 0 8 2 10.4 5.3 2.4 3.3 3.1 7.6 1.9 11.5l-49.5 157c-1.7 5.4-6.7 9-12.2 9z m-90.5-45.8l81.7 17.8 40.7-129h-26.1l-96.3 111.2z" fill="#231815" p-id="1642"></path><path d="M513 359.3m-25.8 0a25.8 25.8 0 1 0 51.6 0 25.8 25.8 0 1 0-51.6 0Z" fill="#255BF2" p-id="1643"></path><path d="M513 440.4m-25.8 0a25.8 25.8 0 1 0 51.6 0 25.8 25.8 0 1 0-51.6 0Z" fill="#255BF2" p-id="1644"></path></svg>