<?xml version="1.0" standalone="no"?><!DOCTYPE svg PUBLIC "-//W3C//DTD SVG 1.1//EN" "http://www.w3.org/Graphics/SVG/1.1/DTD/svg11.dtd"><svg t="1768035078434" class="icon" viewBox="0 0 1024 1024" version="1.1" xmlns="http://www.w3.org/2000/svg" p-id="1323" xmlns:xlink="http://www.w3.org/1999/xlink" width="200" height="200"><path d="M91.449 339.267l167.806 82.986-11.482 23.217-167.806-82.986zM932.577 339.266l11.481 23.217-167.806 82.986-11.481-23.217z" fill="#255BF2" p-id="1324"></path><path d="M770.5 884.6h-517c-7.2 0-13-5.8-13-13V379.5c0-7.2 5.8-13 13-13s13 5.8 13 13v479.2h491.1v-480c0-7.2 5.8-13 13-13s13 5.8 13 13v493c-0.1 7.1-5.9 12.9-13.1 12.9zM512 303.3c-83.1 0-150.7-67.6-150.7-150.7 0-7.2 5.8-13 13-13s13 5.8 13 13c0 68.8 56 124.8 124.8 124.8s124.8-56 124.8-124.8c0-7.2 5.8-13 13-13s13 5.8 13 13c-0.2 83-67.8 150.7-150.9 150.7z" fill="#231815" p-id="1325"></path><path d="M770.5 502.6c-4.8 0-9.4-2.7-11.6-7.2-3.2-6.4-0.5-14.2 5.9-17.4l180.1-89-180.6-223.5H259.7L79.1 389l180.1 89c6.4 3.2 9.1 10.9 5.9 17.4-3.2 6.4-10.9 9.1-17.4 5.9L53.1 405.1c-3.5-1.7-6.1-5-6.9-8.8-0.8-3.8 0.1-7.9 2.6-10.9l194.6-240.9c2.5-3 6.2-4.8 10.1-4.8h517.1c3.9 0 7.6 1.8 10.1 4.8l194.6 240.9c2.5 3.1 3.4 7.1 2.6 10.9-0.8 3.8-3.4 7.1-6.9 8.8l-194.6 96.2c-2 0.9-3.9 1.3-5.9 1.3z" fill="#231815" p-id="1326"></path></svg>