<?xml version="1.0" standalone="no"?><!DOCTYPE svg PUBLIC "-//W3C//DTD SVG 1.1//EN" "http://www.w3.org/Graphics/SVG/1.1/DTD/svg11.dtd"><svg t="1768035135806" class="icon" viewBox="0 0 1024 1024" version="1.1" xmlns="http://www.w3.org/2000/svg" p-id="4499" xmlns:xlink="http://www.w3.org/1999/xlink" width="200" height="200"><path d="M428.2 762.3c-8.1 0-14.8-6.3-15.2-14.5-9.8-183.1-153.8-324.8-342.3-337-8.4-0.5-14.8-7.8-14.3-16.2 0.5-8.4 7.8-14.8 16.2-14.3 97.4 6.3 188.5 46.2 256.3 112.3 33.7 32.8 60.7 71 80.2 113.4 20.2 43.9 31.7 91 34.4 140.2 0.5 8.4-6 15.6-14.4 16.1h-0.9zM596.4 762.3h-0.8c-8.4-0.5-14.9-7.6-14.4-16.1 2.6-49.2 14.2-96.3 34.4-140.2 19.5-42.4 46.5-80.5 80.2-113.4 67.8-66.1 158.8-106 256.3-112.3 8.4-0.5 15.7 5.8 16.2 14.3 0.5 8.4-5.8 15.7-14.3 16.2-188.5 12.2-332.5 153.9-342.3 337-0.5 8.2-7.3 14.5-15.3 14.5z" fill="#255BF2" p-id="4500"></path><path d="M512.3 776.4c-39.4 0-78.9-6.4-117.4-19-38.7-12.6-76.8-31.7-113.1-56.5-75-51.3-142-126.4-199.1-223.2l-10-17c-18.9-32-27.2-72.7-23.5-114.8v-84.7c0-8.4 6.8-15.3 15.3-15.3h895.7c8.4 0 15.3 6.8 15.3 15.3v84.7c3.7 42.1-4.6 82.8-23.5 114.8l-10 17c-57.3 96.8-124.2 172-199.2 223.3-36.3 24.9-74.4 43.9-113.1 56.5-38.6 12.6-78.1 18.9-117.4 18.9zM79.7 276.5v70.1c0 0.5 0 0.9-0.1 1.4-3.3 36 3.6 70.5 19.3 97.2l10 17C216.8 645.1 360 745.9 512.2 745.9c152.1 0 295.4-100.8 403.3-283.7l10-17c15.7-26.7 22.6-61.2 19.3-97.2 0-0.5-0.1-0.9-0.1-1.4v-70.1h-865z" fill="#231815" p-id="4501"></path></svg>