<?xml version="1.0" standalone="no"?><!DOCTYPE svg PUBLIC "-//W3C//DTD SVG 1.1//EN" "http://www.w3.org/Graphics/SVG/1.1/DTD/svg11.dtd"><svg t="1768035157699" class="icon" viewBox="0 0 1024 1024" version="1.1" xmlns="http://www.w3.org/2000/svg" p-id="5768" xmlns:xlink="http://www.w3.org/1999/xlink" width="200" height="200"><path d="M436.2 643.2c-6.7 0-12-5.4-12-12V322.4c0-6.7 5.4-12 12-12s12 5.4 12 12v308.8c0.1 6.6-5.3 12-12 12zM593.8 643.2c-6.7 0-12-5.4-12-12V322.4c0-6.7 5.4-12 12-12s12 5.4 12 12v308.8c0.1 6.6-5.3 12-12 12z" fill="#255BF2" p-id="5769"></path><path d="M755.1 935.2H274.9c-6.7 0-12-5.4-12-12V414.6c0-6.7 5.4-12 12-12s12 5.4 12 12v496.5H743V414c0-6.7 5.4-12 12-12s12 5.4 12 12v509.2c0.2 6.6-5.2 12-11.9 12z" fill="#231815" p-id="5770"></path><path d="M755.2 865c-4.4 0-8.7-2.5-10.8-6.7-2.9-6-0.5-13.2 5.5-16.1L921 757.6 746.6 267.4H283.4L109.1 757.6l171.2 84.6c6 2.9 8.4 10.2 5.5 16.1-2.9 6-10.2 8.4-16.1 5.5L88.8 774.4c-5.5-2.7-8.1-9.1-6-14.8l180.8-508.2c1.7-4.8 6.3-8 11.3-8h480.2c5.1 0 9.6 3.2 11.3 8l180.8 508.2c2 5.8-0.5 12.1-6 14.8l-180.8 89.3c-1.6 0.9-3.5 1.3-5.2 1.3z" fill="#231815" p-id="5771"></path><path d="M515 374.1c-2 0-4.1-0.5-5.9-1.6L320.9 265.8c-5.8-3.3-7.8-10.6-4.5-16.4 3.3-5.8 10.6-7.8 16.4-4.5L515 348.2l182.2-103.3c5.8-3.3 13.1-1.3 16.4 4.5s1.3 13.1-4.5 16.4L521 372.5c-1.9 1.1-3.9 1.6-6 1.6z" fill="#231815" p-id="5772"></path><path d="M274.9 267.4c-4 0-7.8-1.9-10.1-5.5-3.6-5.6-2-13 3.6-16.6L508.5 90.7c4-2.6 9.1-2.6 13 0l240.1 154.5c5.6 3.6 7.2 11.1 3.6 16.6-3.6 5.6-11 7.2-16.6 3.6L515 115.1 281.5 265.5c-2.1 1.3-4.3 1.9-6.6 1.9z" fill="#231815" p-id="5773"></path></svg>