<?xml version="1.0" standalone="no"?><!DOCTYPE svg PUBLIC "-//W3C//DTD SVG 1.1//EN" "http://www.w3.org/Graphics/SVG/1.1/DTD/svg11.dtd"><svg t="1768035112517" class="icon" viewBox="0 0 1024 1024" version="1.1" xmlns="http://www.w3.org/2000/svg" p-id="3076" xmlns:xlink="http://www.w3.org/1999/xlink" width="200" height="200"><path d="M378.4 170.4c-6.1 0-11.1-5-11.1-11.1V70.8c0-6.1 5-11.1 11.1-11.1s11.1 5 11.1 11.1v88.5c-0.1 6.1-5 11.1-11.1 11.1zM651 170.4c-6.1 0-11.1-5-11.1-11.1V70.8c0-6.1 5-11.1 11.1-11.1s11.1 5 11.1 11.1v88.5c-0.1 6.1-5 11.1-11.1 11.1z" fill="#255BF2" p-id="3077"></path><path d="M681.9 396.2H348.2c-6.1 0-11.1-5-11.1-11.1V221c0-2.9 1.2-5.8 3.3-7.8 14.5-14.4 24.4-34.8 27.3-55.9 0.8-6.1 6.4-10.3 12.5-9.5 6.1 0.8 10.3 6.4 9.5 12.5-3.3 24.2-14.3 47.8-30.3 65.2v148.6H671V225.5c-16.1-17.5-27-41-30.3-65.2-0.8-6.1 3.4-11.6 9.5-12.5 6.1-0.8 11.6 3.4 12.5 9.5 2.9 21.1 12.8 41.5 27.3 55.9 2.1 2.1 3.3 4.9 3.3 7.8v164.1c-0.3 6.2-5.3 11.1-11.4 11.1z" fill="#231815" p-id="3078"></path><path d="M514.7 197.9c-56.5 0-108.1-10.7-141.7-29.4-5.3-3-7.3-9.7-4.3-15.1 3-5.3 9.7-7.3 15.1-4.3 29.9 16.7 78.9 26.6 130.9 26.6s101-10 130.9-26.6c5.3-3 12.1-1.1 15.1 4.3 3 5.3 1.1 12.1-4.3 15.1-33.6 18.6-85.3 29.4-141.7 29.4zM597.7 960.5c-5.8 0-10.6-4.5-11-10.3l-39.9-564.3c-0.4-6.1 4.2-11.4 10.3-11.8 6.1-0.4 11.4 4.2 11.8 10.3l39.9 564.3c0.4 6.1-4.2 11.4-10.3 11.8h-0.8zM432.3 960.5h-0.8c-6.1-0.4-10.7-5.7-10.3-11.8l39.9-564.3c0.4-6.1 5.7-10.7 11.8-10.3 6.1 0.4 10.7 5.7 10.3 11.8l-39.9 564.3c-0.4 5.8-5.2 10.3-11 10.3z" fill="#231815" p-id="3079"></path><path d="M597.7 960.5c-4.9 0-9.4-3.3-10.7-8.2-1.6-5.9 1.9-12 7.8-13.6L752 896.6l-81-509.7c-1-6 3.2-11.7 9.2-12.7 6-1 11.7 3.2 12.7 9.2L775.6 903c0.9 5.6-2.6 11-8.1 12.4l-166.9 44.7c-0.9 0.3-1.9 0.4-2.9 0.4zM432.3 960.5c-0.9 0-1.9-0.1-2.9-0.4l-166.9-44.7c-5.5-1.5-9-6.8-8.1-12.4l82.7-519.5c1-6 6.6-10.2 12.7-9.2 6 1 10.2 6.6 9.2 12.7l-81 509.6 157.2 42.1c5.9 1.6 9.4 7.7 7.8 13.6-1.3 4.9-5.8 8.2-10.7 8.2z" fill="#231815" p-id="3080"></path><path d="M681.9 396.2H348.2c-6.1 0-11.1-5-11.1-11.1s5-11.1 11.1-11.1h333.7c6.1 0 11.1 5 11.1 11.1s-5 11.1-11.1 11.1zM597.8 960.5H432.3c-6.1 0-11.1-5-11.1-11.1s5-11.1 11.1-11.1h165.4c6.1 0 11.1 5 11.1 11.1s-4.9 11.1-11 11.1z" fill="#231815" p-id="3081"></path><path d="M681.2 396.2h-333c-6.1 0-11.1-5-11.1-11.1s5-11.1 11.1-11.1h333c6.1 0 11.1 5 11.1 11.1s-5 11.1-11.1 11.1z" fill="#231815" p-id="3082"></path></svg>