<?xml version="1.0" standalone="no"?><!DOCTYPE svg PUBLIC "-//W3C//DTD SVG 1.1//EN" "http://www.w3.org/Graphics/SVG/1.1/DTD/svg11.dtd"><svg t="1768035152625" class="icon" viewBox="0 0 1024 1024" version="1.1" xmlns="http://www.w3.org/2000/svg" p-id="5450" xmlns:xlink="http://www.w3.org/1999/xlink" width="200" height="200"><path d="M395.1 765.1h-108c-7.3 0-13.3-5.9-13.3-13.3s5.9-13.3 13.3-13.3H395c7.3 0 13.3 5.9 13.3 13.3s-5.9 13.3-13.2 13.3zM738.9 765.1h-108c-7.3 0-13.3-5.9-13.3-13.3s5.9-13.3 13.3-13.3h107.9c7.3 0 13.3 5.9 13.3 13.3s-5.9 13.3-13.2 13.3z" fill="#255BF2" p-id="5451"></path><path d="M752.6 930.5H273.4c-7.3 0-13.3-5.9-13.3-13.3V300c0-7.3 5.9-13.3 13.3-13.3s13.3 5.9 13.3 13.3v604h452.6V299.3c0-7.3 5.9-13.3 13.3-13.3s13.3 5.9 13.3 13.3v617.9c-0.1 7.3-6 13.3-13.3 13.3z" fill="#231815" p-id="5452"></path><path d="M752.6 845.2c-4.5 0-8.9-2.3-11.4-6.4-3.8-6.3-1.7-14.4 4.5-18.2l171.6-103.1L742.6 120H283.4L108.7 717.5l171.6 103.1c6.3 3.8 8.3 11.9 4.5 18.2-3.8 6.3-11.9 8.3-18.2 4.5L86.3 734.9c-5.2-3.1-7.6-9.3-5.9-15.1L260.7 103c1.7-5.6 6.8-9.5 12.7-9.5h479.1c5.9 0 11.1 3.9 12.7 9.5l180.3 616.8c1.7 5.8-0.7 12-5.9 15.1L759.4 843.3c-2.1 1.3-4.5 1.9-6.8 1.9z" fill="#231815" p-id="5453"></path><path d="M513 249.8c-2.6 0-5.3-0.8-7.5-2.3L317.7 117.9c-6-4.2-7.5-12.4-3.4-18.4 4.2-6 12.4-7.5 18.4-3.4L513 220.4 693.2 96.1c6-4.2 14.3-2.6 18.4 3.4 4.2 6 2.6 14.3-3.4 18.4L520.5 247.4c-2.2 1.6-4.9 2.4-7.5 2.4z" fill="#231815" p-id="5454"></path><path d="M513 930.5c-7.3 0-13.3-5.9-13.3-13.3V235.9c0-7.3 5.9-13.3 13.3-13.3 7.3 0 13.3 5.9 13.3 13.3v681.3c0 7.3-6 13.3-13.3 13.3z" fill="#231815" p-id="5455"></path></svg>