<?xml version="1.0" standalone="no"?><!DOCTYPE svg PUBLIC "-//W3C//DTD SVG 1.1//EN" "http://www.w3.org/Graphics/SVG/1.1/DTD/svg11.dtd"><svg t="1768035096501" class="icon" viewBox="0 0 1024 1024" version="1.1" xmlns="http://www.w3.org/2000/svg" p-id="2121" xmlns:xlink="http://www.w3.org/1999/xlink" width="200" height="200"><path d="M437.6 717.2H337c-6.2 0-11.2-5-11.2-11.2s5-11.2 11.2-11.2h100.6c6.2 0 11.2 5 11.2 11.2s-5 11.2-11.2 11.2zM758 717.2H657.4c-6.2 0-11.2-5-11.2-11.2s5-11.2 11.2-11.2H758c6.2 0 11.2 5 11.2 11.2s-5 11.2-11.2 11.2z" fill="#255BF2" p-id="2122"></path><path d="M547.9 937c-6.2 0-11.2-5-11.2-11.2v-418c0-6.2 5-11.2 11.2-11.2s11.2 5 11.2 11.2v418c0 6.2-5 11.2-11.2 11.2z" fill="#231815" p-id="2123"></path><path d="M770.7 937H324.1c-6.2 0-11.2-5-11.2-11.2V244.9c0-6.2 5-11.2 11.2-11.2s11.2 5 11.2 11.2v669.7h424.2V244.1c0-6.2 5-11.2 11.2-11.2s11.2 5 11.2 11.2v681.7c0 6.2-5 11.2-11.2 11.2z" fill="#231815" p-id="2124"></path><path d="M324.1 663.4c-1.7 0-3.4-0.4-5-1.2l-168.1-83c-5.1-2.5-7.5-8.4-5.6-13.8L313.6 92.8c1.6-4.5 5.8-7.4 10.6-7.4h446.6c4.7 0 9 3 10.5 7.4l168.1 472.6c1.9 5.3-0.5 11.3-5.6 13.8l-168.1 83c-5.5 2.7-12.3 0.5-15-5.1-2.7-5.5-0.5-12.3 5.1-15L925 563.5 762.8 107.8H332L169.9 563.6l159.2 78.6c5.5 2.7 7.8 9.5 5.1 15-2 4-5.9 6.2-10.1 6.2z" fill="#231815" p-id="2125"></path><path d="M547.5 527.7c-1.4 0-2.8-0.3-4.2-0.8-4.2-1.7-7-5.8-7-10.3l-0.4-163.4c0-1.6 0.3-3.3 1-4.7L655.7 91.9c1.8-4 5.8-6.5 10.2-6.5h47.2c5.8 0 10.6 4.4 11.1 10.2L737 234.2c0.3 3.5-1 7-3.6 9.3-2.6 2.4-6.2 3.4-9.6 2.7l-45.6-8.7 53.9 95.1c2.5 4.3 1.8 9.8-1.7 13.4L555.5 524.3c-2.2 2.2-5.1 3.4-8 3.4z m10.8-172.2l0.4 133.6 149.9-152.9-61.7-108.8c-2.2-3.8-1.9-8.5 0.6-12s6.9-5.3 11.2-4.5l54.7 10.5-10.5-113.6H673L558.3 355.5z" fill="#231815" p-id="2126"></path><path d="M547.5 527.7c-3 0-5.9-1.2-8-3.4L364.6 345.9c-3.5-3.6-4.2-9-1.7-13.4l53.9-95.1-45.6 8.7c-3.5 0.7-7-0.3-9.6-2.7-2.6-2.4-3.9-5.8-3.6-9.3l12.8-138.6c0.5-5.8 5.4-10.2 11.1-10.2h47.2c4.4 0 8.3 2.5 10.2 6.5l118.8 256.5c0.7 1.5 1 3.1 1 4.7l-0.4 163.4c0 4.5-2.8 8.6-7 10.3-1.4 0.7-2.8 1-4.2 1z m-161-191.5l149.9 152.9 0.4-133.6L422 107.8h-29.8l-10.5 113.6 54.7-10.5c4.3-0.8 8.7 0.9 11.2 4.5s2.8 8.3 0.6 12l-61.7 108.8z" fill="#231815" p-id="2127"></path></svg>