<?xml version="1.0" standalone="no"?><!DOCTYPE svg PUBLIC "-//W3C//DTD SVG 1.1//EN" "http://www.w3.org/Graphics/SVG/1.1/DTD/svg11.dtd"><svg t="1768035104251" class="icon" viewBox="0 0 1024 1024" version="1.1" xmlns="http://www.w3.org/2000/svg" p-id="2598" xmlns:xlink="http://www.w3.org/1999/xlink" width="200" height="200"><path d="M395.3 214.1H287.5c-6.6 0-12-5.4-12-12s5.4-12 12-12h107.8c6.6 0 12 5.4 12 12s-5.4 12-12 12zM738.5 214.1H630.7c-6.6 0-12-5.4-12-12s5.4-12 12-12h107.8c6.6 0 12 5.4 12 12s-5.4 12-12 12zM395.3 524.7H287.5c-6.6 0-12-5.4-12-12s5.4-12 12-12h107.8c6.6 0 12 5.4 12 12s-5.4 12-12 12zM738.5 524.7H630.7c-6.6 0-12-5.4-12-12s5.4-12 12-12h107.8c6.6 0 12 5.4 12 12s-5.4 12-12 12z" fill="#255BF2" p-id="2599"></path><path d="M752.2 136.4H273.8c-6.6 0-12-5.4-12-12s5.4-12 12-12h478.4c6.6 0 12 5.4 12 12s-5.4 12-12 12z" fill="#231815" p-id="2600"></path><path d="M752.2 968.7H273.8c-6.6 0-12-5.4-12-12V69.4c0-6.6 5.4-12 12-12s12 5.4 12 12v875.3h454.4v-876c0-6.6 5.4-12 12-12s12 5.4 12 12v887.9c0 6.7-5.4 12.1-12 12.1z" fill="#231815" p-id="2601"></path><path d="M513 968.7c-6.6 0-12-5.4-12-12V322c0-6.6 5.4-12 12-12s12 5.4 12 12v634.6c0 6.7-5.4 12.1-12 12.1zM752.2 80.7H273.8c-6.6 0-12-5.4-12-12s5.4-12 12-12h478.4c6.6 0 12 5.4 12 12s-5.4 12-12 12z" fill="#231815" p-id="2602"></path></svg>