<?xml version="1.0" standalone="no"?><!DOCTYPE svg PUBLIC "-//W3C//DTD SVG 1.1//EN" "http://www.w3.org/Graphics/SVG/1.1/DTD/svg11.dtd"><svg t="1768035140597" class="icon" viewBox="0 0 1024 1024" version="1.1" xmlns="http://www.w3.org/2000/svg" p-id="4812" xmlns:xlink="http://www.w3.org/1999/xlink" width="200" height="200"><path d="M864.2 637.5H161.8c-8.3 0-15.1-6.8-15.1-15.1s6.8-15.1 15.1-15.1h702.5c8.3 0 15.1 6.8 15.1 15.1s-6.8 15.1-15.2 15.1z" fill="#255BF2" p-id="4813"></path><path d="M864.2 706.8H161.8c-8.3 0-15.1-6.8-15.1-15.1V493.9c0-73.5 28.6-142.5 80.5-194.5s121-80.5 194.5-80.5h182.7c73.5 0 142.5 28.6 194.5 80.5 51.9 51.9 80.5 121 80.5 194.5v197.9c-0.1 8.3-6.8 15-15.2 15z m-687.4-30.2h672.3V493.9c0-135-109.8-244.8-244.8-244.8H421.7c-135 0-244.8 109.8-244.8 244.8v182.7z" fill="#231815" p-id="4814"></path><path d="M904 809.5H122c-36.2 0-65.6-29.4-65.6-65.6 0-36.2 29.4-65.6 65.6-65.6h782c36.2 0 65.6 29.4 65.6 65.6 0 36.1-29.5 65.6-65.6 65.6z m-782-101c-19.5 0-35.4 15.9-35.4 35.4s15.9 35.4 35.4 35.4h782c19.5 0 35.4-15.9 35.4-35.4s-15.9-35.4-35.4-35.4H122z" fill="#231815" p-id="4815"></path></svg>