<?xml version="1.0" standalone="no"?><!DOCTYPE svg PUBLIC "-//W3C//DTD SVG 1.1//EN" "http://www.w3.org/Graphics/SVG/1.1/DTD/svg11.dtd"><svg t="1768035155558" class="icon" viewBox="0 0 1024 1024" version="1.1" xmlns="http://www.w3.org/2000/svg" p-id="5610" xmlns:xlink="http://www.w3.org/1999/xlink" width="200" height="200"><path d="M351.1 757.8c-3 0-6.1-0.9-8.8-2.7l-145.6-99.5c-58.2-39.8-73.2-119.5-33.4-177.7 39.8-58.2 119.5-73.2 177.7-33.4l18.9 12.9c7.1 4.9 9 14.6 4.1 21.8-4.9 7.1-14.6 9-21.8 4.1l-18.9-12.9c-44-30-104.2-18.7-134.2 25.2-30 44-18.7 104.2 25.2 134.2l145.6 99.5c7.1 4.9 9 14.6 4.1 21.8-3 4.3-7.9 6.7-12.9 6.7z" fill="#255BF2" p-id="5611"></path><path d="M860.4 937.4H351.1c-8.6 0-15.6-7-15.6-15.6V817c0-8.6 7-15.6 15.6-15.6h509.3c8.6 0 15.6 7 15.6 15.6v104.8c0 8.6-7 15.6-15.6 15.6z m-493.7-31.3h478v-73.5h-478v73.5z" fill="#231815" p-id="5612"></path><path d="M860.2 832.6H351.1c-8.6 0-15.6-7-15.6-15.6V336.8c0-67.2 28.3-130.5 79.8-178.3 51.1-47.4 118.8-73.6 190.4-73.6 71.7 0 139.3 26.1 190.4 73.6 51.5 47.7 79.8 111 79.8 178.3V817c0 8.6-7 15.6-15.7 15.6z m-493.5-31.3h477.9V336.8c0-121.6-107.2-220.5-238.9-220.5s-238.9 98.9-238.9 220.5v464.5z" fill="#231815" p-id="5613"></path></svg>