<?xml version="1.0" standalone="no"?><!DOCTYPE svg PUBLIC "-//W3C//DTD SVG 1.1//EN" "http://www.w3.org/Graphics/SVG/1.1/DTD/svg11.dtd"><svg t="1768035145029" class="icon" viewBox="0 0 1024 1024" version="1.1" xmlns="http://www.w3.org/2000/svg" p-id="4968" xmlns:xlink="http://www.w3.org/1999/xlink" width="200" height="200"><path d="M413.8 264.8c-7.1 0-12.9-5.8-12.9-12.9V101.8c0-7.1 5.8-12.9 12.9-12.9s12.9 5.8 12.9 12.9v150.1c0.1 7.1-5.7 12.9-12.9 12.9zM479.9 280.8c-7.1 0-12.9-5.8-12.9-12.9V101.8c0-7.1 5.8-12.9 12.9-12.9s12.9 5.8 12.9 12.9v166.1c0.1 7.1-5.7 12.9-12.9 12.9zM546.1 280.8c-7.1 0-12.9-5.8-12.9-12.9V101.8c0-7.1 5.8-12.9 12.9-12.9s12.9 5.8 12.9 12.9v166.1c0 7.1-5.8 12.9-12.9 12.9zM612.2 267.4c-7.1 0-12.9-5.8-12.9-12.9V101.8c0-7.1 5.8-12.9 12.9-12.9s12.9 5.8 12.9 12.9v152.6c0 7.2-5.8 13-12.9 13z" fill="#255BF2" p-id="4969"></path><path d="M770.9 935.4H255.1c-7.1 0-12.9-5.8-12.9-12.9V376.2c0-7.1 5.8-12.9 12.9-12.9S268 369 268 376.2v533.3h490v-534c0-7.1 5.8-12.9 12.9-12.9s12.9 5.8 12.9 12.9v546.9c0 7.2-5.7 13-12.9 13z" fill="#231815" p-id="4970"></path><path d="M255.1 859.9c-1.9 0-3.9-0.4-5.7-1.3l-194.2-96c-5.9-2.9-8.7-9.8-6.5-15.9l194.2-545.9c1.8-5.2 6.7-8.6 12.2-8.6h76.8c7.1 0 12.9 5.8 12.9 12.9S339 218 331.9 218h-67.7L77 744.5l183.9 90.8c6.4 3.2 9 10.9 5.9 17.3-2.4 4.7-7 7.3-11.7 7.3z" fill="#231815" p-id="4971"></path><path d="M770.9 859.9c-4.8 0-9.4-2.6-11.6-7.2-3.2-6.4-0.5-14.2 5.9-17.3L949 744.5 761.8 218.1l-68.6 0.2c-5 0-9.6-2.9-11.7-7.4l-45-96.1H390.8l-45 96.1c-3 6.5-10.7 9.3-17.2 6.2-6.5-3-9.3-10.7-6.2-17.2l48.5-103.5c2.1-4.5 6.7-7.4 11.7-7.4h262c5 0 9.6 2.9 11.7 7.4l45 96.1 69.5-0.2c5.5 0 10.4 3.4 12.2 8.6l194.2 545.9c2.2 6.2-0.6 13-6.5 15.9l-194.2 95.9c-1.7 0.9-3.7 1.3-5.6 1.3z" fill="#231815" p-id="4972"></path><path d="M513.6 287.3c-49.2 0-97.8-14.4-140.6-41.7l-45.9-29.3c-6-3.8-7.8-11.8-3.9-17.9 3.8-6 11.8-7.8 17.9-3.9l45.9 29.3c78.1 49.9 175.2 49.9 253.4 0l45.9-29.3c6-3.8 14-2.1 17.9 3.9 3.8 6 2.1 14-3.9 17.9l-45.9 29.3c-42.9 27.3-91.6 41.7-140.8 41.7z" fill="#231815" p-id="4973"></path></svg>