<?xml version="1.0" standalone="no"?><!DOCTYPE svg PUBLIC "-//W3C//DTD SVG 1.1//EN" "http://www.w3.org/Graphics/SVG/1.1/DTD/svg11.dtd"><svg t="1768035106346" class="icon" viewBox="0 0 1024 1024" version="1.1" xmlns="http://www.w3.org/2000/svg" p-id="2757" xmlns:xlink="http://www.w3.org/1999/xlink" width="200" height="200"><path d="M676.7 477.4c-4.1 0-8.1-2.3-10-6.2-2.7-5.5-0.5-12.2 5.1-15l112.8-55.7L668.8 75.2H361.3L245.6 400.5l112.8 55.7c5.5 2.7 7.8 9.4 5.1 15-2.7 5.5-9.4 7.8-15 5.1l-121.7-60.1c-5.1-2.5-7.5-8.4-5.6-13.8L342.9 60.3c1.6-4.5 5.8-7.4 10.5-7.4h323.3c4.7 0 8.9 3 10.5 7.4l121.7 342.1c1.9 5.3-0.5 11.2-5.6 13.8l-121.7 60.1c-1.6 0.8-3.3 1.1-4.9 1.1z" fill="#231815" p-id="2758"></path><path d="M588 975.5c-5.8 0-10.7-4.5-11.1-10.4L541.7 429c-0.4-6.2 4.3-11.5 10.4-11.9 6.2-0.4 11.5 4.3 11.9 10.4l35.2 536.1c0.4 6.2-4.3 11.5-10.4 11.9h-0.8zM442 975.5h-0.7c-6.2-0.4-10.8-5.7-10.4-11.9l35.2-536.1c0.4-6.2 5.7-10.8 11.9-10.4 6.2 0.4 10.8 5.7 10.4 11.9l-35.2 536c-0.4 6-5.3 10.5-11.2 10.5z" fill="#255BF2" p-id="2759"></path><path d="M588 975.5c-4.8 0-9.2-3.1-10.7-8-1.8-5.9 1.6-12.1 7.5-13.9L723 912.3l-57.4-444.6c-0.8-6.1 3.5-11.7 9.6-12.5 6.1-0.8 11.7 3.5 12.5 9.6l58.7 454c0.7 5.4-2.6 10.6-7.9 12.1l-147.3 44c-1 0.4-2.1 0.6-3.2 0.6z" fill="#231815" p-id="2760"></path><path d="M588 975.5H442c-6.2 0-11.2-5-11.2-11.2s5-11.2 11.2-11.2h146c6.2 0 11.2 5 11.2 11.2s-5 11.2-11.2 11.2z" fill="#231815" p-id="2761"></path><path d="M442 975.5c-1.1 0-2.1-0.2-3.2-0.5l-147.3-44c-5.2-1.6-8.6-6.7-7.9-12.1l58.7-454c0.2-1.8 0.9-3.5 1.9-4.9L622.1 57.7c3.5-5.1 10.5-6.3 15.5-2.8 5.1 3.5 6.3 10.5 2.8 15.5l-276.3 400L307 912.3l138.2 41.3c5.9 1.8 9.3 8 7.5 13.9-1.4 4.9-5.9 8-10.7 8z" fill="#231815" p-id="2762"></path><path d="M516.7 225.1c-3.4 0-6.7-1.5-8.9-4.4l-114.5-150c-3.7-4.9-2.8-11.9 2.1-15.7 4.9-3.7 11.9-2.8 15.7 2.1l114.5 150c3.7 4.9 2.8 11.9-2.1 15.7-2 1.6-4.4 2.3-6.8 2.3z" fill="#231815" p-id="2763"></path><path d="M353.4 466.3l171-247.5" fill="#255BF2" p-id="2764"></path><path d="M353.4 477.4c-2.2 0-4.4-0.6-6.3-2-5.1-3.5-6.3-10.5-2.8-15.5l171-247.5c3.5-5.1 10.5-6.3 15.5-2.8 5.1 3.5 6.3 10.5 2.8 15.5l-171 247.5c-2.2 3.2-5.7 4.8-9.2 4.8z" fill="#231815" p-id="2765"></path></svg>