<?xml version="1.0" standalone="no"?><!DOCTYPE svg PUBLIC "-//W3C//DTD SVG 1.1//EN" "http://www.w3.org/Graphics/SVG/1.1/DTD/svg11.dtd"><svg t="1768035137847" class="icon" viewBox="0 0 1024 1024" version="1.1" xmlns="http://www.w3.org/2000/svg" p-id="4656" xmlns:xlink="http://www.w3.org/1999/xlink" width="200" height="200"><path d="M271.4 286c-6.6 0-11.9-5.3-11.9-11.9s5.3-11.9 11.9-11.9c75.2 0 136.4-61.2 136.4-136.4 0-6.6 5.3-11.9 11.9-11.9s11.9 5.3 11.9 11.9c-0.1 88.3-71.9 160.2-160.2 160.2zM745.6 286c-88.3 0-160.2-71.9-160.2-160.2 0-6.6 5.3-11.9 11.9-11.9s11.9 5.3 11.9 11.9c0 75.2 61.2 136.4 136.4 136.4 6.6 0 11.9 5.3 11.9 11.9s-5.3 11.9-11.9 11.9z" fill="#255BF2" p-id="4657"></path><path d="M745.6 962.2H271.4c-6.6 0-11.9-5.3-11.9-11.9V70.6c0-6.6 5.3-11.9 11.9-11.9 6.6 0 11.9 5.3 11.9 11.9v867.8h450.5V69.9c0-6.6 5.3-11.9 11.9-11.9s11.9 5.3 11.9 11.9v880.3c-0.1 6.6-5.4 12-12 12z" fill="#231815" p-id="4658"></path><path d="M508.5 962.2c-6.6 0-11.9-5.3-11.9-11.9V321.1c0-6.6 5.3-11.9 11.9-11.9 6.6 0 11.9 5.3 11.9 11.9v629.2c0 6.5-5.3 11.9-11.9 11.9zM745.6 137H271.4c-6.6 0-11.9-5.3-11.9-11.9V69.9c0-6.6 5.3-11.9 11.9-11.9h474.3c6.6 0 11.9 5.3 11.9 11.9v55.2c-0.1 6.6-5.4 11.9-12 11.9z m-462.4-23.7h450.5V81.8H283.2v31.5z" fill="#231815" p-id="4659"></path></svg>