<?xml version="1.0" standalone="no"?><!DOCTYPE svg PUBLIC "-//W3C//DTD SVG 1.1//EN" "http://www.w3.org/Graphics/SVG/1.1/DTD/svg11.dtd"><svg t="1768035150200" class="icon" viewBox="0 0 1024 1024" version="1.1" xmlns="http://www.w3.org/2000/svg" p-id="5286" xmlns:xlink="http://www.w3.org/1999/xlink" width="200" height="200"><path d="M766.2 877.5H259.8c-7 0-12.7-5.7-12.7-12.7V328.5c0-7 5.7-12.7 12.7-12.7s12.7 5.7 12.7 12.7V852h480.9V327.9c0-7 5.7-12.7 12.7-12.7s12.7 5.7 12.7 12.7v536.9c0.1 7-5.6 12.7-12.6 12.7z" fill="#231815" p-id="5287"></path><path d="M766.2 803.4c-4.7 0-9.2-2.6-11.4-7.1-3.1-6.3-0.5-13.9 5.8-17L941 690.1 757.2 173.3H268.8L85 690.1l180.5 89.2c6.3 3.1 8.9 10.7 5.8 17s-10.7 8.9-17 5.8L63.6 707.9c-5.8-2.9-8.5-9.6-6.3-15.6l190.6-535.9c1.8-5.1 6.6-8.4 12-8.4h506.3c5.4 0 10.2 3.4 12 8.4l190.6 535.9c2.2 6.1-0.6 12.8-6.3 15.6l-190.6 94.2c-1.9 0.9-3.8 1.3-5.7 1.3z" fill="#231815" p-id="5288"></path><path d="M513.6 649.4c-1.3 0-2.7-0.2-4-0.6-5.2-1.7-8.7-6.6-8.7-12l-0.6-185.3c0-2.1 0.5-4.2 1.5-6.1l158-290.8c2.3-4.1 6.6-6.7 11.3-6.6 4.7 0.1 9 2.7 11.1 6.9l63 123.8c1.6 3 1.8 6.6 0.7 9.8-1.1 3.2-3.5 5.9-6.5 7.4l-74.2 35.5 52.1 32.7c3 1.9 5.1 5 5.7 8.4 0.6 3.5-0.2 7.1-2.3 9.9l-197 261.9c-2.4 3.3-6.2 5.1-10.1 5.1z m12.1-194.8l0.4 144.3 166-220.6-59.9-37.6c-3.9-2.5-6.2-6.9-5.9-11.5s3-8.7 7.2-10.7l83.3-39.9-46.1-90.7-145 266.7z" fill="#231815" p-id="5289"></path><path d="M512.4 649.4c-3.9 0-7.7-1.8-10.1-5.1l-197-261.9c-2.1-2.8-3-6.4-2.3-9.9 0.6-3.5 2.7-6.6 5.7-8.4l52.1-32.7-74.2-35.5c-3.1-1.5-5.4-4.1-6.5-7.4-1.1-3.2-0.8-6.8 0.7-9.8l63-123.8c2.1-4.2 6.4-6.9 11.1-6.9 4.7 0 9.1 2.5 11.3 6.6l158 290.8c1 1.9 1.5 4 1.5 6.1l-0.6 185.3c0 5.5-3.5 10.3-8.7 12-1.3 0.4-2.6 0.6-4 0.6zM333.9 378.3l166 220.6 0.4-144.3-144.9-266.7-46.1 90.7 83.3 39.9c4.2 2 6.9 6.1 7.2 10.7 0.3 4.6-2 9-5.9 11.5l-60 37.6z" fill="#231815" p-id="5290"></path><path d="M512.6 877.5c-7 0-12.7-5.7-12.7-12.7l-0.6-228c0-7 5.7-12.7 12.7-12.7 7 0 12.7 5.7 12.7 12.7l0.6 228c0 6.9-5.7 12.6-12.7 12.7z" fill="#231815" p-id="5291"></path><path d="M388.3 388.4m-25.4 0a25.4 25.4 0 1 0 50.8 0 25.4 25.4 0 1 0-50.8 0Z" fill="#255BF2" p-id="5292"></path><path d="M355.8 263m-25.4 0a25.4 25.4 0 1 0 50.8 0 25.4 25.4 0 1 0-50.8 0Z" fill="#255BF2" p-id="5293"></path><path d="M637.7 388.4m-25.4 0a25.4 25.4 0 1 0 50.8 0 25.4 25.4 0 1 0-50.8 0Z" fill="#255BF2" p-id="5294"></path><path d="M670.2 263m-25.4 0a25.4 25.4 0 1 0 50.8 0 25.4 25.4 0 1 0-50.8 0Z" fill="#255BF2" p-id="5295"></path></svg>