<?xml version="1.0" standalone="no"?><!DOCTYPE svg PUBLIC "-//W3C//DTD SVG 1.1//EN" "http://www.w3.org/Graphics/SVG/1.1/DTD/svg11.dtd"><svg t="1768035117774" class="icon" viewBox="0 0 1024 1024" version="1.1" xmlns="http://www.w3.org/2000/svg" p-id="3393" xmlns:xlink="http://www.w3.org/1999/xlink" width="200" height="200"><path d="M871 199.7H153.2c-9.9 0-18-8.1-18-18s8.1-18 18-18H871c9.9 0 18 8.1 18 18s-8 18-18 18z" fill="#255BF2" p-id="3394"></path><path d="M871 946.3H153.2c-9.9 0-18-8.1-18-18V99.1c0-9.9 8-18 18-18l717.9-1c4.8 0 9.3 1.9 12.7 5.3 3.4 3.4 5.3 8 5.3 12.7v830.1c-0.1 10-8.1 18.1-18.1 18.1z m-699.8-36H853V116.2l-681.9 0.9v793.2z" fill="#231815" p-id="3395"></path><path d="M512.1 946.3c-9.9 0-18-8.1-18-18V410.7c0-9.9 8.1-18 18-18s18 8.1 18 18v517.6c0 9.9-8.1 18-18 18z" fill="#231815" p-id="3396"></path></svg>