<?xml version="1.0" standalone="no"?><!DOCTYPE svg PUBLIC "-//W3C//DTD SVG 1.1//EN" "http://www.w3.org/Graphics/SVG/1.1/DTD/svg11.dtd"><svg t="1768035092210" class="icon" viewBox="0 0 1024 1024" version="1.1" xmlns="http://www.w3.org/2000/svg" p-id="1799" xmlns:xlink="http://www.w3.org/1999/xlink" width="200" height="200"><path d="M205 867.2h636.5v31.9H205z" fill="#255BF2" p-id="1800"></path><path d="M841.5 969H205c-8.8 0-16-7.1-16-16V439c0-2.9 0.8-5.8 2.3-8.3 29.5-48.4 49.8-116.9 55.7-188.1 5.4-65.6-2.3-125.7-21.2-165-2.4-4.9-2.1-10.8 0.9-15.4s8-7.5 13.5-7.5h113.4c8.8 0 16 7.1 16 16v13c0 84.7 68.9 153.6 153.6 153.6s153.6-68.9 153.6-153.6v-13c0-8.8 7.1-16 16-16h113.4c5.5 0 10.6 2.8 13.5 7.5 2.9 4.6 3.2 10.5 0.9 15.4-18.9 39.3-26.7 99.4-21.2 165 5.9 71.2 26.2 139.7 55.7 188.1 1.5 2.5 2.3 5.4 2.3 8.3v514c0 8.8-7.1 16-15.9 16z m-620.6-31.9h604.6V443.4c-30.8-52.2-51.8-124.1-57.9-198.2-4.9-59.7 0.5-115.9 15-158.6h-73.9c-1.6 100.9-84.2 182.6-185.5 182.6S339.3 187.6 337.7 86.7h-73.9c14.5 42.7 19.9 98.9 15 158.6-6.1 74.1-27.2 146-57.9 198.2v493.6z" fill="#231815" p-id="1801"></path><path d="M523.2 174.3c-36.4 0-72.5-8.9-104.5-25.6-31-16.2-58.1-39.8-78.6-68.2-5.2-7.2-3.5-17.1 3.6-22.3 7.2-5.2 17.1-3.5 22.3 3.6 36.3 50.5 95.1 80.6 157.2 80.6 62.1 0 120.8-30.1 157.2-80.6 5.2-7.2 15.1-8.8 22.3-3.6 7.2 5.2 8.8 15.1 3.6 22.3-20.5 28.4-47.7 52-78.6 68.2-32 16.7-68.1 25.6-104.5 25.6z" fill="#231815" p-id="1802"></path></svg>