<?xml version="1.0" standalone="no"?><!DOCTYPE svg PUBLIC "-//W3C//DTD SVG 1.1//EN" "http://www.w3.org/Graphics/SVG/1.1/DTD/svg11.dtd"><svg t="1768035085226" class="icon" viewBox="0 0 1024 1024" version="1.1" xmlns="http://www.w3.org/2000/svg" p-id="1479" xmlns:xlink="http://www.w3.org/1999/xlink" width="200" height="200"><path d="M424.5 224.4c-6.5 0-11.8-5.3-11.8-11.8V68.9c0-6.5 5.3-11.8 11.8-11.8s11.8 5.3 11.8 11.8v143.7c0 6.5-5.3 11.8-11.8 11.8zM601.5 224.4c-6.5 0-11.8-5.3-11.8-11.8V68.9c0-6.5 5.3-11.8 11.8-11.8s11.8 5.3 11.8 11.8v143.7c0.1 6.5-5.2 11.8-11.8 11.8z" fill="#255BF2" p-id="1480"></path><path d="M276.7 386c-6.5 0-11.8-5.3-11.8-11.8s5.3-11.8 11.8-11.8c74.9 0 135.9-71.3 135.9-159 0-6.5 5.3-11.8 11.8-11.8s11.8 5.3 11.8 11.8c0 48.5-16.4 94.2-46.2 128.6-30 34.7-70.3 54-113.3 54zM513 955.7c-6.5 0-11.8-5.3-11.8-11.8V373.6c0-6.5 5.3-11.8 11.8-11.8 6.5 0 11.8 5.3 11.8 11.8v570.3c0 6.5-5.3 11.8-11.8 11.8z" fill="#231815" p-id="1481"></path><path d="M749.3 955.7H276.7c-6.5 0-11.8-5.3-11.8-11.8V374.2c0-2.8 1-5.6 2.9-7.7l147.8-171c2.3-2.6 5.5-4.1 9-4.1h177.1c6.5 0 11.8 5.3 11.8 11.8 0 86.4 59.1 156.9 132.5 159 1.1-0.3 2.2-0.5 3.4-0.5 6.5 0 11.8 5.2 11.8 11.7v570.5c-0.1 6.5-5.4 11.8-11.9 11.8zM288.6 932h448.9V385.5c-38.5-3.2-74.2-22-101.6-53.7-27.3-31.6-43.4-72.7-45.8-116.7H429.9L288.6 378.6V932z" fill="#231815" p-id="1482"></path><path d="M749.3 385.4c-3.4 0-6.7-1.4-9.1-4.2L596.5 210.9c-4.2-5-3.6-12.5 1.4-16.7 5-4.2 12.5-3.6 16.7 1.4l143.7 170.3c4.2 5 3.6 12.5-1.4 16.7-2.2 1.9-4.9 2.8-7.6 2.8z" fill="#231815" p-id="1483"></path></svg>