<?xml version="1.0" standalone="no"?><!DOCTYPE svg PUBLIC "-//W3C//DTD SVG 1.1//EN" "http://www.w3.org/Graphics/SVG/1.1/DTD/svg11.dtd"><svg t="1768035094387" class="icon" viewBox="0 0 1024 1024" version="1.1" xmlns="http://www.w3.org/2000/svg" p-id="1957" xmlns:xlink="http://www.w3.org/1999/xlink" width="200" height="200"><path d="M770.1 884.8H255.9c-7.1 0-12.9-5.8-12.9-12.9V382.5c0-7.1 5.8-12.9 12.9-12.9s12.9 5.8 12.9 12.9V859h488.4V381.7c0-7.1 5.8-12.9 12.9-12.9s12.9 5.8 12.9 12.9v490.2c0 7.1-5.8 12.9-12.9 12.9z" fill="#231815" p-id="1958"></path><path d="M770.1 504.9c-4.8 0-9.3-2.6-11.6-7.2-3.2-6.4-0.5-14.1 5.8-17.3L943.5 392 763.9 169.7H262.1L82.5 392l179.1 88.5c6.4 3.2 9 10.9 5.8 17.3s-10.9 9-17.3 5.8L56.7 408c-3.5-1.7-6-5-6.9-8.8-0.8-3.8 0.1-7.8 2.6-10.9l193.5-239.6c2.4-3 6.1-4.8 10-4.8h514.2c3.9 0 7.6 1.8 10 4.8l193.5 239.6c2.5 3 3.4 7 2.6 10.9s-3.4 7.1-6.9 8.8l-193.5 95.6c-1.8 0.9-3.8 1.3-5.7 1.3z" fill="#231815" p-id="1959"></path><path d="M398.5 326.9c-5.5 0-10.6-3.6-12.3-9l-49.6-157.2c-1.2-3.9-0.5-8.2 1.9-11.5s6.3-5.3 10.4-5.3h49.6c3.7 0 7.3 1.6 9.7 4.5l114.5 132.2c3 3.4 3.9 8.2 2.5 12.5-1.4 4.3-5 7.6-9.5 8.5l-114.5 25c-0.8 0.2-1.8 0.3-2.7 0.3z m-31.9-157.2l40.7 129.2 81.7-17.8-96.4-111.3h-26z" fill="#231815" p-id="1960"></path><path d="M627.5 326.9c-0.9 0-1.8-0.1-2.8-0.3l-114.5-25c-4.4-1-8-4.2-9.5-8.5-1.4-4.3-0.5-9.1 2.5-12.5l114.5-132.2c2.4-2.8 6-4.5 9.7-4.5H677c4.1 0 8 2 10.4 5.3s3.1 7.6 1.9 11.5l-49.6 157.2c-1.7 5.4-6.7 9-12.2 9zM537 281.1l81.7 17.8 40.7-129.2h-26.1L537 281.1z" fill="#231815" p-id="1961"></path><path d="M513 362.4m-25.8 0a25.8 25.8 0 1 0 51.6 0 25.8 25.8 0 1 0-51.6 0Z" fill="#231815" p-id="1962"></path><path d="M513 449.1m-25.8 0a25.8 25.8 0 1 0 51.6 0 25.8 25.8 0 1 0-51.6 0Z" fill="#231815" p-id="1963"></path><path d="M513 535.8m-25.8 0a25.8 25.8 0 1 0 51.6 0 25.8 25.8 0 1 0-51.6 0Z" fill="#231815" p-id="1964"></path><path d="M513 622.5m-25.8 0a25.8 25.8 0 1 0 51.6 0 25.8 25.8 0 1 0-51.6 0Z" fill="#231815" p-id="1965"></path><path d="M513 709.2m-25.8 0a25.8 25.8 0 1 0 51.6 0 25.8 25.8 0 1 0-51.6 0Z" fill="#231815" p-id="1966"></path><path d="M513 795.9m-25.8 0a25.8 25.8 0 1 0 51.6 0 25.8 25.8 0 1 0-51.6 0Z" fill="#231815" p-id="1967"></path><path d="M704.9 417.1H595c-7.1 0-12.9-5.8-12.9-12.9s5.8-12.9 12.9-12.9h109.8c7.1 0 12.9 5.8 12.9 12.9s-5.7 12.9-12.8 12.9zM431 417.1H321.1c-7.1 0-12.9-5.8-12.9-12.9s5.8-12.9 12.9-12.9H431c7.1 0 12.9 5.8 12.9 12.9s-5.8 12.9-12.9 12.9z" fill="#255BF2" p-id="1968"></path></svg>