<?xml version="1.0" standalone="no"?><!DOCTYPE svg PUBLIC "-//W3C//DTD SVG 1.1//EN" "http://www.w3.org/Graphics/SVG/1.1/DTD/svg11.dtd"><svg t="1768035147357" class="icon" viewBox="0 0 1024 1024" version="1.1" xmlns="http://www.w3.org/2000/svg" p-id="5126" xmlns:xlink="http://www.w3.org/1999/xlink" width="200" height="200"><path d="M494.6 565.2c-4 0-7.9-1.5-10.9-4.5-6.1-6-6.2-15.9-0.1-22 19.6-19.9 30.4-46.2 30.4-74.1 0-58.2-47.3-105.5-105.5-105.5-8.6 0-15.6-7-15.6-15.6s7-15.6 15.6-15.6c75.3 0 136.6 61.3 136.6 136.6 0 36.2-14 70.3-39.4 96-3.1 3.1-7.1 4.7-11.1 4.7zM226.6 585.1c-5.4 0-10.6-2.8-13.5-7.8-4.3-7.5-1.7-17 5.7-21.3 32.7-18.8 53-53.9 53-91.5 0-58.2-47.3-105.5-105.5-105.5-8.6 0-15.6-7-15.6-15.6s7-15.6 15.6-15.6c75.3 0 136.6 61.3 136.6 136.6 0 48.8-26.3 94.2-68.6 118.5-2.4 1.5-5 2.2-7.7 2.2z" fill="#255BF2" p-id="5127"></path><path d="M500.6 938.5c-48.7 0-94.1-26.2-118.4-68.3L155.8 478c-3.1-2.8-5-6.9-5-11.4v-297c0-8.6 7-15.6 15.6-15.6h242.1c8.6 0 15.6 7 15.6 15.6v226.5l194.8 337.4c37.7 65.2 15.2 149-50 186.7-20.8 12-44.4 18.3-68.3 18.3zM181.9 461l227.3 393.6c18.8 32.6 53.8 52.8 91.5 52.8 18.4 0 36.6-4.9 52.6-14.2 50.4-29.1 67.7-93.7 38.6-144.1L395 408c-1.4-2.4-2.1-5.1-2.1-7.8V185.1h-211V461z" fill="#231815" p-id="5128"></path><path d="M408.5 185.7c-8.6 0-15.6-7-15.6-15.6v-57.3h-211v57.3c0 8.6-7 15.6-15.6 15.6s-15.6-7-15.6-15.6V97.3c0-8.6 7-15.6 15.6-15.6h242.1c8.6 0 15.6 7 15.6 15.6v72.8c0 8.6-6.9 15.6-15.5 15.6z" fill="#231815" p-id="5129"></path><path d="M742.9 938.5c-11.9 0-23.8-1.6-35.6-4.7-35.3-9.4-64.7-32.1-83-63.7L605 836.7c-4.3-7.4-1.7-17 5.7-21.3 7.4-4.3 17-1.7 21.3 5.7l19.3 33.5c14.1 24.4 36.8 41.9 64.1 49.2 27.2 7.3 55.7 3.6 80.1-10.5 50.4-29.1 67.7-93.7 38.6-144.1L637.1 408c-1.4-2.4-2.1-5.1-2.1-7.8V185.1H424v216.4c0 8.6-7 15.6-15.6 15.6s-15.6-7-15.6-15.6V169.6c0-8.6 7-15.6 15.6-15.6h242.1c8.6 0 15.6 7 15.6 15.6v226.5L861 733.5c37.7 65.2 15.2 149-50 186.7-21.1 12.1-44.4 18.3-68.1 18.3z" fill="#231815" p-id="5130"></path><path d="M650.6 185.1c-8.6 0-15.6-7-15.6-15.6v-56.7H408.5c-8.6 0-15.6-7-15.6-15.6s7-15.6 15.6-15.6h242.1c8.6 0 15.6 7 15.6 15.6v72.3c0 8.7-7 15.6-15.6 15.6z" fill="#231815" p-id="5131"></path></svg>