<?xml version="1.0" standalone="no"?><!DOCTYPE svg PUBLIC "-//W3C//DTD SVG 1.1//EN" "http://www.w3.org/Graphics/SVG/1.1/DTD/svg11.dtd"><svg t="1768035120036" class="icon" viewBox="0 0 1024 1024" version="1.1" xmlns="http://www.w3.org/2000/svg" p-id="3549" xmlns:xlink="http://www.w3.org/1999/xlink" width="200" height="200"><path d="M285 503.6c-3.9 0-7.9-1.5-10.9-4.5-6.1-6-6.2-15.8-0.1-21.9l226.3-229.3c6-6.1 15.8-6.2 21.9-0.1 6.1 6 6.2 15.8 0.1 21.9L296 499c-3 3.1-7 4.6-11 4.6z" fill="#255BF2" p-id="3550"></path><path d="M727.8 503.6c-4 0-8-1.5-11-4.6L490.5 269.7c-6-6.1-5.9-15.9 0.1-21.9 6.1-6 15.9-5.9 21.9 0.1l226.3 229.3c6 6.1 5.9 15.9-0.1 21.9-3 3-6.9 4.5-10.9 4.5z" fill="#255BF2" p-id="3551"></path><path d="M659.7 844.1c-6.8 0-13.1-4.6-15-11.5-2.2-8.3 2.7-16.8 11-19l284.4-76.2-144.4-538.8c-2.2-8.3 2.7-16.8 11-19 8.3-2.2 16.8 2.7 19 11L974 744.4c1.1 4 0.5 8.2-1.5 11.8-2.1 3.6-5.4 6.2-9.4 7.2l-299.3 80.2c-1.4 0.3-2.8 0.5-4.1 0.5zM363 844.1c-1.3 0-2.7-0.2-4-0.5L59.6 763.3c-4-1.1-7.4-3.7-9.4-7.2-2.1-3.6-2.6-7.8-1.5-11.8L197 190.6c2.2-8.3 10.7-13.2 19-11 8.3 2.2 13.2 10.7 11 19L82.6 737.4 367 813.6c8.3 2.2 13.2 10.7 11 19-1.9 6.9-8.2 11.5-15 11.5z" fill="#231815" p-id="3552"></path><path d="M810.7 210.1H212c-8.6 0-15.5-6.9-15.5-15.5s6.9-15.5 15.5-15.5h598.7c8.6 0 15.5 6.9 15.5 15.5s-7 15.5-15.5 15.5zM659.7 844.1c-5.2 0-10.3-2.6-13.2-7.4L511.3 615.9 376.2 836.7c-4.5 7.3-14 9.6-21.3 5.1-7.3-4.5-9.6-14-5.1-21.3l148.4-242.3c2.8-4.6 7.8-7.4 13.2-7.4s10.4 2.8 13.2 7.4L673 820.5c4.5 7.3 2.2 16.8-5.1 21.3-2.6 1.5-5.4 2.3-8.2 2.3zM827.9 274.3H194.8c-8.6 0-15.5-6.9-15.5-15.5s6.9-15.5 15.5-15.5h633.1c8.6 0 15.5 6.9 15.5 15.5s-7 15.5-15.5 15.5z" fill="#231815" p-id="3553"></path></svg>