<?xml version="1.0" standalone="no"?><!DOCTYPE svg PUBLIC "-//W3C//DTD SVG 1.1//EN" "http://www.w3.org/Graphics/SVG/1.1/DTD/svg11.dtd"><svg t="1768035163027" class="icon" viewBox="0 0 1024 1024" version="1.1" xmlns="http://www.w3.org/2000/svg" p-id="6082" xmlns:xlink="http://www.w3.org/1999/xlink" width="200" height="200"><path d="M768.7 879.9H255.3c-7.1 0-12.9-5.8-12.9-12.9V323.4c0-7.1 5.8-12.9 12.9-12.9s12.9 5.8 12.9 12.9v530.7h487.6V322.8c0-7.1 5.8-12.9 12.9-12.9s12.9 5.8 12.9 12.9V867c-0.1 7.1-5.8 12.9-12.9 12.9z" fill="#231815" p-id="6083"></path><path d="M768.7 804.8c-4.7 0-9.3-2.6-11.5-7.2-3.1-6.4-0.5-14.1 5.8-17.2L946 690 759.6 166.1H264.4L78.1 690l183 90.4c6.4 3.1 9 10.9 5.8 17.2-3.1 6.4-10.9 9-17.2 5.8L56.4 708c-5.9-2.9-8.6-9.7-6.4-15.9l193.2-543.3c1.8-5.1 6.7-8.6 12.1-8.6h513.3c5.4 0 10.3 3.4 12.1 8.6L974 692.1c2.2 6.1-0.6 13-6.4 15.9l-193.2 95.5c-1.9 0.9-3.8 1.3-5.7 1.3z" fill="#231815" p-id="6084"></path><path d="M512 648.7c-1 0-2.1-0.1-3.1-0.4-5.7-1.4-9.7-6.6-9.7-12.5l-0.5-187.8c0-1.6 0.3-3.2 0.9-4.7l114.2-294.8c1.9-5 6.7-8.2 12-8.2h0.1c5.4 0.1 10.1 3.4 12 8.5l45.5 125.5c2 5.6 0 11.8-4.9 15.1l-54.8 36.8 39.2 34.6c4.5 4 5.7 10.5 2.8 15.7L523.3 641.9c-2.2 4.3-6.6 6.8-11.3 6.8z m12.5-198.3l0.3 134.4 113.4-211.5-44.1-38.8c-3-2.6-4.6-6.5-4.3-10.5 0.3-4 2.4-7.6 5.7-9.8l60.3-40.5-30.4-83.8-100.9 260.5z" fill="#231815" p-id="6085"></path><path d="M512 648.7c-4.7 0-9.1-2.5-11.3-6.8L358.3 376.5c-2.8-5.3-1.7-11.8 2.8-15.7l39.2-34.6-54.8-36.8c-4.9-3.3-6.9-9.5-4.9-15.1l45.5-125.5c1.8-5 6.6-8.4 12-8.5h0.1c5.3 0 10.1 3.3 12 8.2l114.2 294.8c0.6 1.5 0.9 3.1 0.9 4.7l-0.4 187.9c0 5.9-4 11-9.7 12.5-1.1 0.2-2.2 0.3-3.2 0.3zM385.8 373.3l113.4 211.5 0.3-134.4-100.8-260.5-30.4 83.8 60.3 40.5c3.3 2.2 5.4 5.9 5.7 9.8s-1.3 7.9-4.3 10.5l-44.2 38.8z" fill="#231815" p-id="6086"></path><path d="M511.6 709.9m-25.7 0a25.7 25.7 0 1 0 51.4 0 25.7 25.7 0 1 0-51.4 0Z" fill="#255BF2" p-id="6087"></path><path d="M511.6 790.9m-25.7 0a25.7 25.7 0 1 0 51.4 0 25.7 25.7 0 1 0-51.4 0Z" fill="#255BF2" p-id="6088"></path></svg>