<?xml version="1.0" standalone="no"?><!DOCTYPE svg PUBLIC "-//W3C//DTD SVG 1.1//EN" "http://www.w3.org/Graphics/SVG/1.1/DTD/svg11.dtd"><svg t="1768035160011" class="icon" viewBox="0 0 1024 1024" version="1.1" xmlns="http://www.w3.org/2000/svg" p-id="5926" xmlns:xlink="http://www.w3.org/1999/xlink" width="200" height="200"><path d="M746.6 266.7c-3.9 0-7.8-1.9-10.1-5.4l-84-127.7c-3.7-5.6-2.1-13 3.4-16.7 5.6-3.7 13-2.1 16.7 3.4l84 127.7c3.7 5.6 2.1 13-3.4 16.7-2 1.4-4.3 2-6.6 2zM276 266.7c-2.3 0-4.6-0.6-6.6-2-5.6-3.7-7.1-11.1-3.4-16.7l84-127.7c3.7-5.6 11.1-7.1 16.7-3.4 5.6 3.7 7.1 11.1 3.4 16.7l-84 127.7c-2.3 3.5-6.1 5.4-10.1 5.4z" fill="#255BF2" p-id="5927"></path><path d="M751.7 968.4H270.9c-6.7 0-12.1-5.4-12.1-12.1V64.5c0-6.7 5.4-12.1 12.1-12.1S283 57.9 283 64.5v879.8h456.7V63.9c0-6.7 5.4-12.1 12.1-12.1s12.1 5.4 12.1 12.1v892.5c-0.1 6.6-5.5 12-12.2 12z" fill="#231815" p-id="5928"></path><path d="M511.3 968.4c-6.7 0-12.1-5.4-12.1-12.1V318.5c0-6.7 5.4-12.1 12.1-12.1s12.1 5.4 12.1 12.1v637.9c0 6.6-5.4 12-12.1 12zM751.7 131.9H270.9c-6.7 0-12.1-5.4-12.1-12.1v-56c0-6.7 5.4-12.1 12.1-12.1h480.8c6.7 0 12.1 5.4 12.1 12.1v56c0 6.7-5.4 12.1-12.1 12.1zM283 107.8h456.7V75.9H283v31.9z" fill="#231815" p-id="5929"></path></svg>