<?xml version="1.0" standalone="no"?><!DOCTYPE svg PUBLIC "-//W3C//DTD SVG 1.1//EN" "http://www.w3.org/Graphics/SVG/1.1/DTD/svg11.dtd"><svg t="1768035130934" class="icon" viewBox="0 0 1024 1024" version="1.1" xmlns="http://www.w3.org/2000/svg" p-id="4177" xmlns:xlink="http://www.w3.org/1999/xlink" width="200" height="200"><path d="M523.2 218.8m-22.2 0a22.2 22.2 0 1 0 44.4 0 22.2 22.2 0 1 0-44.4 0Z" fill="#255BF2" p-id="4178"></path><path d="M523.2 293.2m-22.2 0a22.2 22.2 0 1 0 44.4 0 22.2 22.2 0 1 0-44.4 0Z" fill="#255BF2" p-id="4179"></path><path d="M523.2 367.5m-22.2 0a22.2 22.2 0 1 0 44.4 0 22.2 22.2 0 1 0-44.4 0Z" fill="#255BF2" p-id="4180"></path><path d="M523.2 441.9m-22.2 0a22.2 22.2 0 1 0 44.4 0 22.2 22.2 0 1 0-44.4 0Z" fill="#255BF2" p-id="4181"></path><path d="M706.9 540.2c-4.1 0-8-2.3-10-6.2-2.7-5.5-0.5-12.2 5-14.9l129.4-64L699.1 83H347.3L215 455.2l129.4 64c5.5 2.7 7.8 9.4 5 14.9-2.7 5.5-9.4 7.8-14.9 5l-138.3-68.3c-5-2.5-7.4-8.4-5.5-13.7L329 68.2c1.6-4.4 5.8-7.4 10.5-7.4h367.4c4.7 0 8.9 3 10.5 7.4l138.3 388.9c1.9 5.3-0.5 11.2-5.5 13.7l-138.3 68.3c-1.7 0.7-3.3 1.1-5 1.1z" fill="#231815" p-id="4182"></path><path d="M523.2 164.7c-1.9 0-3.8-0.5-5.5-1.4l-144-81.6c-5.3-3-7.2-9.8-4.2-15.1 3-5.3 9.8-7.2 15.1-4.2l138.5 78.5 138.5-78.5c5.3-3 12.1-1.2 15.1 4.2 3 5.3 1.2 12.1-4.2 15.1l-144 81.6c-1.5 0.9-3.4 1.4-5.3 1.4zM706.9 973.5H339.5c-6.1 0-11.1-5-11.1-11.1V265c0-6.1 5-11.1 11.1-11.1s11.1 5 11.1 11.1v686.3h345.2V264.4c0-6.1 5-11.1 11.1-11.1s11.1 5 11.1 11.1v698c0 6.1-5 11.1-11.1 11.1z" fill="#231815" p-id="4183"></path><path d="M523.2 973.5c-6.1 0-11.1-5-11.1-11.1V529.1c0-6.1 5-11.1 11.1-11.1s11.1 5 11.1 11.1v433.3c0 6.1-5 11.1-11.1 11.1z" fill="#231815" p-id="4184"></path></svg>