<?xml version="1.0" standalone="no"?><!DOCTYPE svg PUBLIC "-//W3C//DTD SVG 1.1//EN" "http://www.w3.org/Graphics/SVG/1.1/DTD/svg11.dtd"><svg t="1768035122689" class="icon" viewBox="0 0 1024 1024" version="1.1" xmlns="http://www.w3.org/2000/svg" p-id="3706" xmlns:xlink="http://www.w3.org/1999/xlink" width="200" height="200"><path d="M754.1 132.3H270.5c-6.7 0-12.1-5.4-12.1-12.1s5.4-12.1 12.1-12.1h483.6c6.7 0 12.1 5.4 12.1 12.1s-5.4 12.1-12.1 12.1z" fill="#255BF2" p-id="3707"></path><path d="M815.1 973.6H209.4c-3.4 0-6.6-1.4-8.9-3.8-2.3-2.5-3.5-5.8-3.2-9.1l61-897c0.5-6.7 6.2-11.7 12.9-11.3 6.7 0.5 11.7 6.2 11.3 12.9l-60.1 884.1h579.7L742 64.7c-0.5-6.7 4.6-12.5 11.3-12.9 6.7-0.4 12.5 4.6 12.9 11.3l61.1 897.6c0.2 3.4-0.9 6.6-3.2 9.1-2.4 2.4-5.6 3.8-9 3.8z" fill="#231815" p-id="3708"></path><path d="M512.3 973.6c-6.7 0-12.1-5.4-12.1-12.1V320c0-6.7 5.4-12.1 12.1-12.1s12.1 5.4 12.1 12.1v641.5c0 6.7-5.4 12.1-12.1 12.1zM754.1 76H270.5c-6.7 0-12.1-5.4-12.1-12.1s5.4-12.1 12.1-12.1h483.6c6.7 0 12.1 5.4 12.1 12.1S760.8 76 754.1 76z" fill="#231815" p-id="3709"></path></svg>