<?xml version="1.0" standalone="no"?><!DOCTYPE svg PUBLIC "-//W3C//DTD SVG 1.1//EN" "http://www.w3.org/Graphics/SVG/1.1/DTD/svg11.dtd"><svg t="1768035101402" class="icon" viewBox="0 0 1024 1024" version="1.1" xmlns="http://www.w3.org/2000/svg" p-id="2439" xmlns:xlink="http://www.w3.org/1999/xlink" width="200" height="200"><path d="M758.1 588H264.6c-6.8 0-12.4-5.5-12.4-12.4s5.5-12.4 12.4-12.4h493.5c6.8 0 12.4 5.5 12.4 12.4s-5.6 12.4-12.4 12.4zM758.1 722.2H264.6c-6.8 0-12.4-5.5-12.4-12.4s5.5-12.4 12.4-12.4h493.5c6.8 0 12.4 5.5 12.4 12.4s-5.6 12.4-12.4 12.4z" fill="#255BF2" p-id="2440"></path><path d="M264.6 722.2c-1.8 0-3.7-0.4-5.5-1.3l-145.2-71.8c-6.1-3-8.6-10.5-5.6-16.6s10.4-8.6 16.6-5.6L270 698.7c6.1 3 8.6 10.5 5.6 16.6-2.1 4.3-6.5 6.9-11 6.9zM758.1 722.2c-4.6 0-8.9-2.5-11.1-6.9-3-6.1-0.5-13.5 5.6-16.6L897.8 627c6.1-3 13.5-0.5 16.6 5.6 3 6.1 0.5 13.5-5.6 16.6l-145.2 71.7c-1.8 0.9-3.6 1.3-5.5 1.3zM264.6 588c-1.8 0-3.7-0.4-5.5-1.3L154.4 535c-6.1-3-8.6-10.5-5.6-16.6 3-6.1 10.5-8.6 16.6-5.6L270 564.5c6.1 3 8.6 10.5 5.6 16.6-2.1 4.4-6.5 6.9-11 6.9zM758.1 588c-4.6 0-8.9-2.5-11.1-6.9-3-6.1-0.5-13.5 5.6-16.6l104.6-51.7c6.1-3 13.6-0.5 16.6 5.6 3 6.1 0.5 13.5-5.6 16.6l-104.6 51.7c-1.8 0.9-3.6 1.3-5.5 1.3z" fill="#255BF2" p-id="2441"></path><path d="M511.3 928.6c-6.8 0-12.4-5.5-12.4-12.4V104c0-6.8 5.5-12.4 12.4-12.4s12.4 5.5 12.4 12.4v812.2c0 6.8-5.5 12.4-12.4 12.4z" fill="#231815" p-id="2442"></path><path d="M758.1 928.6H264.6c-6.8 0-12.4-5.5-12.4-12.4V393.5c0-6.8 5.5-12.4 12.4-12.4s12.4 5.5 12.4 12.4v510.3h468.8V392.9c0-6.8 5.5-12.4 12.4-12.4s12.4 5.5 12.4 12.4v523.3c-0.1 6.8-5.7 12.4-12.5 12.4z" fill="#231815" p-id="2443"></path><path d="M264.6 856.4c-1.8 0-3.7-0.4-5.5-1.3L73.3 763.3c-5.6-2.8-8.3-9.3-6.2-15.2l185.8-522.4c1.8-4.9 6.4-8.2 11.7-8.2h493.5c6.8 0 12.4 5.5 12.4 12.4s-5.5 12.4-12.4 12.4H273.3L94.1 746 270 832.9c6.1 3 8.6 10.5 5.6 16.6-2.1 4.3-6.5 6.9-11 6.9z" fill="#231815" p-id="2444"></path><path d="M758.1 856.4c-4.6 0-8.9-2.5-11.1-6.9-3-6.1-0.5-13.5 5.6-16.6L928.5 746 746.4 234c-2.3-6.4 1.1-13.5 7.5-15.8 6.4-2.3 13.5 1.1 15.8 7.5l185.8 522.4c2.1 5.9-0.6 12.5-6.2 15.2l-185.8 91.8c-1.7 0.9-3.5 1.3-5.4 1.3zM683.7 242.2H340.2c-6.8 0-12.4-5.5-12.4-12.4V104c0-6.8 5.5-12.4 12.4-12.4h343.5c6.8 0 12.4 5.5 12.4 12.4v125.8c0 6.9-5.6 12.4-12.4 12.4z m-331.2-24.7h318.8V116.4H352.5v101.1z" fill="#231815" p-id="2445"></path></svg>