<?xml version="1.0" standalone="no"?><!DOCTYPE svg PUBLIC "-//W3C//DTD SVG 1.1//EN" "http://www.w3.org/Graphics/SVG/1.1/DTD/svg11.dtd"><svg t="1768035127776" class="icon" viewBox="0 0 1024 1024" version="1.1" xmlns="http://www.w3.org/2000/svg" p-id="4021" xmlns:xlink="http://www.w3.org/1999/xlink" width="200" height="200"><path d="M423.6 419.7c-3.6 0-7.2-1.5-9.7-4.4-4.7-5.4-4.2-13.6 1.1-18.3l145.7-128.6c5.4-4.7 13.6-4.2 18.3 1.1 4.7 5.4 4.2 13.6-1.1 18.3L432.2 416.5c-2.5 2.1-5.6 3.2-8.6 3.2zM391.6 584.3c-3.6 0-7.2-1.5-9.7-4.4-4.7-5.4-4.2-13.6 1.1-18.3l201.4-177.8c5.4-4.7 13.6-4.2 18.3 1.1 4.7 5.4 4.2 13.6-1.1 18.3L400.2 581c-2.5 2.2-5.6 3.3-8.6 3.3z" fill="#255BF2" p-id="4022"></path><path d="M553.2 209.7h-88.7c-5.2 0-9.8-3-11.9-7.8L396.3 73.6c-1.8-4-1.4-8.6 1-12.3 2.4-3.7 6.5-5.9 10.9-5.9h201.3c4.4 0 8.5 2.2 10.9 5.9 2.4 3.7 2.8 8.3 1 12.3l-56.3 128.3c-2.1 4.7-6.7 7.8-11.9 7.8z m-80.2-26h71.8l44.9-102.3H428.1L473 183.7z" fill="#231815" p-id="4023"></path><path d="M508.7 973.7c-3.6 0-7-1.5-9.5-4.1l-163-173.5c-1.1-0.7-2.1-1.6-2.9-2.6-2.5-3-3.4-7-2.7-10.8l121.2-588.6c1.2-6 6.6-10.4 12.7-10.4h88c6.2 0 11.5 4.3 12.7 10.4l121.2 588.6c0.9 4.1-0.4 8.4-3.3 11.5L518.2 969.6c-2.5 2.6-5.9 4.1-9.5 4.1zM357.5 780.9l151.3 160.9 150.9-160.5-117.8-571.6h-66.8L357.5 780.9z" fill="#231815" p-id="4024"></path></svg>