<?xml version="1.0" standalone="no"?><!DOCTYPE svg PUBLIC "-//W3C//DTD SVG 1.1//EN" "http://www.w3.org/Graphics/SVG/1.1/DTD/svg11.dtd"><svg t="1768035133719" class="icon" viewBox="0 0 1024 1024" version="1.1" xmlns="http://www.w3.org/2000/svg" p-id="4337" xmlns:xlink="http://www.w3.org/1999/xlink" width="200" height="200"><path d="M818.6 954H205.1c-8.5 0-15.4-6.9-15.4-15.4V443.2c0-2.8 0.8-5.6 2.3-8 28.5-46.6 48-112.7 53.7-181.3 5.2-63.2-2.2-121.2-20.5-159-2.3-4.8-2-10.4 0.8-14.9s7.7-7.2 13-7.2h136.2c8.5 0 15.4 6.9 15.4 15.4s-6.9 15.4-15.4 15.4H261.9c14 41.2 19.2 95.3 14.5 152.9-5.9 71.4-26.2 140.7-55.8 191v475.8h582.7V447.4c-29.6-50.3-49.9-119.6-55.8-191-4.8-57.5 0.5-111.7 14.5-152.9H648.4c-8.5 0-15.4-6.9-15.4-15.4s6.9-15.4 15.4-15.4h136.2c5.3 0 10.2 2.7 13 7.2 2.8 4.5 3.1 10.1 0.8 14.9-18.2 37.9-25.7 95.8-20.5 159 5.7 68.6 25.2 134.7 53.7 181.3 1.5 2.4 2.3 5.2 2.3 8v495.4c0.1 8.6-6.8 15.5-15.3 15.5z" fill="#231815" p-id="4338"></path><path d="M511.9 544.1m-30.8 0a30.8 30.8 0 1 0 61.6 0 30.8 30.8 0 1 0-61.6 0Z" fill="#231815" p-id="4339"></path><path d="M511.9 647.1m-30.8 0a30.8 30.8 0 1 0 61.6 0 30.8 30.8 0 1 0-61.6 0Z" fill="#231815" p-id="4340"></path><path d="M511.9 750.1m-30.8 0a30.8 30.8 0 1 0 61.6 0 30.8 30.8 0 1 0-61.6 0Z" fill="#231815" p-id="4341"></path><path d="M511.9 853.1m-30.8 0a30.8 30.8 0 1 0 61.6 0 30.8 30.8 0 1 0-61.6 0Z" fill="#231815" p-id="4342"></path><path d="M511.9 457.8c-6.4 0-12.1-3.9-14.4-9.8L361 93.7c-1.8-4.7-1.2-10.1 1.7-14.2 2.9-4.2 7.6-6.7 12.7-6.7h273.1c5.1 0 9.8 2.5 12.7 6.7 2.9 4.2 3.5 9.5 1.7 14.2L526.2 447.9c-2.3 6-8 9.9-14.3 9.9zM397.7 103.6l114.1 296.1L626 103.6H397.7z" fill="#231815" p-id="4343"></path><path d="M728.1 403H597c-8.5 0-15.4-6.9-15.4-15.4s6.9-15.4 15.4-15.4h131.1c8.5 0 15.4 6.9 15.4 15.4s-6.9 15.4-15.4 15.4z" fill="#255BF2" p-id="4344"></path></svg>